<svg width="335" height="55" viewBox="0 0 335 55" fill="none" xmlns="http://www.w3.org/2000/svg">
<rect x="-0.5" y="0.5" width="334" height="54" rx="27" transform="matrix(-1 -8.74228e-08 -8.74228e-08 1 334 -4.37114e-08)" stroke="#E4E4E4"/>
<path d="M64.745 21.77H66.032L67.514 31H65.98L65.616 28.491H62.301L60.884 31H59.35L64.745 21.77ZM65.564 27.412L65.044 23.447L62.782 27.412H65.564ZM70.8789 31.13C70.3762 31.13 69.9429 31.0043 69.5789 30.753C69.2149 30.5017 68.9375 30.1637 68.7469 29.739C68.5562 29.3143 68.4609 28.842 68.4609 28.322C68.4609 27.7673 68.5605 27.2387 68.7599 26.736C68.9592 26.2247 69.2322 25.774 69.5789 25.384C69.9342 24.9853 70.3372 24.669 70.7879 24.435C71.2385 24.201 71.7109 24.084 72.2049 24.084C72.6989 24.084 73.1149 24.2183 73.4529 24.487C73.7909 24.7557 74.0249 25.0893 74.1549 25.488L74.9999 21.51H76.4429L74.7789 29.31C74.7702 29.3533 74.7615 29.3923 74.7529 29.427C74.7529 29.453 74.7529 29.479 74.7529 29.505C74.7529 29.6783 74.8525 29.7693 75.0519 29.778L74.7919 31C74.6705 31.0173 74.5622 31.0303 74.4669 31.039C74.3715 31.0563 74.2849 31.065 74.2069 31.065C73.9382 31.065 73.7259 31.0087 73.5699 30.896C73.4225 30.7747 73.3489 30.61 73.3489 30.402C73.3489 30.3587 73.3532 30.311 73.3619 30.259C73.3705 30.1983 73.3792 30.129 73.3879 30.051C73.4052 29.9643 73.4269 29.869 73.4529 29.765C73.1149 30.1983 72.7119 30.5363 72.2439 30.779C71.7845 31.013 71.3295 31.13 70.8789 31.13ZM71.5029 29.908C71.6762 29.908 71.8582 29.8733 72.0489 29.804C72.2482 29.7347 72.4389 29.6393 72.6209 29.518C72.8115 29.3967 72.9849 29.2537 73.1409 29.089C73.2969 28.9243 73.4225 28.7467 73.5179 28.556L73.8819 26.775C73.8472 26.4977 73.7562 26.2507 73.6089 26.034C73.4615 25.8087 73.2795 25.631 73.0629 25.501C72.8549 25.371 72.6295 25.306 72.3869 25.306C72.0575 25.306 71.7455 25.3883 71.4509 25.553C71.1649 25.709 70.9092 25.9213 70.6839 26.19C70.4672 26.4587 70.2939 26.7577 70.1639 27.087C70.0339 27.4163 69.9689 27.75 69.9689 28.088C69.9689 28.4347 70.0295 28.7423 70.1509 29.011C70.2809 29.2797 70.4585 29.4963 70.6839 29.661C70.9179 29.8257 71.1909 29.908 71.5029 29.908ZM78.8642 31.13C78.3616 31.13 77.9282 31.0043 77.5642 30.753C77.2002 30.5017 76.9229 30.1637 76.7322 29.739C76.5416 29.3143 76.4462 28.842 76.4462 28.322C76.4462 27.7673 76.5459 27.2387 76.7452 26.736C76.9446 26.2247 77.2176 25.774 77.5642 25.384C77.9196 24.9853 78.3226 24.669 78.7732 24.435C79.2239 24.201 79.6962 24.084 80.1902 24.084C80.6842 24.084 81.1002 24.2183 81.4382 24.487C81.7762 24.7557 82.0102 25.0893 82.1402 25.488L82.9852 21.51H84.4282L82.7642 29.31C82.7556 29.3533 82.7469 29.3923 82.7382 29.427C82.7382 29.453 82.7382 29.479 82.7382 29.505C82.7382 29.6783 82.8379 29.7693 83.0372 29.778L82.7772 31C82.6559 31.0173 82.5476 31.0303 82.4522 31.039C82.3569 31.0563 82.2702 31.065 82.1922 31.065C81.9236 31.065 81.7112 31.0087 81.5552 30.896C81.4079 30.7747 81.3342 30.61 81.3342 30.402C81.3342 30.3587 81.3386 30.311 81.3472 30.259C81.3559 30.1983 81.3646 30.129 81.3732 30.051C81.3906 29.9643 81.4122 29.869 81.4382 29.765C81.1002 30.1983 80.6972 30.5363 80.2292 30.779C79.7699 31.013 79.3149 31.13 78.8642 31.13ZM79.4882 29.908C79.6616 29.908 79.8436 29.8733 80.0342 29.804C80.2336 29.7347 80.4242 29.6393 80.6062 29.518C80.7969 29.3967 80.9702 29.2537 81.1262 29.089C81.2822 28.9243 81.4079 28.7467 81.5032 28.556L81.8672 26.775C81.8326 26.4977 81.7416 26.2507 81.5942 26.034C81.4469 25.8087 81.2649 25.631 81.0482 25.501C80.8402 25.371 80.6149 25.306 80.3722 25.306C80.0429 25.306 79.7309 25.3883 79.4362 25.553C79.1502 25.709 78.8946 25.9213 78.6692 26.19C78.4526 26.4587 78.2792 26.7577 78.1492 27.087C78.0192 27.4163 77.9542 27.75 77.9542 28.088C77.9542 28.4347 78.0149 28.7423 78.1362 29.011C78.2662 29.2797 78.4439 29.4963 78.6692 29.661C78.9032 29.8257 79.1762 29.908 79.4882 29.908ZM88.789 24.201H90.076L89.79 25.566C90.0153 25.2627 90.284 25.0027 90.596 24.786C90.908 24.5607 91.246 24.3873 91.61 24.266C91.974 24.1447 92.3423 24.084 92.715 24.084C93.0963 24.084 93.3953 24.1533 93.612 24.292C93.8287 24.4307 93.9847 24.6213 94.08 24.864C94.1753 25.098 94.223 25.3667 94.223 25.67C94.223 25.852 94.2057 26.0427 94.171 26.242C94.145 26.4413 94.1103 26.645 94.067 26.853L93.196 31H91.766L92.572 27.191C92.6067 27.0263 92.6327 26.879 92.65 26.749C92.6673 26.6103 92.676 26.4803 92.676 26.359C92.676 26.0123 92.6023 25.761 92.455 25.605C92.3163 25.4403 92.1127 25.358 91.844 25.358C91.5927 25.358 91.324 25.4273 91.038 25.566C90.7607 25.7047 90.4963 25.8953 90.245 26.138C89.9937 26.372 89.79 26.645 89.634 26.957L88.763 31H87.333L88.789 24.201ZM97.7749 31.13C97.2029 31.13 96.7132 31.0043 96.3059 30.753C95.8985 30.5017 95.5865 30.1593 95.3699 29.726C95.1619 29.2927 95.0579 28.803 95.0579 28.257C95.0579 27.6937 95.1619 27.165 95.3699 26.671C95.5779 26.1683 95.8725 25.722 96.2539 25.332C96.6352 24.942 97.0772 24.6387 97.5799 24.422C98.0912 24.1967 98.6459 24.084 99.2439 24.084C99.7119 24.084 100.119 24.1577 100.466 24.305C100.821 24.4437 101.094 24.6517 101.285 24.929C101.484 25.1977 101.584 25.54 101.584 25.956C101.584 26.6493 101.268 27.178 100.635 27.542C100.011 27.906 99.0575 28.088 97.7749 28.088C97.5322 28.088 97.2592 28.0837 96.9559 28.075C96.6525 28.0577 96.3102 28.0317 95.9289 27.997L96.1239 27.074C96.4705 27.0913 96.7782 27.1087 97.0469 27.126C97.3155 27.1433 97.5669 27.152 97.8009 27.152C98.4162 27.152 98.9015 27.1043 99.2569 27.009C99.6122 26.9137 99.8679 26.7793 100.024 26.606C100.18 26.424 100.258 26.2203 100.258 25.995C100.258 25.7957 100.21 25.6353 100.115 25.514C100.02 25.3927 99.8852 25.3017 99.7119 25.241C99.5385 25.1717 99.3305 25.137 99.0879 25.137C98.7065 25.137 98.3555 25.2237 98.0349 25.397C97.7142 25.5617 97.4369 25.7957 97.2029 26.099C96.9775 26.3937 96.7999 26.7273 96.6699 27.1C96.5485 27.4727 96.4879 27.867 96.4879 28.283C96.4879 28.6123 96.5399 28.9157 96.6439 29.193C96.7565 29.4617 96.9255 29.6783 97.1509 29.843C97.3849 29.999 97.6752 30.077 98.0219 30.077C98.3945 30.077 98.7542 29.986 99.1009 29.804C99.4475 29.6133 99.7205 29.3577 99.9199 29.037L101.051 29.388C100.834 29.726 100.553 30.0293 100.206 30.298C99.8592 30.558 99.4735 30.7617 99.0489 30.909C98.6329 31.0563 98.2082 31.13 97.7749 31.13ZM102.327 24.201H103.757L104.706 29.726C104.949 29.3967 105.179 29.0673 105.395 28.738C105.621 28.4 105.833 28.0663 106.032 27.737L105.2 24.201H106.552L106.981 26.359C107.163 26.0037 107.328 25.644 107.475 25.28C107.623 24.916 107.753 24.5563 107.865 24.201H109.113C108.923 24.8077 108.693 25.4013 108.424 25.982C108.156 26.554 107.844 27.126 107.488 27.698L107.93 29.583C108.208 29.2103 108.463 28.8463 108.697 28.491C108.94 28.127 109.161 27.7717 109.36 27.425C109.56 27.0697 109.742 26.7187 109.906 26.372C110.08 26.0167 110.236 25.6613 110.374 25.306C110.522 24.9507 110.652 24.5823 110.764 24.201H112.09C111.744 25.3277 111.237 26.4587 110.569 27.594C109.911 28.7293 109.126 29.8647 108.216 31H106.942L106.513 28.946C106.288 29.284 106.054 29.6263 105.811 29.973C105.577 30.311 105.335 30.6533 105.083 31H103.679L102.327 24.201ZM116.198 24.201H117.628L116.172 31H114.742L116.198 24.201ZM116.757 21.51H118.187L117.862 23.083H116.432L116.757 21.51ZM118.464 29.986C118.464 29.9167 118.468 29.8473 118.477 29.778C118.485 29.7087 118.498 29.635 118.516 29.557L119.426 25.306H118.555L118.802 24.201H119.647L120.128 21.965H121.558L121.077 24.201H122.481L122.247 25.306H120.856L120.05 29.102C120.041 29.1367 120.032 29.1713 120.024 29.206C120.024 29.232 120.024 29.2623 120.024 29.297C120.024 29.4703 120.071 29.596 120.167 29.674C120.271 29.752 120.401 29.791 120.557 29.791C120.687 29.791 120.812 29.7737 120.934 29.739C121.064 29.7043 121.181 29.6697 121.285 29.635C121.389 29.5917 121.475 29.5527 121.545 29.518L121.597 30.649C121.467 30.727 121.302 30.805 121.103 30.883C120.912 30.9523 120.704 31.0043 120.479 31.039C120.253 31.0823 120.019 31.104 119.777 31.104C119.404 31.104 119.092 31.0173 118.841 30.844C118.589 30.662 118.464 30.376 118.464 29.986ZM125.362 31.13C124.79 31.13 124.3 31.0043 123.893 30.753C123.485 30.5017 123.173 30.1593 122.957 29.726C122.749 29.2927 122.645 28.803 122.645 28.257C122.645 27.6937 122.749 27.165 122.957 26.671C123.165 26.1683 123.459 25.722 123.841 25.332C124.222 24.942 124.664 24.6387 125.167 24.422C125.678 24.1967 126.233 24.084 126.831 24.084C127.299 24.084 127.706 24.1577 128.053 24.305C128.408 24.4437 128.681 24.6517 128.872 24.929C129.071 25.1977 129.171 25.54 129.171 25.956C129.171 26.6493 128.854 27.178 128.222 27.542C127.598 27.906 126.644 28.088 125.362 28.088C125.119 28.088 124.846 28.0837 124.543 28.075C124.239 28.0577 123.897 28.0317 123.516 27.997L123.711 27.074C124.057 27.0913 124.365 27.1087 124.634 27.126C124.902 27.1433 125.154 27.152 125.388 27.152C126.003 27.152 126.488 27.1043 126.844 27.009C127.199 26.9137 127.455 26.7793 127.611 26.606C127.767 26.424 127.845 26.2203 127.845 25.995C127.845 25.7957 127.797 25.6353 127.702 25.514C127.606 25.3927 127.472 25.3017 127.299 25.241C127.125 25.1717 126.917 25.137 126.675 25.137C126.293 25.137 125.942 25.2237 125.622 25.397C125.301 25.5617 125.024 25.7957 124.79 26.099C124.564 26.3937 124.387 26.7273 124.257 27.1C124.135 27.4727 124.075 27.867 124.075 28.283C124.075 28.6123 124.127 28.9157 124.231 29.193C124.343 29.4617 124.512 29.6783 124.738 29.843C124.972 29.999 125.262 30.077 125.609 30.077C125.981 30.077 126.341 29.986 126.688 29.804C127.034 29.6133 127.307 29.3577 127.507 29.037L128.638 29.388C128.421 29.726 128.139 30.0293 127.793 30.298C127.446 30.558 127.06 30.7617 126.636 30.909C126.22 31.0563 125.795 31.13 125.362 31.13ZM130.925 24.201H132.212L131.926 25.566C132.264 25.1067 132.671 24.747 133.148 24.487C133.624 24.2183 134.114 24.084 134.617 24.084C134.963 24.084 135.249 24.149 135.475 24.279C135.709 24.4003 135.882 24.578 135.995 24.812C136.107 25.0373 136.172 25.3103 136.19 25.631C136.441 25.293 136.71 25.0113 136.996 24.786C137.29 24.552 137.598 24.3787 137.919 24.266C138.248 24.1447 138.577 24.084 138.907 24.084C139.288 24.084 139.587 24.1533 139.804 24.292C140.029 24.4307 140.189 24.6213 140.285 24.864C140.38 25.1067 140.428 25.3883 140.428 25.709C140.428 25.865 140.415 26.0383 140.389 26.229C140.363 26.4197 140.328 26.6277 140.285 26.853L139.401 31H137.971L138.777 27.191C138.846 26.879 138.881 26.606 138.881 26.372C138.881 26.0253 138.807 25.7697 138.66 25.605C138.512 25.4403 138.309 25.358 138.049 25.358C137.797 25.358 137.542 25.4273 137.282 25.566C137.03 25.696 136.792 25.8823 136.567 26.125C136.35 26.3677 136.159 26.6493 135.995 26.97L135.15 31H133.72L134.526 27.191C134.569 27.0263 134.595 26.879 134.604 26.749C134.621 26.6103 134.63 26.4803 134.63 26.359C134.63 26.0123 134.56 25.761 134.422 25.605C134.283 25.4403 134.079 25.358 133.811 25.358C133.447 25.358 133.074 25.5053 132.693 25.8C132.311 26.0947 132.004 26.4803 131.77 26.957L130.899 31H129.469L130.925 24.201Z" fill="#494949"/>
<path d="M28 10C18.633 10 11 17.633 11 27C11 36.367 18.633 44 28 44C37.367 44 45 36.367 45 27C45 17.633 37.367 10 28 10Z" fill="#DFF6EA"/>
<rect x="0.5" y="0.5" width="42" height="42" rx="21" transform="matrix(2.52418e-08 1 1 -7.56953e-08 285 6)" stroke="#E7E7E7"/>
<path d="M312.28 27.0438V28.9382H308.085V33.505H305.954V28.9382H301.759V27.0438H305.954V22.477H308.085V27.0438H312.28Z" fill="#39B96F"/>
<path d="M27.5 25.6667L20 22.3333L27.5 19L35 22.3333L27.5 25.6667ZM26.6667 27.3333L20 24V32.3333L26.6667 35.6667V27.3333ZM35 32.3333V24L28.3333 27.3333V35.6667L35 32.3333Z" fill="#39B96F"/>
</svg>
