<svg width="456" height="69" viewBox="0 0 456 69" fill="none" xmlns="http://www.w3.org/2000/svg">
<rect width="456" height="49" rx="8" fill="#DFF6EA"/>
<path d="M387.257 44H355.523C352.96 44 351.577 47.0064 353.245 48.9524L367.892 66.0403C369.029 67.3671 371.055 67.4449 372.291 66.2092L389.379 49.1213C391.269 47.2314 389.93 44 387.257 44Z" fill="#DFF6EA"/>
<path d="M26.2049 24.36C26.2049 23.32 26.3889 22.304 26.7569 21.312C27.1409 20.304 27.6929 19.392 28.4129 18.576C29.1329 17.744 30.0129 17.088 31.0529 16.608C32.0929 16.112 33.2769 15.864 34.6049 15.864C36.1729 15.864 37.5249 16.208 38.6609 16.896C39.8129 17.584 40.6689 18.48 41.2289 19.584L38.6849 21.336C38.3969 20.696 38.0209 20.192 37.5569 19.824C37.0929 19.44 36.5969 19.176 36.0689 19.032C35.5409 18.872 35.0209 18.792 34.5089 18.792C33.6769 18.792 32.9489 18.96 32.3249 19.296C31.7169 19.632 31.2049 20.072 30.7889 20.616C30.3729 21.16 30.0609 21.768 29.8529 22.44C29.6609 23.112 29.5649 23.784 29.5649 24.456C29.5649 25.208 29.6849 25.936 29.9249 26.64C30.1649 27.328 30.5009 27.944 30.9329 28.488C31.3809 29.016 31.9089 29.44 32.5169 29.76C33.1409 30.064 33.8209 30.216 34.5569 30.216C35.0849 30.216 35.6209 30.128 36.1649 29.952C36.7089 29.776 37.2129 29.496 37.6769 29.112C38.1409 28.728 38.5009 28.232 38.7569 27.624L41.4689 29.184C41.1329 30.032 40.5809 30.752 39.8129 31.344C39.0609 31.936 38.2129 32.384 37.2689 32.688C36.3249 32.992 35.3889 33.144 34.4609 33.144C33.2449 33.144 32.1329 32.896 31.1249 32.4C30.1169 31.888 29.2449 31.216 28.5089 30.384C27.7889 29.536 27.2209 28.592 26.8049 27.552C26.4049 26.496 26.2049 25.432 26.2049 24.36ZM43.3541 15.48H46.5701V28.968C46.5701 29.544 46.6661 29.936 46.8581 30.144C47.0501 30.336 47.3141 30.432 47.6501 30.432C47.9061 30.432 48.1701 30.4 48.4421 30.336C48.7141 30.272 48.9541 30.192 49.1621 30.096L49.5941 32.544C49.1621 32.752 48.6581 32.912 48.0821 33.024C47.5061 33.136 46.9861 33.192 46.5221 33.192C45.5141 33.192 44.7301 32.928 44.1701 32.4C43.6261 31.856 43.3541 31.088 43.3541 30.096V15.48ZM50.9953 33V20.424H54.2113V33H50.9953ZM50.9953 18.672V15.48H54.2113V18.672H50.9953ZM62.9684 33.24C61.9444 33.24 61.0244 33.072 60.2084 32.736C59.3924 32.384 58.6964 31.904 58.1204 31.296C57.5444 30.672 57.0964 29.968 56.7764 29.184C56.4724 28.4 56.3204 27.576 56.3204 26.712C56.3204 25.528 56.5844 24.448 57.1124 23.472C57.6564 22.48 58.4244 21.688 59.4164 21.096C60.4084 20.504 61.5844 20.208 62.9444 20.208C64.3044 20.208 65.4724 20.504 66.4484 21.096C67.4244 21.688 68.1524 22.464 68.6324 23.424L65.4884 24.384C65.2164 23.92 64.8564 23.568 64.4084 23.328C63.9604 23.072 63.4644 22.944 62.9204 22.944C62.3124 22.944 61.7524 23.104 61.2404 23.424C60.7444 23.728 60.3524 24.168 60.0644 24.744C59.7764 25.304 59.6324 25.96 59.6324 26.712C59.6324 27.448 59.7764 28.104 60.0644 28.68C60.3684 29.24 60.7684 29.688 61.2644 30.024C61.7604 30.344 62.3124 30.504 62.9204 30.504C63.3044 30.504 63.6644 30.44 64.0004 30.312C64.3524 30.184 64.6644 30.008 64.9364 29.784C65.2084 29.56 65.4084 29.304 65.5364 29.016L68.6804 29.976C68.3924 30.6 67.9684 31.16 67.4084 31.656C66.8644 32.152 66.2164 32.544 65.4644 32.832C64.7284 33.104 63.8964 33.24 62.9684 33.24ZM79.2513 33L75.5793 27.576L73.8753 29.256V33H70.6593V15.48H73.8753V26.088L78.9393 20.448H82.3473L77.6673 25.776L82.6833 33H79.2513ZM104.448 15.96V33H101.16V25.728H93.4318V33H90.1198V15.96H93.4318V22.848H101.16V15.96H104.448ZM113.312 33.24C112.304 33.24 111.392 33.072 110.576 32.736C109.76 32.384 109.064 31.912 108.488 31.32C107.912 30.712 107.464 30.024 107.144 29.256C106.84 28.472 106.688 27.648 106.688 26.784C106.688 25.584 106.952 24.488 107.48 23.496C108.024 22.504 108.792 21.712 109.784 21.12C110.792 20.512 111.976 20.208 113.336 20.208C114.712 20.208 115.888 20.512 116.864 21.12C117.84 21.712 118.584 22.504 119.096 23.496C119.624 24.472 119.888 25.528 119.888 26.664C119.888 26.856 119.88 27.056 119.864 27.264C119.848 27.456 119.832 27.616 119.816 27.744H110.096C110.16 28.384 110.344 28.944 110.648 29.424C110.968 29.904 111.368 30.272 111.848 30.528C112.344 30.768 112.872 30.888 113.432 30.888C114.072 30.888 114.672 30.736 115.232 30.432C115.808 30.112 116.2 29.696 116.408 29.184L119.168 29.952C118.864 30.592 118.424 31.16 117.848 31.656C117.288 32.152 116.624 32.544 115.856 32.832C115.088 33.104 114.24 33.24 113.312 33.24ZM110.024 25.704H116.6C116.536 25.064 116.352 24.512 116.048 24.048C115.76 23.568 115.376 23.2 114.896 22.944C114.416 22.672 113.88 22.536 113.288 22.536C112.712 22.536 112.184 22.672 111.704 22.944C111.24 23.2 110.856 23.568 110.552 24.048C110.264 24.512 110.088 25.064 110.024 25.704ZM129.335 23.208C128.359 23.208 127.487 23.4 126.719 23.784C125.951 24.152 125.399 24.688 125.063 25.392V33H121.847V20.424H124.799V23.112C125.247 22.248 125.815 21.568 126.503 21.072C127.191 20.576 127.919 20.304 128.687 20.256C128.863 20.256 128.999 20.256 129.095 20.256C129.191 20.256 129.271 20.264 129.335 20.28V23.208ZM136.796 33.24C135.788 33.24 134.876 33.072 134.06 32.736C133.244 32.384 132.548 31.912 131.972 31.32C131.396 30.712 130.948 30.024 130.628 29.256C130.324 28.472 130.172 27.648 130.172 26.784C130.172 25.584 130.436 24.488 130.964 23.496C131.508 22.504 132.276 21.712 133.268 21.12C134.276 20.512 135.46 20.208 136.82 20.208C138.196 20.208 139.372 20.512 140.348 21.12C141.324 21.712 142.068 22.504 142.58 23.496C143.108 24.472 143.372 25.528 143.372 26.664C143.372 26.856 143.364 27.056 143.348 27.264C143.332 27.456 143.316 27.616 143.3 27.744H133.58C133.644 28.384 133.828 28.944 134.132 29.424C134.452 29.904 134.852 30.272 135.332 30.528C135.828 30.768 136.356 30.888 136.916 30.888C137.556 30.888 138.156 30.736 138.716 30.432C139.292 30.112 139.684 29.696 139.892 29.184L142.652 29.952C142.348 30.592 141.908 31.16 141.332 31.656C140.772 32.152 140.108 32.544 139.34 32.832C138.572 33.104 137.724 33.24 136.796 33.24ZM133.508 25.704H140.084C140.02 25.064 139.836 24.512 139.532 24.048C139.244 23.568 138.86 23.2 138.38 22.944C137.9 22.672 137.364 22.536 136.772 22.536C136.196 22.536 135.668 22.672 135.188 22.944C134.724 23.2 134.34 23.568 134.036 24.048C133.748 24.512 133.572 25.064 133.508 25.704ZM158.633 32.352C158.361 32.464 158.033 32.592 157.649 32.736C157.265 32.88 156.849 32.992 156.401 33.072C155.969 33.168 155.529 33.216 155.081 33.216C154.489 33.216 153.945 33.112 153.449 32.904C152.953 32.696 152.553 32.368 152.249 31.92C151.961 31.456 151.817 30.856 151.817 30.12V22.896H150.161V20.424H151.817V16.344H155.033V20.424H157.673V22.896H155.033V29.04C155.049 29.472 155.169 29.784 155.393 29.976C155.617 30.168 155.897 30.264 156.233 30.264C156.569 30.264 156.897 30.208 157.217 30.096C157.537 29.984 157.793 29.888 157.985 29.808L158.633 32.352ZM165.975 33.24C164.951 33.24 164.031 33.072 163.215 32.736C162.399 32.384 161.703 31.904 161.127 31.296C160.567 30.688 160.135 29.992 159.831 29.208C159.527 28.424 159.375 27.6 159.375 26.736C159.375 25.856 159.527 25.024 159.831 24.24C160.135 23.456 160.567 22.76 161.127 22.152C161.703 21.544 162.399 21.072 163.215 20.736C164.031 20.384 164.951 20.208 165.975 20.208C166.999 20.208 167.911 20.384 168.711 20.736C169.527 21.072 170.223 21.544 170.799 22.152C171.375 22.76 171.807 23.456 172.095 24.24C172.399 25.024 172.551 25.856 172.551 26.736C172.551 27.6 172.399 28.424 172.095 29.208C171.807 29.992 171.375 30.688 170.799 31.296C170.239 31.904 169.551 32.384 168.735 32.736C167.919 33.072 166.999 33.24 165.975 33.24ZM162.687 26.736C162.687 27.472 162.831 28.128 163.119 28.704C163.407 29.264 163.799 29.704 164.295 30.024C164.791 30.344 165.351 30.504 165.975 30.504C166.583 30.504 167.135 30.344 167.631 30.024C168.127 29.688 168.519 29.24 168.807 28.68C169.111 28.104 169.263 27.448 169.263 26.712C169.263 25.992 169.111 25.344 168.807 24.768C168.519 24.192 168.127 23.744 167.631 23.424C167.135 23.104 166.583 22.944 165.975 22.944C165.351 22.944 164.791 23.112 164.295 23.448C163.799 23.768 163.407 24.216 163.119 24.792C162.831 25.352 162.687 26 162.687 26.736ZM179.623 29.28C179.623 28.464 179.847 27.752 180.295 27.144C180.759 26.52 181.399 26.04 182.215 25.704C183.031 25.368 183.967 25.2 185.023 25.2C185.551 25.2 186.087 25.24 186.631 25.32C187.175 25.4 187.647 25.528 188.047 25.704V25.032C188.047 24.232 187.807 23.616 187.327 23.184C186.863 22.752 186.167 22.536 185.239 22.536C184.551 22.536 183.895 22.656 183.271 22.896C182.647 23.136 181.991 23.488 181.303 23.952L180.271 21.84C181.103 21.296 181.951 20.888 182.815 20.616C183.695 20.344 184.615 20.208 185.575 20.208C187.367 20.208 188.759 20.656 189.751 21.552C190.759 22.448 191.263 23.728 191.263 25.392V29.4C191.263 29.736 191.319 29.976 191.431 30.12C191.559 30.264 191.759 30.352 192.031 30.384V33C191.743 33.048 191.479 33.088 191.239 33.12C191.015 33.152 190.823 33.168 190.663 33.168C190.023 33.168 189.535 33.024 189.199 32.736C188.879 32.448 188.679 32.096 188.599 31.68L188.527 31.032C187.983 31.736 187.303 32.28 186.487 32.664C185.671 33.048 184.839 33.24 183.991 33.24C183.159 33.24 182.407 33.072 181.735 32.736C181.079 32.384 180.559 31.912 180.175 31.32C179.807 30.712 179.623 30.032 179.623 29.28ZM187.447 29.928C187.623 29.736 187.767 29.544 187.879 29.352C187.991 29.16 188.047 28.984 188.047 28.824V27.552C187.663 27.392 187.247 27.272 186.799 27.192C186.351 27.096 185.927 27.048 185.527 27.048C184.695 27.048 184.007 27.232 183.463 27.6C182.935 27.952 182.671 28.424 182.671 29.016C182.671 29.336 182.759 29.64 182.935 29.928C183.111 30.216 183.367 30.448 183.703 30.624C184.039 30.8 184.439 30.888 184.903 30.888C185.383 30.888 185.855 30.8 186.319 30.624C186.783 30.432 187.159 30.2 187.447 29.928ZM193.501 26.712C193.501 25.496 193.741 24.4 194.221 23.424C194.701 22.432 195.365 21.648 196.213 21.072C197.061 20.496 198.029 20.208 199.117 20.208C200.045 20.208 200.877 20.44 201.613 20.904C202.365 21.352 202.949 21.928 203.365 22.632V15.48H206.581V29.4C206.581 29.736 206.637 29.976 206.749 30.12C206.861 30.264 207.053 30.352 207.325 30.384V33C206.765 33.112 206.309 33.168 205.957 33.168C205.381 33.168 204.901 33.024 204.517 32.736C204.149 32.448 203.941 32.072 203.893 31.608L203.845 30.816C203.381 31.6 202.749 32.2 201.949 32.616C201.165 33.032 200.341 33.24 199.477 33.24C198.613 33.24 197.813 33.072 197.077 32.736C196.357 32.4 195.725 31.936 195.181 31.344C194.653 30.752 194.237 30.064 193.933 29.28C193.645 28.48 193.501 27.624 193.501 26.712ZM203.365 28.392V25.392C203.205 24.928 202.949 24.512 202.597 24.144C202.245 23.776 201.853 23.488 201.421 23.28C200.989 23.056 200.557 22.944 200.125 22.944C199.629 22.944 199.181 23.048 198.781 23.256C198.381 23.464 198.029 23.744 197.725 24.096C197.437 24.448 197.213 24.856 197.053 25.32C196.909 25.784 196.837 26.272 196.837 26.784C196.837 27.296 196.917 27.784 197.077 28.248C197.253 28.696 197.501 29.088 197.821 29.424C198.141 29.76 198.509 30.024 198.925 30.216C199.357 30.408 199.821 30.504 200.317 30.504C200.621 30.504 200.925 30.456 201.229 30.36C201.549 30.248 201.845 30.104 202.117 29.928C202.405 29.736 202.653 29.512 202.861 29.256C203.085 28.984 203.253 28.696 203.365 28.392ZM208.969 26.712C208.969 25.496 209.209 24.4 209.689 23.424C210.169 22.432 210.833 21.648 211.681 21.072C212.529 20.496 213.497 20.208 214.585 20.208C215.513 20.208 216.345 20.44 217.081 20.904C217.833 21.352 218.417 21.928 218.833 22.632V15.48H222.049V29.4C222.049 29.736 222.105 29.976 222.217 30.12C222.329 30.264 222.521 30.352 222.793 30.384V33C222.233 33.112 221.777 33.168 221.425 33.168C220.849 33.168 220.369 33.024 219.985 32.736C219.617 32.448 219.409 32.072 219.361 31.608L219.313 30.816C218.849 31.6 218.217 32.2 217.417 32.616C216.633 33.032 215.809 33.24 214.945 33.24C214.081 33.24 213.281 33.072 212.545 32.736C211.825 32.4 211.193 31.936 210.649 31.344C210.121 30.752 209.705 30.064 209.401 29.28C209.113 28.48 208.969 27.624 208.969 26.712ZM218.833 28.392V25.392C218.673 24.928 218.417 24.512 218.065 24.144C217.713 23.776 217.321 23.488 216.889 23.28C216.457 23.056 216.025 22.944 215.593 22.944C215.097 22.944 214.649 23.048 214.249 23.256C213.849 23.464 213.497 23.744 213.193 24.096C212.905 24.448 212.681 24.856 212.521 25.32C212.377 25.784 212.305 26.272 212.305 26.784C212.305 27.296 212.385 27.784 212.545 28.248C212.721 28.696 212.969 29.088 213.289 29.424C213.609 29.76 213.977 30.024 214.393 30.216C214.825 30.408 215.289 30.504 215.785 30.504C216.089 30.504 216.393 30.456 216.697 30.36C217.017 30.248 217.313 30.104 217.585 29.928C217.873 29.736 218.121 29.512 218.329 29.256C218.553 28.984 218.721 28.696 218.833 28.392ZM245.18 33V21.816L240.812 30.144H238.964L234.596 21.816V33H231.284V15.96H234.836L239.876 25.656L244.964 15.96H248.492V33H245.18ZM257.359 33.24C256.351 33.24 255.439 33.072 254.623 32.736C253.807 32.384 253.111 31.912 252.535 31.32C251.959 30.712 251.511 30.024 251.191 29.256C250.887 28.472 250.735 27.648 250.735 26.784C250.735 25.584 250.999 24.488 251.527 23.496C252.071 22.504 252.839 21.712 253.831 21.12C254.839 20.512 256.023 20.208 257.383 20.208C258.759 20.208 259.935 20.512 260.911 21.12C261.887 21.712 262.631 22.504 263.143 23.496C263.671 24.472 263.935 25.528 263.935 26.664C263.935 26.856 263.927 27.056 263.911 27.264C263.895 27.456 263.879 27.616 263.863 27.744H254.143C254.207 28.384 254.391 28.944 254.695 29.424C255.015 29.904 255.415 30.272 255.895 30.528C256.391 30.768 256.919 30.888 257.479 30.888C258.119 30.888 258.719 30.736 259.279 30.432C259.855 30.112 260.247 29.696 260.455 29.184L263.215 29.952C262.911 30.592 262.471 31.16 261.895 31.656C261.335 32.152 260.671 32.544 259.903 32.832C259.135 33.104 258.287 33.24 257.359 33.24ZM254.071 25.704H260.647C260.583 25.064 260.399 24.512 260.095 24.048C259.807 23.568 259.423 23.2 258.943 22.944C258.463 22.672 257.927 22.536 257.335 22.536C256.759 22.536 256.231 22.672 255.751 22.944C255.287 23.2 254.903 23.568 254.599 24.048C254.311 24.512 254.135 25.064 254.071 25.704ZM285.43 33H282.214V25.944C282.214 24.952 282.038 24.224 281.686 23.76C281.35 23.28 280.878 23.04 280.27 23.04C279.646 23.04 279.046 23.288 278.47 23.784C277.91 24.264 277.51 24.896 277.27 25.68V33H274.054V25.944C274.054 24.936 273.878 24.2 273.526 23.736C273.19 23.272 272.718 23.04 272.11 23.04C271.486 23.04 270.886 23.28 270.31 23.76C269.75 24.24 269.35 24.872 269.11 25.656V33H265.894V20.424H268.798V22.752C269.278 21.936 269.918 21.312 270.718 20.88C271.518 20.432 272.438 20.208 273.478 20.208C274.518 20.208 275.326 20.464 275.902 20.976C276.494 21.488 276.87 22.12 277.03 22.872C277.542 22.008 278.19 21.352 278.974 20.904C279.774 20.44 280.67 20.208 281.662 20.208C282.446 20.208 283.078 20.352 283.558 20.64C284.054 20.912 284.438 21.288 284.71 21.768C284.982 22.232 285.166 22.76 285.262 23.352C285.374 23.944 285.43 24.544 285.43 25.152V33ZM295.382 33.24C294.422 33.24 293.566 33.024 292.814 32.592C292.062 32.16 291.47 31.568 291.038 30.816V33H288.23V15.48H291.446V22.632C291.894 21.88 292.478 21.288 293.198 20.856C293.934 20.424 294.79 20.208 295.766 20.208C296.582 20.208 297.326 20.384 297.998 20.736C298.67 21.072 299.246 21.544 299.726 22.152C300.222 22.76 300.598 23.456 300.854 24.24C301.126 25.024 301.262 25.864 301.262 26.76C301.262 27.656 301.11 28.496 300.806 29.28C300.518 30.064 300.11 30.76 299.582 31.368C299.054 31.96 298.43 32.424 297.71 32.76C297.006 33.08 296.23 33.24 295.382 33.24ZM294.494 30.504C295.006 30.504 295.47 30.408 295.886 30.216C296.318 30.008 296.686 29.736 296.99 29.4C297.31 29.064 297.55 28.672 297.71 28.224C297.886 27.76 297.974 27.28 297.974 26.784C297.974 26.096 297.83 25.464 297.542 24.888C297.27 24.296 296.886 23.824 296.39 23.472C295.91 23.12 295.342 22.944 294.686 22.944C294.222 22.944 293.774 23.056 293.342 23.28C292.926 23.488 292.55 23.776 292.214 24.144C291.894 24.512 291.638 24.928 291.446 25.392V28.392C291.542 28.712 291.694 29 291.902 29.256C292.126 29.512 292.382 29.736 292.67 29.928C292.958 30.104 293.254 30.248 293.558 30.36C293.878 30.456 294.19 30.504 294.494 30.504ZM309.273 33.24C308.265 33.24 307.353 33.072 306.537 32.736C305.721 32.384 305.025 31.912 304.449 31.32C303.873 30.712 303.425 30.024 303.105 29.256C302.801 28.472 302.649 27.648 302.649 26.784C302.649 25.584 302.913 24.488 303.441 23.496C303.985 22.504 304.753 21.712 305.745 21.12C306.753 20.512 307.937 20.208 309.297 20.208C310.673 20.208 311.849 20.512 312.825 21.12C313.801 21.712 314.545 22.504 315.057 23.496C315.585 24.472 315.849 25.528 315.849 26.664C315.849 26.856 315.841 27.056 315.825 27.264C315.809 27.456 315.793 27.616 315.777 27.744H306.057C306.121 28.384 306.305 28.944 306.609 29.424C306.929 29.904 307.329 30.272 307.809 30.528C308.305 30.768 308.833 30.888 309.393 30.888C310.033 30.888 310.633 30.736 311.193 30.432C311.769 30.112 312.161 29.696 312.369 29.184L315.129 29.952C314.825 30.592 314.385 31.16 313.809 31.656C313.249 32.152 312.585 32.544 311.817 32.832C311.049 33.104 310.201 33.24 309.273 33.24ZM305.985 25.704H312.561C312.497 25.064 312.313 24.512 312.009 24.048C311.721 23.568 311.337 23.2 310.857 22.944C310.377 22.672 309.841 22.536 309.249 22.536C308.673 22.536 308.145 22.672 307.665 22.944C307.201 23.2 306.817 23.568 306.513 24.048C306.225 24.512 306.049 25.064 305.985 25.704ZM325.296 23.208C324.32 23.208 323.448 23.4 322.68 23.784C321.912 24.152 321.36 24.688 321.024 25.392V33H317.808V20.424H320.76V23.112C321.208 22.248 321.776 21.568 322.464 21.072C323.152 20.576 323.88 20.304 324.648 20.256C324.824 20.256 324.96 20.256 325.056 20.256C325.152 20.256 325.232 20.264 325.296 20.28V23.208ZM332.316 33V20.424H335.532V33H332.316ZM332.316 18.672V15.48H335.532V18.672H332.316ZM350.121 33H346.905V25.944C346.905 24.936 346.729 24.2 346.377 23.736C346.025 23.272 345.537 23.04 344.913 23.04C344.481 23.04 344.041 23.152 343.593 23.376C343.161 23.6 342.769 23.912 342.417 24.312C342.065 24.696 341.809 25.144 341.649 25.656V33H338.433V20.424H341.337V22.752C341.657 22.208 342.065 21.752 342.561 21.384C343.057 21 343.625 20.712 344.265 20.52C344.921 20.312 345.609 20.208 346.329 20.208C347.113 20.208 347.753 20.352 348.249 20.64C348.761 20.912 349.145 21.288 349.401 21.768C349.673 22.232 349.857 22.76 349.953 23.352C350.065 23.944 350.121 24.544 350.121 25.152V33ZM363.603 33.072C362.771 33.072 362.003 32.912 361.299 32.592C360.611 32.256 360.011 31.792 359.499 31.2C359.003 30.608 358.619 29.928 358.347 29.16C358.075 28.392 357.939 27.576 357.939 26.712C357.939 25.8 358.083 24.952 358.371 24.168C358.659 23.384 359.059 22.696 359.571 22.104C360.099 21.496 360.715 21.032 361.419 20.712C362.139 20.376 362.931 20.208 363.795 20.208C364.771 20.208 365.627 20.432 366.363 20.88C367.099 21.312 367.707 21.896 368.187 22.632V20.424H370.995V32.4C370.995 33.648 370.691 34.712 370.083 35.592C369.491 36.488 368.667 37.168 367.611 37.632C366.555 38.112 365.355 38.352 364.011 38.352C362.651 38.352 361.499 38.12 360.555 37.656C359.611 37.208 358.803 36.568 358.131 35.736L359.883 34.032C360.363 34.624 360.963 35.088 361.683 35.424C362.419 35.76 363.195 35.928 364.011 35.928C364.699 35.928 365.323 35.8 365.883 35.544C366.459 35.304 366.915 34.92 367.251 34.392C367.603 33.88 367.779 33.216 367.779 32.4V30.816C367.363 31.536 366.771 32.096 366.003 32.496C365.251 32.88 364.451 33.072 363.603 33.072ZM364.683 30.504C365.035 30.504 365.371 30.448 365.691 30.336C366.011 30.224 366.307 30.072 366.579 29.88C366.851 29.688 367.091 29.464 367.299 29.208C367.507 28.936 367.667 28.664 367.779 28.392V25.392C367.587 24.896 367.315 24.464 366.963 24.096C366.627 23.728 366.243 23.448 365.811 23.256C365.395 23.048 364.955 22.944 364.491 22.944C363.995 22.944 363.547 23.048 363.147 23.256C362.747 23.464 362.403 23.76 362.115 24.144C361.827 24.512 361.603 24.928 361.443 25.392C361.299 25.84 361.227 26.312 361.227 26.808C361.227 27.32 361.315 27.8 361.491 28.248C361.667 28.696 361.907 29.088 362.211 29.424C362.531 29.76 362.899 30.024 363.315 30.216C363.747 30.408 364.203 30.504 364.683 30.504ZM381.382 23.208C380.406 23.208 379.534 23.4 378.766 23.784C377.998 24.152 377.446 24.688 377.11 25.392V33H373.894V20.424H376.846V23.112C377.294 22.248 377.862 21.568 378.55 21.072C379.238 20.576 379.966 20.304 380.734 20.256C380.91 20.256 381.046 20.256 381.142 20.256C381.238 20.256 381.318 20.264 381.382 20.28V23.208ZM388.819 33.24C387.795 33.24 386.875 33.072 386.059 32.736C385.243 32.384 384.547 31.904 383.971 31.296C383.411 30.688 382.979 29.992 382.675 29.208C382.371 28.424 382.219 27.6 382.219 26.736C382.219 25.856 382.371 25.024 382.675 24.24C382.979 23.456 383.411 22.76 383.971 22.152C384.547 21.544 385.243 21.072 386.059 20.736C386.875 20.384 387.795 20.208 388.819 20.208C389.843 20.208 390.755 20.384 391.555 20.736C392.371 21.072 393.067 21.544 393.643 22.152C394.219 22.76 394.651 23.456 394.939 24.24C395.243 25.024 395.395 25.856 395.395 26.736C395.395 27.6 395.243 28.424 394.939 29.208C394.651 29.992 394.219 30.688 393.643 31.296C393.083 31.904 392.395 32.384 391.579 32.736C390.763 33.072 389.843 33.24 388.819 33.24ZM385.531 26.736C385.531 27.472 385.675 28.128 385.963 28.704C386.251 29.264 386.643 29.704 387.139 30.024C387.635 30.344 388.195 30.504 388.819 30.504C389.427 30.504 389.979 30.344 390.475 30.024C390.971 29.688 391.363 29.24 391.651 28.68C391.955 28.104 392.107 27.448 392.107 26.712C392.107 25.992 391.955 25.344 391.651 24.768C391.363 24.192 390.971 23.744 390.475 23.424C389.979 23.104 389.427 22.944 388.819 22.944C388.195 22.944 387.635 23.112 387.139 23.448C386.643 23.768 386.251 24.216 385.963 24.792C385.675 25.352 385.531 26 385.531 26.736ZM397.446 28.296V20.424H400.662V27.6C400.662 28.56 400.838 29.288 401.19 29.784C401.542 30.264 402.062 30.504 402.75 30.504C403.166 30.504 403.574 30.424 403.974 30.264C404.39 30.088 404.766 29.832 405.102 29.496C405.454 29.16 405.75 28.736 405.99 28.224V20.424H409.206V29.4C409.206 29.736 409.262 29.976 409.374 30.12C409.502 30.264 409.702 30.352 409.974 30.384V33C409.654 33.048 409.382 33.08 409.158 33.096C408.95 33.128 408.758 33.144 408.582 33.144C408.006 33.144 407.534 33.016 407.166 32.76C406.814 32.488 406.606 32.12 406.542 31.656L406.47 30.648C405.91 31.496 405.19 32.144 404.31 32.592C403.43 33.024 402.462 33.24 401.406 33.24C400.11 33.24 399.126 32.824 398.454 31.992C397.782 31.144 397.446 29.912 397.446 28.296ZM419.938 33.24C418.962 33.24 418.098 33.024 417.346 32.592C416.61 32.144 416.034 31.544 415.618 30.792V38.112H412.402V20.424H415.21V22.584C415.69 21.848 416.298 21.272 417.034 20.856C417.77 20.424 418.61 20.208 419.554 20.208C420.402 20.208 421.178 20.376 421.882 20.712C422.602 21.048 423.226 21.52 423.754 22.128C424.282 22.72 424.69 23.408 424.978 24.192C425.282 24.96 425.434 25.792 425.434 26.688C425.434 27.904 425.194 29.008 424.714 30C424.25 30.992 423.602 31.784 422.77 32.376C421.954 32.952 421.01 33.24 419.938 33.24ZM418.858 30.504C419.354 30.504 419.802 30.4 420.202 30.192C420.602 29.984 420.946 29.704 421.234 29.352C421.538 28.984 421.762 28.576 421.906 28.128C422.066 27.664 422.146 27.184 422.146 26.688C422.146 26.16 422.058 25.672 421.882 25.224C421.722 24.776 421.482 24.384 421.162 24.048C420.842 23.696 420.466 23.424 420.034 23.232C419.618 23.04 419.162 22.944 418.666 22.944C418.362 22.944 418.05 23 417.73 23.112C417.426 23.208 417.13 23.352 416.842 23.544C416.554 23.736 416.298 23.96 416.074 24.216C415.866 24.472 415.714 24.752 415.618 25.056V28.008C415.81 28.472 416.066 28.896 416.386 29.28C416.722 29.664 417.106 29.968 417.538 30.192C417.97 30.4 418.41 30.504 418.858 30.504ZM427.54 33V29.544H430.18V33H427.54Z" fill="#39B96F"/>
</svg>
