<svg width="16" height="13" viewBox="0 0 16 13" fill="none" xmlns="http://www.w3.org/2000/svg">
<path d="M1.45455 13C1.05455 13 0.712121 12.8409 0.427273 12.5227C0.142424 12.2044 0 11.8219 0 11.375V2.4375H1.45455V11.375H13.8182V13H1.45455ZM4.36364 9.75C3.96364 9.75 3.62121 9.59089 3.33636 9.27266C3.05152 8.95443 2.90909 8.57187 2.90909 8.125V1.625C2.90909 1.17812 3.05152 0.795573 3.33636 0.477344C3.62121 0.159115 3.96364 0 4.36364 0H14.5455C14.9455 0 15.2879 0.159115 15.5727 0.477344C15.8576 0.795573 16 1.17812 16 1.625V8.125C16 8.57187 15.8576 8.95443 15.5727 9.27266C15.2879 9.59089 14.9455 9.75 14.5455 9.75H4.36364ZM5.81818 8.125C5.81818 7.67812 5.67576 7.29557 5.39091 6.97734C5.10606 6.65911 4.76364 6.5 4.36364 6.5V8.125H5.81818ZM13.0909 8.125H14.5455V6.5C14.1455 6.5 13.803 6.65911 13.5182 6.97734C13.2333 7.29557 13.0909 7.67812 13.0909 8.125ZM9.45455 7.3125C10.0606 7.3125 10.5758 7.07552 11 6.60156C11.4242 6.1276 11.6364 5.55208 11.6364 4.875C11.6364 4.19792 11.4242 3.6224 11 3.14844C10.5758 2.67448 10.0606 2.4375 9.45455 2.4375C8.84848 2.4375 8.33333 2.67448 7.90909 3.14844C7.48485 3.6224 7.27273 4.19792 7.27273 4.875C7.27273 5.55208 7.48485 6.1276 7.90909 6.60156C8.33333 7.07552 8.84848 7.3125 9.45455 7.3125ZM4.36364 3.25C4.76364 3.25 5.10606 3.09089 5.39091 2.77266C5.67576 2.45443 5.81818 2.07187 5.81818 1.625H4.36364V3.25ZM14.5455 3.25V1.625H13.0909C13.0909 2.07187 13.2333 2.45443 13.5182 2.77266C13.803 3.09089 14.1455 3.25 14.5455 3.25Z" fill="#39B96F"/>
</svg>
