<svg width="39" height="38" viewBox="0 0 39 38" fill="none" xmlns="http://www.w3.org/2000/svg">
<circle cx="19.7733" cy="18.8953" r="18.3953" fill="white" stroke="#D8DADC"/>
<path d="M24.0916 19.0073C24.0843 17.6378 24.6954 16.6041 25.9324 15.8428C25.2403 14.839 24.1947 14.2867 22.8141 14.1785C21.5072 14.074 20.0788 14.9509 19.556 14.9509C19.0038 14.9509 17.7373 14.2158 16.7433 14.2158C14.689 14.2494 12.5059 15.8764 12.5059 19.1864C12.5059 20.1642 12.6826 21.1742 13.036 22.2166C13.5072 23.5862 15.2081 26.9447 16.9826 26.8887C17.9103 26.8664 18.5657 26.2208 19.7732 26.2208C20.9439 26.2208 21.5514 26.8887 22.5859 26.8887C24.3751 26.8626 25.914 23.8101 26.3631 22.4368C23.9628 21.2911 24.0916 19.0782 24.0916 19.0073ZM22.0079 12.8798C23.0129 11.6707 22.9209 10.5699 22.8915 10.1743C22.0042 10.2266 20.9771 10.7863 20.3917 11.4767C19.7474 12.2156 19.3682 13.1298 19.4492 14.1598C20.4101 14.2344 21.2863 13.7344 22.0079 12.8798Z" fill="black"/>
</svg>
