<svg width="19" height="14" viewBox="0 0 19 14" fill="none" xmlns="http://www.w3.org/2000/svg">
    <path
        d="M2.23974 5.71659C2.23974 5.88584 2.23974 6.02124 2.23974 6.16792C2.23974 6.56284 2.23974 6.96903 2.23974 7.36395C2.23974 7.58962 2.23974 7.78143 2.44284 7.95068C2.6685 8.13122 2.74748 8.43586 2.83775 8.71795C3.08598 9.49649 3.2101 10.2976 3.24395 11.11C3.25523 11.2793 3.18753 11.4034 3.04085 11.4485C2.8039 11.5275 2.55567 11.5952 2.30744 11.629C1.90124 11.6855 1.49504 11.6516 1.10012 11.5501C1.04371 11.5388 0.998572 11.5162 0.942156 11.4936C0.705207 11.3921 0.64879 11.3131 0.660073 11.0649C0.705207 10.2299 0.829323 9.41751 1.10012 8.62768C1.21296 8.31175 1.33707 7.99582 1.63044 7.79272C1.653 7.78143 1.66429 7.72502 1.66429 7.69117C1.66429 6.96903 1.66429 6.2469 1.66429 5.51349C1.66429 5.46836 1.61915 5.41194 1.57402 5.38937C1.19039 5.19756 0.806756 5.01702 0.434407 4.82521C0.321574 4.76879 0.220024 4.71237 0.118475 4.64467C-0.0394916 4.53184 -0.0394916 4.40772 0.118475 4.29489C0.197458 4.23848 0.287724 4.19334 0.377991 4.14821C2.77005 2.97475 5.16211 1.82385 7.54289 0.672951C7.92652 0.492419 8.31015 0.311886 8.69379 0.12007C8.9533 -0.0153301 9.17897 -0.00404682 9.43848 0.12007C11.9321 1.32738 14.437 2.5347 16.9419 3.74201C17.2578 3.89998 17.5737 4.04666 17.8897 4.21591C17.9912 4.27233 18.1266 4.32874 18.1153 4.47542C18.1153 4.62211 17.9912 4.66724 17.8897 4.72366C17.0998 5.11857 16.3213 5.51349 15.5315 5.89712C13.839 6.73209 12.1465 7.55577 10.454 8.37945C10.1493 8.52613 9.82212 8.65025 9.50618 8.80821C9.21282 8.9549 8.93074 8.94361 8.63737 8.80821C7.22696 8.13122 5.80526 7.47678 4.39485 6.79979C3.72913 6.48385 3.0747 6.13407 2.40899 5.80685C2.35257 5.76172 2.30744 5.73915 2.23974 5.71659Z"
        fill="#39B96F" />
    <path
        d="M14.0308 7.19463C14.0308 7.33003 14.0308 7.45415 14.0308 7.57827C14.0308 8.92098 14.0308 10.2637 14.0421 11.6064C14.0534 12.1931 13.8052 12.6332 13.3538 12.983C12.8687 13.344 12.3045 13.5584 11.7178 13.6938C10.4653 13.9985 9.1903 14.0549 7.91529 13.9308C7.13674 13.8631 6.36947 13.7164 5.63606 13.4456C5.25243 13.2989 4.89136 13.1184 4.57543 12.8476C4.23693 12.5655 4.0564 12.2157 4.0564 11.7644C4.06768 10.5119 4.06768 9.28204 4.07896 8.04088C4.07896 7.7588 4.07896 7.488 4.07896 7.18335C4.14666 7.2172 4.20308 7.23977 4.24821 7.26233C5.62478 7.93933 7.00134 8.61633 8.36662 9.29333C8.80667 9.51899 9.23543 9.51899 9.68677 9.29333C11.0859 8.60505 12.4963 7.92805 13.8954 7.23977C13.9293 7.22848 13.9744 7.2172 14.0308 7.19463Z"
        fill="#39B96F" />
</svg>
