<svg width="19" height="19" viewBox="0 0 19 19" fill="none" xmlns="http://www.w3.org/2000/svg">
    <path
        d="M18.5 16.8853C18.3655 17.0871 18.2309 17.2217 17.9618 17.2889C17.0873 17.6253 16.1455 18.0289 15.2709 18.4326C14.9346 18.5671 14.5309 18.4326 14.4636 18.0289C14.4636 17.8944 14.4636 17.7599 14.5309 17.6926C14.7327 17.0199 14.9346 16.3471 15.1364 15.6744C15.1364 15.6071 15.1364 15.4726 15.1364 15.4053C14.8673 14.7326 14.5982 14.0599 14.2618 13.4544C14.1946 13.3199 14.1273 13.3199 14.06 13.3199C12.8491 13.4544 11.7727 12.8489 11.2346 11.7053C10.6964 10.4271 10.1582 9.14895 9.62001 7.87076C9.62001 7.80349 9.55273 7.73622 9.55273 7.66895C9.95637 7.80349 10.36 7.93804 10.6964 8.07258C12.4455 8.61076 14.1273 9.21622 15.8764 9.7544C16.0109 9.82167 16.0782 9.88895 16.0782 9.95622C16.4146 10.9653 16.0782 12.0417 15.2709 12.7144C15.2036 12.7817 15.2036 12.7817 15.1364 12.8489C15.4055 13.4544 15.6746 14.0599 15.8764 14.6653C16.0109 15.0017 16.2127 15.2035 16.5491 15.4053C17.02 15.6071 17.4909 15.8762 17.9618 16.1453C18.1636 16.2799 18.2982 16.3471 18.4327 16.5489C18.5 16.6835 18.5 16.7508 18.5 16.8853ZM13.5891 11.0999C13.8582 11.0999 14.1273 10.898 14.1273 10.5617C14.1273 10.2926 13.8582 10.0235 13.5891 10.0235C13.32 10.0235 13.0509 10.2926 13.0509 10.5617C13.0509 10.898 13.2527 11.0999 13.5891 11.0999Z"
        fill="#39B96F" />
    <path
        d="M12.3783 0C12.6474 0.0672727 12.7819 0.269091 12.8492 0.538182C12.9837 1.07636 13.1183 1.54727 13.1855 2.08545C13.2528 2.42182 13.1183 2.69091 12.7819 2.75818C12.5128 2.82545 12.1764 2.69091 12.1092 2.35455C11.9746 1.81636 11.8401 1.21091 11.7055 0.672727C11.6383 0.403636 11.7728 0.201818 12.1092 0C12.1764 0 12.2437 0 12.3783 0Z"
        fill="#39B96F" />
    <path
        d="M2.35449 10.0236C2.42176 9.8218 2.48904 9.61999 2.62358 9.41817C3.29631 7.73635 4.03631 6.05453 4.70904 4.30544C4.91086 3.83453 5.11267 3.76726 5.58358 3.9018C6.72722 4.37271 7.87086 4.84362 9.01449 5.3818C9.14904 5.44908 9.21631 5.44908 9.35086 5.3818C10.4945 4.91089 11.6381 4.37271 12.849 3.9018C13.2527 3.69999 13.5218 3.83453 13.7236 4.23817C14.2618 5.58362 14.8672 6.92908 15.4054 8.27453C15.4054 8.3418 15.4727 8.3418 15.4727 8.47635C13.4545 7.80362 11.4363 7.13089 9.41813 6.52544C9.28358 6.8618 9.08177 7.26544 8.94722 7.6018C8.87995 7.80362 8.7454 7.93817 8.47631 8.00544C6.45813 8.67817 4.50722 9.35089 2.48904 9.95635C2.48904 10.0236 2.42176 10.0236 2.35449 10.0236ZM6.25631 6.32362C5.98722 6.32362 5.71813 6.59271 5.71813 6.8618C5.71813 7.13089 5.98722 7.39999 6.25631 7.39999C6.5254 7.39999 6.79449 7.13089 6.79449 6.8618C6.72722 6.52544 6.5254 6.32362 6.25631 6.32362Z"
        fill="#39B96F" />
    <path
        d="M2.28727 11.2345C4.30545 10.5618 6.25636 9.88904 8.27455 9.21631C8.27455 9.28358 8.27455 9.28358 8.20727 9.35085C7.87091 10.1581 7.53455 10.9654 7.19818 11.7727C6.72727 12.849 5.65091 13.4545 4.44 13.3199C4.30545 13.3199 4.23818 13.3199 4.23818 13.4545C3.90182 14.1272 3.63273 14.7999 3.36364 15.4054C3.29636 15.4727 3.29636 15.6072 3.36364 15.6745C3.56545 16.3472 3.76727 17.0199 3.96909 17.6254C4.03636 17.9618 4.03636 18.1636 3.83455 18.3654C3.63273 18.5672 3.43091 18.4999 3.16182 18.4327C2.22 18.029 1.34545 17.6254 0.403636 17.289C0.134545 17.1545 0 17.0199 0 16.7509C0 16.4818 0.134545 16.3472 0.336364 16.2127C0.941818 15.8763 1.54727 15.5399 2.15273 15.2036C2.22 15.1363 2.28727 15.1363 2.28727 15.069C2.62364 14.329 2.89273 13.589 3.22909 12.849C2.75818 12.4454 2.42182 11.9072 2.28727 11.2345Z"
        fill="#39B96F" />
    <path
        d="M18.0292 3.90183C18.0292 4.17092 17.8946 4.37274 17.6255 4.44001C17.0201 4.57456 16.4146 4.7091 15.8092 4.84365C15.5401 4.91092 15.271 4.7091 15.2037 4.37274C15.1364 4.10365 15.3383 3.83456 15.6073 3.76729C16.0783 3.63274 16.5492 3.56547 17.0201 3.43092C17.0873 3.43092 17.2219 3.36365 17.2892 3.36365C17.6928 3.29638 18.0292 3.56547 18.0292 3.90183Z"
        fill="#39B96F" />
    <path
        d="M14.531 3.43074C14.1274 3.43074 13.8583 3.0271 14.0601 2.62347C14.3964 2.08528 14.6655 1.5471 15.0019 1.07619C15.1364 0.807103 15.4728 0.807103 15.7419 0.941648C16.011 1.07619 16.0783 1.41256 15.9437 1.68165C15.6074 2.21983 15.3383 2.69074 15.0019 3.22892C14.8674 3.36347 14.6655 3.43074 14.531 3.43074Z"
        fill="#39B96F" />
    <path
        d="M4.43989 1.41269C4.43989 1.68178 4.23807 1.95088 3.90171 1.95088C3.63262 1.95088 3.36353 1.74906 3.36353 1.41269C3.36353 1.1436 3.63262 0.874512 3.90171 0.874512C4.1708 0.874512 4.43989 1.1436 4.43989 1.41269Z"
        fill="#39B96F" />
    <path
        d="M3.9018 3.36362C3.9018 3.63271 3.69999 3.9018 3.36362 3.9018C3.09453 3.9018 2.82544 3.63271 2.82544 3.36362C2.82544 3.09453 3.09453 2.82544 3.36362 2.82544C3.63271 2.82544 3.9018 3.09453 3.9018 3.36362Z"
        fill="#39B96F" />
    <path
        d="M6.2563 2.42197C6.2563 2.69106 5.9872 2.96015 5.71811 2.96015C5.38175 2.96015 5.17993 2.69106 5.17993 2.42197C5.17993 2.15288 5.44902 1.88379 5.71811 1.88379C5.9872 1.88379 6.2563 2.15288 6.2563 2.42197Z"
        fill="#39B96F" />
</svg>
