<svg width="8" height="12" viewBox="0 0 13 18" fill="none" xmlns="http://www.w3.org/2000/svg">
<path d="M1.85714 17.1C1.34643 17.1 0.909226 16.9238 0.545536 16.5713C0.181845 16.2188 0 15.795 0 15.3V5.4C0 4.905 0.181845 4.48125 0.545536 4.12875C0.909226 3.77625 1.34643 3.6 1.85714 3.6H3.71429V1.35C3.71429 0.975 3.8497 0.65625 4.12054 0.39375C4.39137 0.13125 4.72024 0 5.10714 0H7.89286C8.27976 0 8.60863 0.13125 8.87946 0.39375C9.1503 0.65625 9.28571 0.975 9.28571 1.35V3.6H11.1429C11.6536 3.6 12.0908 3.77625 12.4545 4.12875C12.8182 4.48125 13 4.905 13 5.4V15.3C13 15.795 12.8182 16.2188 12.4545 16.5713C12.0908 16.9238 11.6536 17.1 11.1429 17.1C11.1429 17.355 11.0539 17.5688 10.8759 17.7413C10.6979 17.9138 10.4774 18 10.2143 18C9.95119 18 9.73066 17.9138 9.55268 17.7413C9.3747 17.5688 9.28571 17.355 9.28571 17.1H3.71429C3.71429 17.355 3.6253 17.5688 3.44732 17.7413C3.26935 17.9138 3.04881 18 2.78571 18C2.52262 18 2.30208 17.9138 2.12411 17.7413C1.94613 17.5688 1.85714 17.355 1.85714 17.1ZM2.78571 14.4H4.17857V6.3H2.78571V14.4ZM5.80357 14.4H7.19643V6.3H5.80357V14.4ZM8.82143 14.4H10.2143V6.3H8.82143V14.4ZM5.10714 3.6H7.89286V1.35H5.10714V3.6Z" fill="#B0B0B0"/>
</svg>
