<svg width="41" height="41" viewBox="0 0 41 41" fill="none" xmlns="http://www.w3.org/2000/svg">
<rect x="0.5" y="0.5" width="40" height="40" rx="20" transform="matrix(4.37114e-08 1 1 -4.37114e-08 2.18557e-08 -2.18557e-08)" fill="black" fill-opacity="0.2" stroke="#E7E7E7"/>
<path d="M28 22C28.5523 22 29 21.5523 29 21C29 20.4477 28.5523 20 28 20V22ZM12.2929 20.2929C11.9024 20.6834 11.9024 21.3166 12.2929 21.7071L18.6569 28.0711C19.0474 28.4616 19.6805 28.4616 20.0711 28.0711C20.4616 27.6805 20.4616 27.0474 20.0711 26.6569L14.4142 21L20.0711 15.3431C20.4616 14.9526 20.4616 14.3195 20.0711 13.9289C19.6805 13.5384 19.0474 13.5384 18.6569 13.9289L12.2929 20.2929ZM28 20L13 20V22H28V20Z" fill="white"/>
</svg>
