<svg width="20" height="15" viewBox="0 0 20 15" fill="none" xmlns="http://www.w3.org/2000/svg">
<path d="M17.0703 8.18841C16.5903 8.18841 16.1435 8.31528 15.7433 8.52045L14.9513 7.58098C15.3024 7.37383 15.6822 7.21451 16.0837 7.1248C16.411 7.05123 16.7354 7.02427 17.0735 7.01924C17.5102 7.02259 17.9399 6.85063 18.2614 6.5326C18.5968 6.20132 18.7891 5.74041 18.7891 5.19543C18.7891 2.19987 16.261 0 13.5918 0H12.9297C12.6059 0 12.3438 0.261676 12.3438 0.584886C12.3438 0.908097 12.6059 1.16977 12.9297 1.16977H13.5918C13.7663 1.16977 13.9328 1.19978 14.1016 1.22141V2.35158C13.7613 2.38234 13.4409 2.48744 13.1377 2.62833C13.1339 2.62391 13.129 2.62102 13.1253 2.6166C12.6443 2.84111 12.2298 3.1922 11.9295 3.64183L10.5957 5.63867C10.5042 5.77514 10.36 5.86714 10.1968 5.89227C9.01062 6.07429 7.98233 6.82915 7.44232 7.93145C7.94281 8.6781 8.24219 9.56761 8.24219 10.528H7.03125C7.03125 8.5928 5.45425 7.01863 3.51562 7.01863C1.577 7.01863 0 8.5928 0 10.528C0 12.4631 1.577 14.0373 3.51562 14.0373C5.04135 14.0373 6.32996 13.0564 6.81534 11.6977H12.3438C12.6675 11.6977 12.9297 11.436 12.9297 11.1128C12.9297 10.7878 12.9686 10.4559 13.0447 10.1271C13.2043 9.44408 13.5602 8.82249 14.0378 8.31467L14.8286 9.25278C14.4055 9.75983 14.1406 10.4029 14.1406 11.1128C14.1406 12.7252 15.455 14.0373 17.0703 14.0373C18.6856 14.0373 20 12.7252 20 11.1128C20 9.50044 18.6856 8.18841 17.0703 8.18841ZM3.51562 12.8675C2.22305 12.8675 1.17188 11.8182 1.17188 10.528C1.17188 9.2377 2.22305 8.18841 3.51562 8.18841C4.8082 8.18841 5.85938 9.2377 5.85938 10.528H4.10156C3.77823 10.528 3.51562 10.2658 3.51562 9.94306C3.51562 9.61985 3.25348 9.35818 2.92969 9.35818C2.6059 9.35818 2.34375 9.61985 2.34375 9.94306C2.34375 10.9106 3.13232 11.6977 4.10156 11.6977H5.53345C5.12695 12.3936 4.37943 12.8675 3.51562 12.8675ZM17.0703 12.8675C16.1011 12.8675 15.3125 12.0803 15.3125 11.1128C15.3125 10.7739 15.4137 10.46 15.5811 10.1913L16.6125 11.4784C16.8163 11.732 17.1852 11.7702 17.4365 11.5698C17.6889 11.3675 17.7301 10.9998 17.5281 10.7473L16.4978 9.46175C16.6782 9.39915 16.8687 9.35818 17.0703 9.35818C18.0396 9.35818 18.8281 10.1453 18.8281 11.1128C18.8281 12.0803 18.0396 12.8675 17.0703 12.8675Z" fill="#666666"/>
</svg>
