<svg width="7" height="10" viewBox="0 0 7 10" fill="none" xmlns="http://www.w3.org/2000/svg">
<path d="M0.706275 0C2.57995 0 4.45362 0 6.32729 0C6.33312 0.00583698 6.33312 0.011674 6.33896 0.011674C6.78841 0.128414 6.99854 0.402752 6.99854 0.86971C6.99854 3.4088 6.99854 5.94205 6.99854 8.48113C6.99854 8.59204 7.00438 8.6971 6.9927 8.808C6.98687 8.88972 6.96936 8.97728 6.93433 9.05316C6.85262 9.23994 6.66 9.3275 6.46738 9.26329C6.36815 9.22827 6.26892 9.1699 6.1872 9.10569C5.40504 8.44028 4.62289 7.77486 3.84073 7.10944C3.6306 6.9285 3.39129 6.9285 3.18699 7.10944C2.60329 7.60559 2.0196 8.10173 1.44173 8.59204C1.21993 8.77882 0.998124 8.97728 0.770482 9.15822C0.443611 9.41505 0.0817177 9.27496 0.00583698 8.87805C0 8.83135 0 8.78466 0 8.7438C0 6.09965 0 3.44966 0 0.805503C0 0.537002 0.110903 0.315197 0.332708 0.169272C0.443611 0.0933917 0.583698 0.0525328 0.706275 0Z" fill="#39B96F"/>
</svg>
