<svg width="16" height="12" viewBox="0 0 16 12" fill="none" xmlns="http://www.w3.org/2000/svg">
<path d="M1.45455 11.5556C1.05455 11.5556 0.712121 11.4141 0.427273 11.1312C0.142424 10.8484 0 10.5083 0 10.1111V2.16667H1.45455V10.1111H13.8182V11.5556H1.45455ZM4.36364 8.66667C3.96364 8.66667 3.62121 8.52523 3.33636 8.24236C3.05152 7.95949 2.90909 7.61944 2.90909 7.22222V1.44444C2.90909 1.04722 3.05152 0.707176 3.33636 0.424306C3.62121 0.141435 3.96364 0 4.36364 0H14.5455C14.9455 0 15.2879 0.141435 15.5727 0.424306C15.8576 0.707176 16 1.04722 16 1.44444V7.22222C16 7.61944 15.8576 7.95949 15.5727 8.24236C15.2879 8.52523 14.9455 8.66667 14.5455 8.66667H4.36364ZM5.81818 7.22222C5.81818 6.825 5.67576 6.48495 5.39091 6.20208C5.10606 5.91921 4.76364 5.77778 4.36364 5.77778V7.22222H5.81818ZM13.0909 7.22222H14.5455V5.77778C14.1455 5.77778 13.803 5.91921 13.5182 6.20208C13.2333 6.48495 13.0909 6.825 13.0909 7.22222ZM9.45455 6.5C10.0606 6.5 10.5758 6.28935 11 5.86806C11.4242 5.44676 11.6364 4.93518 11.6364 4.33333C11.6364 3.73148 11.4242 3.21991 11 2.79861C10.5758 2.37731 10.0606 2.16667 9.45455 2.16667C8.84848 2.16667 8.33333 2.37731 7.90909 2.79861C7.48485 3.21991 7.27273 3.73148 7.27273 4.33333C7.27273 4.93518 7.48485 5.44676 7.90909 5.86806C8.33333 6.28935 8.84848 6.5 9.45455 6.5ZM4.36364 2.88889C4.76364 2.88889 5.10606 2.74745 5.39091 2.46458C5.67576 2.18171 5.81818 1.84167 5.81818 1.44444H4.36364V2.88889ZM14.5455 2.88889V1.44444H13.0909C13.0909 1.84167 13.2333 2.18171 13.5182 2.46458C13.803 2.74745 14.1455 2.88889 14.5455 2.88889Z" fill="#39B96F"/>
</svg>
