<svg width="15" height="15" viewBox="0 0 15 15" fill="none" xmlns="http://www.w3.org/2000/svg">
<path d="M3.6 0C1.63125 0 0.9 0.650391 0.9 2.4V12.3C0.9 12.7078 1.01953 13.002 1.2 13.2188V14.1C1.2 14.5957 1.6043 15 2.1 15H3.3C3.7957 15 4.2 14.5957 4.2 14.1V13.8H10.8V14.1C10.8 14.5957 11.2043 15 11.7 15H12.9C13.3957 15 13.8 14.5957 13.8 14.1V13.2188C13.9805 13.002 14.1 12.7078 14.1 12.3V2.7C14.1 1.39336 13.9383 0 12 0H3.6ZM4.5 1.2H10.8C10.9664 1.2 11.1 1.33477 11.1 1.5V2.1C11.1 2.26523 10.9664 2.4 10.8 2.4H4.5C4.33477 2.4 4.2 2.26523 4.2 2.1V1.5C4.2 1.33477 4.33477 1.2 4.5 1.2ZM3.3 3.3H11.7C12.3 3.3 12.6 3.6 12.6 4.2V7.8C12.6 8.4 12.0141 8.68125 11.7 8.68125L3.3 8.7C2.7 8.7 2.4 8.4 2.4 7.8V4.2C2.4 3.6 2.7 3.3 3.3 3.3ZM0.6 3.6C0.269531 3.6 0 3.86953 0 4.2V6.6C0 6.93047 0.269531 7.2 0.6 7.2V3.6ZM14.4 3.6V7.2C14.7316 7.2 15 6.93047 15 6.6V4.2C15 3.86953 14.7316 3.6 14.4 3.6ZM3.45 10.2C4.03008 10.2 4.5 10.6699 4.5 11.25C4.5 11.8301 4.03008 12.3 3.45 12.3C2.86992 12.3 2.4 11.8301 2.4 11.25C2.4 10.6699 2.86992 10.2 3.45 10.2ZM11.55 10.2C12.1301 10.2 12.6 10.6699 12.6 11.25C12.6 11.8301 12.1301 12.3 11.55 12.3C10.9699 12.3 10.5 11.8301 10.5 11.25C10.5 10.6699 10.9699 10.2 11.55 10.2Z" fill="#39B96F"/>
</svg>
