<svg width="19" height="18" viewBox="0 0 19 18" fill="none" xmlns="http://www.w3.org/2000/svg">
    <path
        d="M16.9259 17.1375H1.35407C0.605948 17.1375 0 16.5233 0 15.7665V7.5405C0 7.5405 3.53481 9.38107 6.77037 10.1344V10.968C6.77037 11.3471 7.07301 11.6535 7.44741 11.6535H10.8326C11.2063 11.6535 11.5096 11.3471 11.5096 10.968V10.1344C14.7445 9.38107 18.28 7.5405 18.28 7.5405V15.7665C18.28 16.5233 17.6734 17.1375 16.9259 17.1375ZM10.1556 8.9115C10.5293 8.9115 10.8326 9.21792 10.8326 9.597V10.2825C10.8326 10.6616 10.5293 10.968 10.1556 10.968H8.12444C7.75004 10.968 7.44741 10.6616 7.44741 10.2825V9.597C7.44741 9.21792 7.75004 8.9115 8.12444 8.9115H10.1556ZM11.5096 8.9115C11.5096 8.53242 11.2063 8.226 10.8326 8.226H7.44741C7.07301 8.226 6.77037 8.53242 6.77037 8.9115V9.52571C3.53481 8.74972 0 6.855 0 6.855V4.113C0 3.35621 0.605948 2.742 1.35407 2.742H5.4163V1.371C5.4163 0.614208 6.02292 0 6.77037 0H11.5096C12.2571 0 12.8637 0.614208 12.8637 1.371V2.742H16.9259C17.6734 2.742 18.28 3.35621 18.28 4.113V6.855C18.28 6.855 14.7445 8.74972 11.5096 9.52571V8.9115ZM11.5096 2.0565C11.5096 1.67742 11.2063 1.371 10.8326 1.371H7.44741C7.07301 1.371 6.77037 1.67742 6.77037 2.0565C6.77037 2.4349 6.77037 2.742 6.77037 2.742H11.5096C11.5096 2.742 11.5096 2.4349 11.5096 2.0565Z"
        fill="#39B96F" />
</svg>
