<svg fill="none" height="52" viewBox="0 0 52 52" width="52" xmlns="http://www.w3.org/2000/svg">
    <path
        d="M15.1666 14.0833H8.66663V12.1333C8.66663 11.375 9.20829 10.8333 9.96663 10.8333H13.8666C14.625 10.8333 15.1666 11.375 15.1666 12.1333V14.0833Z"
        fill="#07411F" />
    <path
        d="M43.3334 43.3333H8.66671C6.28337 43.3333 4.33337 41.3833 4.33337 39V23.8333H47.6667V39C47.6667 41.3833 45.7167 43.3333 43.3334 43.3333Z"
        fill="#07411F" />
    <path
        d="M13.7583 23.8333C13.325 25.2417 13 26.65 13 28.1667C13 35.3167 18.85 41.1667 26 41.1667C33.15 41.1667 39 35.3167 39 28.1667C39 26.65 38.675 25.2417 38.2417 23.8333H13.7583Z"
        fill="#0F304F" />
    <path
        d="M8.66671 13H43.3334C45.7167 13 47.6667 14.95 47.6667 17.3333V23.8333H4.33337V17.3333C4.33337 14.95 6.28337 13 8.66671 13Z"
        fill="#78909C" />
    <path
        d="M36.725 14.1917H15.3833L19.0666 8.66668C19.5 8.01668 20.15 7.69168 20.9083 7.69168H31.3083C32.0666 7.69168 32.7166 8.01668 33.15 8.66668L36.725 14.1917Z"
        fill="#78909C" />
    <path
        d="M38.2416 23.8333C36.5083 18.7417 31.6333 15.1667 26 15.1667C20.3666 15.1667 15.4916 18.7417 13.7583 23.8333H38.2416Z"
        fill="#07411F" />
    <path
        d="M26 37.9167C31.3848 37.9167 35.75 33.5514 35.75 28.1667C35.75 22.7819 31.3848 18.4167 26 18.4167C20.6152 18.4167 16.25 22.7819 16.25 28.1667C16.25 33.5514 20.6152 37.9167 26 37.9167Z"
        fill="#39B961" />
    <path
        d="M31.4166 24.9167C30.1166 23.4 28.1666 22.5333 26.2166 22.5333C24.2666 22.5333 22.3166 23.4 21.0166 24.9167C20.475 25.4583 20.5833 26.325 21.125 26.8667C21.6666 27.4083 22.5333 27.3 23.075 26.7583C24.7 24.9167 27.7333 24.9167 29.3583 26.7583C29.6833 27.0833 30.0083 27.1917 30.4416 27.1917C30.7666 27.1917 31.0916 27.0833 31.4166 26.8667C31.85 26.4333 31.9583 25.4583 31.4166 24.9167Z"
        fill="#39B961" />
    <path d="M39 16.25H44.4167V20.5833H39V16.25Z" fill="#DBE2E5" />
</svg>
