<svg width="15" height="15" viewBox="0 0 15 15" fill="none" xmlns="http://www.w3.org/2000/svg">
<path d="M2.5 13.3333V14.1667C2.5 14.4028 2.42014 14.6007 2.26042 14.7604C2.10069 14.9201 1.90278 15 1.66667 15H0.833333C0.597222 15 0.399306 14.9201 0.239583 14.7604C0.0798611 14.6007 0 14.4028 0 14.1667V7.5L1.75 2.5C1.83333 2.25 1.98264 2.04861 2.19792 1.89583C2.41319 1.74306 2.65278 1.66667 2.91667 1.66667H5V0H10V1.66667H12.0833C12.3472 1.66667 12.5868 1.74306 12.8021 1.89583C13.0174 2.04861 13.1667 2.25 13.25 2.5L15 7.5V14.1667C15 14.4028 14.9201 14.6007 14.7604 14.7604C14.6007 14.9201 14.4028 15 14.1667 15H13.3333C13.0972 15 12.8993 14.9201 12.7396 14.7604C12.5799 14.6007 12.5 14.4028 12.5 14.1667V13.3333H2.5ZM2.33333 5.83333H12.6667L11.7917 3.33333H3.20833L2.33333 5.83333ZM3.75 10.8333C4.09722 10.8333 4.39236 10.7118 4.63542 10.4688C4.87847 10.2257 5 9.93056 5 9.58333C5 9.23611 4.87847 8.94097 4.63542 8.69792C4.39236 8.45486 4.09722 8.33333 3.75 8.33333C3.40278 8.33333 3.10764 8.45486 2.86458 8.69792C2.62153 8.94097 2.5 9.23611 2.5 9.58333C2.5 9.93056 2.62153 10.2257 2.86458 10.4688C3.10764 10.7118 3.40278 10.8333 3.75 10.8333ZM11.25 10.8333C11.5972 10.8333 11.8924 10.7118 12.1354 10.4688C12.3785 10.2257 12.5 9.93056 12.5 9.58333C12.5 9.23611 12.3785 8.94097 12.1354 8.69792C11.8924 8.45486 11.5972 8.33333 11.25 8.33333C10.9028 8.33333 10.6076 8.45486 10.3646 8.69792C10.1215 8.94097 10 9.23611 10 9.58333C10 9.93056 10.1215 10.2257 10.3646 10.4688C10.6076 10.7118 10.9028 10.8333 11.25 10.8333Z" fill="#39B96F"/>
</svg>
