<svg width="18" height="20" viewBox="0 0 18 20" fill="none" xmlns="http://www.w3.org/2000/svg">
<path d="M15.7127 12.1432H16.4269C16.6164 12.1432 16.798 12.068 16.932 11.934C17.0659 11.8001 17.1411 11.6184 17.1411 11.429C17.1411 11.2396 17.0659 11.0579 16.932 10.924C16.798 10.79 16.6164 10.7148 16.4269 10.7148H14.7257L13.8893 9.04209C13.7125 8.68537 13.4392 8.38535 13.1005 8.17604C12.7618 7.96674 12.3712 7.85653 11.9731 7.85792H5.16806C4.76991 7.85653 4.37933 7.96674 4.04064 8.17604C3.70194 8.38535 3.42867 8.68537 3.25182 9.04209L2.41547 10.7148H0.714214C0.524793 10.7148 0.34313 10.79 0.209189 10.924C0.0752475 11.0579 0 11.2396 0 11.429C0 11.6184 0.0752475 11.8001 0.209189 11.934C0.34313 12.068 0.524793 12.1432 0.714214 12.1432H1.42843L0.428529 13.4759C0.151284 13.8473 0.00102267 14.2981 0 14.7615V16.4285C0.000752742 16.6781 0.0671385 16.9232 0.192497 17.139C0.317855 17.3549 0.497778 17.534 0.714214 17.6584V18.5711C0.714214 18.95 0.864709 19.3133 1.13259 19.5812C1.40047 19.8491 1.7638 19.9996 2.14264 19.9996H3.57107C3.94991 19.9996 4.31324 19.8491 4.58112 19.5812C4.84901 19.3133 4.9995 18.95 4.9995 18.5711V17.8569H12.1416V18.5711C12.1416 18.95 12.2921 19.3133 12.56 19.5812C12.8279 19.8491 13.1912 19.9996 13.5701 19.9996H14.9985C15.3773 19.9996 15.7407 19.8491 16.0086 19.5812C16.2764 19.3133 16.4269 18.95 16.4269 18.5711V17.6584C16.6434 17.534 16.8233 17.3549 16.9486 17.139C17.074 16.9232 17.1404 16.6781 17.1411 16.4285V14.7622C17.1404 14.2988 16.9901 13.8479 16.7126 13.4766L15.7127 12.1432ZM14.2843 14.2859C14.4962 14.2859 14.7033 14.3487 14.8795 14.4664C15.0557 14.5841 15.193 14.7514 15.2741 14.9472C15.3551 15.143 15.3764 15.3584 15.335 15.5662C15.2937 15.774 15.1917 15.9649 15.0418 16.1147C14.892 16.2645 14.7011 16.3666 14.4933 16.4079C14.2855 16.4492 14.0701 16.428 13.8743 16.3469C13.6786 16.2659 13.5112 16.1285 13.3935 15.9524C13.2758 15.7762 13.213 15.5691 13.213 15.3572C13.213 15.073 13.3258 14.8005 13.5267 14.5996C13.7277 14.3987 14.0002 14.2859 14.2843 14.2859ZM3.42823 11.8575C3.45383 11.823 3.47652 11.7865 3.49608 11.7482L4.52955 9.68131C4.58882 9.5627 4.67995 9.46292 4.79272 9.39316C4.90549 9.32341 5.03545 9.28642 5.16806 9.28635H11.9731C12.1057 9.28642 12.2357 9.32341 12.3484 9.39316C12.4612 9.46292 12.5523 9.5627 12.6116 9.68131L13.6451 11.7482C13.6646 11.7865 13.6873 11.823 13.7129 11.8575L13.7365 11.8882L13.5336 12.0232C13.4176 12.1009 13.2812 12.1427 13.1415 12.1432H4.00317C3.8623 12.1434 3.72456 12.1016 3.6075 12.0232L3.40466 11.8882L3.42823 11.8575ZM2.85686 14.2859C3.06874 14.2859 3.27587 14.3487 3.45205 14.4664C3.62823 14.5841 3.76554 14.7514 3.84663 14.9472C3.92772 15.143 3.94893 15.3584 3.90759 15.5662C3.86626 15.774 3.76422 15.9649 3.6144 16.1147C3.46457 16.2645 3.27368 16.3666 3.06586 16.4079C2.85805 16.4492 2.64264 16.428 2.44688 16.3469C2.25112 16.2659 2.0838 16.1285 1.96609 15.9524C1.84837 15.7762 1.78554 15.5691 1.78554 15.3572C1.78554 15.073 1.89841 14.8005 2.09932 14.5996C2.30023 14.3987 2.57273 14.2859 2.85686 14.2859Z" fill="#666666"/>
<path d="M16.009 2.56316L15.2948 1.84895C15.027 1.58105 14.6637 1.4305 14.2849 1.43042H7.12848C6.63471 0.774659 5.93111 0.307937 5.13494 0.108052C4.33878 -0.0918339 3.49816 -0.0128074 2.7532 0.331959C1.94303 0.696712 1.3069 1.36282 0.979805 2.18892C0.738931 2.78058 0.659093 3.42549 0.748416 4.05803C0.837739 4.69057 1.09304 5.28816 1.48833 5.78999C1.82612 6.21838 2.25798 6.5633 2.75045 6.79803C3.24293 7.03276 3.78282 7.15101 4.32832 7.14362C4.87383 7.13623 5.41032 7.0034 5.89626 6.75542C6.3822 6.50744 6.80455 6.15095 7.13062 5.71356H8.06624C8.18377 5.71847 8.3004 5.69103 8.40341 5.63424C8.50643 5.57744 8.59188 5.49346 8.65047 5.39145C8.70999 5.27335 8.80113 5.1741 8.91374 5.10475C9.02635 5.0354 9.15601 4.99868 9.28826 4.99868C9.42051 4.99868 9.55017 5.0354 9.66278 5.10475C9.77539 5.1741 9.86653 5.27335 9.92605 5.39145C9.98464 5.49346 10.0701 5.57744 10.1731 5.63424C10.2761 5.69103 10.3927 5.71847 10.5103 5.71356H10.9231C11.0406 5.71847 11.1573 5.69103 11.2603 5.63424C11.3633 5.57744 11.4487 5.49346 11.5073 5.39145C11.5668 5.27335 11.658 5.1741 11.7706 5.10475C11.8832 5.0354 12.0129 4.99868 12.1451 4.99868C12.2774 4.99868 12.407 5.0354 12.5196 5.10475C12.6322 5.1741 12.7234 5.27335 12.7829 5.39145C12.8415 5.49346 12.927 5.57744 13.03 5.63424C13.133 5.69103 13.2496 5.71847 13.3671 5.71356H14.2849C14.6637 5.71348 15.027 5.56294 15.2948 5.29504L16.009 4.58082C16.2762 4.31304 16.4262 3.95024 16.4262 3.57199C16.4262 3.19375 16.2762 2.83095 16.009 2.56316ZM4.2859 5.00149C4.00339 5.00149 3.72722 4.91772 3.49231 4.76076C3.25741 4.6038 3.07432 4.38071 2.96621 4.1197C2.85809 3.85869 2.82981 3.57148 2.88492 3.29439C2.94004 3.0173 3.07608 2.76278 3.27585 2.56301C3.47562 2.36324 3.73014 2.2272 4.00723 2.17208C4.28432 2.11697 4.57153 2.14525 4.83254 2.25337C5.09355 2.36148 5.31664 2.54457 5.4736 2.77947C5.63056 3.01438 5.71433 3.29055 5.71433 3.57306C5.71433 3.95191 5.56384 4.31523 5.29596 4.58312C5.02807 4.851 4.66475 5.00149 4.2859 5.00149Z" fill="#666666"/>
</svg>
