<svg width="14" height="14" viewBox="0 0 14 14" fill="none" xmlns="http://www.w3.org/2000/svg">
<path fill-rule="evenodd" clip-rule="evenodd" d="M0.430664 7.5481H5.88517C6.11816 7.5481 6.30866 7.77518 6.30866 8.05228V13.3613C6.30866 13.6388 6.11828 13.8657 5.88517 13.8657H0.430664C0.1979 13.8657 0.00717773 13.6388 0.00717773 13.3613V8.05228C0.00717773 7.77518 0.1979 7.5481 0.430664 7.5481ZM8.11471 0H13.5693C13.8024 0 13.9928 0.226847 13.9928 0.504296V5.81328C13.9928 6.09073 13.8024 6.31734 13.5693 6.31734H8.11471C7.88172 6.31734 7.69157 6.09073 7.69157 5.81328V0.504296C7.69157 0.226847 7.88172 0 8.11471 0ZM0.423145 0H5.878C6.11099 0 6.30148 0.226847 6.30148 0.504296V5.81328C6.30148 6.09073 6.1111 6.31734 5.878 6.31734H0.423145C0.190381 6.31734 0 6.09073 0 5.81328V0.504296C0 0.226847 0.190381 0 0.423145 0ZM8.12189 7.68266H13.5765C13.8093 7.68266 14 7.9095 14 8.18707V13.496C14 13.7732 13.8093 14 13.5765 14H8.12189C7.8889 14 7.69841 13.7732 7.69841 13.496V8.18707C7.69841 7.9095 7.8889 7.68266 8.12189 7.68266Z" fill="#39B96F"/>
</svg>
