<svg width="18" height="16" viewBox="0 0 18 16" fill="none" xmlns="http://www.w3.org/2000/svg">
<path d="M17.2496 2.80551H15.4441M17.2496 8.22204H12.7358M17.2496 13.6386H12.7358M4.61102 15.4441V9.63143C4.61102 9.44365 4.61102 9.34977 4.59259 9.25994C4.57624 9.18032 4.54919 9.10322 4.51219 9.03073C4.47047 8.94912 4.41182 8.87582 4.29451 8.72912L1.31652 5.00666C1.1992 4.86003 1.14055 4.78671 1.09883 4.70506C1.06183 4.63262 1.03478 4.55552 1.01843 4.47584C1 4.38604 1 4.29214 1 4.10435V2.44441C1 1.93882 1 1.68602 1.09839 1.49291C1.18495 1.32305 1.32305 1.18495 1.49291 1.09839C1.68602 1 1.93882 1 2.44441 1H10.3887C10.8943 1 11.1471 1 11.3402 1.09839C11.5101 1.18495 11.6481 1.32305 11.7347 1.49291C11.8331 1.68602 11.8331 1.93882 11.8331 2.44441V4.10435C11.8331 4.29214 11.8331 4.38604 11.8147 4.47584C11.7983 4.55552 11.7712 4.63262 11.7342 4.70506C11.6925 4.78671 11.6338 4.86003 11.5166 5.00666L8.53855 8.72912C8.42128 8.87582 8.3626 8.94912 8.3209 9.03073C8.28388 9.10322 8.2568 9.18032 8.24046 9.25994C8.22204 9.34977 8.22204 9.44365 8.22204 9.63143V12.7358L4.61102 15.4441Z" stroke="#06140C" stroke-linecap="round" stroke-linejoin="round"/>
</svg>
