<svg width="146" height="84" viewBox="0 0 146 84" fill="none" xmlns="http://www.w3.org/2000/svg">
<g opacity="0.9" filter="url(#filter0_d_3857_2863)">
<path fill-rule="evenodd" clip-rule="evenodd" d="M131 4C135.418 4 139 7.58172 139 12V66C139 70.4183 135.418 74 131 74H22.0001C17.5818 74 14.0001 70.4183 14.0001 66V65.6205L7.55252 62.3943C6.81583 62.0257 6.81583 60.9743 7.55252 60.6057L14.0001 57.3795V12C14.0001 7.58172 17.5818 4 22.0001 4H131Z" fill="#39B96F"/>
</g>
<path d="M27.6901 65.05C27.2301 65.05 26.7935 64.9567 26.3801 64.77C25.9735 64.5833 25.6135 64.3267 25.3001 64C24.9935 63.6667 24.7535 63.28 24.5801 62.84C24.4068 62.4 24.3201 61.9233 24.3201 61.41C24.3201 60.9233 24.4068 60.4667 24.5801 60.04C24.7535 59.6067 24.9968 59.2267 25.3101 58.9C25.6235 58.5733 25.9901 58.3167 26.4101 58.13C26.8301 57.9433 27.2868 57.85 27.7801 57.85C28.4468 57.85 29.0168 57.9933 29.4901 58.28C29.9701 58.56 30.3301 58.9333 30.5701 59.4L29.5401 60.16C29.3601 59.8067 29.1068 59.5367 28.7801 59.35C28.4601 59.1633 28.1101 59.07 27.7301 59.07C27.4301 59.07 27.1568 59.1333 26.9101 59.26C26.6635 59.3867 26.4501 59.56 26.2701 59.78C26.0901 60 25.9501 60.2533 25.8501 60.54C25.7568 60.8267 25.7101 61.13 25.7101 61.45C25.7101 61.79 25.7601 62.1033 25.8601 62.39C25.9668 62.6767 26.1135 62.9267 26.3001 63.14C26.4935 63.3533 26.7168 63.5233 26.9701 63.65C27.2235 63.77 27.5035 63.83 27.8101 63.83C28.1701 63.83 28.5135 63.7367 28.8401 63.55C29.1735 63.3633 29.4835 63.09 29.7701 62.73V64.09C29.1768 64.73 28.4835 65.05 27.6901 65.05ZM29.6701 62.36H28.2401V61.35H30.8101V65H29.6701V62.36ZM34.2762 65.1C33.8495 65.1 33.4662 65.03 33.1262 64.89C32.7862 64.7433 32.4962 64.5433 32.2562 64.29C32.0229 64.0367 31.8429 63.7467 31.7162 63.42C31.5895 63.0933 31.5262 62.75 31.5262 62.39C31.5262 62.0233 31.5895 61.6767 31.7162 61.35C31.8429 61.0233 32.0229 60.7333 32.2562 60.48C32.4962 60.2267 32.7862 60.03 33.1262 59.89C33.4662 59.7433 33.8495 59.67 34.2762 59.67C34.7029 59.67 35.0829 59.7433 35.4162 59.89C35.7562 60.03 36.0462 60.2267 36.2862 60.48C36.5262 60.7333 36.7062 61.0233 36.8262 61.35C36.9529 61.6767 37.0162 62.0233 37.0162 62.39C37.0162 62.75 36.9529 63.0933 36.8262 63.42C36.7062 63.7467 36.5262 64.0367 36.2862 64.29C36.0529 64.5433 35.7662 64.7433 35.4262 64.89C35.0862 65.03 34.7029 65.1 34.2762 65.1ZM32.9062 62.39C32.9062 62.6967 32.9662 62.97 33.0862 63.21C33.2062 63.4433 33.3695 63.6267 33.5762 63.76C33.7829 63.8933 34.0162 63.96 34.2762 63.96C34.5295 63.96 34.7595 63.8933 34.9662 63.76C35.1729 63.62 35.3362 63.4333 35.4562 63.2C35.5829 62.96 35.6462 62.6867 35.6462 62.38C35.6462 62.08 35.5829 61.81 35.4562 61.57C35.3362 61.33 35.1729 61.1433 34.9662 61.01C34.7595 60.8767 34.5295 60.81 34.2762 60.81C34.0162 60.81 33.7829 60.88 33.5762 61.02C33.3695 61.1533 33.2062 61.34 33.0862 61.58C32.9662 61.8133 32.9062 62.0833 32.9062 62.39ZM40.9825 64.73C40.8692 64.7767 40.7325 64.83 40.5725 64.89C40.4125 64.95 40.2392 64.9967 40.0525 65.03C39.8725 65.07 39.6892 65.09 39.5025 65.09C39.2559 65.09 39.0292 65.0467 38.8225 64.96C38.6159 64.8733 38.4492 64.7367 38.3225 64.55C38.2025 64.3567 38.1425 64.1067 38.1425 63.8V60.79H37.4525V59.76H38.1425V58.06H39.4825V59.76H40.5825V60.79H39.4825V63.35C39.4892 63.53 39.5392 63.66 39.6325 63.74C39.7259 63.82 39.8425 63.86 39.9825 63.86C40.1225 63.86 40.2592 63.8367 40.3925 63.79C40.5259 63.7433 40.6325 63.7033 40.7125 63.67L40.9825 64.73ZM44.0828 65V59.76H45.4228V65H44.0828ZM44.0828 59.03V57.7H45.4228V59.03H44.0828ZM49.7716 64.73C49.6583 64.7767 49.5216 64.83 49.3616 64.89C49.2016 64.95 49.0283 64.9967 48.8416 65.03C48.6616 65.07 48.4783 65.09 48.2916 65.09C48.0449 65.09 47.8183 65.0467 47.6116 64.96C47.4049 64.8733 47.2383 64.7367 47.1116 64.55C46.9916 64.3567 46.9316 64.1067 46.9316 63.8V60.79H46.2416V59.76H46.9316V58.06H48.2716V59.76H49.3716V60.79H48.2716V63.35C48.2783 63.53 48.3283 63.66 48.4216 63.74C48.5149 63.82 48.6316 63.86 48.7716 63.86C48.9116 63.86 49.0483 63.8367 49.1816 63.79C49.3149 63.7433 49.4216 63.7033 49.5016 63.67L49.7716 64.73Z" fill="white"/>
<path d="M24.4201 17.4C24.4201 16.9667 24.4935 16.5433 24.6401 16.13C24.7935 15.71 25.0135 15.33 25.3001 14.99C25.5868 14.6433 25.9401 14.37 26.3601 14.17C26.7801 13.9633 27.2568 13.86 27.7901 13.86C28.4235 13.86 28.9635 14.0067 29.4101 14.3C29.8635 14.5867 30.1968 14.9567 30.4101 15.41L29.8601 15.75C29.7068 15.4367 29.5135 15.19 29.2801 15.01C29.0468 14.8233 28.7968 14.69 28.5301 14.61C28.2701 14.53 28.0101 14.49 27.7501 14.49C27.3235 14.49 26.9468 14.5767 26.6201 14.75C26.2935 14.9167 26.0168 15.1433 25.7901 15.43C25.5701 15.71 25.4035 16.0267 25.2901 16.38C25.1768 16.7267 25.1201 17.08 25.1201 17.44C25.1201 17.8333 25.1868 18.21 25.3201 18.57C25.4535 18.93 25.6401 19.25 25.8801 19.53C26.1201 19.8033 26.4001 20.0233 26.7201 20.19C27.0468 20.35 27.4001 20.43 27.7801 20.43C28.0468 20.43 28.3201 20.3833 28.6001 20.29C28.8801 20.1967 29.1401 20.0533 29.3801 19.86C29.6268 19.6667 29.8235 19.4167 29.9701 19.11L30.5501 19.41C30.4035 19.7633 30.1768 20.0633 29.8701 20.31C29.5635 20.5567 29.2201 20.7433 28.8401 20.87C28.4668 20.9967 28.1001 21.06 27.7401 21.06C27.2535 21.06 26.8068 20.9567 26.4001 20.75C25.9935 20.5367 25.6401 20.2567 25.3401 19.91C25.0468 19.5567 24.8201 19.1633 24.6601 18.73C24.5001 18.29 24.4201 17.8467 24.4201 17.4ZM31.6356 13.7H32.3156V19.82C32.3156 20.08 32.3623 20.25 32.4556 20.33C32.5489 20.41 32.6623 20.45 32.7956 20.45C32.9156 20.45 33.0356 20.4367 33.1556 20.41C33.2756 20.3833 33.3789 20.3567 33.4656 20.33L33.5856 20.88C33.4589 20.9333 33.3023 20.9767 33.1156 21.01C32.9356 21.0433 32.7789 21.06 32.6456 21.06C32.3389 21.06 32.0923 20.97 31.9056 20.79C31.7256 20.61 31.6356 20.3633 31.6356 20.05V13.7ZM34.3302 21V15.79H35.0102V21H34.3302ZM34.3302 14.7V13.7H35.0102V14.7H34.3302ZM38.7679 21.1C38.3879 21.1 38.0379 21.03 37.7179 20.89C37.4046 20.7433 37.1279 20.5433 36.8879 20.29C36.6546 20.0367 36.4713 19.7467 36.3379 19.42C36.2113 19.0933 36.1479 18.7467 36.1479 18.38C36.1479 17.8867 36.2579 17.4367 36.4779 17.03C36.6979 16.6233 37.0046 16.3 37.3979 16.06C37.7913 15.82 38.2446 15.7 38.7579 15.7C39.2446 15.7 39.6746 15.8133 40.0479 16.04C40.4213 16.26 40.6979 16.56 40.8779 16.94L40.2179 17.15C40.0713 16.8833 39.8646 16.6767 39.5979 16.53C39.3379 16.3767 39.0479 16.3 38.7279 16.3C38.3813 16.3 38.0646 16.39 37.7779 16.57C37.4913 16.75 37.2613 16.9967 37.0879 17.31C36.9213 17.6233 36.8379 17.98 36.8379 18.38C36.8379 18.7733 36.9246 19.13 37.0979 19.45C37.2713 19.77 37.5013 20.0267 37.7879 20.22C38.0746 20.4067 38.3913 20.5 38.7379 20.5C38.9646 20.5 39.1813 20.46 39.3879 20.38C39.6013 20.3 39.7846 20.1933 39.9379 20.06C40.0979 19.92 40.2046 19.77 40.2579 19.61L40.9279 19.81C40.8346 20.0567 40.6779 20.28 40.4579 20.48C40.2446 20.6733 39.9913 20.8267 39.6979 20.94C39.4113 21.0467 39.1013 21.1 38.7679 21.1ZM45.7162 21L43.7862 18.33L42.6762 19.37V21H41.9962V13.7H42.6762V18.64L45.6262 15.8H46.3762L44.2462 17.93L46.4562 21H45.7162ZM52.3478 20.75C52.2944 20.77 52.2111 20.8067 52.0978 20.86C51.9844 20.9133 51.8478 20.96 51.6878 21C51.5278 21.04 51.3544 21.06 51.1678 21.06C50.9744 21.06 50.7911 21.0233 50.6178 20.95C50.4511 20.8767 50.3178 20.7667 50.2178 20.62C50.1178 20.4667 50.0678 20.28 50.0678 20.06V16.33H49.3478V15.79H50.0678V14.03H50.7478V15.79H51.9478V16.33H50.7478V19.87C50.7611 20.0567 50.8278 20.1967 50.9478 20.29C51.0744 20.3833 51.2178 20.43 51.3778 20.43C51.5644 20.43 51.7344 20.4 51.8878 20.34C52.0411 20.2733 52.1344 20.2267 52.1678 20.2L52.3478 20.75ZM57.5774 21H56.8974V18.09C56.8974 17.5033 56.7941 17.0633 56.5874 16.77C56.3807 16.47 56.0841 16.32 55.6974 16.32C55.4441 16.32 55.1907 16.3867 54.9374 16.52C54.6907 16.6467 54.4707 16.8233 54.2774 17.05C54.0907 17.27 53.9574 17.5233 53.8774 17.81V21H53.1974V13.7H53.8774V16.97C54.0841 16.5833 54.3707 16.2767 54.7374 16.05C55.1107 15.8167 55.5074 15.7 55.9274 15.7C56.2274 15.7 56.4807 15.7533 56.6874 15.86C56.9007 15.9667 57.0707 16.1233 57.1974 16.33C57.3307 16.53 57.4274 16.7667 57.4874 17.04C57.5474 17.3067 57.5774 17.61 57.5774 17.95V21ZM61.2775 21.1C60.9041 21.1 60.5575 21.03 60.2375 20.89C59.9175 20.7433 59.6408 20.5467 59.4075 20.3C59.1741 20.0467 58.9908 19.7567 58.8575 19.43C58.7308 19.1033 58.6675 18.7533 58.6675 18.38C58.6675 17.8933 58.7775 17.4467 58.9975 17.04C59.2241 16.6333 59.5341 16.31 59.9275 16.07C60.3208 15.8233 60.7675 15.7 61.2675 15.7C61.7808 15.7 62.2275 15.8233 62.6075 16.07C62.9941 16.3167 63.2975 16.6433 63.5175 17.05C63.7375 17.45 63.8475 17.89 63.8475 18.37C63.8475 18.4233 63.8475 18.4767 63.8475 18.53C63.8475 18.5767 63.8441 18.6133 63.8375 18.64H59.3775C59.4108 19.0133 59.5141 19.3467 59.6875 19.64C59.8675 19.9267 60.0975 20.1567 60.3775 20.33C60.6641 20.4967 60.9741 20.58 61.3075 20.58C61.6475 20.58 61.9675 20.4933 62.2675 20.32C62.5741 20.1467 62.7875 19.92 62.9075 19.64L63.4975 19.8C63.3908 20.0467 63.2275 20.27 63.0075 20.47C62.7875 20.67 62.5275 20.8267 62.2275 20.94C61.9341 21.0467 61.6175 21.1 61.2775 21.1ZM59.3575 18.15H63.2075C63.1808 17.77 63.0775 17.4367 62.8975 17.15C62.7241 16.8633 62.4941 16.64 62.2075 16.48C61.9275 16.3133 61.6175 16.23 61.2775 16.23C60.9375 16.23 60.6275 16.3133 60.3475 16.48C60.0675 16.64 59.8375 16.8667 59.6575 17.16C59.4841 17.4467 59.3841 17.7767 59.3575 18.15ZM68.9854 21.1C68.5188 21.1 68.1254 21 67.8054 20.8C67.4854 20.6 67.2454 20.3333 67.0854 20C66.9254 19.66 66.8454 19.29 66.8454 18.89C66.8454 18.4767 66.9254 18.0767 67.0854 17.69C67.2454 17.3033 67.4688 16.96 67.7554 16.66C68.0488 16.3533 68.3954 16.1133 68.7954 15.94C69.1954 15.76 69.6354 15.67 70.1154 15.67C70.6754 15.67 71.1188 15.7933 71.4454 16.04C71.7788 16.2867 71.9988 16.61 72.1054 17.01L70.7254 17.41C70.6588 17.2167 70.5521 17.07 70.4054 16.97C70.2588 16.8633 70.0821 16.81 69.8754 16.81C69.6688 16.81 69.4654 16.86 69.2654 16.96C69.0721 17.0533 68.8954 17.19 68.7354 17.37C68.5821 17.5433 68.4588 17.7467 68.3654 17.98C68.2788 18.2133 68.2354 18.4633 68.2354 18.73C68.2354 18.97 68.2754 19.1833 68.3554 19.37C68.4354 19.5567 68.5488 19.7033 68.6954 19.81C68.8421 19.91 69.0121 19.96 69.2054 19.96C69.3521 19.96 69.4954 19.9333 69.6354 19.88C69.7821 19.8267 69.9154 19.7533 70.0354 19.66C70.1554 19.5667 70.2521 19.46 70.3254 19.34L71.5454 19.74C71.3721 20 71.1554 20.2333 70.8954 20.44C70.6354 20.6467 70.3421 20.81 70.0154 20.93C69.6954 21.0433 69.3521 21.1 68.9854 21.1ZM73.6254 13.7H74.9654L74.3154 16.73C74.5687 16.3967 74.872 16.1367 75.2254 15.95C75.5787 15.7633 75.942 15.67 76.3154 15.67C76.6287 15.67 76.872 15.7267 77.0454 15.84C77.2254 15.9467 77.352 16.0933 77.4254 16.28C77.5054 16.46 77.5454 16.6667 77.5454 16.9C77.5454 17.0333 77.5354 17.17 77.5154 17.31C77.502 17.45 77.4787 17.59 77.4454 17.73L76.7554 21H75.4154L76.0354 18.06C76.0554 17.9667 76.0687 17.88 76.0754 17.8C76.0887 17.72 76.0954 17.6433 76.0954 17.57C76.0954 17.3233 76.042 17.1433 75.9354 17.03C75.8287 16.91 75.6787 16.85 75.4854 16.85C75.3454 16.85 75.182 16.8967 74.9954 16.99C74.8154 17.0833 74.642 17.2133 74.4754 17.38C74.3087 17.54 74.172 17.7267 74.0654 17.94L73.4154 21H72.0754L73.6254 13.7ZM80.2357 21.1C79.7957 21.1 79.4123 21.0067 79.0857 20.82C78.7657 20.6267 78.519 20.3633 78.3457 20.03C78.179 19.69 78.0957 19.3067 78.0957 18.88C78.0957 18.4467 78.179 18.0367 78.3457 17.65C78.5123 17.2633 78.7457 16.9233 79.0457 16.63C79.3457 16.33 79.6957 16.0967 80.0957 15.93C80.4957 15.7567 80.929 15.67 81.3957 15.67C81.7757 15.67 82.1057 15.7267 82.3857 15.84C82.6657 15.9533 82.8823 16.12 83.0357 16.34C83.189 16.5533 83.2657 16.8167 83.2657 17.13C83.2657 17.6833 83.0123 18.1033 82.5057 18.39C82.0057 18.6767 81.2523 18.82 80.2457 18.82C80.0457 18.82 79.829 18.8167 79.5957 18.81C79.3623 18.7967 79.109 18.7767 78.8357 18.75L79.0057 17.91C79.2457 17.93 79.4657 17.9467 79.6657 17.96C79.8657 17.9667 80.0623 17.97 80.2557 17.97C80.689 17.97 81.029 17.94 81.2757 17.88C81.529 17.82 81.7123 17.7333 81.8257 17.62C81.939 17.5067 81.9957 17.3733 81.9957 17.22C81.9957 17.0867 81.9623 16.98 81.8957 16.9C81.829 16.8133 81.7357 16.75 81.6157 16.71C81.5023 16.6633 81.3657 16.64 81.2057 16.64C80.9457 16.64 80.7057 16.7033 80.4857 16.83C80.2723 16.95 80.0857 17.1167 79.9257 17.33C79.7657 17.5433 79.6423 17.7867 79.5557 18.06C79.469 18.3333 79.4257 18.6233 79.4257 18.93C79.4257 19.1567 79.4623 19.3633 79.5357 19.55C79.6157 19.73 79.7323 19.87 79.8857 19.97C80.039 20.07 80.2357 20.12 80.4757 20.12C80.7423 20.12 80.9923 20.0567 81.2257 19.93C81.4657 19.8033 81.6557 19.6267 81.7957 19.4L82.8557 19.73C82.6823 19.9967 82.4557 20.2333 82.1757 20.44C81.8957 20.6467 81.589 20.81 81.2557 20.93C80.9223 21.0433 80.5823 21.1 80.2357 21.1ZM85.7335 21.1C85.2668 21.1 84.8735 21 84.5535 20.8C84.2335 20.6 83.9935 20.3333 83.8335 20C83.6735 19.66 83.5935 19.29 83.5935 18.89C83.5935 18.4767 83.6735 18.0767 83.8335 17.69C83.9935 17.3033 84.2168 16.96 84.5035 16.66C84.7968 16.3533 85.1435 16.1133 85.5435 15.94C85.9435 15.76 86.3835 15.67 86.8635 15.67C87.4235 15.67 87.8668 15.7933 88.1935 16.04C88.5268 16.2867 88.7468 16.61 88.8535 17.01L87.4735 17.41C87.4068 17.2167 87.3001 17.07 87.1535 16.97C87.0068 16.8633 86.8301 16.81 86.6235 16.81C86.4168 16.81 86.2135 16.86 86.0135 16.96C85.8201 17.0533 85.6435 17.19 85.4835 17.37C85.3301 17.5433 85.2068 17.7467 85.1135 17.98C85.0268 18.2133 84.9835 18.4633 84.9835 18.73C84.9835 18.97 85.0235 19.1833 85.1035 19.37C85.1835 19.5567 85.2968 19.7033 85.4435 19.81C85.5901 19.91 85.7601 19.96 85.9535 19.96C86.1001 19.96 86.2435 19.9333 86.3835 19.88C86.5301 19.8267 86.6635 19.7533 86.7835 19.66C86.9035 19.5667 87.0001 19.46 87.0735 19.34L88.2935 19.74C88.1201 20 87.9035 20.2333 87.6435 20.44C87.3835 20.6467 87.0901 20.81 86.7635 20.93C86.4435 21.0433 86.1001 21.1 85.7335 21.1ZM91.2434 18.63C91.8101 18.5167 92.2467 18.3333 92.5534 18.08C92.8601 17.8267 93.0134 17.5567 93.0134 17.27C93.0134 17.11 92.9701 16.9967 92.8834 16.93C92.7967 16.8567 92.6867 16.82 92.5534 16.82C92.3134 16.82 92.0601 16.9133 91.7934 17.1C91.5267 17.2867 91.2834 17.5367 91.0634 17.85C90.8501 18.1567 90.6867 18.4967 90.5734 18.87L90.8234 17.35C91.0167 17.0233 91.2301 16.7367 91.4634 16.49C91.7034 16.2367 91.9601 16.04 92.2334 15.9C92.5134 15.76 92.8101 15.69 93.1234 15.69C93.4901 15.69 93.7634 15.7933 93.9434 16C94.1234 16.2 94.2134 16.4767 94.2134 16.83C94.2134 17.2633 94.0834 17.6633 93.8234 18.03C93.5701 18.3967 93.1967 18.7033 92.7034 18.95L93.6834 21H92.2634L91.2434 18.63ZM90.3734 13.7H91.7034L90.1534 21H88.8234L90.3734 13.7ZM97.2791 21.1C96.8924 21.1 96.5724 21.01 96.3191 20.83C96.0658 20.6433 95.8858 20.3967 95.7791 20.09L95.5891 21H94.4191L95.9691 13.7H97.3091L96.6691 16.68C96.9024 16.3733 97.1824 16.13 97.5091 15.95C97.8424 15.7633 98.1891 15.67 98.5491 15.67C98.9224 15.67 99.2358 15.7667 99.4891 15.96C99.7424 16.1467 99.9324 16.4 100.059 16.72C100.192 17.04 100.259 17.3967 100.259 17.79C100.259 18.2433 100.176 18.67 100.009 19.07C99.8424 19.4633 99.6191 19.8133 99.3391 20.12C99.0591 20.4267 98.7391 20.6667 98.3791 20.84C98.0258 21.0133 97.6591 21.1 97.2791 21.1ZM97.1791 19.96C97.3924 19.96 97.5991 19.91 97.7991 19.81C97.9991 19.7033 98.1758 19.5633 98.3291 19.39C98.4891 19.21 98.6158 19.0067 98.7091 18.78C98.8024 18.5467 98.8491 18.3033 98.8491 18.05C98.8491 17.8233 98.8091 17.6167 98.7291 17.43C98.6558 17.2433 98.5491 17.0933 98.4091 16.98C98.2691 16.8667 98.0958 16.81 97.8891 16.81C97.7091 16.81 97.5291 16.8567 97.3491 16.95C97.1691 17.0367 96.9991 17.1567 96.8391 17.31C96.6858 17.4633 96.5491 17.6367 96.4291 17.83L96.1591 19.08C96.1858 19.2533 96.2458 19.4067 96.3391 19.54C96.4324 19.6733 96.5491 19.7767 96.6891 19.85C96.8358 19.9233 96.9991 19.96 97.1791 19.96ZM102.922 21.1C102.415 21.1 101.999 21 101.672 20.8C101.352 20.6 101.115 20.3333 100.962 20C100.809 19.66 100.732 19.2867 100.732 18.88C100.732 18.4533 100.809 18.0467 100.962 17.66C101.122 17.2733 101.345 16.93 101.632 16.63C101.919 16.33 102.255 16.0967 102.642 15.93C103.035 15.7567 103.465 15.67 103.932 15.67C104.439 15.67 104.852 15.77 105.172 15.97C105.499 16.17 105.739 16.4367 105.892 16.77C106.045 17.1033 106.122 17.4767 106.122 17.89C106.122 18.3167 106.042 18.7233 105.882 19.11C105.729 19.4967 105.509 19.84 105.222 20.14C104.935 20.44 104.595 20.6767 104.202 20.85C103.815 21.0167 103.389 21.1 102.922 21.1ZM103.122 19.96C103.329 19.96 103.529 19.9133 103.722 19.82C103.915 19.7267 104.085 19.5933 104.232 19.42C104.385 19.2467 104.505 19.0433 104.592 18.81C104.685 18.5767 104.732 18.3233 104.732 18.05C104.732 17.8033 104.692 17.5867 104.612 17.4C104.539 17.2133 104.425 17.07 104.272 16.97C104.125 16.8633 103.945 16.81 103.732 16.81C103.525 16.81 103.325 16.8567 103.132 16.95C102.945 17.0433 102.775 17.1767 102.622 17.35C102.469 17.5233 102.345 17.73 102.252 17.97C102.165 18.2033 102.122 18.4567 102.122 18.73C102.122 18.97 102.159 19.1833 102.232 19.37C102.312 19.5567 102.425 19.7033 102.572 19.81C102.725 19.91 102.909 19.96 103.122 19.96ZM107.977 18.39L106.777 15.76H108.147L108.817 17.4L108.867 17.58L108.987 17.4L110.377 15.76H111.747L109.427 18.39L110.657 21H109.277L108.577 19.37L108.527 19.2L108.407 19.37L107.007 21H105.627L107.977 18.39ZM26.9701 33.1C26.5968 33.1 26.2501 33.03 25.9301 32.89C25.6168 32.7433 25.3435 32.5467 25.1101 32.3C24.8835 32.0467 24.7068 31.76 24.5801 31.44C24.4535 31.1133 24.3901 30.77 24.3901 30.41C24.3901 30.0367 24.4535 29.69 24.5801 29.37C24.7068 29.0433 24.8868 28.7567 25.1201 28.51C25.3535 28.2567 25.6268 28.06 25.9401 27.92C26.2601 27.7733 26.6068 27.7 26.9801 27.7C27.3535 27.7 27.6968 27.7733 28.0101 27.92C28.3235 28.06 28.5968 28.2567 28.8301 28.51C29.0635 28.7567 29.2435 29.0433 29.3701 29.37C29.4968 29.69 29.5601 30.0367 29.5601 30.41C29.5601 30.77 29.4968 31.1133 29.3701 31.44C29.2435 31.76 29.0635 32.0467 28.8301 32.3C28.6035 32.5467 28.3301 32.7433 28.0101 32.89C27.6968 33.03 27.3501 33.1 26.9701 33.1ZM25.0801 30.42C25.0801 30.8067 25.1635 31.16 25.3301 31.48C25.5035 31.7933 25.7335 32.0433 26.0201 32.23C26.3068 32.41 26.6235 32.5 26.9701 32.5C27.3168 32.5 27.6335 32.4067 27.9201 32.22C28.2068 32.0333 28.4368 31.78 28.6101 31.46C28.7835 31.1333 28.8701 30.78 28.8701 30.4C28.8701 30.0133 28.7835 29.66 28.6101 29.34C28.4368 29.02 28.2068 28.7667 27.9201 28.58C27.6335 28.3933 27.3168 28.3 26.9701 28.3C26.6235 28.3 26.3068 28.3967 26.0201 28.59C25.7401 28.7833 25.5135 29.04 25.3401 29.36C25.1668 29.6733 25.0801 30.0267 25.0801 30.42ZM35.0774 33H34.3974V30.09C34.3974 29.4767 34.3074 29.03 34.1274 28.75C33.9474 28.4633 33.6641 28.32 33.2774 28.32C33.0107 28.32 32.7474 28.3867 32.4874 28.52C32.2274 28.6467 31.9974 28.8233 31.7974 29.05C31.6041 29.27 31.4641 29.5233 31.3774 29.81V33H30.6974V27.79H31.3174V28.97C31.4574 28.7167 31.6407 28.4967 31.8674 28.31C32.0941 28.1167 32.3507 27.9667 32.6374 27.86C32.9241 27.7533 33.2207 27.7 33.5274 27.7C33.8141 27.7 34.0574 27.7533 34.2574 27.86C34.4574 27.9667 34.6174 28.12 34.7374 28.32C34.8574 28.5133 34.9441 28.75 34.9974 29.03C35.0507 29.3033 35.0774 29.61 35.0774 29.95V33ZM38.7875 33.1C38.4075 33.1 38.0575 33.03 37.7375 32.89C37.4241 32.7433 37.1475 32.5433 36.9075 32.29C36.6741 32.0367 36.4908 31.7467 36.3575 31.42C36.2308 31.0933 36.1675 30.7467 36.1675 30.38C36.1675 29.8867 36.2775 29.4367 36.4975 29.03C36.7175 28.6233 37.0241 28.3 37.4175 28.06C37.8108 27.82 38.2641 27.7 38.7775 27.7C39.2641 27.7 39.6941 27.8133 40.0675 28.04C40.4408 28.26 40.7175 28.56 40.8975 28.94L40.2375 29.15C40.0908 28.8833 39.8841 28.6767 39.6175 28.53C39.3575 28.3767 39.0675 28.3 38.7475 28.3C38.4008 28.3 38.0841 28.39 37.7975 28.57C37.5108 28.75 37.2808 28.9967 37.1075 29.31C36.9408 29.6233 36.8575 29.98 36.8575 30.38C36.8575 30.7733 36.9441 31.13 37.1175 31.45C37.2908 31.77 37.5208 32.0267 37.8075 32.22C38.0941 32.4067 38.4108 32.5 38.7575 32.5C38.9841 32.5 39.2008 32.46 39.4075 32.38C39.6208 32.3 39.8041 32.1933 39.9575 32.06C40.1175 31.92 40.2241 31.77 40.2775 31.61L40.9475 31.81C40.8541 32.0567 40.6975 32.28 40.4775 32.48C40.2641 32.6733 40.0108 32.8267 39.7175 32.94C39.4308 33.0467 39.1208 33.1 38.7875 33.1ZM44.2169 33.1C43.8436 33.1 43.4969 33.03 43.1769 32.89C42.8569 32.7433 42.5803 32.5467 42.3469 32.3C42.1136 32.0467 41.9303 31.7567 41.7969 31.43C41.6703 31.1033 41.6069 30.7533 41.6069 30.38C41.6069 29.8933 41.7169 29.4467 41.9369 29.04C42.1636 28.6333 42.4736 28.31 42.8669 28.07C43.2603 27.8233 43.7069 27.7 44.2069 27.7C44.7203 27.7 45.1669 27.8233 45.5469 28.07C45.9336 28.3167 46.2369 28.6433 46.4569 29.05C46.6769 29.45 46.7869 29.89 46.7869 30.37C46.7869 30.4233 46.7869 30.4767 46.7869 30.53C46.7869 30.5767 46.7836 30.6133 46.7769 30.64H42.3169C42.3503 31.0133 42.4536 31.3467 42.6269 31.64C42.8069 31.9267 43.0369 32.1567 43.3169 32.33C43.6036 32.4967 43.9136 32.58 44.2469 32.58C44.5869 32.58 44.9069 32.4933 45.2069 32.32C45.5136 32.1467 45.7269 31.92 45.8469 31.64L46.4369 31.8C46.3303 32.0467 46.1669 32.27 45.9469 32.47C45.7269 32.67 45.4669 32.8267 45.1669 32.94C44.8736 33.0467 44.5569 33.1 44.2169 33.1ZM42.2969 30.15H46.1469C46.1203 29.77 46.0169 29.4367 45.8369 29.15C45.6636 28.8633 45.4336 28.64 45.1469 28.48C44.8669 28.3133 44.5569 28.23 44.2169 28.23C43.8769 28.23 43.5669 28.3133 43.2869 28.48C43.0069 28.64 42.7769 28.8667 42.5969 29.16C42.4236 29.4467 42.3236 29.7767 42.2969 30.15ZM50.4115 34.6C50.5048 34.6067 50.5948 34.61 50.6815 34.61C50.7681 34.6167 50.8315 34.6133 50.8715 34.6C50.9515 34.5867 51.0281 34.54 51.1015 34.46C51.1748 34.38 51.2615 34.2267 51.3615 34C51.4615 33.7733 51.6015 33.44 51.7815 33L49.5115 27.79H50.2315L52.1415 32.3L53.9015 27.79H54.5815L51.8815 34.51C51.8348 34.6367 51.7648 34.7533 51.6715 34.86C51.5781 34.9733 51.4615 35.06 51.3215 35.12C51.1881 35.1867 51.0215 35.2233 50.8215 35.23C50.7615 35.2367 50.6981 35.2367 50.6315 35.23C50.5715 35.23 50.4981 35.2233 50.4115 35.21V34.6ZM57.5658 33.1C57.1925 33.1 56.8458 33.03 56.5258 32.89C56.2125 32.7433 55.9392 32.5467 55.7058 32.3C55.4792 32.0467 55.3025 31.76 55.1758 31.44C55.0492 31.1133 54.9858 30.77 54.9858 30.41C54.9858 30.0367 55.0492 29.69 55.1758 29.37C55.3025 29.0433 55.4825 28.7567 55.7158 28.51C55.9492 28.2567 56.2225 28.06 56.5358 27.92C56.8558 27.7733 57.2025 27.7 57.5758 27.7C57.9492 27.7 58.2925 27.7733 58.6058 27.92C58.9192 28.06 59.1925 28.2567 59.4258 28.51C59.6592 28.7567 59.8392 29.0433 59.9658 29.37C60.0925 29.69 60.1558 30.0367 60.1558 30.41C60.1558 30.77 60.0925 31.1133 59.9658 31.44C59.8392 31.76 59.6592 32.0467 59.4258 32.3C59.1992 32.5467 58.9258 32.7433 58.6058 32.89C58.2925 33.03 57.9458 33.1 57.5658 33.1ZM55.6758 30.42C55.6758 30.8067 55.7592 31.16 55.9258 31.48C56.0992 31.7933 56.3292 32.0433 56.6158 32.23C56.9025 32.41 57.2192 32.5 57.5658 32.5C57.9125 32.5 58.2292 32.4067 58.5158 32.22C58.8025 32.0333 59.0325 31.78 59.2058 31.46C59.3792 31.1333 59.4658 30.78 59.4658 30.4C59.4658 30.0133 59.3792 29.66 59.2058 29.34C59.0325 29.02 58.8025 28.7667 58.5158 28.58C58.2292 28.3933 57.9125 28.3 57.5658 28.3C57.2192 28.3 56.9025 28.3967 56.6158 28.59C56.3358 28.7833 56.1092 29.04 55.9358 29.36C55.7625 29.6733 55.6758 30.0267 55.6758 30.42ZM61.2431 30.85V27.79H61.9231V30.73C61.9231 31.3233 62.0231 31.7667 62.2231 32.06C62.4298 32.3533 62.7331 32.5 63.1331 32.5C63.3998 32.5 63.6564 32.4433 63.9031 32.33C64.1564 32.21 64.3798 32.0433 64.5731 31.83C64.7664 31.61 64.9131 31.3567 65.0131 31.07V27.79H65.6931V32.18C65.6931 32.2733 65.7131 32.3433 65.7531 32.39C65.7931 32.43 65.8531 32.4533 65.9331 32.46V33C65.8531 33.0067 65.7898 33.01 65.7431 33.01C65.6964 33.0167 65.6531 33.02 65.6131 33.02C65.4798 33.0067 65.3631 32.9533 65.2631 32.86C65.1698 32.7667 65.1198 32.6533 65.1131 32.52L65.0931 31.82C64.8664 32.22 64.5564 32.5333 64.1631 32.76C63.7764 32.9867 63.3564 33.1 62.9031 33.1C62.3564 33.1 61.9431 32.91 61.6631 32.53C61.3831 32.15 61.2431 31.59 61.2431 30.85ZM74.1594 33H73.4794V30.09C73.4794 29.5033 73.3761 29.0633 73.1694 28.77C72.9628 28.47 72.6661 28.32 72.2794 28.32C72.0261 28.32 71.7728 28.3867 71.5194 28.52C71.2728 28.6467 71.0528 28.8233 70.8594 29.05C70.6728 29.27 70.5394 29.5233 70.4594 29.81V33H69.7794V25.7H70.4594V28.97C70.6661 28.5833 70.9528 28.2767 71.3194 28.05C71.6928 27.8167 72.0894 27.7 72.5094 27.7C72.8094 27.7 73.0628 27.7533 73.2694 27.86C73.4828 27.9667 73.6528 28.1233 73.7794 28.33C73.9128 28.53 74.0094 28.7667 74.0694 29.04C74.1294 29.3067 74.1594 29.61 74.1594 29.95V33ZM75.1895 31.5C75.1895 31.1733 75.2828 30.8933 75.4695 30.66C75.6562 30.42 75.9128 30.2367 76.2395 30.11C76.5728 29.9767 76.9562 29.91 77.3895 29.91C77.6428 29.91 77.9062 29.93 78.1795 29.97C78.4528 30.01 78.6962 30.07 78.9095 30.15V29.71C78.9095 29.27 78.7795 28.92 78.5195 28.66C78.2595 28.4 77.8995 28.27 77.4395 28.27C77.1595 28.27 76.8828 28.3233 76.6095 28.43C76.3428 28.53 76.0628 28.68 75.7695 28.88L75.5095 28.4C75.8495 28.1667 76.1828 27.9933 76.5095 27.88C76.8362 27.76 77.1695 27.7 77.5095 27.7C78.1495 27.7 78.6562 27.8833 79.0295 28.25C79.4028 28.6167 79.5895 29.1233 79.5895 29.77V32.18C79.5895 32.2733 79.6095 32.3433 79.6495 32.39C79.6895 32.43 79.7528 32.4533 79.8395 32.46V33C79.7662 33.0067 79.7028 33.0133 79.6495 33.02C79.5962 33.0267 79.5562 33.0267 79.5295 33.02C79.3628 33.0133 79.2362 32.96 79.1495 32.86C79.0628 32.76 79.0162 32.6533 79.0095 32.54L78.9995 32.16C78.7662 32.46 78.4628 32.6933 78.0895 32.86C77.7162 33.02 77.3362 33.1 76.9495 33.1C76.6162 33.1 76.3128 33.03 76.0395 32.89C75.7728 32.7433 75.5628 32.55 75.4095 32.31C75.2628 32.0633 75.1895 31.7933 75.1895 31.5ZM78.6795 31.9C78.7528 31.8067 78.8095 31.7167 78.8495 31.63C78.8895 31.5433 78.9095 31.4667 78.9095 31.4V30.64C78.6828 30.5533 78.4462 30.4867 78.1995 30.44C77.9595 30.3933 77.7162 30.37 77.4695 30.37C76.9828 30.37 76.5895 30.4667 76.2895 30.66C75.9895 30.8533 75.8395 31.1167 75.8395 31.45C75.8395 31.6433 75.8895 31.8267 75.9895 32C76.0895 32.1667 76.2362 32.3067 76.4295 32.42C76.6228 32.5267 76.8495 32.58 77.1095 32.58C77.4362 32.58 77.7395 32.5167 78.0195 32.39C78.3062 32.2633 78.5262 32.1 78.6795 31.9ZM82.4525 33L80.3425 27.79H81.0525L82.8325 32.32L84.6225 27.79H85.2925L83.1825 33H82.4525ZM88.3087 33.1C87.9354 33.1 87.5887 33.03 87.2687 32.89C86.9487 32.7433 86.672 32.5467 86.4387 32.3C86.2054 32.0467 86.022 31.7567 85.8887 31.43C85.762 31.1033 85.6987 30.7533 85.6987 30.38C85.6987 29.8933 85.8087 29.4467 86.0287 29.04C86.2554 28.6333 86.5654 28.31 86.9587 28.07C87.352 27.8233 87.7987 27.7 88.2987 27.7C88.812 27.7 89.2587 27.8233 89.6387 28.07C90.0254 28.3167 90.3287 28.6433 90.5487 29.05C90.7687 29.45 90.8787 29.89 90.8787 30.37C90.8787 30.4233 90.8787 30.4767 90.8787 30.53C90.8787 30.5767 90.8754 30.6133 90.8687 30.64H86.4087C86.442 31.0133 86.5454 31.3467 86.7187 31.64C86.8987 31.9267 87.1287 32.1567 87.4087 32.33C87.6954 32.4967 88.0054 32.58 88.3387 32.58C88.6787 32.58 88.9987 32.4933 89.2987 32.32C89.6054 32.1467 89.8187 31.92 89.9387 31.64L90.5287 31.8C90.422 32.0467 90.2587 32.27 90.0387 32.47C89.8187 32.67 89.5587 32.8267 89.2587 32.94C88.9654 33.0467 88.6487 33.1 88.3087 33.1ZM86.3887 30.15H90.2387C90.212 29.77 90.1087 29.4367 89.9287 29.15C89.7554 28.8633 89.5254 28.64 89.2387 28.48C88.9587 28.3133 88.6487 28.23 88.3087 28.23C87.9687 28.23 87.6587 28.3133 87.3787 28.48C87.0987 28.64 86.8687 28.8667 86.6887 29.16C86.5154 29.4467 86.4154 29.7767 86.3887 30.15ZM97.1367 33.1C96.7034 33.1 96.3134 32.9867 95.9667 32.76C95.6267 32.5333 95.3567 32.2533 95.1567 31.92V35.13H94.4767V27.79H95.0867V28.8C95.2934 28.4733 95.57 28.21 95.9167 28.01C96.2634 27.8033 96.6334 27.7 97.0267 27.7C97.3867 27.7 97.7167 27.7767 98.0167 27.93C98.3167 28.0767 98.5767 28.2767 98.7967 28.53C99.0167 28.7833 99.1867 29.0733 99.3067 29.4C99.4334 29.72 99.4967 30.0533 99.4967 30.4C99.4967 30.8867 99.3967 31.3367 99.1967 31.75C99.0034 32.1567 98.73 32.4833 98.3767 32.73C98.0234 32.9767 97.61 33.1 97.1367 33.1ZM96.9467 32.5C97.2334 32.5 97.49 32.4433 97.7167 32.33C97.9434 32.21 98.1367 32.05 98.2967 31.85C98.4634 31.65 98.59 31.4267 98.6767 31.18C98.7634 30.9267 98.8067 30.6667 98.8067 30.4C98.8067 30.12 98.7567 29.8533 98.6567 29.6C98.5634 29.3467 98.4267 29.1233 98.2467 28.93C98.0667 28.7367 97.86 28.5833 97.6267 28.47C97.3934 28.3567 97.14 28.3 96.8667 28.3C96.6934 28.3 96.5134 28.3333 96.3267 28.4C96.14 28.4667 95.96 28.5633 95.7867 28.69C95.62 28.81 95.48 28.9467 95.3667 29.1C95.2534 29.2533 95.1834 29.4167 95.1567 29.59V31.19C95.2634 31.4367 95.4067 31.66 95.5867 31.86C95.7667 32.0533 95.9734 32.21 96.2067 32.33C96.4467 32.4433 96.6934 32.5 96.9467 32.5ZM100.229 31.5C100.229 31.1733 100.322 30.8933 100.509 30.66C100.695 30.42 100.952 30.2367 101.279 30.11C101.612 29.9767 101.995 29.91 102.429 29.91C102.682 29.91 102.945 29.93 103.219 29.97C103.492 30.01 103.735 30.07 103.949 30.15V29.71C103.949 29.27 103.819 28.92 103.559 28.66C103.299 28.4 102.939 28.27 102.479 28.27C102.199 28.27 101.922 28.3233 101.649 28.43C101.382 28.53 101.102 28.68 100.809 28.88L100.549 28.4C100.889 28.1667 101.222 27.9933 101.549 27.88C101.875 27.76 102.209 27.7 102.549 27.7C103.189 27.7 103.695 27.8833 104.069 28.25C104.442 28.6167 104.629 29.1233 104.629 29.77V32.18C104.629 32.2733 104.649 32.3433 104.689 32.39C104.729 32.43 104.792 32.4533 104.879 32.46V33C104.805 33.0067 104.742 33.0133 104.689 33.02C104.635 33.0267 104.595 33.0267 104.569 33.02C104.402 33.0133 104.275 32.96 104.189 32.86C104.102 32.76 104.055 32.6533 104.049 32.54L104.039 32.16C103.805 32.46 103.502 32.6933 103.129 32.86C102.755 33.02 102.375 33.1 101.989 33.1C101.655 33.1 101.352 33.03 101.079 32.89C100.812 32.7433 100.602 32.55 100.449 32.31C100.302 32.0633 100.229 31.7933 100.229 31.5ZM103.719 31.9C103.792 31.8067 103.849 31.7167 103.889 31.63C103.929 31.5433 103.949 31.4667 103.949 31.4V30.64C103.722 30.5533 103.485 30.4867 103.239 30.44C102.999 30.3933 102.755 30.37 102.509 30.37C102.022 30.37 101.629 30.4667 101.329 30.66C101.029 30.8533 100.879 31.1167 100.879 31.45C100.879 31.6433 100.929 31.8267 101.029 32C101.129 32.1667 101.275 32.3067 101.469 32.42C101.662 32.5267 101.889 32.58 102.149 32.58C102.475 32.58 102.779 32.5167 103.059 32.39C103.345 32.2633 103.565 32.1 103.719 31.9ZM108.358 33.1C107.978 33.1 107.628 33.03 107.308 32.89C106.994 32.7433 106.718 32.5433 106.478 32.29C106.244 32.0367 106.061 31.7467 105.928 31.42C105.801 31.0933 105.738 30.7467 105.738 30.38C105.738 29.8867 105.848 29.4367 106.068 29.03C106.288 28.6233 106.594 28.3 106.988 28.06C107.381 27.82 107.834 27.7 108.348 27.7C108.834 27.7 109.264 27.8133 109.638 28.04C110.011 28.26 110.288 28.56 110.468 28.94L109.808 29.15C109.661 28.8833 109.454 28.6767 109.188 28.53C108.928 28.3767 108.638 28.3 108.318 28.3C107.971 28.3 107.654 28.39 107.368 28.57C107.081 28.75 106.851 28.9967 106.678 29.31C106.511 29.6233 106.428 29.98 106.428 30.38C106.428 30.7733 106.514 31.13 106.688 31.45C106.861 31.77 107.091 32.0267 107.378 32.22C107.664 32.4067 107.981 32.5 108.328 32.5C108.554 32.5 108.771 32.46 108.978 32.38C109.191 32.3 109.374 32.1933 109.528 32.06C109.688 31.92 109.794 31.77 109.848 31.61L110.518 31.81C110.424 32.0567 110.268 32.28 110.048 32.48C109.834 32.6733 109.581 32.8267 109.288 32.94C109.001 33.0467 108.691 33.1 108.358 33.1ZM115.306 33L113.376 30.33L112.266 31.37V33H111.586V25.7H112.266V30.64L115.216 27.8H115.966L113.836 29.93L116.046 33H115.306ZM118.865 33.1C118.492 33.1 118.145 33.03 117.825 32.89C117.505 32.7433 117.229 32.5467 116.995 32.3C116.762 32.0467 116.579 31.7567 116.445 31.43C116.319 31.1033 116.255 30.7533 116.255 30.38C116.255 29.8933 116.365 29.4467 116.585 29.04C116.812 28.6333 117.122 28.31 117.515 28.07C117.909 27.8233 118.355 27.7 118.855 27.7C119.369 27.7 119.815 27.8233 120.195 28.07C120.582 28.3167 120.885 28.6433 121.105 29.05C121.325 29.45 121.435 29.89 121.435 30.37C121.435 30.4233 121.435 30.4767 121.435 30.53C121.435 30.5767 121.432 30.6133 121.425 30.64H116.965C116.999 31.0133 117.102 31.3467 117.275 31.64C117.455 31.9267 117.685 32.1567 117.965 32.33C118.252 32.4967 118.562 32.58 118.895 32.58C119.235 32.58 119.555 32.4933 119.855 32.32C120.162 32.1467 120.375 31.92 120.495 31.64L121.085 31.8C120.979 32.0467 120.815 32.27 120.595 32.47C120.375 32.67 120.115 32.8267 119.815 32.94C119.522 33.0467 119.205 33.1 118.865 33.1ZM116.945 30.15H120.795C120.769 29.77 120.665 29.4367 120.485 29.15C120.312 28.8633 120.082 28.64 119.795 28.48C119.515 28.3133 119.205 28.23 118.865 28.23C118.525 28.23 118.215 28.3133 117.935 28.48C117.655 28.64 117.425 28.8667 117.245 29.16C117.072 29.4467 116.972 29.7767 116.945 30.15ZM122.134 30.41C122.134 29.9167 122.234 29.4667 122.434 29.06C122.641 28.6467 122.924 28.3167 123.284 28.07C123.644 27.8233 124.054 27.7 124.514 27.7C124.948 27.7 125.334 27.8167 125.674 28.05C126.021 28.2767 126.291 28.5533 126.484 28.88V25.7H127.164V32.18C127.164 32.2733 127.184 32.3433 127.224 32.39C127.264 32.43 127.324 32.4533 127.404 32.46V33C127.271 33.02 127.168 33.0267 127.094 33.02C126.954 33.0133 126.831 32.9567 126.724 32.85C126.618 32.7433 126.564 32.6267 126.564 32.5V31.99C126.358 32.33 126.078 32.6 125.724 32.8C125.371 33 125.004 33.1 124.624 33.1C124.264 33.1 123.931 33.0267 123.624 32.88C123.324 32.7333 123.061 32.5333 122.834 32.28C122.614 32.0267 122.441 31.74 122.314 31.42C122.194 31.0933 122.134 30.7567 122.134 30.41ZM126.484 31.21V29.6C126.398 29.36 126.258 29.1433 126.064 28.95C125.871 28.75 125.651 28.5933 125.404 28.48C125.164 28.36 124.924 28.3 124.684 28.3C124.404 28.3 124.151 28.36 123.924 28.48C123.698 28.5933 123.501 28.75 123.334 28.95C123.174 29.15 123.051 29.3767 122.964 29.63C122.878 29.8833 122.834 30.1433 122.834 30.41C122.834 30.69 122.881 30.9567 122.974 31.21C123.074 31.4633 123.214 31.69 123.394 31.89C123.574 32.0833 123.781 32.2333 124.014 32.34C124.248 32.4467 124.501 32.5 124.774 32.5C124.948 32.5 125.128 32.4667 125.314 32.4C125.501 32.3333 125.678 32.2433 125.844 32.13C126.018 32.01 126.161 31.87 126.274 31.71C126.388 31.55 126.458 31.3833 126.484 31.21ZM24.3301 43.5C24.3301 43.1733 24.4235 42.8933 24.6101 42.66C24.7968 42.42 25.0535 42.2367 25.3801 42.11C25.7135 41.9767 26.0968 41.91 26.5301 41.91C26.7835 41.91 27.0468 41.93 27.3201 41.97C27.5935 42.01 27.8368 42.07 28.0501 42.15V41.71C28.0501 41.27 27.9201 40.92 27.6601 40.66C27.4001 40.4 27.0401 40.27 26.5801 40.27C26.3001 40.27 26.0235 40.3233 25.7501 40.43C25.4835 40.53 25.2035 40.68 24.9101 40.88L24.6501 40.4C24.9901 40.1667 25.3235 39.9933 25.6501 39.88C25.9768 39.76 26.3101 39.7 26.6501 39.7C27.2901 39.7 27.7968 39.8833 28.1701 40.25C28.5435 40.6167 28.7301 41.1233 28.7301 41.77V44.18C28.7301 44.2733 28.7501 44.3433 28.7901 44.39C28.8301 44.43 28.8935 44.4533 28.9801 44.46V45C28.9068 45.0067 28.8435 45.0133 28.7901 45.02C28.7368 45.0267 28.6968 45.0267 28.6701 45.02C28.5035 45.0133 28.3768 44.96 28.2901 44.86C28.2035 44.76 28.1568 44.6533 28.1501 44.54L28.1401 44.16C27.9068 44.46 27.6035 44.6933 27.2301 44.86C26.8568 45.02 26.4768 45.1 26.0901 45.1C25.7568 45.1 25.4535 45.03 25.1801 44.89C24.9135 44.7433 24.7035 44.55 24.5501 44.31C24.4035 44.0633 24.3301 43.7933 24.3301 43.5ZM27.8201 43.9C27.8935 43.8067 27.9501 43.7167 27.9901 43.63C28.0301 43.5433 28.0501 43.4667 28.0501 43.4V42.64C27.8235 42.5533 27.5868 42.4867 27.3401 42.44C27.1001 42.3933 26.8568 42.37 26.6101 42.37C26.1235 42.37 25.7301 42.4667 25.4301 42.66C25.1301 42.8533 24.9801 43.1167 24.9801 43.45C24.9801 43.6433 25.0301 43.8267 25.1301 44C25.2301 44.1667 25.3768 44.3067 25.5701 44.42C25.7635 44.5267 25.9901 44.58 26.2501 44.58C26.5768 44.58 26.8801 44.5167 27.1601 44.39C27.4468 44.2633 27.6668 44.1 27.8201 43.9ZM34.5793 45H33.8993V42.09C33.8993 41.4767 33.8093 41.03 33.6293 40.75C33.4493 40.4633 33.166 40.32 32.7793 40.32C32.5127 40.32 32.2493 40.3867 31.9893 40.52C31.7293 40.6467 31.4993 40.8233 31.2993 41.05C31.106 41.27 30.966 41.5233 30.8793 41.81V45H30.1993V39.79H30.8193V40.97C30.9593 40.7167 31.1427 40.4967 31.3693 40.31C31.596 40.1167 31.8527 39.9667 32.1393 39.86C32.426 39.7533 32.7227 39.7 33.0293 39.7C33.316 39.7 33.5593 39.7533 33.7593 39.86C33.9593 39.9667 34.1193 40.12 34.2393 40.32C34.3593 40.5133 34.446 40.75 34.4993 41.03C34.5527 41.3033 34.5793 41.61 34.5793 41.95V45ZM38.5782 45V39.79H39.2582V45H38.5782ZM38.5782 38.7V37.7H39.2582V38.7H38.5782ZM43.256 44.75C43.2026 44.77 43.1193 44.8067 43.006 44.86C42.8926 44.9133 42.756 44.96 42.596 45C42.436 45.04 42.2626 45.06 42.076 45.06C41.8826 45.06 41.6993 45.0233 41.526 44.95C41.3593 44.8767 41.226 44.7667 41.126 44.62C41.026 44.4667 40.976 44.28 40.976 44.06V40.33H40.256V39.79H40.976V38.03H41.656V39.79H42.856V40.33H41.656V43.87C41.6693 44.0567 41.736 44.1967 41.856 44.29C41.9826 44.3833 42.126 44.43 42.286 44.43C42.4726 44.43 42.6426 44.4 42.796 44.34C42.9493 44.2733 43.0426 44.2267 43.076 44.2L43.256 44.75ZM46.2677 45.1C45.8944 45.1 45.5477 45.03 45.2277 44.89C44.9077 44.7433 44.631 44.5467 44.3977 44.3C44.1644 44.0467 43.981 43.7567 43.8477 43.43C43.721 43.1033 43.6577 42.7533 43.6577 42.38C43.6577 41.8933 43.7677 41.4467 43.9877 41.04C44.2144 40.6333 44.5244 40.31 44.9177 40.07C45.311 39.8233 45.7577 39.7 46.2577 39.7C46.771 39.7 47.2177 39.8233 47.5977 40.07C47.9844 40.3167 48.2877 40.6433 48.5077 41.05C48.7277 41.45 48.8377 41.89 48.8377 42.37C48.8377 42.4233 48.8377 42.4767 48.8377 42.53C48.8377 42.5767 48.8344 42.6133 48.8277 42.64H44.3677C44.401 43.0133 44.5044 43.3467 44.6777 43.64C44.8577 43.9267 45.0877 44.1567 45.3677 44.33C45.6544 44.4967 45.9644 44.58 46.2977 44.58C46.6377 44.58 46.9577 44.4933 47.2577 44.32C47.5644 44.1467 47.7777 43.92 47.8977 43.64L48.4877 43.8C48.381 44.0467 48.2177 44.27 47.9977 44.47C47.7777 44.67 47.5177 44.8267 47.2177 44.94C46.9244 45.0467 46.6077 45.1 46.2677 45.1ZM44.3477 42.15H48.1977C48.171 41.77 48.0677 41.4367 47.8877 41.15C47.7144 40.8633 47.4844 40.64 47.1977 40.48C46.9177 40.3133 46.6077 40.23 46.2677 40.23C45.9277 40.23 45.6177 40.3133 45.3377 40.48C45.0577 40.64 44.8277 40.8667 44.6477 41.16C44.4744 41.4467 44.3744 41.7767 44.3477 42.15ZM57.6368 45H56.9568V42.09C56.9568 41.4833 56.8602 41.0367 56.6668 40.75C56.4735 40.4633 56.1868 40.32 55.8068 40.32C55.4135 40.32 55.0602 40.46 54.7468 40.74C54.4402 41.02 54.2235 41.38 54.0968 41.82V45H53.4168V42.09C53.4168 41.4767 53.3235 41.03 53.1368 40.75C52.9502 40.4633 52.6635 40.32 52.2768 40.32C51.8902 40.32 51.5402 40.4567 51.2268 40.73C50.9135 41.0033 50.6935 41.3633 50.5668 41.81V45H49.8868V39.79H50.5068V40.97C50.7268 40.5633 51.0068 40.25 51.3468 40.03C51.6935 39.81 52.0768 39.7 52.4968 39.7C52.9302 39.7 53.2802 39.8233 53.5468 40.07C53.8135 40.3167 53.9768 40.64 54.0368 41.04C54.2768 40.6 54.5635 40.2667 54.8968 40.04C55.2368 39.8133 55.6202 39.7 56.0468 39.7C56.3402 39.7 56.5868 39.7533 56.7868 39.86C56.9935 39.9667 57.1568 40.12 57.2768 40.32C57.4035 40.5133 57.4935 40.75 57.5468 41.03C57.6068 41.3033 57.6368 41.61 57.6368 41.95V45Z" fill="white"/>
<defs>
<filter id="filter0_d_3857_2863" x="0" y="0" width="146" height="84" filterUnits="userSpaceOnUse" color-interpolation-filters="sRGB">
<feFlood flood-opacity="0" result="BackgroundImageFix"/>
<feColorMatrix in="SourceAlpha" type="matrix" values="0 0 0 0 0 0 0 0 0 0 0 0 0 0 0 0 0 0 127 0" result="hardAlpha"/>
<feOffset dy="3"/>
<feGaussianBlur stdDeviation="3.5"/>
<feComposite in2="hardAlpha" operator="out"/>
<feColorMatrix type="matrix" values="0 0 0 0 0 0 0 0 0 0 0 0 0 0 0 0 0 0 0.15 0"/>
<feBlend mode="normal" in2="BackgroundImageFix" result="effect1_dropShadow_3857_2863"/>
<feBlend mode="normal" in="SourceGraphic" in2="effect1_dropShadow_3857_2863" result="shape"/>
</filter>
</defs>
</svg>
