<svg width="15" height="15" viewBox="0 0 15 15" fill="none" xmlns="http://www.w3.org/2000/svg">
<path d="M3.07669 3.21381C2.99179 3.46254 2.92798 3.76992 2.92798 4.19947C2.92798 4.22206 2.92815 4.24433 2.92851 4.26624H1.97744V5.14424H3.0631C3.12292 5.32945 3.19508 5.48203 3.26328 5.62623C3.40338 5.92242 3.51415 6.15653 3.51415 6.67778C3.51415 7.19871 3.40338 7.43285 3.26328 7.72934C3.24014 7.77791 3.2167 7.82766 3.19353 7.87919H4.16123C4.28401 7.59325 4.39335 7.24031 4.39335 6.67781C4.39335 5.9596 4.21517 5.58325 4.05808 5.25108C3.91798 4.9546 3.80721 4.72078 3.80721 4.19953C3.80721 3.67857 3.91798 3.44446 4.05808 3.14798C4.08781 3.08517 4.11802 3.02133 4.14767 2.95371L5.22034 2.69314C5.2081 2.71942 5.19559 2.74588 5.18284 2.77277C5.02575 3.10494 4.84757 3.48161 4.84757 4.1995C4.84757 4.91739 5.02575 5.29406 5.18284 5.62623C5.32294 5.92242 5.43371 6.15653 5.43371 6.67778C5.43371 7.19871 5.32294 7.43285 5.18284 7.72934C5.1597 7.77791 5.13626 7.82766 5.11309 7.87919H6.08079C6.20357 7.59325 6.31291 7.24031 6.31291 6.67781C6.31291 5.9596 6.13473 5.58325 5.97764 5.25108C5.83754 4.9546 5.72677 4.72078 5.72677 4.19953C5.72677 3.67857 5.83754 3.44446 5.97764 3.14798C6.06989 2.9531 6.17138 2.73858 6.23814 2.44591L7.31486 2.18435C7.27071 2.41696 7.19264 2.58199 7.1024 2.77277C6.94531 3.10494 6.76713 3.48161 6.76713 4.1995C6.76713 4.91739 6.94531 5.29406 7.1024 5.62623C7.2425 5.92242 7.35327 6.15653 7.35327 6.67778C7.35327 7.19871 7.2425 7.43285 7.1024 7.72934C7.07926 7.77791 7.05579 7.82766 7.03265 7.87919H8.00035C8.12314 7.59325 8.23247 7.24031 8.23247 6.67781C8.23247 5.9596 8.05429 5.58325 7.8972 5.25108C7.88003 5.21479 7.8633 5.17939 7.84713 5.1443H13.0222V4.2663H7.647C7.64659 4.24456 7.64636 4.22232 7.64636 4.19953C7.64636 3.67857 7.75713 3.44446 7.89723 3.14798C8.03565 2.85527 8.19046 2.52823 8.22529 1.96321L12.7951 0.853154L12.5874 0L1.92676 2.58958L2.13456 3.44268L3.07669 3.21381Z" fill="#5D5D5D"/>
<path d="M0 8.75732V9.63532H0.900615C0.978018 10.4134 1.26129 11.1489 1.73142 11.784C2.27786 12.522 3.02678 13.0607 3.89719 13.3417C4.43695 13.5159 4.79959 14.006 4.79959 14.5613V15.0003H10.2004V14.5613C10.2004 14.006 10.563 13.5159 11.1028 13.3417C11.9732 13.0607 12.7221 12.522 13.2686 11.784C13.7387 11.1489 14.022 10.4134 14.0994 9.63532H15V8.75732H0Z" fill="#5D5D5D"/>
<path d="M12.6079 7.87908C12.4446 7.07274 11.7294 6.46381 10.8745 6.46381C10.7089 6.46381 10.5475 6.48607 10.3917 6.5302C10.0213 6.20058 9.55319 6.00042 9.05608 5.96143C9.09086 6.16926 9.11231 6.40571 9.11231 6.67776C9.11231 7.18814 9.03687 7.57328 8.93945 7.87905L12.6079 7.87908Z" fill="#5D5D5D"/>
</svg>
