<svg width="17" height="14" viewBox="0 0 17 14" fill="none" xmlns="http://www.w3.org/2000/svg">
<path d="M8.37001 8.69379C8.10001 8.53179 7.77601 8.63979 7.61401 8.90979L6.96601 10.0978C6.80401 10.3678 6.91201 10.6918 7.18201 10.8538C7.29001 10.9078 7.34401 10.9078 7.45201 10.9078C7.61401 10.9078 7.83001 10.7998 7.93801 10.6378L8.58601 9.44979C8.69401 9.17979 8.64001 8.85579 8.37001 8.69379Z" fill="#39B96F"/>
<path d="M6.85792 11.3398C6.58792 11.1778 6.26392 11.2858 6.10192 11.5558L5.45392 12.7438C5.29192 13.0138 5.39992 13.3378 5.66992 13.4998C5.77792 13.4998 5.83192 13.4998 5.93992 13.4998C6.10192 13.4998 6.31792 13.3918 6.42592 13.2298L7.07392 12.0418C7.23592 11.7718 7.12792 11.4478 6.85792 11.3398Z" fill="#39B96F"/>
<path d="M5.13002 8.69375C4.86002 8.58575 4.53602 8.63975 4.37402 8.90975L3.72602 10.0978C3.56402 10.3678 3.67202 10.6918 3.94202 10.8538C4.05002 10.9078 4.10402 10.9078 4.21202 10.9078C4.37402 10.9078 4.59002 10.7998 4.69802 10.6378L5.34602 9.44975C5.45402 9.17975 5.40002 8.85575 5.13002 8.69375Z" fill="#39B96F"/>
<path d="M3.61814 11.3398C3.34814 11.1778 3.02414 11.2858 2.86214 11.5558L2.21414 12.7438C2.10614 12.9598 2.16014 13.2838 2.43014 13.4458C2.53814 13.4998 2.59214 13.4998 2.70014 13.4998C2.86214 13.4998 3.07814 13.3918 3.18614 13.2298L3.83414 12.0418C3.99614 11.7718 3.88814 11.4478 3.61814 11.3398Z" fill="#39B96F"/>
<path d="M11.61 8.69379C11.34 8.53179 11.016 8.63979 10.854 8.90979L10.206 10.0978C10.044 10.3678 10.152 10.6918 10.422 10.8538C10.53 10.9078 10.584 10.9078 10.692 10.9078C10.854 10.9078 11.07 10.7998 11.178 10.6378L11.826 9.44979C11.934 9.17979 11.88 8.85579 11.61 8.69379Z" fill="#39B96F"/>
<path d="M10.0978 11.3398C9.82779 11.1778 9.50379 11.2858 9.34179 11.5558L8.69379 12.7438C8.53179 13.0138 8.63979 13.3378 8.90979 13.4998C9.01779 13.4998 9.07179 13.4998 9.17979 13.4998C9.34179 13.4998 9.55779 13.3918 9.66579 13.2298L10.3138 12.0418C10.4758 11.7718 10.3678 11.4478 10.0978 11.3398Z" fill="#39B96F"/>
<path d="M16.2 4.86C16.2 7.56001 13.77 9.72001 10.8 9.72001H3.78C1.674 9.72001 0 8.04601 0 5.94C0 3.834 1.674 2.16 3.78 2.16C4.536 2.16 5.292 2.376 5.88601 2.808C6.75001 1.134 8.69401 0 10.8 0C13.77 0 16.2 2.16 16.2 4.86Z" fill="#39B96F"/>
</svg>
