<svg width="21" height="22" viewBox="0 0 21 22" fill="none" xmlns="http://www.w3.org/2000/svg">
<path d="M10.4995 21.9378V16.4533V13.7158" stroke="#5D5D5D" stroke-miterlimit="10"/>
<path d="M10.4998 8.23149V0" stroke="#5D5D5D" stroke-miterlimit="10"/>
<path d="M7.30446 2.28955L10.4998 5.48486L13.6951 2.28955" stroke="#5D5D5D" stroke-miterlimit="10"/>
<path d="M10.4995 21.9378V16.4533V13.7158" stroke="#5D5D5D" stroke-miterlimit="10"/>
<path d="M10.4998 8.23149V0" stroke="#5D5D5D" stroke-miterlimit="10"/>
<path d="M13.6951 19.6484L10.4998 16.4531L7.30446 19.6484" stroke="#5D5D5D" stroke-miterlimit="10"/>
<path d="M0.999946 16.4533L5.74998 13.7158L8.125 12.3423" stroke="#5D5D5D" stroke-miterlimit="10"/>
<path d="M12.8749 9.59535L20 5.48438" stroke="#5D5D5D" stroke-miterlimit="10"/>
<path d="M16.4233 3.85352L15.2501 8.23156L19.6187 9.39523" stroke="#5D5D5D" stroke-miterlimit="10"/>
<path d="M0.999946 16.4533L5.74998 13.7158L8.125 12.3423" stroke="#5D5D5D" stroke-miterlimit="10"/>
<path d="M12.8749 9.59535L20 5.48438" stroke="#5D5D5D" stroke-miterlimit="10"/>
<path d="M4.5768 18.0847L5.75 13.7162L1.38149 12.543" stroke="#5D5D5D" stroke-miterlimit="10"/>
<path d="M12.8749 12.3423L20 16.4533" stroke="#5D5D5D" stroke-miterlimit="10"/>
<path d="M8.125 9.59535L5.74998 8.23138L0.999946 5.48438" stroke="#5D5D5D" stroke-miterlimit="10"/>
<path d="M4.5768 3.85352L5.75 8.23156L1.38149 9.39523" stroke="#5D5D5D" stroke-miterlimit="10"/>
<path d="M12.8749 12.3423L20 16.4533" stroke="#5D5D5D" stroke-miterlimit="10"/>
<path d="M8.125 9.59535L5.74998 8.23138L0.999946 5.48438" stroke="#5D5D5D" stroke-miterlimit="10"/>
<path d="M16.4233 18.0847L15.2501 13.7162L19.6187 12.543" stroke="#5D5D5D" stroke-miterlimit="10"/>
<path d="M7.75279 10.9693C7.7505 11.6382 7.99153 12.2852 8.43096 12.7895C8.87039 13.2939 9.47823 13.6212 10.1412 13.7106C10.8041 13.7999 11.4769 13.6451 12.0342 13.2751C12.5914 12.905 12.9951 12.345 13.17 11.6993C13.3449 11.0536 13.279 10.3664 12.9846 9.76572C12.6903 9.16504 12.1875 8.69188 11.5701 8.43445C10.9527 8.17703 10.2627 8.1529 9.62884 8.36657C8.99495 8.58024 8.46038 9.01712 8.12478 9.59578C7.88312 10.0133 7.75488 10.4868 7.75279 10.9693Z" stroke="#5D5D5D" stroke-miterlimit="10"/>
</svg>
