<svg width="17" height="17" viewBox="0 0 17 17" fill="none" xmlns="http://www.w3.org/2000/svg">
<path d="M12.4539 8.49988C12.4539 10.6833 10.6838 12.4534 8.50036 12.4534C6.31692 12.4534 4.54688 10.6833 4.54688 8.49988C4.54688 6.31643 6.31692 4.54639 8.50036 4.54639C10.6838 4.54639 12.4539 6.31643 12.4539 8.49988Z" fill="#5D5D5D"/>
<path fill-rule="evenodd" clip-rule="evenodd" d="M8.5 0C8.82751 0 9.09303 0.265508 9.09303 0.593023V2.17442C9.09303 2.50193 8.82751 2.76744 8.5 2.76744C8.17249 2.76744 7.90698 2.50193 7.90698 2.17442V0.593023C7.90698 0.265508 8.17249 0 8.5 0ZM1.91242 1.94993C2.13342 1.70822 2.50853 1.69142 2.75024 1.91242L4.50718 3.5188C4.7489 3.7398 4.76569 4.11489 4.54469 4.35661C4.32369 4.59833 3.94859 4.61512 3.70687 4.39412L1.94993 2.78776C1.70822 2.56676 1.69142 2.19165 1.91242 1.94993ZM15.0876 1.94993C15.3086 2.19165 15.2918 2.56676 15.0501 2.78776L13.2931 4.39412C13.0514 4.61512 12.6763 4.59833 12.4553 4.35661C12.2343 4.11489 12.2511 3.7398 12.4928 3.5188L14.2498 1.91242C14.4915 1.69142 14.8665 1.70822 15.0876 1.94993ZM0 8.5C0 8.17249 0.265508 7.90698 0.593023 7.90698H2.17442C2.50193 7.90698 2.76744 8.17249 2.76744 8.5C2.76744 8.82751 2.50193 9.09303 2.17442 9.09303H0.593023C0.265508 9.09303 0 8.82751 0 8.5ZM14.2326 8.5C14.2326 8.17249 14.4981 7.90698 14.8256 7.90698H16.407C16.7345 7.90698 17 8.17249 17 8.5C17 8.82751 16.7345 9.09303 16.407 9.09303H14.8256C14.4981 9.09303 14.2326 8.82751 14.2326 8.5ZM12.4737 12.4734C12.7052 12.2418 13.0808 12.2418 13.3123 12.4734L15.0693 14.2306C15.3009 14.4622 15.3008 14.8377 15.0692 15.0693C14.8376 15.3009 14.4621 15.3008 14.2306 15.0692L12.4737 13.312C12.2421 13.0804 12.2421 12.705 12.4737 12.4734ZM4.52648 12.4735C4.75807 12.7051 4.75807 13.0806 4.52648 13.3122L2.76937 15.0693C2.53778 15.3009 2.16231 15.3009 1.93071 15.0693C1.69912 14.8377 1.69912 14.4622 1.93071 14.2307L3.68782 12.4735C3.91941 12.2419 4.29489 12.2419 4.52648 12.4735ZM8.5 14.2326C8.82751 14.2326 9.09303 14.4981 9.09303 14.8256V16.407C9.09303 16.7345 8.82751 17 8.5 17C8.17249 17 7.90698 16.7345 7.90698 16.407V14.8256C7.90698 14.4981 8.17249 14.2326 8.5 14.2326Z" fill="#5D5D5D"/>
</svg>
