<svg width="13" height="13" viewBox="0 0 13 13" fill="none" xmlns="http://www.w3.org/2000/svg">
<path fill-rule="evenodd" clip-rule="evenodd" d="M0 6.5C0 2.91023 2.91023 0 6.5 0C10.0898 0 13 2.91023 13 6.5C13 10.0898 10.0898 13 6.5 13C2.91023 13 0 10.0898 0 6.5ZM4.13636 2.95455C3.97964 2.95455 3.82934 3.0168 3.71853 3.12762C3.60771 3.23844 3.54545 3.38874 3.54545 3.54545C3.54545 3.70217 3.60771 3.85247 3.71853 3.96329C3.82934 4.07411 3.97964 4.13636 4.13636 4.13636H5.90909C6.11 4.13636 6.42436 4.20136 6.67136 4.37982C6.78364 4.46018 6.89118 4.5695 6.96977 4.72727H4.13459C3.97787 4.72727 3.82757 4.78953 3.71675 4.90035C3.60594 5.01116 3.54368 5.16146 3.54368 5.31818C3.54368 5.4749 3.60594 5.6252 3.71675 5.73602C3.82757 5.84683 3.97787 5.90909 4.13459 5.90909H6.96977C6.90086 6.04782 6.79851 6.16723 6.67195 6.25655C6.44706 6.41078 6.18176 6.49545 5.90909 6.5H4.13459C4.01211 6.49994 3.89264 6.53795 3.7927 6.60875C3.69276 6.67956 3.6173 6.77967 3.57674 6.89524C3.53618 7.01081 3.53254 7.13613 3.56632 7.25386C3.60009 7.37159 3.66962 7.47592 3.76527 7.55241L6.72159 9.91605C6.7822 9.96454 6.85176 10.0006 6.92631 10.0222C7.00086 10.0439 7.07894 10.0506 7.15609 10.042C7.23324 10.0335 7.30795 10.0098 7.37595 9.97236C7.44395 9.93493 7.50391 9.88447 7.55241 9.82386C7.60091 9.76326 7.637 9.69369 7.65861 9.61914C7.68023 9.54459 7.68695 9.46651 7.67839 9.38936C7.66983 9.31221 7.64615 9.23751 7.60872 9.16951C7.57129 9.10151 7.52083 9.04154 7.46023 8.99304L5.81927 7.68182H5.90791C6.2985 7.68182 6.8705 7.56955 7.36155 7.21559C7.79896 6.9024 8.10235 6.43593 8.21127 5.90909H8.86364C9.02036 5.90909 9.17066 5.84683 9.28147 5.73602C9.39229 5.6252 9.45455 5.4749 9.45455 5.31818C9.45455 5.16146 9.39229 5.01116 9.28147 4.90035C9.17066 4.78953 9.02036 4.72727 8.86364 4.72727H8.21127C8.16701 4.52112 8.09401 4.32221 7.99441 4.13636H8.86364C9.02036 4.13636 9.17066 4.07411 9.28147 3.96329C9.39229 3.85247 9.45455 3.70217 9.45455 3.54545C9.45455 3.38874 9.39229 3.23844 9.28147 3.12762C9.17066 3.0168 9.02036 2.95455 8.86364 2.95455H4.13636Z" fill="#39B96F"/>
</svg>
