<svg width="13" height="15" viewBox="0 0 13 15" fill="none" xmlns="http://www.w3.org/2000/svg">
<path d="M8.30556 11.5556C7.8 11.5556 7.37269 11.3811 7.02361 11.032C6.67454 10.6829 6.5 10.2556 6.5 9.75003C6.5 9.24448 6.67454 8.81716 7.02361 8.46809C7.37269 8.11901 7.8 7.94448 8.30556 7.94448C8.81111 7.94448 9.23843 8.11901 9.5875 8.46809C9.93657 8.81716 10.1111 9.24448 10.1111 9.75003C10.1111 10.2556 9.93657 10.6829 9.5875 11.032C9.23843 11.3811 8.81111 11.5556 8.30556 11.5556ZM1.44444 14.4445C1.04722 14.4445 0.707176 14.303 0.424306 14.0202C0.141435 13.7373 0 13.3973 0 13V2.88892C0 2.4917 0.141435 2.15165 0.424306 1.86878C0.707176 1.58591 1.04722 1.44448 1.44444 1.44448H2.16667V3.05176e-05H3.61111V1.44448H9.38889V3.05176e-05H10.8333V1.44448H11.5556C11.9528 1.44448 12.2928 1.58591 12.5757 1.86878C12.8586 2.15165 13 2.4917 13 2.88892V13C13 13.3973 12.8586 13.7373 12.5757 14.0202C12.2928 14.303 11.9528 14.4445 11.5556 14.4445H1.44444ZM1.44444 13H11.5556V5.77781H1.44444V13Z" fill="#39B96F"/>
</svg>
