<svg width="13" height="15" viewBox="0 0 13 15" fill="none" xmlns="http://www.w3.org/2000/svg">
<path d="M8.30556 11.5556C7.8 11.5556 7.37269 11.381 7.02361 11.0319C6.67454 10.6829 6.5 10.2556 6.5 9.75C6.5 9.24444 6.67454 8.81713 7.02361 8.46806C7.37269 8.11898 7.8 7.94444 8.30556 7.94444C8.81111 7.94444 9.23843 8.11898 9.5875 8.46806C9.93657 8.81713 10.1111 9.24444 10.1111 9.75C10.1111 10.2556 9.93657 10.6829 9.5875 11.0319C9.23843 11.381 8.81111 11.5556 8.30556 11.5556ZM1.44444 14.4444C1.04722 14.4444 0.707176 14.303 0.424306 14.0201C0.141435 13.7373 0 13.3972 0 13V2.88889C0 2.49167 0.141435 2.15162 0.424306 1.86875C0.707176 1.58588 1.04722 1.44444 1.44444 1.44444H2.16667V0H3.61111V1.44444H9.38889V0H10.8333V1.44444H11.5556C11.9528 1.44444 12.2928 1.58588 12.5757 1.86875C12.8586 2.15162 13 2.49167 13 2.88889V13C13 13.3972 12.8586 13.7373 12.5757 14.0201C12.2928 14.303 11.9528 14.4444 11.5556 14.4444H1.44444ZM1.44444 13H11.5556V5.77778H1.44444V13Z" fill="#39B96F"/>
</svg>
