<svg width="101" height="95" viewBox="0 0 101 95" fill="none" xmlns="http://www.w3.org/2000/svg">
<path d="M47.5035 95C73.739 95 95.2659 73.7335 95.5853 47.5C95.9046 21.2665 74.8955 0 48.66 0C22.4245 0 0.897601 21.2665 0.57824 47.5C0.258878 73.7335 21.268 95 47.5035 95Z" fill="#DFF6EA"/>
<path fill-rule="evenodd" clip-rule="evenodd" d="M38.896 37.5233C38.896 32.2637 43.1468 28 48.3905 28C53.6341 28 57.8849 32.2637 57.8849 37.5233C57.8849 42.7828 53.6341 47.0465 48.3905 47.0465C43.1468 47.0465 38.896 42.7828 38.896 37.5233Z" fill="#39B96F"/>
<path fill-rule="evenodd" clip-rule="evenodd" d="M34.375 59.4203C34.375 54.0893 38.6837 49.7676 43.9986 49.7676H52.7827C58.0976 49.7676 62.4062 54.0893 62.4062 59.4203C62.4062 63.6066 59.023 67.0001 54.8494 67.0001H41.9318C37.7583 67.0001 34.375 63.6066 34.375 59.4203Z" fill="#39B96F"/>
<g filter="url(#filter0_d_2038_1365)">
<circle cx="84" cy="72" r="15" fill="white"/>
</g>
<path d="M89 71.1411V72.8589H85.0129V77H82.9871V72.8589H79V71.1411H82.9871V67H85.0129V71.1411H89Z" fill="#39B96F"/>
<defs>
<filter id="filter0_d_2038_1365" x="67.6469" y="57" width="32.7062" height="32.7062" filterUnits="userSpaceOnUse" color-interpolation-filters="sRGB">
<feFlood flood-opacity="0" result="BackgroundImageFix"/>
<feColorMatrix in="SourceAlpha" type="matrix" values="0 0 0 0 0 0 0 0 0 0 0 0 0 0 0 0 0 0 127 0" result="hardAlpha"/>
<feOffset dy="1.35312"/>
<feGaussianBlur stdDeviation="0.676562"/>
<feComposite in2="hardAlpha" operator="out"/>
<feColorMatrix type="matrix" values="0 0 0 0 0 0 0 0 0 0 0 0 0 0 0 0 0 0 0.1 0"/>
<feBlend mode="normal" in2="BackgroundImageFix" result="effect1_dropShadow_2038_1365"/>
<feBlend mode="normal" in="SourceGraphic" in2="effect1_dropShadow_2038_1365" result="shape"/>
</filter>
</defs>
</svg>
