<svg width="157" height="85" viewBox="0 0 157 85" fill="none" xmlns="http://www.w3.org/2000/svg">
<g opacity="0.9" filter="url(#filter0_d_3857_2802)">
<path fill-rule="evenodd" clip-rule="evenodd" d="M15 4C10.5817 4 7 7.58172 7 12V67C7 71.4183 10.5817 75 15 75H135C139.418 75 143 71.4183 143 67V66.503L149.213 63.3943C149.949 63.0257 149.949 61.9743 149.213 61.6057L143 58.497V12C143 7.58172 139.418 4 135 4H15Z" fill="#39B96F"/>
</g>
<path d="M22.04 16.23C21.94 16.1167 21.8233 16.0167 21.69 15.93C21.5567 15.8367 21.4067 15.7567 21.24 15.69C21.0733 15.6233 20.8933 15.57 20.7 15.53C20.5133 15.49 20.3133 15.47 20.1 15.47C19.48 15.47 19.0233 15.59 18.73 15.83C18.4433 16.0633 18.3 16.3833 18.3 16.79C18.3 17.07 18.3667 17.29 18.5 17.45C18.64 17.61 18.8567 17.74 19.15 17.84C19.4433 17.94 19.8167 18.0433 20.27 18.15C20.7767 18.2567 21.2133 18.3833 21.58 18.53C21.9467 18.6767 22.23 18.8767 22.43 19.13C22.63 19.3767 22.73 19.7133 22.73 20.14C22.73 20.4667 22.6667 20.75 22.54 20.99C22.4133 21.23 22.2367 21.43 22.01 21.59C21.7833 21.75 21.5133 21.87 21.2 21.95C20.8867 22.0233 20.5433 22.06 20.17 22.06C19.8033 22.06 19.45 22.0233 19.11 21.95C18.7767 21.87 18.46 21.7567 18.16 21.61C17.86 21.4567 17.58 21.2633 17.32 21.03L17.67 20.46C17.7967 20.5933 17.9467 20.72 18.12 20.84C18.3 20.9533 18.4967 21.0567 18.71 21.15C18.93 21.2433 19.1633 21.3167 19.41 21.37C19.6633 21.4167 19.9233 21.44 20.19 21.44C20.7567 21.44 21.1967 21.3367 21.51 21.13C21.83 20.9233 21.99 20.6167 21.99 20.21C21.99 19.9167 21.91 19.6833 21.75 19.51C21.59 19.33 21.35 19.1833 21.03 19.07C20.71 18.9567 20.3167 18.8467 19.85 18.74C19.3567 18.6267 18.94 18.5 18.6 18.36C18.26 18.22 18.0033 18.0367 17.83 17.81C17.6633 17.5767 17.58 17.27 17.58 16.89C17.58 16.45 17.6867 16.08 17.9 15.78C18.12 15.4733 18.42 15.2433 18.8 15.09C19.18 14.93 19.6167 14.85 20.11 14.85C20.4233 14.85 20.7133 14.8833 20.98 14.95C21.2533 15.01 21.5033 15.1 21.73 15.22C21.9633 15.34 22.18 15.49 22.38 15.67L22.04 16.23ZM23.8242 22V16.79H24.5042V22H23.8242ZM23.8242 15.7V14.7H24.5042V15.7H23.8242ZM33.752 22H33.072V19.09C33.072 18.4833 32.9753 18.0367 32.782 17.75C32.5886 17.4633 32.302 17.32 31.922 17.32C31.5286 17.32 31.1753 17.46 30.862 17.74C30.5553 18.02 30.3386 18.38 30.212 18.82V22H29.532V19.09C29.532 18.4767 29.4386 18.03 29.252 17.75C29.0653 17.4633 28.7786 17.32 28.392 17.32C28.0053 17.32 27.6553 17.4567 27.342 17.73C27.0286 18.0033 26.8086 18.3633 26.682 18.81V22H26.002V16.79H26.622V17.97C26.842 17.5633 27.122 17.25 27.462 17.03C27.8086 16.81 28.192 16.7 28.612 16.7C29.0453 16.7 29.3953 16.8233 29.662 17.07C29.9286 17.3167 30.092 17.64 30.152 18.04C30.392 17.6 30.6786 17.2667 31.012 17.04C31.352 16.8133 31.7353 16.7 32.162 16.7C32.4553 16.7 32.702 16.7533 32.902 16.86C33.1086 16.9667 33.272 17.12 33.392 17.32C33.5186 17.5133 33.6086 17.75 33.662 18.03C33.722 18.3033 33.752 18.61 33.752 18.95V22ZM37.8514 22.1C37.4181 22.1 37.0281 21.9867 36.6814 21.76C36.3414 21.5333 36.0714 21.2533 35.8714 20.92V24.13H35.1914V16.79H35.8014V17.8C36.0081 17.4733 36.2847 17.21 36.6314 17.01C36.9781 16.8033 37.3481 16.7 37.7414 16.7C38.1014 16.7 38.4314 16.7767 38.7314 16.93C39.0314 17.0767 39.2914 17.2767 39.5114 17.53C39.7314 17.7833 39.9014 18.0733 40.0214 18.4C40.1481 18.72 40.2114 19.0533 40.2114 19.4C40.2114 19.8867 40.1114 20.3367 39.9114 20.75C39.7181 21.1567 39.4447 21.4833 39.0914 21.73C38.7381 21.9767 38.3247 22.1 37.8514 22.1ZM37.6614 21.5C37.9481 21.5 38.2047 21.4433 38.4314 21.33C38.6581 21.21 38.8514 21.05 39.0114 20.85C39.1781 20.65 39.3047 20.4267 39.3914 20.18C39.4781 19.9267 39.5214 19.6667 39.5214 19.4C39.5214 19.12 39.4714 18.8533 39.3714 18.6C39.2781 18.3467 39.1414 18.1233 38.9614 17.93C38.7814 17.7367 38.5747 17.5833 38.3414 17.47C38.1081 17.3567 37.8547 17.3 37.5814 17.3C37.4081 17.3 37.2281 17.3333 37.0414 17.4C36.8547 17.4667 36.6747 17.5633 36.5014 17.69C36.3347 17.81 36.1947 17.9467 36.0814 18.1C35.9681 18.2533 35.8981 18.4167 35.8714 18.59V20.19C35.9781 20.4367 36.1214 20.66 36.3014 20.86C36.4814 21.0533 36.6881 21.21 36.9214 21.33C37.1614 21.4433 37.4081 21.5 37.6614 21.5ZM41.3933 14.7H42.0733V20.82C42.0733 21.08 42.1199 21.25 42.2133 21.33C42.3066 21.41 42.4199 21.45 42.5533 21.45C42.6733 21.45 42.7933 21.4367 42.9133 21.41C43.0333 21.3833 43.1366 21.3567 43.2233 21.33L43.3433 21.88C43.2166 21.9333 43.0599 21.9767 42.8733 22.01C42.6933 22.0433 42.5366 22.06 42.4033 22.06C42.0966 22.06 41.8499 21.97 41.6633 21.79C41.4833 21.61 41.3933 21.3633 41.3933 21.05V14.7ZM44.2219 23.6C44.3152 23.6067 44.4052 23.61 44.4919 23.61C44.5785 23.6167 44.6419 23.6133 44.6819 23.6C44.7619 23.5867 44.8385 23.54 44.9119 23.46C44.9852 23.38 45.0719 23.2267 45.1719 23C45.2719 22.7733 45.4119 22.44 45.5919 22L43.3219 16.79H44.0419L45.9519 21.3L47.7119 16.79H48.3919L45.6919 23.51C45.6452 23.6367 45.5752 23.7533 45.4819 23.86C45.3885 23.9733 45.2719 24.06 45.1319 24.12C44.9985 24.1867 44.8319 24.2233 44.6319 24.23C44.5719 24.2367 44.5085 24.2367 44.4419 24.23C44.3819 24.23 44.3085 24.2233 44.2219 24.21V23.6ZM52.8772 22.1C52.4905 22.1 52.1572 22.0067 51.8772 21.82C51.6039 21.6267 51.3905 21.37 51.2372 21.05C51.0905 20.7233 51.0172 20.3567 51.0172 19.95C51.0172 19.5167 51.0939 19.1033 51.2472 18.71C51.4005 18.3167 51.6105 17.9667 51.8772 17.66C52.1505 17.3533 52.4572 17.1133 52.7972 16.94C53.1439 16.76 53.5072 16.67 53.8872 16.67C54.2472 16.67 54.5539 16.7667 54.8072 16.96C55.0605 17.1467 55.2339 17.3867 55.3272 17.68L55.9672 14.7H57.3072L56.0872 20.46C56.0805 20.4933 56.0739 20.5267 56.0672 20.56C56.0605 20.5867 56.0572 20.6133 56.0572 20.64C56.0572 20.78 56.1372 20.8533 56.2972 20.86L56.0572 22C55.9372 22.02 55.8305 22.0367 55.7372 22.05C55.6505 22.0633 55.5739 22.07 55.5072 22.07C55.2739 22.07 55.0872 22.0233 54.9472 21.93C54.8139 21.83 54.7472 21.6867 54.7472 21.5C54.7472 21.4667 54.7505 21.43 54.7572 21.39C54.7639 21.35 54.7705 21.3067 54.7772 21.26C54.7839 21.2067 54.7939 21.15 54.8072 21.09C54.5539 21.4167 54.2539 21.6667 53.9072 21.84C53.5605 22.0133 53.2172 22.1 52.8772 22.1ZM53.4772 20.96C53.5905 20.96 53.7105 20.94 53.8372 20.9C53.9639 20.8533 54.0872 20.7933 54.2072 20.72C54.3339 20.64 54.4505 20.5467 54.5572 20.44C54.6639 20.3267 54.7539 20.2067 54.8272 20.08L55.0872 18.83C55.0672 18.6367 55.0072 18.4633 54.9072 18.31C54.8072 18.1567 54.6839 18.0367 54.5372 17.95C54.3905 17.8567 54.2339 17.81 54.0672 17.81C53.8539 17.81 53.6472 17.8667 53.4472 17.98C53.2539 18.0867 53.0805 18.2333 52.9272 18.42C52.7739 18.6 52.6505 18.8067 52.5572 19.04C52.4705 19.2667 52.4272 19.5 52.4272 19.74C52.4272 19.9667 52.4705 20.1733 52.5572 20.36C52.6439 20.5467 52.7639 20.6933 52.9172 20.8C53.0772 20.9067 53.2639 20.96 53.4772 20.96ZM59.3879 22.1C58.9479 22.1 58.5646 22.0067 58.2379 21.82C57.9179 21.6267 57.6712 21.3633 57.4979 21.03C57.3312 20.69 57.2479 20.3067 57.2479 19.88C57.2479 19.4467 57.3312 19.0367 57.4979 18.65C57.6646 18.2633 57.8979 17.9233 58.1979 17.63C58.4979 17.33 58.8479 17.0967 59.2479 16.93C59.6479 16.7567 60.0812 16.67 60.5479 16.67C60.9279 16.67 61.2579 16.7267 61.5379 16.84C61.8179 16.9533 62.0346 17.12 62.1879 17.34C62.3412 17.5533 62.4179 17.8167 62.4179 18.13C62.4179 18.6833 62.1646 19.1033 61.6579 19.39C61.1579 19.6767 60.4046 19.82 59.3979 19.82C59.1979 19.82 58.9812 19.8167 58.7479 19.81C58.5146 19.7967 58.2612 19.7767 57.9879 19.75L58.1579 18.91C58.3979 18.93 58.6179 18.9467 58.8179 18.96C59.0179 18.9667 59.2146 18.97 59.4079 18.97C59.8412 18.97 60.1812 18.94 60.4279 18.88C60.6812 18.82 60.8646 18.7333 60.9779 18.62C61.0912 18.5067 61.1479 18.3733 61.1479 18.22C61.1479 18.0867 61.1146 17.98 61.0479 17.9C60.9812 17.8133 60.8879 17.75 60.7679 17.71C60.6546 17.6633 60.5179 17.64 60.3579 17.64C60.0979 17.64 59.8579 17.7033 59.6379 17.83C59.4246 17.95 59.2379 18.1167 59.0779 18.33C58.9179 18.5433 58.7946 18.7867 58.7079 19.06C58.6212 19.3333 58.5779 19.6233 58.5779 19.93C58.5779 20.1567 58.6146 20.3633 58.6879 20.55C58.7679 20.73 58.8846 20.87 59.0379 20.97C59.1912 21.07 59.3879 21.12 59.6279 21.12C59.8946 21.12 60.1446 21.0567 60.3779 20.93C60.6179 20.8033 60.8079 20.6267 60.9479 20.4L62.0079 20.73C61.8346 20.9967 61.6079 21.2333 61.3279 21.44C61.0479 21.6467 60.7412 21.81 60.4079 21.93C60.0746 22.0433 59.7346 22.1 59.3879 22.1ZM63.8057 22.08C63.4724 22.08 63.2124 22.0033 63.0257 21.85C62.8457 21.69 62.7557 21.4633 62.7557 21.17C62.7557 21.11 62.759 21.05 62.7657 20.99C62.779 20.9233 62.789 20.8567 62.7957 20.79L64.0957 14.7H65.4257L64.2357 20.32C64.229 20.3533 64.2224 20.3867 64.2157 20.42C64.2157 20.4533 64.2157 20.4867 64.2157 20.52C64.2157 20.7933 64.3524 20.93 64.6257 20.93C64.699 20.93 64.7824 20.9167 64.8757 20.89C64.9757 20.8633 65.069 20.83 65.1557 20.79L65.1157 21.81C64.929 21.8967 64.7124 21.9633 64.4657 22.01C64.219 22.0567 63.999 22.08 63.8057 22.08ZM67.9426 22.1C67.5026 22.1 67.1192 22.0067 66.7926 21.82C66.4726 21.6267 66.2259 21.3633 66.0526 21.03C65.8859 20.69 65.8026 20.3067 65.8026 19.88C65.8026 19.4467 65.8859 19.0367 66.0526 18.65C66.2192 18.2633 66.4526 17.9233 66.7526 17.63C67.0526 17.33 67.4026 17.0967 67.8026 16.93C68.2026 16.7567 68.6359 16.67 69.1026 16.67C69.4826 16.67 69.8126 16.7267 70.0926 16.84C70.3726 16.9533 70.5892 17.12 70.7426 17.34C70.8959 17.5533 70.9726 17.8167 70.9726 18.13C70.9726 18.6833 70.7192 19.1033 70.2126 19.39C69.7126 19.6767 68.9592 19.82 67.9526 19.82C67.7526 19.82 67.5359 19.8167 67.3026 19.81C67.0692 19.7967 66.8159 19.7767 66.5426 19.75L66.7126 18.91C66.9526 18.93 67.1726 18.9467 67.3726 18.96C67.5726 18.9667 67.7692 18.97 67.9626 18.97C68.3959 18.97 68.7359 18.94 68.9826 18.88C69.2359 18.82 69.4192 18.7333 69.5326 18.62C69.6459 18.5067 69.7026 18.3733 69.7026 18.22C69.7026 18.0867 69.6692 17.98 69.6026 17.9C69.5359 17.8133 69.4426 17.75 69.3226 17.71C69.2092 17.6633 69.0726 17.64 68.9126 17.64C68.6526 17.64 68.4126 17.7033 68.1926 17.83C67.9792 17.95 67.7926 18.1167 67.6326 18.33C67.4726 18.5433 67.3492 18.7867 67.2626 19.06C67.1759 19.3333 67.1326 19.6233 67.1326 19.93C67.1326 20.1567 67.1692 20.3633 67.2426 20.55C67.3226 20.73 67.4392 20.87 67.5926 20.97C67.7459 21.07 67.9426 21.12 68.1826 21.12C68.4492 21.12 68.6992 21.0567 68.9326 20.93C69.1726 20.8033 69.3626 20.6267 69.5026 20.4L70.5626 20.73C70.3892 20.9967 70.1626 21.2333 69.8826 21.44C69.6026 21.6467 69.2959 21.81 68.9626 21.93C68.6292 22.0433 68.2892 22.1 67.9426 22.1ZM71.5911 21.17C71.5911 21.11 71.5944 21.05 71.6011 20.99C71.6078 20.93 71.6178 20.8667 71.6311 20.8L72.2711 17.79H71.6211L71.8411 16.76H72.4811L72.8411 15.06H74.1811L73.8211 16.76H74.8711L74.6511 17.79H73.6111L73.0611 20.35C73.0544 20.3767 73.0478 20.4033 73.0411 20.43C73.0411 20.4567 73.0411 20.4833 73.0411 20.51C73.0411 20.6367 73.0778 20.7267 73.1511 20.78C73.2244 20.8333 73.3144 20.86 73.4211 20.86C73.5078 20.86 73.5944 20.85 73.6811 20.83C73.7744 20.81 73.8611 20.7833 73.9411 20.75C74.0211 20.7167 74.0911 20.69 74.1511 20.67L74.1911 21.73C74.0578 21.79 73.9078 21.85 73.7411 21.91C73.5744 21.9633 73.4011 22.0067 73.2211 22.04C73.0411 22.0733 72.8611 22.09 72.6811 22.09C72.3678 22.09 72.1078 22.02 71.9011 21.88C71.6944 21.7333 71.5911 21.4967 71.5911 21.17ZM77.093 22.1C76.653 22.1 76.2696 22.0067 75.943 21.82C75.623 21.6267 75.3763 21.3633 75.203 21.03C75.0363 20.69 74.953 20.3067 74.953 19.88C74.953 19.4467 75.0363 19.0367 75.203 18.65C75.3696 18.2633 75.603 17.9233 75.903 17.63C76.203 17.33 76.553 17.0967 76.953 16.93C77.353 16.7567 77.7863 16.67 78.253 16.67C78.633 16.67 78.963 16.7267 79.243 16.84C79.523 16.9533 79.7396 17.12 79.893 17.34C80.0463 17.5533 80.123 17.8167 80.123 18.13C80.123 18.6833 79.8696 19.1033 79.363 19.39C78.863 19.6767 78.1096 19.82 77.103 19.82C76.903 19.82 76.6863 19.8167 76.453 19.81C76.2196 19.7967 75.9663 19.7767 75.693 19.75L75.863 18.91C76.103 18.93 76.323 18.9467 76.523 18.96C76.723 18.9667 76.9196 18.97 77.113 18.97C77.5463 18.97 77.8863 18.94 78.133 18.88C78.3863 18.82 78.5696 18.7333 78.683 18.62C78.7963 18.5067 78.853 18.3733 78.853 18.22C78.853 18.0867 78.8196 17.98 78.753 17.9C78.6863 17.8133 78.593 17.75 78.473 17.71C78.3596 17.6633 78.223 17.64 78.063 17.64C77.803 17.64 77.563 17.7033 77.343 17.83C77.1296 17.95 76.943 18.1167 76.783 18.33C76.623 18.5433 76.4996 18.7867 76.413 19.06C76.3263 19.3333 76.283 19.6233 76.283 19.93C76.283 20.1567 76.3196 20.3633 76.393 20.55C76.473 20.73 76.5896 20.87 76.743 20.97C76.8963 21.07 77.093 21.12 77.333 21.12C77.5996 21.12 77.8496 21.0567 78.083 20.93C78.323 20.8033 78.513 20.6267 78.653 20.4L79.713 20.73C79.5396 20.9967 79.313 21.2333 79.033 21.44C78.753 21.6467 78.4463 21.81 78.113 21.93C77.7796 22.0433 77.4396 22.1 77.093 22.1ZM84.6741 22.1C84.2874 22.1 83.9541 22.0067 83.6741 21.82C83.4007 21.6267 83.1874 21.37 83.0341 21.05C82.8874 20.7233 82.8141 20.3567 82.8141 19.95C82.8141 19.5167 82.8907 19.1033 83.0441 18.71C83.1974 18.3167 83.4074 17.9667 83.6741 17.66C83.9474 17.3533 84.2541 17.1133 84.5941 16.94C84.9407 16.76 85.3041 16.67 85.6841 16.67C86.0441 16.67 86.3507 16.7667 86.6041 16.96C86.8574 17.1467 87.0307 17.3867 87.1241 17.68L87.3241 16.78H88.6641L87.8841 20.46C87.8774 20.4933 87.8707 20.5267 87.8641 20.56C87.8574 20.5867 87.8541 20.6133 87.8541 20.64C87.8541 20.78 87.9341 20.8533 88.0941 20.86L87.8541 22C87.7341 22.02 87.6274 22.0367 87.5341 22.05C87.4474 22.0633 87.3707 22.07 87.3041 22.07C87.0641 22.07 86.8774 22.02 86.7441 21.92C86.6107 21.82 86.5441 21.67 86.5441 21.47C86.5441 21.4433 86.5474 21.4133 86.5541 21.38C86.5607 21.34 86.5674 21.2967 86.5741 21.25C86.5807 21.1967 86.5907 21.1433 86.6041 21.09C86.3507 21.4167 86.0507 21.6667 85.7041 21.84C85.3574 22.0133 85.0141 22.1 84.6741 22.1ZM85.2741 20.96C85.3874 20.96 85.5074 20.94 85.6341 20.9C85.7607 20.8533 85.8841 20.7933 86.0041 20.72C86.1307 20.64 86.2474 20.5467 86.3541 20.44C86.4607 20.3267 86.5507 20.2067 86.6241 20.08L86.8841 18.83C86.8641 18.6367 86.8041 18.4633 86.7041 18.31C86.6041 18.1567 86.4807 18.0367 86.3341 17.95C86.1874 17.8567 86.0307 17.81 85.8641 17.81C85.6507 17.81 85.4441 17.8667 85.2441 17.98C85.0507 18.0867 84.8774 18.2333 84.7241 18.42C84.5707 18.6 84.4474 18.8067 84.3541 19.04C84.2674 19.2667 84.2241 19.5 84.2241 19.74C84.2241 19.9667 84.2674 20.1733 84.3541 20.36C84.4407 20.5467 84.5607 20.6933 84.7141 20.8C84.8741 20.9067 85.0607 20.96 85.2741 20.96ZM89.9743 16.76H91.1843L90.9743 17.73C91.1476 17.5033 91.3476 17.3133 91.5743 17.16C91.8076 17 92.0576 16.88 92.3243 16.8C92.5976 16.7133 92.8776 16.67 93.1643 16.67C93.471 16.67 93.7076 16.7233 93.8743 16.83C94.041 16.9367 94.1576 17.0833 94.2243 17.27C94.2976 17.45 94.3343 17.6533 94.3343 17.88C94.3343 18.02 94.3243 18.16 94.3043 18.3C94.2843 18.44 94.261 18.5833 94.2343 18.73L93.5443 22H92.2043L92.8243 19.06C92.851 18.96 92.8676 18.8667 92.8743 18.78C92.8876 18.6933 92.8943 18.61 92.8943 18.53C92.8943 18.2967 92.841 18.1267 92.7343 18.02C92.6343 17.9067 92.4976 17.85 92.3243 17.85C92.1643 17.85 91.991 17.8967 91.8043 17.99C91.6176 18.0833 91.441 18.2133 91.2743 18.38C91.1076 18.54 90.9676 18.7267 90.8543 18.94L90.2043 22H88.8643L89.9743 16.76ZM98.1579 16.76H99.4979L98.3879 22H97.0479L98.1579 16.76ZM98.5979 14.7H99.9379L99.6579 16.03H98.3179L98.5979 14.7ZM100.087 21.17C100.087 21.11 100.091 21.05 100.097 20.99C100.104 20.93 100.114 20.8667 100.127 20.8L100.767 17.79H100.117L100.337 16.76H100.977L101.337 15.06H102.677L102.317 16.76H103.367L103.147 17.79H102.107L101.557 20.35C101.551 20.3767 101.544 20.4033 101.537 20.43C101.537 20.4567 101.537 20.4833 101.537 20.51C101.537 20.6367 101.574 20.7267 101.647 20.78C101.721 20.8333 101.811 20.86 101.917 20.86C102.004 20.86 102.091 20.85 102.177 20.83C102.271 20.81 102.357 20.7833 102.437 20.75C102.517 20.7167 102.587 20.69 102.647 20.67L102.687 21.73C102.554 21.79 102.404 21.85 102.237 21.91C102.071 21.9633 101.897 22.0067 101.717 22.04C101.537 22.0733 101.357 22.09 101.177 22.09C100.864 22.09 100.604 22.02 100.397 21.88C100.191 21.7333 100.087 21.4967 100.087 21.17ZM105.589 22.1C105.149 22.1 104.766 22.0067 104.439 21.82C104.119 21.6267 103.872 21.3633 103.699 21.03C103.532 20.69 103.449 20.3067 103.449 19.88C103.449 19.4467 103.532 19.0367 103.699 18.65C103.866 18.2633 104.099 17.9233 104.399 17.63C104.699 17.33 105.049 17.0967 105.449 16.93C105.849 16.7567 106.282 16.67 106.749 16.67C107.129 16.67 107.459 16.7267 107.739 16.84C108.019 16.9533 108.236 17.12 108.389 17.34C108.542 17.5533 108.619 17.8167 108.619 18.13C108.619 18.6833 108.366 19.1033 107.859 19.39C107.359 19.6767 106.606 19.82 105.599 19.82C105.399 19.82 105.182 19.8167 104.949 19.81C104.716 19.7967 104.462 19.7767 104.189 19.75L104.359 18.91C104.599 18.93 104.819 18.9467 105.019 18.96C105.219 18.9667 105.416 18.97 105.609 18.97C106.042 18.97 106.382 18.94 106.629 18.88C106.882 18.82 107.066 18.7333 107.179 18.62C107.292 18.5067 107.349 18.3733 107.349 18.22C107.349 18.0867 107.316 17.98 107.249 17.9C107.182 17.8133 107.089 17.75 106.969 17.71C106.856 17.6633 106.719 17.64 106.559 17.64C106.299 17.64 106.059 17.7033 105.839 17.83C105.626 17.95 105.439 18.1167 105.279 18.33C105.119 18.5433 104.996 18.7867 104.909 19.06C104.822 19.3333 104.779 19.6233 104.779 19.93C104.779 20.1567 104.816 20.3633 104.889 20.55C104.969 20.73 105.086 20.87 105.239 20.97C105.392 21.07 105.589 21.12 105.829 21.12C106.096 21.12 106.346 21.0567 106.579 20.93C106.819 20.8033 107.009 20.6267 107.149 20.4L108.209 20.73C108.036 20.9967 107.809 21.2333 107.529 21.44C107.249 21.6467 106.942 21.81 106.609 21.93C106.276 22.0433 105.936 22.1 105.589 22.1ZM109.867 16.76H111.077L110.867 17.73C111.12 17.3967 111.427 17.1367 111.787 16.95C112.154 16.7633 112.527 16.67 112.907 16.67C113.187 16.67 113.414 16.7167 113.587 16.81C113.76 16.8967 113.887 17.0233 113.967 17.19C114.054 17.3567 114.1 17.5533 114.107 17.78C114.294 17.5333 114.497 17.33 114.717 17.17C114.937 17.01 115.167 16.8867 115.407 16.8C115.654 16.7133 115.904 16.67 116.157 16.67C116.464 16.67 116.7 16.7233 116.867 16.83C117.034 16.9367 117.15 17.0833 117.217 17.27C117.29 17.45 117.327 17.6567 117.327 17.89C117.327 17.99 117.32 18.11 117.307 18.25C117.294 18.39 117.267 18.55 117.227 18.73L116.527 22H115.187L115.807 19.06C115.854 18.8533 115.877 18.6767 115.877 18.53C115.877 18.3033 115.827 18.1333 115.727 18.02C115.634 17.9067 115.504 17.85 115.337 17.85C115.177 17.85 115.01 17.8967 114.837 17.99C114.664 18.0833 114.5 18.2133 114.347 18.38C114.194 18.5467 114.064 18.7367 113.957 18.95L113.317 22H111.977L112.597 19.06C112.624 18.96 112.64 18.8667 112.647 18.78C112.654 18.6867 112.657 18.6 112.657 18.52C112.657 18.2933 112.61 18.1267 112.517 18.02C112.424 17.9067 112.29 17.85 112.117 17.85C111.877 17.85 111.627 17.9533 111.367 18.16C111.114 18.36 110.907 18.62 110.747 18.94L110.097 22H108.757L109.867 16.76ZM121.012 22V16.79H121.692V22H121.012ZM121.012 15.7V14.7H121.692V15.7H121.012ZM123.439 22V17.33H122.719V16.79H123.439V16.65C123.439 16.2233 123.499 15.8567 123.619 15.55C123.746 15.2433 123.923 15.01 124.149 14.85C124.383 14.6833 124.656 14.6 124.969 14.6C125.176 14.6 125.376 14.63 125.569 14.69C125.763 14.75 125.929 14.83 126.069 14.93L125.859 15.42C125.773 15.3467 125.659 15.29 125.519 15.25C125.379 15.21 125.239 15.19 125.099 15.19C124.786 15.19 124.543 15.3133 124.369 15.56C124.203 15.8067 124.119 16.1633 124.119 16.63V16.79H125.559V17.33H124.119V22H123.439ZM18.05 35.6C18.1433 35.6067 18.2333 35.61 18.32 35.61C18.4067 35.6167 18.47 35.6133 18.51 35.6C18.59 35.5867 18.6667 35.54 18.74 35.46C18.8133 35.38 18.9 35.2267 19 35C19.1 34.7733 19.24 34.44 19.42 34L17.15 28.79H17.87L19.78 33.3L21.54 28.79H22.22L19.52 35.51C19.4733 35.6367 19.4033 35.7533 19.31 35.86C19.2167 35.9733 19.1 36.06 18.96 36.12C18.8267 36.1867 18.66 36.2233 18.46 36.23C18.4 36.2367 18.3367 36.2367 18.27 36.23C18.21 36.23 18.1367 36.2233 18.05 36.21V35.6ZM25.2044 34.1C24.831 34.1 24.4844 34.03 24.1644 33.89C23.851 33.7433 23.5777 33.5467 23.3444 33.3C23.1177 33.0467 22.941 32.76 22.8144 32.44C22.6877 32.1133 22.6244 31.77 22.6244 31.41C22.6244 31.0367 22.6877 30.69 22.8144 30.37C22.941 30.0433 23.121 29.7567 23.3544 29.51C23.5877 29.2567 23.861 29.06 24.1744 28.92C24.4944 28.7733 24.841 28.7 25.2144 28.7C25.5877 28.7 25.931 28.7733 26.2444 28.92C26.5577 29.06 26.831 29.2567 27.0644 29.51C27.2977 29.7567 27.4777 30.0433 27.6044 30.37C27.731 30.69 27.7944 31.0367 27.7944 31.41C27.7944 31.77 27.731 32.1133 27.6044 32.44C27.4777 32.76 27.2977 33.0467 27.0644 33.3C26.8377 33.5467 26.5644 33.7433 26.2444 33.89C25.931 34.03 25.5844 34.1 25.2044 34.1ZM23.3144 31.42C23.3144 31.8067 23.3977 32.16 23.5644 32.48C23.7377 32.7933 23.9677 33.0433 24.2544 33.23C24.541 33.41 24.8577 33.5 25.2044 33.5C25.551 33.5 25.8677 33.4067 26.1544 33.22C26.441 33.0333 26.671 32.78 26.8444 32.46C27.0177 32.1333 27.1044 31.78 27.1044 31.4C27.1044 31.0133 27.0177 30.66 26.8444 30.34C26.671 30.02 26.441 29.7667 26.1544 29.58C25.8677 29.3933 25.551 29.3 25.2044 29.3C24.8577 29.3 24.541 29.3967 24.2544 29.59C23.9744 29.7833 23.7477 30.04 23.5744 30.36C23.401 30.6733 23.3144 31.0267 23.3144 31.42ZM28.8816 31.85V28.79H29.5616V31.73C29.5616 32.3233 29.6616 32.7667 29.8616 33.06C30.0683 33.3533 30.3716 33.5 30.7716 33.5C31.0383 33.5 31.295 33.4433 31.5416 33.33C31.795 33.21 32.0183 33.0433 32.2116 32.83C32.405 32.61 32.5516 32.3567 32.6516 32.07V28.79H33.3316V33.18C33.3316 33.2733 33.3516 33.3433 33.3916 33.39C33.4316 33.43 33.4916 33.4533 33.5716 33.46V34C33.4916 34.0067 33.4283 34.01 33.3816 34.01C33.335 34.0167 33.2916 34.02 33.2516 34.02C33.1183 34.0067 33.0016 33.9533 32.9016 33.86C32.8083 33.7667 32.7583 33.6533 32.7516 33.52L32.7316 32.82C32.505 33.22 32.195 33.5333 31.8016 33.76C31.415 33.9867 30.995 34.1 30.5416 34.1C29.995 34.1 29.5816 33.91 29.3016 33.53C29.0216 33.15 28.8816 32.59 28.8816 31.85ZM37.068 31.41C37.068 30.9167 37.168 30.4667 37.368 30.06C37.5746 29.6467 37.858 29.3167 38.218 29.07C38.578 28.8233 38.988 28.7 39.448 28.7C39.8813 28.7 40.268 28.8167 40.608 29.05C40.9546 29.2767 41.2246 29.5533 41.418 29.88V26.7H42.098V33.18C42.098 33.2733 42.118 33.3433 42.158 33.39C42.198 33.43 42.258 33.4533 42.338 33.46V34C42.2046 34.02 42.1013 34.0267 42.028 34.02C41.888 34.0133 41.7646 33.9567 41.658 33.85C41.5513 33.7433 41.498 33.6267 41.498 33.5V32.99C41.2913 33.33 41.0113 33.6 40.658 33.8C40.3046 34 39.938 34.1 39.558 34.1C39.198 34.1 38.8646 34.0267 38.558 33.88C38.258 33.7333 37.9946 33.5333 37.768 33.28C37.548 33.0267 37.3746 32.74 37.248 32.42C37.128 32.0933 37.068 31.7567 37.068 31.41ZM41.418 32.21V30.6C41.3313 30.36 41.1913 30.1433 40.998 29.95C40.8046 29.75 40.5846 29.5933 40.338 29.48C40.098 29.36 39.858 29.3 39.618 29.3C39.338 29.3 39.0846 29.36 38.858 29.48C38.6313 29.5933 38.4346 29.75 38.268 29.95C38.108 30.15 37.9846 30.3767 37.898 30.63C37.8113 30.8833 37.768 31.1433 37.768 31.41C37.768 31.69 37.8146 31.9567 37.908 32.21C38.008 32.4633 38.148 32.69 38.328 32.89C38.508 33.0833 38.7146 33.2333 38.948 33.34C39.1813 33.4467 39.4346 33.5 39.708 33.5C39.8813 33.5 40.0613 33.4667 40.248 33.4C40.4346 33.3333 40.6113 33.2433 40.778 33.13C40.9513 33.01 41.0946 32.87 41.208 32.71C41.3213 32.55 41.3913 32.3833 41.418 32.21ZM45.8587 34.1C45.4853 34.1 45.1387 34.03 44.8187 33.89C44.5053 33.7433 44.232 33.5467 43.9987 33.3C43.772 33.0467 43.5953 32.76 43.4687 32.44C43.342 32.1133 43.2787 31.77 43.2787 31.41C43.2787 31.0367 43.342 30.69 43.4687 30.37C43.5953 30.0433 43.7753 29.7567 44.0087 29.51C44.242 29.2567 44.5153 29.06 44.8287 28.92C45.1487 28.7733 45.4953 28.7 45.8687 28.7C46.242 28.7 46.5853 28.7733 46.8987 28.92C47.212 29.06 47.4853 29.2567 47.7187 29.51C47.952 29.7567 48.132 30.0433 48.2587 30.37C48.3853 30.69 48.4487 31.0367 48.4487 31.41C48.4487 31.77 48.3853 32.1133 48.2587 32.44C48.132 32.76 47.952 33.0467 47.7187 33.3C47.492 33.5467 47.2187 33.7433 46.8987 33.89C46.5853 34.03 46.2387 34.1 45.8587 34.1ZM43.9687 31.42C43.9687 31.8067 44.052 32.16 44.2187 32.48C44.392 32.7933 44.622 33.0433 44.9087 33.23C45.1953 33.41 45.512 33.5 45.8587 33.5C46.2053 33.5 46.522 33.4067 46.8087 33.22C47.0953 33.0333 47.3253 32.78 47.4987 32.46C47.672 32.1333 47.7587 31.78 47.7587 31.4C47.7587 31.0133 47.672 30.66 47.4987 30.34C47.3253 30.02 47.0953 29.7667 46.8087 29.58C46.522 29.3933 46.2053 29.3 45.8587 29.3C45.512 29.3 45.1953 29.3967 44.9087 29.59C44.6287 29.7833 44.402 30.04 44.2287 30.36C44.0553 30.6733 43.9687 31.0267 43.9687 31.42ZM56.5148 34H55.8348V31.09C55.8348 30.4767 55.7448 30.03 55.5648 29.75C55.3848 29.4633 55.1014 29.32 54.7148 29.32C54.4481 29.32 54.1848 29.3867 53.9248 29.52C53.6648 29.6467 53.4348 29.8233 53.2348 30.05C53.0414 30.27 52.9014 30.5233 52.8148 30.81V34H52.1348V28.79H52.7548V29.97C52.8948 29.7167 53.0781 29.4967 53.3048 29.31C53.5314 29.1167 53.7881 28.9667 54.0748 28.86C54.3614 28.7533 54.6581 28.7 54.9648 28.7C55.2514 28.7 55.4948 28.7533 55.6948 28.86C55.8948 28.9667 56.0548 29.12 56.1748 29.32C56.2948 29.5133 56.3814 29.75 56.4348 30.03C56.4881 30.3033 56.5148 30.61 56.5148 30.95V34ZM60.1848 34.1C59.8115 34.1 59.4648 34.03 59.1448 33.89C58.8315 33.7433 58.5582 33.5467 58.3248 33.3C58.0982 33.0467 57.9215 32.76 57.7948 32.44C57.6682 32.1133 57.6048 31.77 57.6048 31.41C57.6048 31.0367 57.6682 30.69 57.7948 30.37C57.9215 30.0433 58.1015 29.7567 58.3348 29.51C58.5682 29.2567 58.8415 29.06 59.1548 28.92C59.4748 28.7733 59.8215 28.7 60.1948 28.7C60.5682 28.7 60.9115 28.7733 61.2248 28.92C61.5382 29.06 61.8115 29.2567 62.0448 29.51C62.2782 29.7567 62.4582 30.0433 62.5848 30.37C62.7115 30.69 62.7748 31.0367 62.7748 31.41C62.7748 31.77 62.7115 32.1133 62.5848 32.44C62.4582 32.76 62.2782 33.0467 62.0448 33.3C61.8182 33.5467 61.5448 33.7433 61.2248 33.89C60.9115 34.03 60.5648 34.1 60.1848 34.1ZM58.2948 31.42C58.2948 31.8067 58.3782 32.16 58.5448 32.48C58.7182 32.7933 58.9482 33.0433 59.2348 33.23C59.5215 33.41 59.8382 33.5 60.1848 33.5C60.5315 33.5 60.8482 33.4067 61.1348 33.22C61.4215 33.0333 61.6515 32.78 61.8248 32.46C61.9982 32.1333 62.0848 31.78 62.0848 31.4C62.0848 31.0133 61.9982 30.66 61.8248 30.34C61.6515 30.02 61.4215 29.7667 61.1348 29.58C60.8482 29.3933 60.5315 29.3 60.1848 29.3C59.8382 29.3 59.5215 29.3967 59.2348 29.59C58.9548 29.7833 58.7282 30.04 58.5548 30.36C58.3815 30.6733 58.2948 31.0267 58.2948 31.42ZM66.334 33.75C66.2807 33.77 66.1973 33.8067 66.084 33.86C65.9707 33.9133 65.834 33.96 65.674 34C65.514 34.04 65.3407 34.06 65.154 34.06C64.9607 34.06 64.7773 34.0233 64.604 33.95C64.4373 33.8767 64.304 33.7667 64.204 33.62C64.104 33.4667 64.054 33.28 64.054 33.06V29.33H63.334V28.79H64.054V27.03H64.734V28.79H65.934V29.33H64.734V32.87C64.7473 33.0567 64.814 33.1967 64.934 33.29C65.0607 33.3833 65.204 33.43 65.364 33.43C65.5507 33.43 65.7207 33.4 65.874 33.34C66.0273 33.2733 66.1207 33.2267 66.154 33.2L66.334 33.75ZM76.0092 28.79H76.6792L74.4392 34H73.8492L72.7592 31.41L71.6792 34H71.0892L68.8492 28.79H69.5092L71.4092 33.3L72.3692 30.95L71.4892 28.8H72.0992L72.7592 30.49L73.4292 28.8H74.0292L73.1592 30.95L74.1192 33.3L76.0092 28.79ZM77.037 32.5C77.037 32.1733 77.1304 31.8933 77.317 31.66C77.5037 31.42 77.7604 31.2367 78.087 31.11C78.4204 30.9767 78.8037 30.91 79.237 30.91C79.4904 30.91 79.7537 30.93 80.027 30.97C80.3004 31.01 80.5437 31.07 80.757 31.15V30.71C80.757 30.27 80.627 29.92 80.367 29.66C80.107 29.4 79.747 29.27 79.287 29.27C79.007 29.27 78.7304 29.3233 78.457 29.43C78.1904 29.53 77.9104 29.68 77.617 29.88L77.357 29.4C77.697 29.1667 78.0304 28.9933 78.357 28.88C78.6837 28.76 79.017 28.7 79.357 28.7C79.997 28.7 80.5037 28.8833 80.877 29.25C81.2504 29.6167 81.437 30.1233 81.437 30.77V33.18C81.437 33.2733 81.457 33.3433 81.497 33.39C81.537 33.43 81.6004 33.4533 81.687 33.46V34C81.6137 34.0067 81.5504 34.0133 81.497 34.02C81.4437 34.0267 81.4037 34.0267 81.377 34.02C81.2104 34.0133 81.0837 33.96 80.997 33.86C80.9104 33.76 80.8637 33.6533 80.857 33.54L80.847 33.16C80.6137 33.46 80.3104 33.6933 79.937 33.86C79.5637 34.02 79.1837 34.1 78.797 34.1C78.4637 34.1 78.1604 34.03 77.887 33.89C77.6204 33.7433 77.4104 33.55 77.257 33.31C77.1104 33.0633 77.037 32.7933 77.037 32.5ZM80.527 32.9C80.6004 32.8067 80.657 32.7167 80.697 32.63C80.737 32.5433 80.757 32.4667 80.757 32.4V31.64C80.5304 31.5533 80.2937 31.4867 80.047 31.44C79.807 31.3933 79.5637 31.37 79.317 31.37C78.8304 31.37 78.437 31.4667 78.137 31.66C77.837 31.8533 77.687 32.1167 77.687 32.45C77.687 32.6433 77.737 32.8267 77.837 33C77.937 33.1667 78.0837 33.3067 78.277 33.42C78.4704 33.5267 78.697 33.58 78.957 33.58C79.2837 33.58 79.587 33.5167 79.867 33.39C80.1537 33.2633 80.3737 33.1 80.527 32.9ZM87.2863 34H86.6063V31.09C86.6063 30.4767 86.5163 30.03 86.3363 29.75C86.1563 29.4633 85.8729 29.32 85.4863 29.32C85.2196 29.32 84.9563 29.3867 84.6963 29.52C84.4363 29.6467 84.2063 29.8233 84.0063 30.05C83.8129 30.27 83.6729 30.5233 83.5863 30.81V34H82.9063V28.79H83.5263V29.97C83.6663 29.7167 83.8496 29.4967 84.0763 29.31C84.3029 29.1167 84.5596 28.9667 84.8463 28.86C85.1329 28.7533 85.4296 28.7 85.7363 28.7C86.0229 28.7 86.2663 28.7533 86.4663 28.86C86.6663 28.9667 86.8263 29.12 86.9463 29.32C87.0663 29.5133 87.1529 29.75 87.2062 30.03C87.2596 30.3033 87.2863 30.61 87.2863 30.95V34ZM91.1875 33.75C91.1342 33.77 91.0508 33.8067 90.9375 33.86C90.8242 33.9133 90.6875 33.96 90.5275 34C90.3675 34.04 90.1942 34.06 90.0075 34.06C89.8142 34.06 89.6308 34.0233 89.4575 33.95C89.2908 33.8767 89.1575 33.7667 89.0575 33.62C88.9575 33.4667 88.9075 33.28 88.9075 33.06V29.33H88.1875V28.79H88.9075V27.03H89.5875V28.79H90.7875V29.33H89.5875V32.87C89.6008 33.0567 89.6675 33.1967 89.7875 33.29C89.9142 33.3833 90.0575 33.43 90.2175 33.43C90.4042 33.43 90.5742 33.4 90.7275 33.34C90.8808 33.2733 90.9742 33.2267 91.0075 33.2L91.1875 33.75ZM97.0859 33.75C97.0326 33.77 96.9493 33.8067 96.8359 33.86C96.7226 33.9133 96.5859 33.96 96.4259 34C96.2659 34.04 96.0926 34.06 95.9059 34.06C95.7126 34.06 95.5293 34.0233 95.3559 33.95C95.1893 33.8767 95.0559 33.7667 94.9559 33.62C94.8559 33.4667 94.8059 33.28 94.8059 33.06V29.33H94.0859V28.79H94.8059V27.03H95.4859V28.79H96.6859V29.33H95.4859V32.87C95.4993 33.0567 95.5659 33.1967 95.6859 33.29C95.8126 33.3833 95.9559 33.43 96.1159 33.43C96.3026 33.43 96.4726 33.4 96.6259 33.34C96.7793 33.2733 96.8726 33.2267 96.9059 33.2L97.0859 33.75ZM100.068 34.1C99.6943 34.1 99.3477 34.03 99.0277 33.89C98.7143 33.7433 98.441 33.5467 98.2077 33.3C97.981 33.0467 97.8043 32.76 97.6777 32.44C97.551 32.1133 97.4877 31.77 97.4877 31.41C97.4877 31.0367 97.551 30.69 97.6777 30.37C97.8043 30.0433 97.9843 29.7567 98.2177 29.51C98.451 29.2567 98.7243 29.06 99.0377 28.92C99.3577 28.7733 99.7043 28.7 100.078 28.7C100.451 28.7 100.794 28.7733 101.108 28.92C101.421 29.06 101.694 29.2567 101.928 29.51C102.161 29.7567 102.341 30.0433 102.468 30.37C102.594 30.69 102.658 31.0367 102.658 31.41C102.658 31.77 102.594 32.1133 102.468 32.44C102.341 32.76 102.161 33.0467 101.928 33.3C101.701 33.5467 101.428 33.7433 101.108 33.89C100.794 34.03 100.448 34.1 100.068 34.1ZM98.1777 31.42C98.1777 31.8067 98.261 32.16 98.4277 32.48C98.601 32.7933 98.831 33.0433 99.1177 33.23C99.4043 33.41 99.721 33.5 100.068 33.5C100.414 33.5 100.731 33.4067 101.018 33.22C101.304 33.0333 101.534 32.78 101.708 32.46C101.881 32.1333 101.968 31.78 101.968 31.4C101.968 31.0133 101.881 30.66 101.708 30.34C101.534 30.02 101.304 29.7667 101.018 29.58C100.731 29.3933 100.414 29.3 100.068 29.3C99.721 29.3 99.4043 29.3967 99.1177 29.59C98.8377 29.7833 98.611 30.04 98.4377 30.36C98.2643 30.6733 98.1777 31.0267 98.1777 31.42ZM110.064 34L108.134 31.33L107.024 32.37V34H106.344V26.7H107.024V31.64L109.974 28.8H110.724L108.594 30.93L110.804 34H110.064ZM113.623 34.1C113.25 34.1 112.903 34.03 112.583 33.89C112.263 33.7433 111.986 33.5467 111.753 33.3C111.52 33.0467 111.336 32.7567 111.203 32.43C111.076 32.1033 111.013 31.7533 111.013 31.38C111.013 30.8933 111.123 30.4467 111.343 30.04C111.57 29.6333 111.88 29.31 112.273 29.07C112.666 28.8233 113.113 28.7 113.613 28.7C114.126 28.7 114.573 28.8233 114.953 29.07C115.34 29.3167 115.643 29.6433 115.863 30.05C116.083 30.45 116.193 30.89 116.193 31.37C116.193 31.4233 116.193 31.4767 116.193 31.53C116.193 31.5767 116.19 31.6133 116.183 31.64H111.723C111.756 32.0133 111.86 32.3467 112.033 32.64C112.213 32.9267 112.443 33.1567 112.723 33.33C113.01 33.4967 113.32 33.58 113.653 33.58C113.993 33.58 114.313 33.4933 114.613 33.32C114.92 33.1467 115.133 32.92 115.253 32.64L115.843 32.8C115.736 33.0467 115.573 33.27 115.353 33.47C115.133 33.67 114.873 33.8267 114.573 33.94C114.28 34.0467 113.963 34.1 113.623 34.1ZM111.703 31.15H115.553C115.526 30.77 115.423 30.4367 115.243 30.15C115.07 29.8633 114.84 29.64 114.553 29.48C114.273 29.3133 113.963 29.23 113.623 29.23C113.283 29.23 112.973 29.3133 112.693 29.48C112.413 29.64 112.183 29.8667 112.003 30.16C111.83 30.4467 111.73 30.7767 111.703 31.15ZM119.492 34.1C119.119 34.1 118.772 34.03 118.452 33.89C118.132 33.7433 117.856 33.5467 117.622 33.3C117.389 33.0467 117.206 32.7567 117.072 32.43C116.946 32.1033 116.882 31.7533 116.882 31.38C116.882 30.8933 116.992 30.4467 117.212 30.04C117.439 29.6333 117.749 29.31 118.142 29.07C118.536 28.8233 118.982 28.7 119.482 28.7C119.996 28.7 120.442 28.8233 120.822 29.07C121.209 29.3167 121.512 29.6433 121.732 30.05C121.952 30.45 122.062 30.89 122.062 31.37C122.062 31.4233 122.062 31.4767 122.062 31.53C122.062 31.5767 122.059 31.6133 122.052 31.64H117.592C117.626 32.0133 117.729 32.3467 117.902 32.64C118.082 32.9267 118.312 33.1567 118.592 33.33C118.879 33.4967 119.189 33.58 119.522 33.58C119.862 33.58 120.182 33.4933 120.482 33.32C120.789 33.1467 121.002 32.92 121.122 32.64L121.712 32.8C121.606 33.0467 121.442 33.27 121.222 33.47C121.002 33.67 120.742 33.8267 120.442 33.94C120.149 34.0467 119.832 34.1 119.492 34.1ZM117.572 31.15H121.422C121.396 30.77 121.292 30.4367 121.112 30.15C120.939 29.8633 120.709 29.64 120.422 29.48C120.142 29.3133 119.832 29.23 119.492 29.23C119.152 29.23 118.842 29.3133 118.562 29.48C118.282 29.64 118.052 29.8667 117.872 30.16C117.699 30.4467 117.599 30.7767 117.572 31.15ZM125.771 34.1C125.338 34.1 124.948 33.9867 124.601 33.76C124.261 33.5333 123.991 33.2533 123.791 32.92V36.13H123.111V28.79H123.721V29.8C123.928 29.4733 124.205 29.21 124.551 29.01C124.898 28.8033 125.268 28.7 125.661 28.7C126.021 28.7 126.351 28.7767 126.651 28.93C126.951 29.0767 127.211 29.2767 127.431 29.53C127.651 29.7833 127.821 30.0733 127.941 30.4C128.068 30.72 128.131 31.0533 128.131 31.4C128.131 31.8867 128.031 32.3367 127.831 32.75C127.638 33.1567 127.365 33.4833 127.011 33.73C126.658 33.9767 126.245 34.1 125.771 34.1ZM125.581 33.5C125.868 33.5 126.125 33.4433 126.351 33.33C126.578 33.21 126.771 33.05 126.931 32.85C127.098 32.65 127.225 32.4267 127.311 32.18C127.398 31.9267 127.441 31.6667 127.441 31.4C127.441 31.12 127.391 30.8533 127.291 30.6C127.198 30.3467 127.061 30.1233 126.881 29.93C126.701 29.7367 126.495 29.5833 126.261 29.47C126.028 29.3567 125.775 29.3 125.501 29.3C125.328 29.3 125.148 29.3333 124.961 29.4C124.775 29.4667 124.595 29.5633 124.421 29.69C124.255 29.81 124.115 29.9467 124.001 30.1C123.888 30.2533 123.818 30.4167 123.791 30.59V32.19C123.898 32.4367 124.041 32.66 124.221 32.86C124.401 33.0533 124.608 33.21 124.841 33.33C125.081 33.4433 125.328 33.5 125.581 33.5ZM17.75 46V40.79H18.43V46H17.75ZM17.75 39.7V38.7H18.43V39.7H17.75ZM22.4277 45.75C22.3744 45.77 22.2911 45.8067 22.1777 45.86C22.0644 45.9133 21.9277 45.96 21.7677 46C21.6077 46.04 21.4344 46.06 21.2477 46.06C21.0544 46.06 20.8711 46.0233 20.6977 45.95C20.5311 45.8767 20.3977 45.7667 20.2977 45.62C20.1977 45.4667 20.1477 45.28 20.1477 45.06V41.33H19.4277V40.79H20.1477V39.03H20.8277V40.79H22.0277V41.33H20.8277V44.87C20.8411 45.0567 20.9077 45.1967 21.0277 45.29C21.1544 45.3833 21.2977 45.43 21.4577 45.43C21.6444 45.43 21.8144 45.4 21.9677 45.34C22.1211 45.2733 22.2144 45.2267 22.2477 45.2L22.4277 45.75ZM25.8262 46V40.79H26.5062V46H25.8262ZM25.8262 39.7V38.7H26.5062V39.7H25.8262ZM32.3839 46H31.7039V43.09C31.7039 42.4767 31.6139 42.03 31.4339 41.75C31.2539 41.4633 30.9706 41.32 30.5839 41.32C30.3172 41.32 30.0539 41.3867 29.7939 41.52C29.5339 41.6467 29.3039 41.8233 29.1039 42.05C28.9106 42.27 28.7706 42.5233 28.6839 42.81V46H28.0039V40.79H28.6239V41.97C28.7639 41.7167 28.9472 41.4967 29.1739 41.31C29.4006 41.1167 29.6572 40.9667 29.9439 40.86C30.2306 40.7533 30.5272 40.7 30.8339 40.7C31.1206 40.7 31.3639 40.7533 31.5639 40.86C31.7639 40.9667 31.9239 41.12 32.0439 41.32C32.1639 41.5133 32.2506 41.75 32.3039 42.03C32.3572 42.3033 32.3839 42.61 32.3839 42.95V46ZM38.8828 45.75C38.8295 45.77 38.7461 45.8067 38.6328 45.86C38.5195 45.9133 38.3828 45.96 38.2228 46C38.0628 46.04 37.8895 46.06 37.7028 46.06C37.5095 46.06 37.3261 46.0233 37.1528 45.95C36.9861 45.8767 36.8528 45.7667 36.7528 45.62C36.6528 45.4667 36.6028 45.28 36.6028 45.06V41.33H35.8828V40.79H36.6028V39.03H37.2828V40.79H38.4828V41.33H37.2828V44.87C37.2961 45.0567 37.3628 45.1967 37.4828 45.29C37.6095 45.3833 37.7528 45.43 37.9128 45.43C38.0995 45.43 38.2695 45.4 38.4228 45.34C38.5761 45.2733 38.6695 45.2267 38.7028 45.2L38.8828 45.75ZM44.1124 46H43.4324V43.09C43.4324 42.5033 43.3291 42.0633 43.1224 41.77C42.9158 41.47 42.6191 41.32 42.2324 41.32C41.9791 41.32 41.7258 41.3867 41.4724 41.52C41.2258 41.6467 41.0058 41.8233 40.8124 42.05C40.6258 42.27 40.4924 42.5233 40.4124 42.81V46H39.7324V38.7H40.4124V41.97C40.6191 41.5833 40.9058 41.2767 41.2724 41.05C41.6458 40.8167 42.0424 40.7 42.4624 40.7C42.7624 40.7 43.0158 40.7533 43.2224 40.86C43.4358 40.9667 43.6058 41.1233 43.7324 41.33C43.8658 41.53 43.9624 41.7667 44.0224 42.04C44.0824 42.3067 44.1124 42.61 44.1124 42.95V46ZM47.8125 46.1C47.4392 46.1 47.0925 46.03 46.7725 45.89C46.4525 45.7433 46.1758 45.5467 45.9425 45.3C45.7092 45.0467 45.5258 44.7567 45.3925 44.43C45.2658 44.1033 45.2025 43.7533 45.2025 43.38C45.2025 42.8933 45.3125 42.4467 45.5325 42.04C45.7592 41.6333 46.0692 41.31 46.4625 41.07C46.8558 40.8233 47.3025 40.7 47.8025 40.7C48.3158 40.7 48.7625 40.8233 49.1425 41.07C49.5292 41.3167 49.8325 41.6433 50.0525 42.05C50.2725 42.45 50.3825 42.89 50.3825 43.37C50.3825 43.4233 50.3825 43.4767 50.3825 43.53C50.3825 43.5767 50.3792 43.6133 50.3725 43.64H45.9125C45.9458 44.0133 46.0492 44.3467 46.2225 44.64C46.4025 44.9267 46.6325 45.1567 46.9125 45.33C47.1992 45.4967 47.5092 45.58 47.8425 45.58C48.1825 45.58 48.5025 45.4933 48.8025 45.32C49.1092 45.1467 49.3225 44.92 49.4425 44.64L50.0325 44.8C49.9258 45.0467 49.7625 45.27 49.5425 45.47C49.3225 45.67 49.0625 45.8267 48.7625 45.94C48.4692 46.0467 48.1525 46.1 47.8125 46.1ZM45.8925 43.15H49.7425C49.7158 42.77 49.6125 42.4367 49.4325 42.15C49.2592 41.8633 49.0292 41.64 48.7425 41.48C48.4625 41.3133 48.1525 41.23 47.8125 41.23C47.4725 41.23 47.1625 41.3133 46.8825 41.48C46.6025 41.64 46.3725 41.8667 46.1925 42.16C46.0192 42.4467 45.9192 42.7767 45.8925 43.15ZM54.0105 38.7H54.6905V44.82C54.6905 45.08 54.7371 45.25 54.8305 45.33C54.9238 45.41 55.0371 45.45 55.1705 45.45C55.2905 45.45 55.4105 45.4367 55.5305 45.41C55.6505 45.3833 55.7538 45.3567 55.8405 45.33L55.9605 45.88C55.8338 45.9333 55.6771 45.9767 55.4905 46.01C55.3105 46.0433 55.1538 46.06 55.0205 46.06C54.7138 46.06 54.4671 45.97 54.2805 45.79C54.1005 45.61 54.0105 45.3633 54.0105 45.05V38.7ZM56.7051 46V40.79H57.3851V46H56.7051ZM56.7051 39.7V38.7H57.3851V39.7H56.7051ZM60.5928 46.1C60.1661 46.1 59.7695 46.03 59.4028 45.89C59.0361 45.75 58.7195 45.5367 58.4528 45.25L58.7328 44.77C59.0261 45.0433 59.3195 45.2433 59.6128 45.37C59.9128 45.49 60.2295 45.55 60.5628 45.55C60.9695 45.55 61.2995 45.47 61.5528 45.31C61.8061 45.1433 61.9328 44.9067 61.9328 44.6C61.9328 44.3933 61.8695 44.2367 61.7428 44.13C61.6228 44.0167 61.4461 43.9267 61.2128 43.86C60.9861 43.7867 60.7128 43.71 60.3928 43.63C60.0328 43.53 59.7295 43.4267 59.4828 43.32C59.2428 43.2067 59.0595 43.0667 58.9328 42.9C58.8128 42.7267 58.7528 42.5033 58.7528 42.23C58.7528 41.89 58.8361 41.61 59.0028 41.39C59.1761 41.1633 59.4095 40.9933 59.7028 40.88C60.0028 40.76 60.3361 40.7 60.7028 40.7C61.1028 40.7 61.4561 40.7633 61.7628 40.89C62.0695 41.0167 62.3195 41.1933 62.5128 41.42L62.1828 41.88C61.9961 41.6667 61.7728 41.51 61.5128 41.41C61.2595 41.3033 60.9761 41.25 60.6628 41.25C60.4495 41.25 60.2461 41.28 60.0528 41.34C59.8595 41.3933 59.6995 41.4867 59.5728 41.62C59.4528 41.7467 59.3928 41.9233 59.3928 42.15C59.3928 42.3367 59.4395 42.4833 59.5328 42.59C59.6261 42.69 59.7661 42.7767 59.9528 42.85C60.1395 42.9167 60.3695 42.99 60.6428 43.07C61.0361 43.1767 61.3795 43.2867 61.6728 43.4C61.9661 43.5067 62.1928 43.6467 62.3528 43.82C62.5128 43.9933 62.5928 44.2367 62.5928 44.55C62.5928 45.0367 62.4095 45.4167 62.0428 45.69C61.6761 45.9633 61.1928 46.1 60.5928 46.1ZM66.2168 45.75C66.1635 45.77 66.0801 45.8067 65.9668 45.86C65.8535 45.9133 65.7168 45.96 65.5568 46C65.3968 46.04 65.2235 46.06 65.0368 46.06C64.8435 46.06 64.6601 46.0233 64.4868 45.95C64.3201 45.8767 64.1868 45.7667 64.0868 45.62C63.9868 45.4667 63.9368 45.28 63.9368 45.06V41.33H63.2168V40.79H63.9368V39.03H64.6168V40.79H65.8168V41.33H64.6168V44.87C64.6301 45.0567 64.6968 45.1967 64.8168 45.29C64.9435 45.3833 65.0868 45.43 65.2468 45.43C65.4335 45.43 65.6035 45.4 65.7568 45.34C65.9101 45.2733 66.0035 45.2267 66.0368 45.2L66.2168 45.75Z" fill="white"/>
<path d="M20.69 65.05C20.23 65.05 19.7933 64.9567 19.38 64.77C18.9733 64.5833 18.6133 64.3267 18.3 64C17.9933 63.6667 17.7533 63.28 17.58 62.84C17.4067 62.4 17.32 61.9233 17.32 61.41C17.32 60.9233 17.4067 60.4667 17.58 60.04C17.7533 59.6067 17.9967 59.2267 18.31 58.9C18.6233 58.5733 18.99 58.3167 19.41 58.13C19.83 57.9433 20.2867 57.85 20.78 57.85C21.4467 57.85 22.0167 57.9933 22.49 58.28C22.97 58.56 23.33 58.9333 23.57 59.4L22.54 60.16C22.36 59.8067 22.1067 59.5367 21.78 59.35C21.46 59.1633 21.11 59.07 20.73 59.07C20.43 59.07 20.1567 59.1333 19.91 59.26C19.6633 59.3867 19.45 59.56 19.27 59.78C19.09 60 18.95 60.2533 18.85 60.54C18.7567 60.8267 18.71 61.13 18.71 61.45C18.71 61.79 18.76 62.1033 18.86 62.39C18.9667 62.6767 19.1133 62.9267 19.3 63.14C19.4933 63.3533 19.7167 63.5233 19.97 63.65C20.2233 63.77 20.5033 63.83 20.81 63.83C21.17 63.83 21.5133 63.7367 21.84 63.55C22.1733 63.3633 22.4833 63.09 22.77 62.73V64.09C22.1767 64.73 21.4833 65.05 20.69 65.05ZM22.67 62.36H21.24V61.35H23.81V65H22.67V62.36ZM27.2761 65.1C26.8494 65.1 26.4661 65.03 26.1261 64.89C25.7861 64.7433 25.4961 64.5433 25.2561 64.29C25.0228 64.0367 24.8428 63.7467 24.7161 63.42C24.5894 63.0933 24.5261 62.75 24.5261 62.39C24.5261 62.0233 24.5894 61.6767 24.7161 61.35C24.8428 61.0233 25.0228 60.7333 25.2561 60.48C25.4961 60.2267 25.7861 60.03 26.1261 59.89C26.4661 59.7433 26.8494 59.67 27.2761 59.67C27.7028 59.67 28.0828 59.7433 28.4161 59.89C28.7561 60.03 29.0461 60.2267 29.2861 60.48C29.5261 60.7333 29.7061 61.0233 29.8261 61.35C29.9528 61.6767 30.0161 62.0233 30.0161 62.39C30.0161 62.75 29.9528 63.0933 29.8261 63.42C29.7061 63.7467 29.5261 64.0367 29.2861 64.29C29.0528 64.5433 28.7661 64.7433 28.4261 64.89C28.0861 65.03 27.7028 65.1 27.2761 65.1ZM25.9061 62.39C25.9061 62.6967 25.9661 62.97 26.0861 63.21C26.2061 63.4433 26.3694 63.6267 26.5761 63.76C26.7828 63.8933 27.0161 63.96 27.2761 63.96C27.5294 63.96 27.7594 63.8933 27.9661 63.76C28.1728 63.62 28.3361 63.4333 28.4561 63.2C28.5828 62.96 28.6461 62.6867 28.6461 62.38C28.6461 62.08 28.5828 61.81 28.4561 61.57C28.3361 61.33 28.1728 61.1433 27.9661 61.01C27.7594 60.8767 27.5294 60.81 27.2761 60.81C27.0161 60.81 26.7828 60.88 26.5761 61.02C26.3694 61.1533 26.2061 61.34 26.0861 61.58C25.9661 61.8133 25.9061 62.0833 25.9061 62.39ZM33.9824 64.73C33.8691 64.7767 33.7324 64.83 33.5724 64.89C33.4124 64.95 33.2391 64.9967 33.0524 65.03C32.8724 65.07 32.6891 65.09 32.5024 65.09C32.2558 65.09 32.0291 65.0467 31.8224 64.96C31.6158 64.8733 31.4491 64.7367 31.3224 64.55C31.2024 64.3567 31.1424 64.1067 31.1424 63.8V60.79H30.4524V59.76H31.1424V58.06H32.4824V59.76H33.5824V60.79H32.4824V63.35C32.4891 63.53 32.5391 63.66 32.6324 63.74C32.7258 63.82 32.8424 63.86 32.9824 63.86C33.1224 63.86 33.2591 63.8367 33.3924 63.79C33.5258 63.7433 33.6324 63.7033 33.7124 63.67L33.9824 64.73ZM37.0827 65V59.76H38.4227V65H37.0827ZM37.0827 59.03V57.7H38.4227V59.03H37.0827ZM42.7715 64.73C42.6582 64.7767 42.5215 64.83 42.3615 64.89C42.2015 64.95 42.0282 64.9967 41.8415 65.03C41.6615 65.07 41.4782 65.09 41.2915 65.09C41.0448 65.09 40.8182 65.0467 40.6115 64.96C40.4048 64.8733 40.2382 64.7367 40.1115 64.55C39.9915 64.3567 39.9315 64.1067 39.9315 63.8V60.79H39.2415V59.76H39.9315V58.06H41.2715V59.76H42.3715V60.79H41.2715V63.35C41.2782 63.53 41.3282 63.66 41.4215 63.74C41.5148 63.82 41.6315 63.86 41.7715 63.86C41.9115 63.86 42.0482 63.8367 42.1815 63.79C42.3148 63.7433 42.4215 63.7033 42.5015 63.67L42.7715 64.73Z" fill="white"/>
<defs>
<filter id="filter0_d_3857_2802" x="0" y="0" width="156.765" height="85" filterUnits="userSpaceOnUse" color-interpolation-filters="sRGB">
<feFlood flood-opacity="0" result="BackgroundImageFix"/>
<feColorMatrix in="SourceAlpha" type="matrix" values="0 0 0 0 0 0 0 0 0 0 0 0 0 0 0 0 0 0 127 0" result="hardAlpha"/>
<feOffset dy="3"/>
<feGaussianBlur stdDeviation="3.5"/>
<feComposite in2="hardAlpha" operator="out"/>
<feColorMatrix type="matrix" values="0 0 0 0 0 0 0 0 0 0 0 0 0 0 0 0 0 0 0.15 0"/>
<feBlend mode="normal" in2="BackgroundImageFix" result="effect1_dropShadow_3857_2802"/>
<feBlend mode="normal" in="SourceGraphic" in2="effect1_dropShadow_3857_2802" result="shape"/>
</filter>
</defs>
</svg>
