<svg width="13" height="15" viewBox="0 0 13 15" fill="none" xmlns="http://www.w3.org/2000/svg">
<path fill-rule="evenodd" clip-rule="evenodd" d="M8.90625 7.03125C8.90625 6.7725 8.69625 6.5625 8.4375 6.5625C8.17875 6.5625 7.96875 6.7725 7.96875 7.03125V12.6562C7.96875 12.9155 8.17875 13.125 8.4375 13.125C8.69625 13.125 8.90625 12.9155 8.90625 12.6562V7.03125ZM6.5625 7.03125C6.5625 6.7725 6.3525 6.5625 6.09375 6.5625C5.835 6.5625 5.625 6.7725 5.625 7.03125V12.6562C5.625 12.9155 5.835 13.125 6.09375 13.125C6.3525 13.125 6.5625 12.9155 6.5625 12.6562V7.03125ZM4.21875 7.03125C4.21875 6.7725 4.00875 6.5625 3.75 6.5625C3.49125 6.5625 3.28125 6.7725 3.28125 7.03125V12.6562C3.28125 12.9155 3.49125 13.125 3.75 13.125C4.00875 13.125 4.21875 12.9155 4.21875 12.6562V7.03125ZM11.25 13.125C11.25 14.1605 10.4105 15 9.375 15H2.8125C1.77703 15 0.937502 14.1605 0.937502 13.125V5.625H11.25V13.125ZM4.6875 1.875H7.5V1.40625C7.5 1.14703 7.29 0.9375 7.03125 0.9375H5.15625C4.8975 0.9375 4.6875 1.14703 4.6875 1.40625V1.875ZM0.937502 1.875H3.75V0.9375C3.75 0.42 4.17 0 4.6875 0H7.5C8.0175 0 8.4375 0.42 8.4375 0.9375V1.875H11.25C11.7675 1.875 12.1875 2.295 12.1875 2.8125V3.75C12.1875 4.2675 11.768 4.68703 11.2505 4.6875H0.936558C0.419526 4.68703 1.90735e-06 4.2675 1.90735e-06 3.75V2.8125C1.90735e-06 2.295 0.420002 1.875 0.937502 1.875Z" fill="#ABABAB"/>
</svg>
