<svg width="14" height="14" viewBox="0 0 14 14" fill="none" xmlns="http://www.w3.org/2000/svg">
<path d="M0 14V3.11111H3.11111V0H10.8889V6.22222H14V14H7.77778V10.8889H6.22222V14H0ZM1.55556 12.4444H3.11111V10.8889H1.55556V12.4444ZM1.55556 9.33333H3.11111V7.77778H1.55556V9.33333ZM1.55556 6.22222H3.11111V4.66667H1.55556V6.22222ZM4.66667 9.33333H6.22222V7.77778H4.66667V9.33333ZM4.66667 6.22222H6.22222V4.66667H4.66667V6.22222ZM4.66667 3.11111H6.22222V1.55556H4.66667V3.11111ZM7.77778 9.33333H9.33333V7.77778H7.77778V9.33333ZM7.77778 6.22222H9.33333V4.66667H7.77778V6.22222ZM7.77778 3.11111H9.33333V1.55556H7.77778V3.11111ZM10.8889 12.4444H12.4444V10.8889H10.8889V12.4444ZM10.8889 9.33333H12.4444V7.77778H10.8889V9.33333Z" fill="#39B96F"/>
</svg>
