<svg width="14" height="14" viewBox="0 0 14 14" fill="none" xmlns="http://www.w3.org/2000/svg">
<path d="M14 3.11111H0V0.777778C0 0.571498 0.0819442 0.373667 0.227806 0.227806C0.373667 0.0819442 0.571498 0 0.777778 0H13.2222C13.4285 0 13.6263 0.0819442 13.7722 0.227806C13.9181 0.373667 14 0.571498 14 0.777778V3.11111ZM0 13.2222V4.66667H14V13.2222C14 13.4285 13.9181 13.6263 13.7722 13.7722C13.6263 13.9181 13.4285 14 13.2222 14H0.777778C0.571498 14 0.373667 13.9181 0.227806 13.7722C0.0819442 13.6263 0 13.4285 0 13.2222ZM2.33333 8.55556H11.6667V7H2.33333V8.55556ZM2.33333 11.6667H7V10.1111H2.33333V11.6667Z" fill="#39B96F"/>
</svg>
