<svg width="36" height="36" viewBox="0 0 36 36" fill="none" xmlns="http://www.w3.org/2000/svg">
<circle cx="18" cy="18" r="17.5" stroke="#39B96F"/>
<path d="M28.1341 21.1844C28.0528 21.0546 27.9106 20.9751 27.7578 20.9751H7.44158C7.28875 20.9751 7.14656 21.0546 7.06615 21.1844C6.98579 21.3143 6.97784 21.4768 7.04674 21.6137C7.66682 22.8548 8.91316 23.625 10.3 23.625H24.8994C26.2853 23.625 27.5316 22.8548 28.1535 21.6146C28.2207 21.4768 28.2145 21.3152 28.1341 21.1844Z" fill="#39B96F"/>
<path d="M18.8106 12.2335C18.883 12.0701 18.9245 11.8899 18.9245 11.7C18.9245 10.9695 18.3301 10.375 17.5996 10.375C16.8691 10.375 16.2746 10.9695 16.2746 11.7C16.2746 11.8899 16.3161 12.0701 16.3886 12.2335C12.3863 12.7838 9.22575 16.0061 8.82031 20.0915H26.378C25.9725 16.0079 22.8111 12.7838 18.8106 12.2335ZM17.1871 14.7907C14.7164 14.9541 12.5885 16.567 11.7679 18.8999C11.7043 19.0809 11.5329 19.1949 11.351 19.1949C11.3024 19.1949 11.253 19.1869 11.2044 19.1702C10.9747 19.0889 10.8537 18.8371 10.9341 18.6066C11.8722 15.939 14.304 14.0955 17.1288 13.9091C17.3629 13.8941 17.5819 14.0769 17.5987 14.3207C17.6146 14.5646 17.4308 14.7748 17.1871 14.7907Z" fill="#39B96F"/>
</svg>
