<svg width="167" height="40" viewBox="0 0 167 40" fill="none" xmlns="http://www.w3.org/2000/svg">
<path d="M35.18 16V10.22L32.61 14.71H32.17L29.59 10.22V16H28.89V8.9H29.61L32.38 13.76L35.17 8.9H35.88V16H35.18ZM37.0507 14.5C37.0507 14.1733 37.144 13.8933 37.3307 13.66C37.5174 13.42 37.774 13.2367 38.1007 13.11C38.434 12.9767 38.8174 12.91 39.2507 12.91C39.504 12.91 39.7674 12.93 40.0407 12.97C40.314 13.01 40.5574 13.07 40.7707 13.15V12.71C40.7707 12.27 40.6407 11.92 40.3807 11.66C40.1207 11.4 39.7607 11.27 39.3007 11.27C39.0207 11.27 38.744 11.3233 38.4707 11.43C38.204 11.53 37.924 11.68 37.6307 11.88L37.3707 11.4C37.7107 11.1667 38.044 10.9933 38.3707 10.88C38.6974 10.76 39.0307 10.7 39.3707 10.7C40.0107 10.7 40.5174 10.8833 40.8907 11.25C41.264 11.6167 41.4507 12.1233 41.4507 12.77V15.18C41.4507 15.2733 41.4707 15.3433 41.5107 15.39C41.5507 15.43 41.614 15.4533 41.7007 15.46V16C41.6274 16.0067 41.564 16.0133 41.5107 16.02C41.4574 16.0267 41.4174 16.0267 41.3907 16.02C41.224 16.0133 41.0974 15.96 41.0107 15.86C40.924 15.76 40.8774 15.6533 40.8707 15.54L40.8607 15.16C40.6274 15.46 40.324 15.6933 39.9507 15.86C39.5774 16.02 39.1974 16.1 38.8107 16.1C38.4774 16.1 38.174 16.03 37.9007 15.89C37.634 15.7433 37.424 15.55 37.2707 15.31C37.124 15.0633 37.0507 14.7933 37.0507 14.5ZM40.5407 14.9C40.614 14.8067 40.6707 14.7167 40.7107 14.63C40.7507 14.5433 40.7707 14.4667 40.7707 14.4V13.64C40.544 13.5533 40.3074 13.4867 40.0607 13.44C39.8207 13.3933 39.5774 13.37 39.3307 13.37C38.844 13.37 38.4507 13.4667 38.1507 13.66C37.8507 13.8533 37.7007 14.1167 37.7007 14.45C37.7007 14.6433 37.7507 14.8267 37.8507 15C37.9507 15.1667 38.0974 15.3067 38.2907 15.42C38.484 15.5267 38.7107 15.58 38.9707 15.58C39.2974 15.58 39.6007 15.5167 39.8807 15.39C40.1674 15.2633 40.3874 15.1 40.5407 14.9ZM46.6399 16L44.7099 13.33L43.5999 14.37V16H42.9199V8.7H43.5999V13.64L46.5499 10.8H47.2999L45.1699 12.93L47.3799 16H46.6399ZM50.1992 16.1C49.8259 16.1 49.4792 16.03 49.1592 15.89C48.8392 15.7433 48.5626 15.5467 48.3292 15.3C48.0959 15.0467 47.9126 14.7567 47.7792 14.43C47.6526 14.1033 47.5892 13.7533 47.5892 13.38C47.5892 12.8933 47.6992 12.4467 47.9192 12.04C48.1459 11.6333 48.4559 11.31 48.8492 11.07C49.2426 10.8233 49.6892 10.7 50.1892 10.7C50.7026 10.7 51.1492 10.8233 51.5292 11.07C51.9159 11.3167 52.2192 11.6433 52.4392 12.05C52.6592 12.45 52.7692 12.89 52.7692 13.37C52.7692 13.4233 52.7692 13.4767 52.7692 13.53C52.7692 13.5767 52.7659 13.6133 52.7592 13.64H48.2992C48.3326 14.0133 48.4359 14.3467 48.6092 14.64C48.7892 14.9267 49.0192 15.1567 49.2992 15.33C49.5859 15.4967 49.8959 15.58 50.2292 15.58C50.5692 15.58 50.8892 15.4933 51.1892 15.32C51.4959 15.1467 51.7092 14.92 51.8292 14.64L52.4192 14.8C52.3126 15.0467 52.1492 15.27 51.9292 15.47C51.7092 15.67 51.4492 15.8267 51.1492 15.94C50.8559 16.0467 50.5392 16.1 50.1992 16.1ZM48.2792 13.15H52.1292C52.1026 12.77 51.9992 12.4367 51.8192 12.15C51.6459 11.8633 51.4159 11.64 51.1292 11.48C50.8492 11.3133 50.5392 11.23 50.1992 11.23C49.8592 11.23 49.5492 11.3133 49.2692 11.48C48.9892 11.64 48.7592 11.8667 48.5792 12.16C48.4059 12.4467 48.3059 12.7767 48.2792 13.15ZM56.3938 17.6C56.4871 17.6067 56.5771 17.61 56.6637 17.61C56.7504 17.6167 56.8138 17.6133 56.8538 17.6C56.9338 17.5867 57.0104 17.54 57.0838 17.46C57.1571 17.38 57.2438 17.2267 57.3438 17C57.4438 16.7733 57.5838 16.44 57.7638 16L55.4938 10.79H56.2138L58.1238 15.3L59.8838 10.79H60.5638L57.8638 17.51C57.8171 17.6367 57.7471 17.7533 57.6538 17.86C57.5604 17.9733 57.4438 18.06 57.3038 18.12C57.1704 18.1867 57.0038 18.2233 56.8038 18.23C56.7438 18.2367 56.6804 18.2367 56.6138 18.23C56.5538 18.23 56.4804 18.2233 56.3938 18.21V17.6ZM63.5481 16.1C63.1748 16.1 62.8281 16.03 62.5081 15.89C62.1948 15.7433 61.9215 15.5467 61.6881 15.3C61.4615 15.0467 61.2848 14.76 61.1581 14.44C61.0315 14.1133 60.9681 13.77 60.9681 13.41C60.9681 13.0367 61.0315 12.69 61.1581 12.37C61.2848 12.0433 61.4648 11.7567 61.6981 11.51C61.9315 11.2567 62.2048 11.06 62.5181 10.92C62.8381 10.7733 63.1848 10.7 63.5581 10.7C63.9315 10.7 64.2748 10.7733 64.5881 10.92C64.9015 11.06 65.1748 11.2567 65.4081 11.51C65.6415 11.7567 65.8215 12.0433 65.9481 12.37C66.0748 12.69 66.1381 13.0367 66.1381 13.41C66.1381 13.77 66.0748 14.1133 65.9481 14.44C65.8215 14.76 65.6415 15.0467 65.4081 15.3C65.1815 15.5467 64.9081 15.7433 64.5881 15.89C64.2748 16.03 63.9281 16.1 63.5481 16.1ZM61.6581 13.42C61.6581 13.8067 61.7415 14.16 61.9081 14.48C62.0815 14.7933 62.3115 15.0433 62.5981 15.23C62.8848 15.41 63.2015 15.5 63.5481 15.5C63.8948 15.5 64.2115 15.4067 64.4981 15.22C64.7848 15.0333 65.0148 14.78 65.1881 14.46C65.3615 14.1333 65.4481 13.78 65.4481 13.4C65.4481 13.0133 65.3615 12.66 65.1881 12.34C65.0148 12.02 64.7848 11.7667 64.4981 11.58C64.2115 11.3933 63.8948 11.3 63.5481 11.3C63.2015 11.3 62.8848 11.3967 62.5981 11.59C62.3181 11.7833 62.0915 12.04 61.9181 12.36C61.7448 12.6733 61.6581 13.0267 61.6581 13.42ZM67.2254 13.85V10.79H67.9054V13.73C67.9054 14.3233 68.0054 14.7667 68.2054 15.06C68.4121 15.3533 68.7154 15.5 69.1154 15.5C69.3821 15.5 69.6387 15.4433 69.8854 15.33C70.1387 15.21 70.3621 15.0433 70.5554 14.83C70.7487 14.61 70.8954 14.3567 70.9954 14.07V10.79H71.6754V15.18C71.6754 15.2733 71.6954 15.3433 71.7354 15.39C71.7754 15.43 71.8354 15.4533 71.9154 15.46V16C71.8354 16.0067 71.7721 16.01 71.7254 16.01C71.6787 16.0167 71.6354 16.02 71.5954 16.02C71.4621 16.0067 71.3454 15.9533 71.2454 15.86C71.1521 15.7667 71.1021 15.6533 71.0954 15.52L71.0754 14.82C70.8487 15.22 70.5387 15.5333 70.1454 15.76C69.7587 15.9867 69.3387 16.1 68.8854 16.1C68.3387 16.1 67.9254 15.91 67.6454 15.53C67.3654 15.15 67.2254 14.59 67.2254 13.85ZM75.8129 11.39C75.3596 11.4033 74.9596 11.53 74.6129 11.77C74.2729 12.01 74.0329 12.34 73.8929 12.76V16H73.2129V10.79H73.8529V12.04C74.0329 11.6733 74.2696 11.3767 74.5629 11.15C74.8629 10.9233 75.1796 10.7967 75.5129 10.77C75.5796 10.7633 75.6362 10.76 75.6829 10.76C75.7362 10.76 75.7796 10.7633 75.8129 10.77V11.39ZM81.2532 16.1C80.8799 16.1 80.5332 16.03 80.2132 15.89C79.8999 15.7433 79.6265 15.5467 79.3932 15.3C79.1665 15.0467 78.9899 14.76 78.8632 14.44C78.7365 14.1133 78.6732 13.77 78.6732 13.41C78.6732 13.0367 78.7365 12.69 78.8632 12.37C78.9899 12.0433 79.1699 11.7567 79.4032 11.51C79.6365 11.2567 79.9099 11.06 80.2232 10.92C80.5432 10.7733 80.8899 10.7 81.2632 10.7C81.6365 10.7 81.9799 10.7733 82.2932 10.92C82.6065 11.06 82.8799 11.2567 83.1132 11.51C83.3465 11.7567 83.5265 12.0433 83.6532 12.37C83.7799 12.69 83.8432 13.0367 83.8432 13.41C83.8432 13.77 83.7799 14.1133 83.6532 14.44C83.5265 14.76 83.3465 15.0467 83.1132 15.3C82.8865 15.5467 82.6132 15.7433 82.2932 15.89C81.9799 16.03 81.6332 16.1 81.2532 16.1ZM79.3632 13.42C79.3632 13.8067 79.4465 14.16 79.6132 14.48C79.7865 14.7933 80.0165 15.0433 80.3032 15.23C80.5899 15.41 80.9065 15.5 81.2532 15.5C81.5999 15.5 81.9165 15.4067 82.2032 15.22C82.4899 15.0333 82.7199 14.78 82.8932 14.46C83.0665 14.1333 83.1532 13.78 83.1532 13.4C83.1532 13.0133 83.0665 12.66 82.8932 12.34C82.7199 12.02 82.4899 11.7667 82.2032 11.58C81.9165 11.3933 81.5999 11.3 81.2532 11.3C80.9065 11.3 80.5899 11.3967 80.3032 11.59C80.0232 11.7833 79.7965 12.04 79.6232 12.36C79.4499 12.6733 79.3632 13.0267 79.3632 13.42ZM91.3647 10.79H92.0347L89.7947 16H89.2047L88.1147 13.41L87.0347 16H86.4447L84.2047 10.79H84.8647L86.7647 15.3L87.7247 12.95L86.8447 10.8H87.4547L88.1147 12.49L88.7847 10.8H89.3847L88.5147 12.95L89.4747 15.3L91.3647 10.79ZM97.3195 16H96.6395V13.09C96.6395 12.4767 96.5495 12.03 96.3695 11.75C96.1895 11.4633 95.9061 11.32 95.5195 11.32C95.2528 11.32 94.9895 11.3867 94.7295 11.52C94.4695 11.6467 94.2395 11.8233 94.0395 12.05C93.8461 12.27 93.7061 12.5233 93.6195 12.81V16H92.9395V10.79H93.5595V11.97C93.6995 11.7167 93.8828 11.4967 94.1095 11.31C94.3361 11.1167 94.5928 10.9667 94.8795 10.86C95.1661 10.7533 95.4628 10.7 95.7695 10.7C96.0561 10.7 96.2995 10.7533 96.4995 10.86C96.6995 10.9667 96.8595 11.12 96.9795 11.32C97.0995 11.5133 97.1861 11.75 97.2395 12.03C97.2928 12.3033 97.3195 12.61 97.3195 12.95V16ZM103.978 16.1C103.545 16.1 103.155 15.9867 102.808 15.76C102.468 15.5333 102.198 15.2533 101.998 14.92V18.13H101.318V10.79H101.928V11.8C102.135 11.4733 102.412 11.21 102.758 11.01C103.105 10.8033 103.475 10.7 103.868 10.7C104.228 10.7 104.558 10.7767 104.858 10.93C105.158 11.0767 105.418 11.2767 105.638 11.53C105.858 11.7833 106.028 12.0733 106.148 12.4C106.275 12.72 106.338 13.0533 106.338 13.4C106.338 13.8867 106.238 14.3367 106.038 14.75C105.845 15.1567 105.572 15.4833 105.218 15.73C104.865 15.9767 104.452 16.1 103.978 16.1ZM103.788 15.5C104.075 15.5 104.332 15.4433 104.558 15.33C104.785 15.21 104.978 15.05 105.138 14.85C105.305 14.65 105.432 14.4267 105.518 14.18C105.605 13.9267 105.648 13.6667 105.648 13.4C105.648 13.12 105.598 12.8533 105.498 12.6C105.405 12.3467 105.268 12.1233 105.088 11.93C104.908 11.7367 104.702 11.5833 104.468 11.47C104.235 11.3567 103.982 11.3 103.708 11.3C103.535 11.3 103.355 11.3333 103.168 11.4C102.982 11.4667 102.802 11.5633 102.628 11.69C102.462 11.81 102.322 11.9467 102.208 12.1C102.095 12.2533 102.025 12.4167 101.998 12.59V14.19C102.105 14.4367 102.248 14.66 102.428 14.86C102.608 15.0533 102.815 15.21 103.048 15.33C103.288 15.4433 103.535 15.5 103.788 15.5ZM107.07 14.5C107.07 14.1733 107.164 13.8933 107.35 13.66C107.537 13.42 107.794 13.2367 108.12 13.11C108.454 12.9767 108.837 12.91 109.27 12.91C109.524 12.91 109.787 12.93 110.06 12.97C110.334 13.01 110.577 13.07 110.79 13.15V12.71C110.79 12.27 110.66 11.92 110.4 11.66C110.14 11.4 109.78 11.27 109.32 11.27C109.04 11.27 108.764 11.3233 108.49 11.43C108.224 11.53 107.944 11.68 107.65 11.88L107.39 11.4C107.73 11.1667 108.064 10.9933 108.39 10.88C108.717 10.76 109.05 10.7 109.39 10.7C110.03 10.7 110.537 10.8833 110.91 11.25C111.284 11.6167 111.47 12.1233 111.47 12.77V15.18C111.47 15.2733 111.49 15.3433 111.53 15.39C111.57 15.43 111.634 15.4533 111.72 15.46V16C111.647 16.0067 111.584 16.0133 111.53 16.02C111.477 16.0267 111.437 16.0267 111.41 16.02C111.244 16.0133 111.117 15.96 111.03 15.86C110.944 15.76 110.897 15.6533 110.89 15.54L110.88 15.16C110.647 15.46 110.344 15.6933 109.97 15.86C109.597 16.02 109.217 16.1 108.83 16.1C108.497 16.1 108.194 16.03 107.92 15.89C107.654 15.7433 107.444 15.55 107.29 15.31C107.144 15.0633 107.07 14.7933 107.07 14.5ZM110.56 14.9C110.634 14.8067 110.69 14.7167 110.73 14.63C110.77 14.5433 110.79 14.4667 110.79 14.4V13.64C110.564 13.5533 110.327 13.4867 110.08 13.44C109.84 13.3933 109.597 13.37 109.35 13.37C108.864 13.37 108.47 13.4667 108.17 13.66C107.87 13.8533 107.72 14.1167 107.72 14.45C107.72 14.6433 107.77 14.8267 107.87 15C107.97 15.1667 108.117 15.3067 108.31 15.42C108.504 15.5267 108.73 15.58 108.99 15.58C109.317 15.58 109.62 15.5167 109.9 15.39C110.187 15.2633 110.407 15.1 110.56 14.9ZM115.199 16.1C114.819 16.1 114.469 16.03 114.149 15.89C113.836 15.7433 113.559 15.5433 113.319 15.29C113.086 15.0367 112.903 14.7467 112.769 14.42C112.643 14.0933 112.579 13.7467 112.579 13.38C112.579 12.8867 112.689 12.4367 112.909 12.03C113.129 11.6233 113.436 11.3 113.829 11.06C114.223 10.82 114.676 10.7 115.189 10.7C115.676 10.7 116.106 10.8133 116.479 11.04C116.853 11.26 117.129 11.56 117.309 11.94L116.649 12.15C116.503 11.8833 116.296 11.6767 116.029 11.53C115.769 11.3767 115.479 11.3 115.159 11.3C114.813 11.3 114.496 11.39 114.209 11.57C113.923 11.75 113.693 11.9967 113.519 12.31C113.353 12.6233 113.269 12.98 113.269 13.38C113.269 13.7733 113.356 14.13 113.529 14.45C113.703 14.77 113.933 15.0267 114.219 15.22C114.506 15.4067 114.823 15.5 115.169 15.5C115.396 15.5 115.613 15.46 115.819 15.38C116.033 15.3 116.216 15.1933 116.369 15.06C116.529 14.92 116.636 14.77 116.689 14.61L117.359 14.81C117.266 15.0567 117.109 15.28 116.889 15.48C116.676 15.6733 116.423 15.8267 116.129 15.94C115.843 16.0467 115.533 16.1 115.199 16.1ZM122.148 16L120.218 13.33L119.108 14.37V16H118.428V8.7H119.108V13.64L122.058 10.8H122.808L120.678 12.93L122.888 16H122.148ZM123.73 16V10.79H124.41V16H123.73ZM123.73 9.7V8.7H124.41V9.7H123.73ZM130.288 16H129.608V13.09C129.608 12.4767 129.518 12.03 129.338 11.75C129.158 11.4633 128.875 11.32 128.488 11.32C128.222 11.32 127.958 11.3867 127.698 11.52C127.438 11.6467 127.208 11.8233 127.008 12.05C126.815 12.27 126.675 12.5233 126.588 12.81V16H125.908V10.79H126.528V11.97C126.668 11.7167 126.852 11.4967 127.078 11.31C127.305 11.1167 127.562 10.9667 127.848 10.86C128.135 10.7533 128.432 10.7 128.738 10.7C129.025 10.7 129.268 10.7533 129.468 10.86C129.668 10.9667 129.828 11.12 129.948 11.32C130.068 11.5133 130.155 11.75 130.208 12.03C130.262 12.3033 130.288 12.61 130.288 12.95V16ZM133.828 16.07C133.475 16.07 133.148 15.9967 132.848 15.85C132.548 15.7033 132.288 15.5067 132.068 15.26C131.855 15.0067 131.688 14.72 131.568 14.4C131.448 14.08 131.388 13.75 131.388 13.41C131.388 13.0433 131.445 12.7 131.558 12.38C131.678 12.0533 131.845 11.7633 132.058 11.51C132.278 11.2567 132.535 11.06 132.828 10.92C133.122 10.7733 133.448 10.7 133.808 10.7C134.255 10.7 134.642 10.8133 134.968 11.04C135.302 11.2667 135.582 11.5467 135.808 11.88V10.79H136.418V16.02C136.418 16.5 136.302 16.9033 136.068 17.23C135.842 17.5633 135.532 17.8133 135.138 17.98C134.752 18.1467 134.328 18.23 133.868 18.23C133.275 18.23 132.795 18.1233 132.428 17.91C132.062 17.6967 131.762 17.41 131.528 17.05L131.948 16.72C132.155 17.0467 132.428 17.29 132.768 17.45C133.115 17.61 133.482 17.69 133.868 17.69C134.208 17.69 134.518 17.6267 134.798 17.5C135.085 17.38 135.312 17.1967 135.478 16.95C135.652 16.7033 135.738 16.3933 135.738 16.02V14.99C135.538 15.3167 135.265 15.58 134.918 15.78C134.572 15.9733 134.208 16.07 133.828 16.07ZM134.018 15.5C134.225 15.5 134.422 15.4633 134.608 15.39C134.802 15.3167 134.978 15.22 135.138 15.1C135.298 14.9733 135.432 14.8333 135.538 14.68C135.645 14.5267 135.712 14.37 135.738 14.21V12.6C135.638 12.3467 135.495 12.1233 135.308 11.93C135.122 11.73 134.908 11.5767 134.668 11.47C134.435 11.3567 134.192 11.3 133.938 11.3C133.645 11.3 133.382 11.3633 133.148 11.49C132.922 11.61 132.728 11.7733 132.568 11.98C132.415 12.18 132.295 12.4067 132.208 12.66C132.122 12.9133 132.078 13.1667 132.078 13.42C132.078 13.7 132.128 13.9667 132.228 14.22C132.328 14.4667 132.465 14.69 132.638 14.89C132.818 15.0833 133.025 15.2333 133.258 15.34C133.498 15.4467 133.752 15.5 134.018 15.5ZM140.499 8.7H141.179V14.82C141.179 15.08 141.225 15.25 141.319 15.33C141.412 15.41 141.525 15.45 141.659 15.45C141.779 15.45 141.899 15.4367 142.019 15.41C142.139 15.3833 142.242 15.3567 142.329 15.33L142.449 15.88C142.322 15.9333 142.165 15.9767 141.979 16.01C141.799 16.0433 141.642 16.06 141.509 16.06C141.202 16.06 140.955 15.97 140.769 15.79C140.589 15.61 140.499 15.3633 140.499 15.05V8.7ZM143.193 16V10.79H143.873V16H143.193ZM143.193 9.7V8.7H143.873V9.7H143.193ZM147.081 16.1C146.654 16.1 146.258 16.03 145.891 15.89C145.524 15.75 145.208 15.5367 144.941 15.25L145.221 14.77C145.514 15.0433 145.808 15.2433 146.101 15.37C146.401 15.49 146.718 15.55 147.051 15.55C147.458 15.55 147.788 15.47 148.041 15.31C148.294 15.1433 148.421 14.9067 148.421 14.6C148.421 14.3933 148.358 14.2367 148.231 14.13C148.111 14.0167 147.934 13.9267 147.701 13.86C147.474 13.7867 147.201 13.71 146.881 13.63C146.521 13.53 146.218 13.4267 145.971 13.32C145.731 13.2067 145.548 13.0667 145.421 12.9C145.301 12.7267 145.241 12.5033 145.241 12.23C145.241 11.89 145.324 11.61 145.491 11.39C145.664 11.1633 145.898 10.9933 146.191 10.88C146.491 10.76 146.824 10.7 147.191 10.7C147.591 10.7 147.944 10.7633 148.251 10.89C148.558 11.0167 148.808 11.1933 149.001 11.42L148.671 11.88C148.484 11.6667 148.261 11.51 148.001 11.41C147.748 11.3033 147.464 11.25 147.151 11.25C146.938 11.25 146.734 11.28 146.541 11.34C146.348 11.3933 146.188 11.4867 146.061 11.62C145.941 11.7467 145.881 11.9233 145.881 12.15C145.881 12.3367 145.928 12.4833 146.021 12.59C146.114 12.69 146.254 12.7767 146.441 12.85C146.628 12.9167 146.858 12.99 147.131 13.07C147.524 13.1767 147.868 13.2867 148.161 13.4C148.454 13.5067 148.681 13.6467 148.841 13.82C149.001 13.9933 149.081 14.2367 149.081 14.55C149.081 15.0367 148.898 15.4167 148.531 15.69C148.164 15.9633 147.681 16.1 147.081 16.1ZM152.705 15.75C152.652 15.77 152.568 15.8067 152.455 15.86C152.342 15.9133 152.205 15.96 152.045 16C151.885 16.04 151.712 16.06 151.525 16.06C151.332 16.06 151.148 16.0233 150.975 15.95C150.808 15.8767 150.675 15.7667 150.575 15.62C150.475 15.4667 150.425 15.28 150.425 15.06V11.33H149.705V10.79H150.425V9.03H151.105V10.79H152.305V11.33H151.105V14.87C151.118 15.0567 151.185 15.1967 151.305 15.29C151.432 15.3833 151.575 15.43 151.735 15.43C151.922 15.43 152.092 15.4 152.245 15.34C152.398 15.2733 152.492 15.2267 152.525 15.2L152.705 15.75ZM153.455 16V15.02H154.045V16H153.455Z" fill="white"/>
<path d="M11.8663 32.0781V35.3321H1.91301V32.0781H0V36.2886C0 36.8165 0.427648 37.2446 0.957932 37.2446H12.8214C13.3512 37.2446 13.7793 36.8169 13.7793 36.2886V32.0781H11.8663Z" fill="white"/>
<path d="M6.71436 31.7554L3.97551 28.4459C3.97551 28.4459 3.55879 28.0524 4.01067 28.0524C4.46255 28.0524 5.554 28.0524 5.554 28.0524C5.554 28.0524 5.554 27.7878 5.554 27.3796C5.554 26.2159 5.554 24.0981 5.554 23.2347C5.554 23.2347 5.49271 23 5.84623 23C6.2026 23 7.76352 23 8.01868 23C8.27337 23 8.26767 23.1977 8.26767 23.1977C8.26767 24.0349 8.26767 26.2259 8.26767 27.3516C8.26767 27.7165 8.26767 27.9531 8.26767 27.9531C8.26767 27.9531 9.14292 27.9531 9.69222 27.9531C10.2406 27.9531 9.82764 28.3651 9.82764 28.3651C9.82764 28.3651 7.49743 31.4584 7.17242 31.7829C6.93863 32.0182 6.71436 31.7554 6.71436 31.7554Z" fill="white"/>
<path d="M23.576 24.64H27.528C28.5093 24.64 29.3147 24.8373 29.944 25.232C30.5733 25.616 31.0427 26.1387 31.352 26.8C31.6613 27.4613 31.816 28.208 31.816 29.04C31.816 30.0427 31.6453 30.9707 31.304 31.824C30.9733 32.6667 30.504 33.4027 29.896 34.032C29.2987 34.6507 28.5893 35.136 27.768 35.488C26.9573 35.8293 26.072 36 25.112 36H21.16L23.576 24.64ZM25.512 34.064C26.1307 34.064 26.6853 33.9413 27.176 33.696C27.6773 33.44 28.104 33.0933 28.456 32.656C28.808 32.208 29.0747 31.7013 29.256 31.136C29.448 30.5707 29.544 29.9787 29.544 29.36C29.544 28.8053 29.4533 28.32 29.272 27.904C29.0907 27.488 28.8187 27.1627 28.456 26.928C28.104 26.6933 27.656 26.576 27.112 26.576H25.352L23.768 34.064H25.512ZM35.8221 36.16C35.0115 36.16 34.3448 36 33.8221 35.68C33.3101 35.36 32.9315 34.9333 32.6861 34.4C32.4408 33.856 32.3181 33.2587 32.3181 32.608C32.3181 31.9253 32.4408 31.2747 32.6861 30.656C32.9421 30.0373 33.2995 29.488 33.7581 29.008C34.2168 28.528 34.7555 28.1547 35.3741 27.888C36.0035 27.6107 36.6915 27.472 37.4381 27.472C38.2488 27.472 38.9101 27.632 39.4221 27.952C39.9448 28.272 40.3288 28.6987 40.5741 29.232C40.8195 29.7653 40.9421 30.3627 40.9421 31.024C40.9421 31.7067 40.8141 32.3573 40.5581 32.976C40.3128 33.5947 39.9608 34.144 39.5021 34.624C39.0435 35.104 38.4995 35.4827 37.8701 35.76C37.2515 36.0267 36.5688 36.16 35.8221 36.16ZM36.1421 34.336C36.4728 34.336 36.7928 34.2613 37.1021 34.112C37.4115 33.9627 37.6835 33.7493 37.9181 33.472C38.1635 33.1947 38.3555 32.8693 38.4941 32.496C38.6435 32.1227 38.7181 31.7173 38.7181 31.28C38.7181 30.8853 38.6541 30.5387 38.5261 30.24C38.4088 29.9413 38.2275 29.712 37.9821 29.552C37.7475 29.3813 37.4595 29.296 37.1181 29.296C36.7875 29.296 36.4675 29.3707 36.1581 29.52C35.8595 29.6693 35.5875 29.8827 35.3421 30.16C35.0968 30.4373 34.8995 30.768 34.7501 31.152C34.6115 31.5253 34.5421 31.9307 34.5421 32.368C34.5421 32.752 34.6008 33.0933 34.7181 33.392C34.8461 33.6907 35.0275 33.9253 35.2621 34.096C35.5075 34.256 35.8008 34.336 36.1421 34.336ZM41.8126 27.616H43.9086L44.9166 34.08C45.1726 33.696 45.4126 33.3173 45.6366 32.944C45.8713 32.56 46.0953 32.1813 46.3086 31.808L45.4126 27.616H47.2846L47.7006 30.208C47.914 29.7813 48.1113 29.3493 48.2926 28.912C48.4846 28.4747 48.6606 28.0427 48.8206 27.616H50.5646C50.3086 28.3733 50.0153 29.088 49.6846 29.76C49.354 30.432 48.97 31.1093 48.5326 31.792L48.9486 33.712C49.29 33.2533 49.5993 32.8213 49.8766 32.416C50.154 32.0107 50.4046 31.616 50.6286 31.232C50.8526 30.848 51.0606 30.4693 51.2526 30.096C51.4446 29.712 51.626 29.3173 51.7966 28.912C51.9673 28.5067 52.1273 28.0747 52.2766 27.616H54.2446C53.7753 29.0027 53.1086 30.4 52.2446 31.808C51.3913 33.2053 50.378 34.6027 49.2046 36H47.5886L47.1246 33.264C46.8473 33.7227 46.5646 34.1813 46.2766 34.64C45.9886 35.088 45.69 35.5413 45.3806 36H43.4286L41.8126 27.616ZM55.4933 27.616H57.4293L57.0933 29.168C57.3706 28.8053 57.6906 28.5013 58.0533 28.256C58.4266 28 58.8266 27.808 59.2533 27.68C59.6906 27.5413 60.1386 27.472 60.5973 27.472C61.0879 27.472 61.4666 27.5573 61.7333 27.728C61.9999 27.8987 62.1866 28.1333 62.2933 28.432C62.4106 28.72 62.4693 29.0453 62.4693 29.408C62.4693 29.632 62.4533 29.856 62.4213 30.08C62.3893 30.304 62.3519 30.5333 62.3093 30.768L61.2053 36H59.0613L60.0533 31.296C60.0959 31.136 60.1226 30.9867 60.1333 30.848C60.1546 30.7093 60.1653 30.576 60.1653 30.448C60.1653 30.0747 60.0799 29.8027 59.9093 29.632C59.7493 29.4507 59.5306 29.36 59.2533 29.36C58.9973 29.36 58.7199 29.4347 58.4213 29.584C58.1226 29.7333 57.8399 29.9413 57.5733 30.208C57.3066 30.464 57.0826 30.7627 56.9013 31.104L55.8613 36H53.7172L55.4933 27.616ZM65.0298 36.128C64.4964 36.128 64.0804 36.0053 63.7818 35.76C63.4938 35.504 63.3498 35.1413 63.3498 34.672C63.3498 34.576 63.3551 34.48 63.3658 34.384C63.3871 34.2773 63.4031 34.1707 63.4138 34.064L65.4938 24.32H67.6218L65.7178 33.312C65.7071 33.3653 65.6964 33.4187 65.6858 33.472C65.6858 33.5253 65.6858 33.5787 65.6858 33.632C65.6858 34.0693 65.9044 34.288 66.3418 34.288C66.4591 34.288 66.5924 34.2667 66.7418 34.224C66.9018 34.1813 67.0511 34.128 67.1898 34.064L67.1258 35.696C66.8271 35.8347 66.4804 35.9413 66.0858 36.016C65.6911 36.0907 65.3391 36.128 65.0298 36.128ZM71.7128 36.16C70.9021 36.16 70.2354 36 69.7128 35.68C69.2008 35.36 68.8221 34.9333 68.5768 34.4C68.3314 33.856 68.2088 33.2587 68.2088 32.608C68.2088 31.9253 68.3314 31.2747 68.5768 30.656C68.8328 30.0373 69.1901 29.488 69.6488 29.008C70.1074 28.528 70.6461 28.1547 71.2648 27.888C71.8941 27.6107 72.5821 27.472 73.3288 27.472C74.1394 27.472 74.8008 27.632 75.3128 27.952C75.8354 28.272 76.2194 28.6987 76.4648 29.232C76.7101 29.7653 76.8328 30.3627 76.8328 31.024C76.8328 31.7067 76.7048 32.3573 76.4488 32.976C76.2034 33.5947 75.8514 34.144 75.3928 34.624C74.9341 35.104 74.3901 35.4827 73.7608 35.76C73.1421 36.0267 72.4594 36.16 71.7128 36.16ZM72.0328 34.336C72.3634 34.336 72.6834 34.2613 72.9928 34.112C73.3021 33.9627 73.5741 33.7493 73.8088 33.472C74.0541 33.1947 74.2461 32.8693 74.3848 32.496C74.5341 32.1227 74.6088 31.7173 74.6088 31.28C74.6088 30.8853 74.5448 30.5387 74.4168 30.24C74.2994 29.9413 74.1181 29.712 73.8728 29.552C73.6381 29.3813 73.3501 29.296 73.0088 29.296C72.6781 29.296 72.3581 29.3707 72.0488 29.52C71.7501 29.6693 71.4781 29.8827 71.2328 30.16C70.9874 30.4373 70.7901 30.768 70.6408 31.152C70.5021 31.5253 70.4328 31.9307 70.4328 32.368C70.4328 32.752 70.4914 33.0933 70.6088 33.392C70.7368 33.6907 70.9181 33.9253 71.1528 34.096C71.3981 34.256 71.6914 34.336 72.0328 34.336ZM80.5598 36.16C79.9411 36.16 79.4078 36.0107 78.9598 35.712C78.5224 35.4027 78.1811 34.992 77.9358 34.48C77.7011 33.9573 77.5838 33.3707 77.5838 32.72C77.5838 32.0267 77.7064 31.3653 77.9518 30.736C78.1971 30.1067 78.5331 29.5467 78.9598 29.056C79.3971 28.5653 79.8878 28.1813 80.4318 27.904C80.9864 27.616 81.5678 27.472 82.1758 27.472C82.7518 27.472 83.2424 27.6267 83.6478 27.936C84.0531 28.2347 84.3304 28.6187 84.4798 29.088L84.7998 27.648H86.9438L85.6958 33.536C85.6851 33.5893 85.6744 33.6427 85.6638 33.696C85.6531 33.7387 85.6478 33.7813 85.6478 33.824C85.6478 34.048 85.7758 34.1653 86.0318 34.176L85.6478 36C85.4558 36.032 85.2851 36.0587 85.1358 36.08C84.9971 36.1013 84.8744 36.112 84.7678 36.112C84.3838 36.112 84.0851 36.032 83.8718 35.872C83.6584 35.712 83.5518 35.472 83.5518 35.152C83.5518 35.1093 83.5571 35.0613 83.5678 35.008C83.5784 34.944 83.5891 34.8747 83.5998 34.8C83.6104 34.7147 83.6264 34.6293 83.6478 34.544C83.2424 35.0667 82.7624 35.4667 82.2078 35.744C81.6531 36.0213 81.1038 36.16 80.5598 36.16ZM81.5198 34.336C81.7011 34.336 81.8931 34.304 82.0958 34.24C82.2984 34.1653 82.4958 34.0693 82.6878 33.952C82.8904 33.824 83.0771 33.6747 83.2478 33.504C83.4184 33.3227 83.5624 33.1307 83.6798 32.928L84.0958 30.928C84.0638 30.6187 83.9678 30.3413 83.8078 30.096C83.6478 29.8507 83.4504 29.6587 83.2158 29.52C82.9811 29.3707 82.7304 29.296 82.4638 29.296C82.1224 29.296 81.7918 29.3867 81.4718 29.568C81.1624 29.7387 80.8851 29.9733 80.6398 30.272C80.3944 30.56 80.1971 30.8907 80.0478 31.264C79.9091 31.6267 79.8398 32 79.8398 32.384C79.8398 32.7467 79.9091 33.0773 80.0478 33.376C80.1864 33.6747 80.3784 33.9093 80.6238 34.08C80.8798 34.2507 81.1784 34.336 81.5198 34.336ZM90.5441 36.16C89.9255 36.16 89.3921 36.0107 88.9441 35.712C88.5068 35.4027 88.1655 34.992 87.9201 34.48C87.6855 33.9573 87.5681 33.3707 87.5681 32.72C87.5681 32.0267 87.6908 31.3653 87.9361 30.736C88.1815 30.1067 88.5175 29.5467 88.9441 29.056C89.3815 28.5653 89.8721 28.1813 90.4161 27.904C90.9708 27.616 91.5521 27.472 92.1601 27.472C92.7361 27.472 93.2268 27.6267 93.6321 27.936C94.0375 28.2347 94.3148 28.6187 94.4641 29.088L95.4881 24.32H97.6321L95.6801 33.536C95.6695 33.5893 95.6588 33.6427 95.6481 33.696C95.6375 33.7387 95.6321 33.7813 95.6321 33.824C95.6321 34.048 95.7601 34.1653 96.0161 34.176L95.6321 36C95.4401 36.032 95.2695 36.0587 95.1201 36.08C94.9815 36.1013 94.8588 36.112 94.7521 36.112C94.3788 36.112 94.0801 36.0373 93.8561 35.888C93.6428 35.728 93.5361 35.4987 93.5361 35.2C93.5361 35.1467 93.5415 35.088 93.5521 35.024C93.5628 34.96 93.5735 34.8907 93.5841 34.816C93.5948 34.7307 93.6108 34.64 93.6321 34.544C93.2268 35.0667 92.7468 35.4667 92.1921 35.744C91.6375 36.0213 91.0881 36.16 90.5441 36.16ZM91.5041 34.336C91.6855 34.336 91.8775 34.304 92.0801 34.24C92.2828 34.1653 92.4801 34.0693 92.6721 33.952C92.8748 33.824 93.0615 33.6747 93.2321 33.504C93.4028 33.3227 93.5468 33.1307 93.6641 32.928L94.0801 30.928C94.0481 30.6187 93.9521 30.3413 93.7921 30.096C93.6321 29.8507 93.4348 29.6587 93.2001 29.52C92.9655 29.3707 92.7148 29.296 92.4481 29.296C92.1068 29.296 91.7761 29.3867 91.4561 29.568C91.1468 29.7387 90.8695 29.9733 90.6241 30.272C90.3788 30.56 90.1815 30.8907 90.0321 31.264C89.8935 31.6267 89.8241 32 89.8241 32.384C89.8241 32.7467 89.8935 33.0773 90.0321 33.376C90.1708 33.6747 90.3628 33.9093 90.6081 34.08C90.8641 34.2507 91.1628 34.336 91.5041 34.336ZM103.67 24.64H105.862L103.862 34.064H109.286L108.886 36H101.254L103.67 24.64ZM113.586 36.16C112.882 36.16 112.269 36.0107 111.746 35.712C111.234 35.4027 110.84 34.9813 110.562 34.448C110.296 33.904 110.162 33.2907 110.162 32.608C110.162 31.9147 110.296 31.2587 110.562 30.64C110.829 30.0213 111.202 29.4773 111.682 29.008C112.162 28.528 112.722 28.1547 113.362 27.888C114.002 27.6107 114.696 27.472 115.442 27.472C116.05 27.472 116.578 27.5627 117.026 27.744C117.474 27.9253 117.821 28.192 118.066 28.544C118.312 28.8853 118.434 29.3067 118.434 29.808C118.434 30.6933 118.029 31.3653 117.218 31.824C116.418 32.2827 115.213 32.512 113.602 32.512C113.282 32.512 112.936 32.5067 112.562 32.496C112.189 32.4747 111.784 32.4427 111.346 32.4L111.618 31.056C112.002 31.088 112.354 31.1147 112.674 31.136C112.994 31.1467 113.309 31.152 113.618 31.152C114.312 31.152 114.856 31.104 115.25 31.008C115.656 30.912 115.949 30.7733 116.13 30.592C116.312 30.4107 116.402 30.1973 116.402 29.952C116.402 29.7387 116.349 29.568 116.242 29.44C116.136 29.3013 115.986 29.2 115.794 29.136C115.613 29.0613 115.394 29.024 115.138 29.024C114.722 29.024 114.338 29.1253 113.986 29.328C113.645 29.52 113.346 29.7867 113.09 30.128C112.834 30.4693 112.637 30.8587 112.498 31.296C112.36 31.7333 112.29 32.1973 112.29 32.688C112.29 33.0507 112.349 33.3813 112.466 33.68C112.594 33.968 112.781 34.192 113.026 34.352C113.272 34.512 113.586 34.592 113.97 34.592C114.397 34.592 114.797 34.4907 115.17 34.288C115.554 34.0853 115.858 33.8027 116.082 33.44L117.778 33.968C117.501 34.3947 117.138 34.7733 116.69 35.104C116.242 35.4347 115.752 35.696 115.218 35.888C114.685 36.0693 114.141 36.16 113.586 36.16ZM119.424 34.672C119.424 34.576 119.429 34.48 119.44 34.384C119.451 34.288 119.467 34.1867 119.488 34.08L120.512 29.264H119.472L119.824 27.616H120.848L121.424 24.896H123.568L122.992 27.616H124.672L124.32 29.264H122.656L121.776 33.36C121.765 33.4027 121.755 33.4453 121.744 33.488C121.744 33.5307 121.744 33.5733 121.744 33.616C121.744 33.8187 121.803 33.9627 121.92 34.048C122.037 34.1333 122.181 34.176 122.352 34.176C122.491 34.176 122.629 34.16 122.768 34.128C122.917 34.096 123.056 34.0533 123.184 34C123.312 33.9467 123.424 33.904 123.52 33.872L123.584 35.568C123.371 35.664 123.131 35.76 122.864 35.856C122.597 35.9413 122.32 36.0107 122.032 36.064C121.744 36.1173 121.456 36.144 121.168 36.144C120.667 36.144 120.251 36.032 119.92 35.808C119.589 35.5733 119.424 35.1947 119.424 34.672ZM125.479 27.984L126.231 26.032H125.607L126.055 23.872H128.231L127.767 26.064L126.791 27.984H125.479ZM129.382 36.16C128.7 36.16 128.054 36.048 127.446 35.824C126.849 35.6 126.369 35.28 126.006 34.864L127.078 33.52C127.484 33.872 127.9 34.144 128.326 34.336C128.753 34.5173 129.185 34.608 129.622 34.608C129.921 34.608 130.177 34.5653 130.39 34.48C130.604 34.384 130.769 34.2613 130.886 34.112C131.004 33.952 131.062 33.7707 131.062 33.568C131.062 33.3013 130.945 33.104 130.71 32.976C130.476 32.848 130.108 32.7093 129.606 32.56C129.052 32.3787 128.593 32.208 128.23 32.048C127.878 31.8773 127.617 31.68 127.446 31.456C127.276 31.2213 127.19 30.928 127.19 30.576C127.19 29.9787 127.356 29.4453 127.686 28.976C128.028 28.5067 128.481 28.1387 129.046 27.872C129.622 27.5947 130.262 27.456 130.966 27.456C131.574 27.456 132.118 27.552 132.598 27.744C133.078 27.9253 133.505 28.2133 133.878 28.608L132.742 29.904C132.401 29.584 132.07 29.3547 131.75 29.216C131.441 29.0667 131.1 28.992 130.726 28.992C130.449 28.992 130.198 29.0347 129.974 29.12C129.761 29.1947 129.59 29.312 129.462 29.472C129.334 29.632 129.27 29.824 129.27 30.048C129.27 30.2933 129.366 30.4747 129.558 30.592C129.761 30.6987 130.108 30.8267 130.598 30.976C131.196 31.1467 131.686 31.328 132.07 31.52C132.454 31.7013 132.742 31.92 132.934 32.176C133.126 32.432 133.222 32.7573 133.222 33.152C133.222 33.7387 133.062 34.256 132.742 34.704C132.422 35.152 131.974 35.5093 131.398 35.776C130.822 36.032 130.15 36.16 129.382 36.16ZM142.03 26.576H138.622L139.022 24.64H148.03L147.614 26.576H144.222L142.222 36H140.014L142.03 26.576ZM147.962 27.616H149.93L149.546 29.408C149.951 28.832 150.405 28.3787 150.906 28.048C151.418 27.7067 151.919 27.536 152.41 27.536C152.517 27.536 152.597 27.5413 152.65 27.552C152.714 27.552 152.762 27.5573 152.794 27.568L152.394 29.472C151.786 29.472 151.21 29.6 150.666 29.856C150.133 30.1013 149.711 30.4587 149.402 30.928L148.33 36H146.186L147.962 27.616ZM154.009 27.616H156.153L154.377 36H152.233L154.009 27.616ZM154.713 24.32H156.857L156.409 26.448H154.265L154.713 24.32ZM158.056 27.616H159.928L159.624 29.056C160.018 28.5653 160.477 28.1813 161 27.904C161.533 27.616 162.098 27.472 162.696 27.472C163.304 27.472 163.821 27.6267 164.248 27.936C164.685 28.2347 165.021 28.6453 165.256 29.168C165.49 29.6907 165.608 30.272 165.608 30.912C165.608 31.5947 165.485 32.256 165.24 32.896C164.994 33.5253 164.658 34.0853 164.232 34.576C163.816 35.0667 163.336 35.456 162.792 35.744C162.248 36.0213 161.677 36.16 161.08 36.16C160.472 36.16 159.965 36.016 159.56 35.728C159.154 35.4293 158.877 35.0293 158.728 34.528L157.688 39.408H155.544L158.056 27.616ZM160.76 34.336C161.101 34.336 161.426 34.2507 161.736 34.08C162.056 33.8987 162.333 33.664 162.568 33.376C162.813 33.0773 163.005 32.7467 163.144 32.384C163.293 32.0107 163.368 31.6373 163.368 31.264C163.368 30.8907 163.298 30.5547 163.16 30.256C163.032 29.9573 162.84 29.7227 162.584 29.552C162.338 29.3813 162.045 29.296 161.704 29.296C161.512 29.296 161.314 29.3333 161.112 29.408C160.909 29.472 160.706 29.568 160.504 29.696C160.312 29.824 160.13 29.9733 159.96 30.144C159.8 30.3147 159.661 30.5013 159.544 30.704L159.112 32.672C159.176 32.9813 159.282 33.264 159.432 33.52C159.581 33.776 159.768 33.9787 159.992 34.128C160.226 34.2667 160.482 34.336 160.76 34.336Z" fill="white"/>
</svg>
