<svg width="20" height="13" viewBox="0 0 20 13" fill="none" xmlns="http://www.w3.org/2000/svg">
<path d="M0 9.20279C0 8.31826 0.279154 7.52308 0.837461 6.83511C1.39577 6.14714 2.10716 5.70041 2.98064 5.50385C3.21477 4.4585 3.74606 3.59184 4.58352 2.93068C5.42098 2.26058 6.38451 1.93 7.48311 1.93C8.5457 1.93 9.50022 2.25165 10.3287 2.90388C11.1661 3.5561 11.7064 4.38702 11.9496 5.40557H12.1927C13.2553 5.40557 14.1558 5.77189 14.9032 6.51346C15.6506 7.25504 16.0288 8.1485 16.0288 9.19385C16.0288 10.2481 15.6506 11.1416 14.9032 11.8832C14.1558 12.6247 13.2553 13 12.1927 13H3.84511C3.32283 13 2.82756 12.9017 2.3593 12.6962C1.89104 12.4907 1.46781 12.2406 1.12562 11.901C0.783431 11.5615 0.513282 11.1505 0.306168 10.6859C0.0990544 10.2213 0 9.71206 0 9.20279ZM1.30572 9.20279C1.30572 9.88182 1.55786 10.4715 2.04412 10.954C2.53039 11.4364 3.13372 11.6866 3.83611 11.6866H12.1927C12.8861 11.6866 13.4894 11.4454 13.9847 10.954C14.48 10.4626 14.7321 9.88182 14.7321 9.20279C14.7321 8.52375 14.489 7.93407 13.9847 7.4516C13.4894 6.96913 12.8951 6.71896 12.1927 6.71896H10.941C10.851 6.71896 10.8059 6.67429 10.8059 6.58494L10.7429 6.14714C10.6529 5.30729 10.2927 4.60145 9.67132 4.04751C9.04998 3.49356 8.31157 3.21659 7.46511 3.21659C6.61864 3.21659 5.88023 3.49356 5.24989 4.05644C4.61954 4.61039 4.26835 5.31622 4.1873 6.14714L4.12427 6.5224C4.12427 6.61174 4.07924 6.65642 3.98019 6.65642L3.57497 6.71896C2.92661 6.77257 2.38631 7.04061 1.94507 7.51414C1.53084 7.98768 1.30572 8.55056 1.30572 9.20279ZM9.2751 1.41179C9.18505 1.49221 9.20306 1.55475 9.33814 1.59942C9.72535 1.76918 10.0495 1.93 10.3107 2.09083C10.4097 2.11763 10.4818 2.10869 10.5088 2.06402C11.0581 1.55475 11.6884 1.29564 12.4178 1.29564C13.1472 1.29564 13.7686 1.53688 14.3089 2.01935C14.8402 2.50182 15.1373 3.10044 15.2004 3.80627L15.2814 4.37809H16.5601C17.1454 4.37809 17.6497 4.58358 18.0729 5.00351C18.4962 5.42344 18.7033 5.91484 18.7033 6.48666C18.7033 7.02274 18.5142 7.48734 18.145 7.8894C17.7758 8.29145 17.3165 8.51482 16.7672 8.57736C16.6772 8.57736 16.6321 8.62203 16.6321 8.72031V9.72993C16.6321 9.82821 16.6772 9.87288 16.7672 9.87288C17.6767 9.81927 18.4421 9.46189 19.0635 8.80966C19.6848 8.15743 20 7.38012 20 6.48666C20 5.53959 19.6668 4.73547 18.9914 4.07431C18.3161 3.40421 17.5056 3.07363 16.5601 3.07363H16.425C16.1909 2.18017 15.6956 1.44753 14.9392 0.866783C14.1918 0.286032 13.3453 0.000124099 12.4178 0.000124099C11.1571 -0.00881052 10.1036 0.464724 9.2751 1.41179Z" fill="#30B86C"/>
</svg>
