<svg width="11" height="11" viewBox="0 0 11 11" fill="none" xmlns="http://www.w3.org/2000/svg">
<path d="M3.24882 10.7025C2.72002 10.7025 2.19122 10.7237 1.66242 10.699C0.696468 10.6461 0.086582 10.0186 0.0125495 9.05264C-0.0332801 8.46391 0.0442777 7.8928 0.280476 7.34989C0.714095 6.35222 1.49672 5.81989 2.56138 5.6824C2.78348 5.6542 3.0091 5.65067 3.23472 5.64715C4.07023 5.64362 4.90927 5.62952 5.74478 5.65772C6.43574 5.6824 7.03858 5.97148 7.55328 6.4333C7.68019 6.54964 7.67667 6.63072 7.55328 6.75411C6.83058 7.48386 6.10789 8.21361 5.38166 8.9363C5.17014 9.1443 5.07143 9.38755 5.07848 9.68015C5.08553 9.92693 5.07848 10.1737 5.07848 10.4205C5.07848 10.6849 5.04676 10.7201 4.78588 10.7201C4.2747 10.7201 3.76353 10.7201 3.25235 10.7201C3.24882 10.7131 3.24882 10.7096 3.24882 10.7025Z" fill="#39B96F"/>
<path d="M4.22564 4.51245C2.99529 4.51245 1.97646 3.49363 1.97999 2.2668C1.97999 1.01883 2.98824 0 4.22211 0C5.48067 0 6.49244 1.00825 6.49244 2.26328C6.49597 3.5042 5.47714 4.51598 4.22564 4.51245Z" fill="#39B96F"/>
<path d="M5.9206 10.9989C5.9206 10.6605 5.94175 10.3362 5.91355 10.0189C5.88534 9.70864 5.99463 9.50064 6.21673 9.2856C6.93237 8.59463 7.62687 7.87898 8.32841 7.17391C8.37072 7.13161 8.4095 7.07873 8.4377 7.047C8.92067 7.52997 9.38954 7.99884 9.86547 8.47477C9.85842 8.48534 9.83021 8.51707 9.79849 8.5488C9.00528 9.33848 8.21208 10.1282 7.41535 10.9143C7.36952 10.9601 7.28843 10.9954 7.22145 10.9954C6.79488 11.0024 6.36832 10.9989 5.9206 10.9989Z" fill="#39B96F"/>
<path d="M10.296 8.0451C9.82013 7.56917 9.35478 7.10383 8.89648 6.64553C9.0939 6.43753 9.28075 6.21191 9.50285 6.02154C9.69674 5.85585 9.99287 5.8911 10.1797 6.0709C10.4089 6.28947 10.6345 6.51157 10.8531 6.74424C11.054 6.95929 11.0505 7.28362 10.8495 7.49867C10.6979 7.66083 10.5322 7.81595 10.3736 7.97459C10.3454 7.99927 10.3207 8.02042 10.296 8.0451Z" fill="#39B96F"/>
</svg>
