<svg width="19" height="21" viewBox="0 0 19 21" fill="none" xmlns="http://www.w3.org/2000/svg">
    <path
        d="M9.42345 20.4616C8.0367 19.2702 6.67386 18.1249 5.34291 16.9489C4.26699 15.9958 4.20323 14.4508 5.1596 13.4361C6.11598 12.4138 7.694 12.3216 8.80977 13.2286C9.42345 13.7282 9.42345 13.7282 10.0292 13.2363C11.1529 12.3216 12.7309 12.4061 13.6793 13.4285C14.6437 14.4661 14.5958 15.9804 13.512 16.9412C12.181 18.1249 10.8102 19.2702 9.42345 20.4616Z"
        fill="#39B96F" />
    <path
        d="M11.153 12.214C11.153 11.6298 11.145 11.0994 11.153 10.5614C11.1609 9.92337 11.129 9.2777 11.2087 8.64741C11.3363 7.67122 12.1572 6.91794 13.1613 6.87182C14.2054 6.8257 15.2574 6.86413 16.3094 6.86413C16.3413 6.86413 16.3811 6.89488 16.4449 6.91794C16.142 7.54823 16.1181 8.17853 16.5565 8.76271C16.9948 9.3392 17.6005 9.51599 18.3577 9.42375C18.3577 9.9618 18.3577 10.4845 18.3577 10.9995C18.3577 11.5375 18.3577 12.0756 18.3577 12.6137C18.3497 13.7282 17.6723 14.5276 16.5326 14.7582C16.413 14.7813 16.3014 14.812 16.1421 14.8428C16.1421 15.7574 16.1421 16.6798 16.1421 17.6253C15.2335 17.6253 14.3648 17.6253 13.4084 17.6253C14.6198 16.6414 15.1538 15.4577 14.5561 14.0357C13.9663 12.6137 12.7629 12.0833 11.153 12.214Z"
        fill="#39B96F" />
    <path
        d="M0.345781 10.861C2.22665 11.2453 3.07942 10.2999 2.62514 8.43972C3.67716 8.43972 4.73714 8.34748 5.78118 8.46278C6.86508 8.58576 7.5186 9.46202 7.53454 10.5228C7.54251 11.0608 7.53454 11.5989 7.53454 12.1754C6.02028 12.1216 4.84075 12.6519 4.28286 14.0355C3.72498 15.4191 4.2191 16.5797 5.42254 17.6021C4.38647 17.6021 3.48588 17.6021 2.54545 17.6021C2.54545 16.6797 2.54545 15.765 2.54545 14.8272C2.37011 14.7888 2.23462 14.758 2.09117 14.735C1.11088 14.5505 0.3936 13.7742 0.353751 12.8133C0.329841 12.1754 0.345781 11.5374 0.345781 10.861Z"
        fill="#39B96F" />
    <path
        d="M12.6034 6.53358C11.7187 6.8641 11.0891 7.40216 10.842 8.26305C10.7623 8.53976 10.7305 8.83954 10.7225 9.13162C10.7065 10.1078 10.7065 11.0763 10.7225 12.0525C10.7225 12.2754 10.6428 12.383 10.4435 12.4983C10.0849 12.6905 9.75814 12.9288 9.44731 13.1286C9.00101 12.875 8.54673 12.629 8.10042 12.3523C8.02072 12.2985 7.96493 12.1447 7.96493 12.0371C7.94899 11.5375 7.96493 11.0379 7.95696 10.5383C7.94899 9.36222 7.25562 8.43984 6.09203 8.10163C5.79715 8.01708 5.73339 7.87872 5.74933 7.60969C5.81309 6.41828 6.72164 5.5497 7.96493 5.53433C8.8974 5.52664 9.8219 5.52664 10.7544 5.53433C11.5354 5.5497 12.1411 5.88022 12.6034 6.53358Z"
        fill="#39B96F" />
    <path
        d="M17.0903 3.58972C17.0903 4.83493 16.0463 5.84956 14.7791 5.85724C13.4561 5.86493 12.3961 4.85031 12.4041 3.57434C12.4121 2.3445 13.4721 1.32219 14.7392 1.32988C16.0463 1.32988 17.0903 2.33681 17.0903 3.58972Z"
        fill="#39B96F" />
    <path
        d="M9.32771 4.51968C8.05255 4.51199 6.99256 3.48968 7.00053 2.26753C7.00053 1.01462 8.06052 0 9.35959 0C10.6666 0 11.7107 1.02231 11.7027 2.27521C11.6868 3.54349 10.6507 4.52737 9.32771 4.51968Z"
        fill="#39B96F" />
    <path
        d="M3.15922 7.39435C1.89202 7.40204 0.832038 6.40279 0.816098 5.15757C0.800158 3.90467 1.8442 2.87467 3.14328 2.8593C4.41845 2.84393 5.50234 3.88161 5.51031 5.12682C5.51828 6.36436 4.46627 7.38666 3.15922 7.39435Z"
        fill="#39B96F" />
    <path
        d="M1.67678 8.2168C2.18685 8.47814 2.41001 8.87784 2.40204 9.38515C2.3861 9.88477 2.01152 10.3383 1.51739 10.4997C0.983411 10.6765 0.537102 10.5228 0.146582 10.1538C-0.0367233 9.9847 -0.0606327 9.83865 0.146582 9.64649C0.664619 9.19299 1.16672 8.70105 1.67678 8.2168Z"
        fill="#39B96F" />
    <path
        d="M17.983 9.03935C17.3932 9.03166 16.8911 8.67808 16.7237 8.19383C16.5484 7.68652 16.7078 7.11003 17.1461 6.82563C17.2338 6.76414 17.4569 6.77183 17.5287 6.841C18.0148 7.27145 18.4851 7.71727 18.9393 8.18615C19.0111 8.25533 19.0111 8.47055 18.9553 8.5551C18.7162 8.89331 18.3416 9.01629 17.983 9.03935Z"
        fill="#39B96F" />
</svg>
