<svg width="17" height="18" viewBox="0 0 17 18" fill="none" xmlns="http://www.w3.org/2000/svg">
<path d="M8.49902 17.9377V13.4532V11.2148" stroke="#5D5D5D" stroke-miterlimit="10"/>
<path d="M8.49902 6.73061V0" stroke="#5D5D5D" stroke-miterlimit="10"/>
<path d="M5.88692 1.87207L8.49961 4.48476L11.1123 1.87207" stroke="#5D5D5D" stroke-miterlimit="10"/>
<path d="M8.49902 17.9377V13.4532V11.2148" stroke="#5D5D5D" stroke-miterlimit="10"/>
<path d="M8.49902 6.73061V0" stroke="#5D5D5D" stroke-miterlimit="10"/>
<path d="M11.1123 16.0658L8.49961 13.4531L5.88692 16.0658" stroke="#5D5D5D" stroke-miterlimit="10"/>
<path d="M0.731704 13.4532L4.61565 11.2149L6.55762 10.0918" stroke="#5D5D5D" stroke-miterlimit="10"/>
<path d="M10.4417 7.84578L16.2676 4.48438" stroke="#5D5D5D" stroke-miterlimit="10"/>
<path d="M13.3434 3.15088L12.3841 6.73066L15.9561 7.68215" stroke="#5D5D5D" stroke-miterlimit="10"/>
<path d="M0.731704 13.4532L4.61565 11.2149L6.55762 10.0918" stroke="#5D5D5D" stroke-miterlimit="10"/>
<path d="M10.4417 7.84578L16.2676 4.48438" stroke="#5D5D5D" stroke-miterlimit="10"/>
<path d="M3.65692 14.7871L4.61621 11.2151L1.04423 10.2559" stroke="#5D5D5D" stroke-miterlimit="10"/>
<path d="M10.4417 10.0918L16.2676 13.4532" stroke="#5D5D5D" stroke-miterlimit="10"/>
<path d="M6.55762 7.84578L4.61565 6.73051L0.731704 4.48438" stroke="#5D5D5D" stroke-miterlimit="10"/>
<path d="M3.65692 3.15088L4.61621 6.73066L1.04423 7.68215" stroke="#5D5D5D" stroke-miterlimit="10"/>
<path d="M10.4417 10.0918L16.2676 13.4532" stroke="#5D5D5D" stroke-miterlimit="10"/>
<path d="M6.55762 7.84578L4.61565 6.73051L0.731704 4.48438" stroke="#5D5D5D" stroke-miterlimit="10"/>
<path d="M13.3434 14.7871L12.3841 11.2151L15.9561 10.2559" stroke="#5D5D5D" stroke-miterlimit="10"/>
<path d="M6.25386 8.96937C6.25199 9.51633 6.44907 10.0453 6.80838 10.4577C7.16768 10.8701 7.66469 11.1378 8.20676 11.2108C8.74882 11.2839 9.29896 11.1573 9.75461 10.8547C10.2103 10.5522 10.5404 10.0942 10.6833 9.56629C10.8263 9.03835 10.7725 8.47642 10.5318 7.98526C10.2911 7.4941 9.88 7.10721 9.37516 6.89672C8.87032 6.68624 8.30616 6.66651 7.78784 6.84122C7.26953 7.01592 6.83243 7.37315 6.55802 7.8463C6.36043 8.18772 6.25557 8.57489 6.25386 8.96937Z" stroke="#5D5D5D" stroke-miterlimit="10"/>
</svg>
