<svg width="75" height="24" viewBox="0 0 75 24" fill="none" xmlns="http://www.w3.org/2000/svg">
<rect x="0.25" y="0.407227" width="74.5" height="23.1842" rx="5.27632" stroke="#39B96F" stroke-width="0.5"/>
<path d="M60 10.4202L63.2072 13.5781L66.4145 10.4202" stroke="#696969" stroke-width="0.789474"/>
<path d="M14.2433 9.63031C14.5063 8.57492 15.3677 8.0686 16.1436 8.05216C16.9261 8.03572 17.8434 8.51903 18.1295 9.63031C18.3037 9.63031 18.478 9.63031 18.6555 9.63031C18.8857 9.63031 19.1158 9.62702 19.346 9.63031C19.5695 9.6336 19.7372 9.80785 19.7372 10.0216C19.7372 10.2418 19.5794 10.4128 19.3525 10.4194C18.9909 10.426 18.6292 10.4227 18.2676 10.4227C18.2215 10.4227 18.1788 10.4227 18.1459 10.4227C18.0637 10.6167 18.0045 10.8041 17.9125 10.975C17.5245 11.6852 16.7552 12.083 15.9562 11.9942C15.177 11.9055 14.5063 11.3367 14.2893 10.564C14.2564 10.4523 14.2137 10.4194 14.0986 10.4227C12.4547 10.426 10.8108 10.426 9.1669 10.4227C9.07485 10.4227 8.97621 10.4095 8.89402 10.3734C8.73291 10.2977 8.65729 10.1202 8.69346 9.94923C8.72634 9.78484 8.87429 9.65332 9.04854 9.63689C9.09457 9.6336 9.13731 9.6336 9.18334 9.6336C10.8174 9.6336 12.4547 9.6336 14.0887 9.6336C14.1381 9.63031 14.1874 9.63031 14.2433 9.63031ZM16.1864 11.2085C16.8406 11.2085 17.37 10.6758 17.3667 10.0248C17.3634 9.37057 16.8275 8.84124 16.1798 8.84452C15.5255 8.8511 14.9962 9.38044 14.9995 10.0314C15.0028 10.6857 15.5321 11.2085 16.1864 11.2085Z" fill="black"/>
<path d="M10.2944 13.5757C10.5706 12.4907 11.4616 11.9976 12.2309 11.9976C13.0068 11.9943 13.9011 12.4842 14.1773 13.5757C14.2233 13.5757 14.2694 13.5757 14.3187 13.5757C15.979 13.5757 17.6394 13.5757 19.2997 13.5757C19.5693 13.5757 19.7501 13.7631 19.7304 14.0163C19.7173 14.1873 19.5693 14.3418 19.3983 14.3615C19.3424 14.3681 19.2833 14.3681 19.2274 14.3681C17.5933 14.3681 15.956 14.3681 14.322 14.3648C14.2168 14.3648 14.1674 14.3878 14.1379 14.4963C13.8978 15.3577 13.1318 15.9397 12.2474 15.9429C11.3597 15.9462 10.587 15.361 10.3437 14.4963C10.3141 14.3944 10.2747 14.3615 10.1695 14.3648C9.80452 14.3714 9.43958 14.3714 9.07134 14.3648C8.8675 14.3615 8.7064 14.2037 8.68996 14.0163C8.67352 13.8092 8.79517 13.6349 8.99901 13.5856C9.04175 13.5757 9.08778 13.5757 9.13381 13.5757C9.47903 13.5757 9.82425 13.5757 10.1695 13.5757C10.2089 13.5757 10.255 13.5757 10.2944 13.5757ZM12.2375 15.1539C12.8918 15.1539 13.4211 14.6245 13.4211 13.9735C13.4211 13.3226 12.8885 12.7899 12.2375 12.7932C11.5832 12.7965 11.0539 13.3258 11.0539 13.9768C11.0539 14.6278 11.5832 15.1539 12.2375 15.1539Z" fill="black"/>
<path d="M24.5569 15.894V8.6072H29.3704V9.42825H25.4806V11.8606H28.7546V12.6304H25.4806V15.894H24.5569ZM30.3968 15.894V10.5367H31.2999V15.894H30.3968ZM30.3968 9.53089V8.40194H31.2999V9.53089H30.3968ZM32.7826 8.40194H33.6858V14.5085C33.6858 14.8027 33.7268 14.984 33.8089 15.0525C33.891 15.1209 33.9903 15.1551 34.1066 15.1551C34.2503 15.1551 34.3871 15.1414 34.5171 15.114C34.6471 15.0798 34.7566 15.0456 34.8455 15.0114L34.9892 15.7504C34.8387 15.8119 34.6608 15.8633 34.4555 15.9043C34.2503 15.9454 34.0689 15.9659 33.9116 15.9659C33.5626 15.9659 33.2855 15.8667 33.0803 15.6683C32.8818 15.4698 32.7826 15.1927 32.7826 14.8369V8.40194ZM38.4698 15.6272C38.3945 15.6614 38.2919 15.7059 38.1619 15.7606C38.0319 15.8154 37.8814 15.8633 37.7103 15.9043C37.5392 15.9454 37.3579 15.9659 37.1664 15.9659C36.9474 15.9659 36.7456 15.9283 36.5608 15.853C36.3761 15.7709 36.229 15.6477 36.1195 15.4835C36.01 15.3125 35.9553 15.1004 35.9553 14.8472V11.2448H35.2266V10.5367H35.9553V8.75088H36.8585V10.5367H38.0592V11.2448H36.8585V14.5701C36.8721 14.7617 36.9371 14.9054 37.0535 15.0011C37.1698 15.0901 37.3066 15.1346 37.464 15.1346C37.6419 15.1346 37.8061 15.1038 37.9566 15.0422C38.1071 14.9806 38.2064 14.9361 38.2542 14.9088L38.4698 15.6272ZM41.6075 15.9967C41.2038 15.9967 40.8343 15.9248 40.4991 15.7811C40.1707 15.6306 39.8833 15.4288 39.637 15.1756C39.3975 14.9156 39.2093 14.618 39.0725 14.2827C38.9425 13.9475 38.8775 13.5917 38.8775 13.2154C38.8775 12.709 38.9938 12.2472 39.2264 11.8298C39.4591 11.4125 39.7807 11.0772 40.1912 10.824C40.6085 10.5709 41.0841 10.4443 41.6178 10.4443C42.1583 10.4443 42.627 10.5743 43.0238 10.8343C43.4275 11.0875 43.7388 11.4227 43.9578 11.8401C44.1835 12.2506 44.2964 12.6954 44.2964 13.1743C44.2964 13.2427 44.293 13.3111 44.2862 13.3796C44.2862 13.4411 44.2828 13.489 44.2759 13.5233H39.832C39.8593 13.8722 39.9551 14.1835 40.1193 14.4572C40.2904 14.724 40.5093 14.9361 40.7762 15.0935C41.043 15.244 41.3304 15.3193 41.6383 15.3193C41.9667 15.3193 42.2746 15.2372 42.562 15.073C42.8562 14.9088 43.058 14.6933 43.1675 14.4264L43.9475 14.6419C43.8312 14.9019 43.6567 15.1346 43.4241 15.3398C43.1983 15.5451 42.928 15.7059 42.6133 15.8222C42.3054 15.9385 41.9701 15.9967 41.6075 15.9967ZM39.8012 12.8972H43.4549C43.4275 12.5483 43.3283 12.2404 43.1572 11.9735C42.9862 11.7067 42.7672 11.498 42.5004 11.3475C42.2335 11.1969 41.9393 11.1217 41.6178 11.1217C41.303 11.1217 41.0122 11.1969 40.7454 11.3475C40.4785 11.498 40.2596 11.7067 40.0885 11.9735C39.9243 12.2404 39.8285 12.5483 39.8012 12.8972ZM48.133 11.3269C47.6814 11.3338 47.2812 11.4501 46.9322 11.6759C46.5901 11.8948 46.3472 12.1993 46.2035 12.5893V15.894H45.3004V10.5367H46.142V11.7785C46.3267 11.409 46.5696 11.1114 46.8706 10.8856C47.1785 10.653 47.5001 10.523 47.8354 10.4956C47.9038 10.4956 47.962 10.4956 48.0099 10.4956C48.0578 10.4956 48.0988 10.499 48.133 10.5059V11.3269ZM50.8659 15.9967C50.4212 15.9967 50.0038 15.9248 49.6138 15.7811C49.2238 15.6306 48.8885 15.4083 48.608 15.114L48.957 14.4777C49.2649 14.7651 49.5727 14.9704 49.8806 15.0935C50.1885 15.2167 50.5033 15.2783 50.8249 15.2783C51.1943 15.2783 51.4954 15.2098 51.728 15.073C51.9606 14.9293 52.077 14.7206 52.077 14.4469C52.077 14.2485 52.0154 14.1014 51.8922 14.0056C51.7759 13.9098 51.6083 13.8311 51.3893 13.7696C51.1704 13.7011 50.9104 13.6259 50.6093 13.5438C50.2399 13.4343 49.9285 13.318 49.6754 13.1948C49.4222 13.0717 49.2306 12.9177 49.1006 12.733C48.9706 12.5483 48.9056 12.3156 48.9056 12.0351C48.9056 11.693 48.9946 11.4056 49.1725 11.173C49.3504 10.9335 49.5933 10.7522 49.9012 10.629C50.2159 10.5059 50.5717 10.4443 50.9685 10.4443C51.3654 10.4443 51.7246 10.5059 52.0462 10.629C52.3677 10.7522 52.6449 10.9335 52.8775 11.173L52.467 11.799C52.2549 11.5801 52.0222 11.4193 51.7691 11.3167C51.5159 11.2072 51.232 11.1525 50.9172 11.1525C50.7325 11.1525 50.5512 11.1764 50.3733 11.2243C50.1954 11.2654 50.0483 11.344 49.932 11.4604C49.8156 11.5698 49.7575 11.7272 49.7575 11.9325C49.7575 12.1035 49.802 12.2404 49.8909 12.343C49.9867 12.4388 50.1235 12.5209 50.3014 12.5893C50.4862 12.6577 50.7085 12.733 50.9685 12.8151C51.3722 12.9314 51.7212 13.0477 52.0154 13.164C52.3164 13.2804 52.5491 13.4309 52.7133 13.6156C52.8775 13.8004 52.9596 14.0569 52.9596 14.3854C52.9596 14.8917 52.768 15.2885 52.3849 15.5759C52.0017 15.8564 51.4954 15.9967 50.8659 15.9967Z" fill="#06140C"/>
</svg>
