<svg width="48" height="48" viewBox="0 0 48 48" fill="none" xmlns="http://www.w3.org/2000/svg">
    <path
        d="M40 41H8C5.8 41 4 39.2 4 37V11C4 8.8 5.8 7 8 7H40C42.2 7 44 8.8 44 11V37C44 39.2 42.2 41 40 41Z"
        fill="#07411F" />
    <path
        d="M35 19C36.6569 19 38 17.6569 38 16C38 14.3431 36.6569 13 35 13C33.3431 13 32 14.3431 32 16C32 17.6569 33.3431 19 35 19Z"
        fill="#39B961" />
    <path d="M20 16L9 32H31L20 16Z" fill="#39B961" />
    <path d="M31 22L23 32H39L31 22Z" fill="#39B961" />
    <path
        d="M38 48C43.5228 48 48 43.5228 48 38C48 32.4772 43.5228 28 38 28C32.4772 28 28 32.4772 28 38C28 43.5228 32.4772 48 38 48Z"
        fill="#39B961" />
    <path d="M36 32H40V44H36V32Z" fill="white" />
    <path d="M32 36H44V40H32V36Z" fill="white" />
</svg>
