<svg width="14" height="15" viewBox="0 0 14 15" fill="none" xmlns="http://www.w3.org/2000/svg">
<path d="M13.5425 7.30789L11.5956 13.7165C11.4703 13.9639 11.2913 14.1757 11.0586 14.3517C10.8259 14.5277 10.5663 14.6205 10.2798 14.63C10.0292 14.6205 9.77858 14.523 9.52795 14.3374C9.27732 14.1519 9.10725 13.9449 9.01774 13.7165L7.07089 7.30789C6.86501 6.756 6.8225 6.31353 6.94334 5.98049C7.06418 5.64745 7.28571 5.48093 7.60795 5.48093H13.0054C13.3277 5.48093 13.5492 5.64745 13.6701 5.98049C13.7909 6.31353 13.7484 6.756 13.5425 7.30789ZM7.72879 2.74048C7.72879 1.97924 7.98166 1.33219 8.48739 0.799328C8.99313 0.266463 9.6018 3.05176e-05 10.3134 3.05176e-05C11.025 3.05176e-05 11.6314 0.266463 12.1327 0.799328C12.634 1.33219 12.8846 1.97924 12.8846 2.74048C12.8846 3.50171 12.634 4.14877 12.1327 4.68163C11.6314 5.2145 11.025 5.48093 10.3134 5.48093C9.6018 5.48093 8.99313 5.2145 8.48739 4.68163C7.98166 4.14877 7.72879 3.50171 7.72879 2.74048ZM6.13103 14.63H0.720118C0.406832 14.63 0.189769 14.4635 0.0689294 14.1305C-0.0519098 13.7974 -0.0138678 13.355 0.183055 12.8031L2.54613 5.30965C2.04487 5.10983 1.63536 4.77678 1.3176 4.31053C0.999839 3.84427 0.840958 3.32092 0.840958 2.74048C0.840958 1.97924 1.09382 1.33219 1.59956 0.799328C2.10529 0.266463 2.71396 3.05176e-05 3.42557 3.05176e-05C4.13718 3.05176e-05 4.74585 0.266463 5.25159 0.799328C5.75732 1.33219 6.01019 1.97924 6.01019 2.74048C6.01019 3.33044 5.84683 3.86092 5.52012 4.33194C5.19341 4.80295 4.77494 5.13361 4.26473 5.32392L6.66809 12.8031C6.87397 13.355 6.91425 13.7974 6.78893 14.1305C6.66362 14.4635 6.44431 14.63 6.13103 14.63Z" fill="#39B96F"/>
</svg>
