<svg width="13" height="13" viewBox="0 0 13 13" fill="none" xmlns="http://www.w3.org/2000/svg">
<path d="M6.5 13C5.60083 13 4.75583 12.8294 3.965 12.4881C3.17417 12.1469 2.48625 11.6837 1.90125 11.0987C1.31625 10.5138 0.853125 9.82583 0.511875 9.035C0.170625 8.24417 0 7.39917 0 6.5C0 5.60083 0.170625 4.75583 0.511875 3.965C0.853125 3.17417 1.31625 2.48625 1.90125 1.90125C2.48625 1.31625 3.17417 0.853125 3.965 0.511875C4.75583 0.170625 5.60083 0 6.5 0C7.39917 0 8.24417 0.170625 9.035 0.511875C9.82583 0.853125 10.5138 1.31625 11.0987 1.90125C11.6837 2.48625 12.1469 3.17417 12.4881 3.965C12.8294 4.75583 13 5.60083 13 6.5C13 7.39917 12.8294 8.24417 12.4881 9.035C12.1469 9.82583 11.6837 10.5138 11.0987 11.0987C10.5138 11.6837 9.82583 12.1469 9.035 12.4881C8.24417 12.8294 7.39917 13 6.5 13ZM5.85 11.6675V10.4C5.4925 10.4 5.18646 10.2727 4.93187 10.0181C4.67729 9.76354 4.55 9.4575 4.55 9.1V8.45L1.43 5.33C1.3975 5.525 1.36771 5.72 1.34062 5.915C1.31354 6.11 1.3 6.305 1.3 6.5C1.3 7.81083 1.73062 8.95917 2.59187 9.945C3.45312 10.9308 4.53917 11.505 5.85 11.6675ZM10.335 10.01C10.5517 9.77167 10.7467 9.51437 10.92 9.23812C11.0933 8.96187 11.2369 8.67479 11.3506 8.37687C11.4644 8.07896 11.551 7.77292 11.6106 7.45875C11.6702 7.14458 11.7 6.825 11.7 6.5C11.7 5.43833 11.4048 4.46875 10.8144 3.59125C10.224 2.71375 9.43583 2.08 8.45 1.69V1.95C8.45 2.3075 8.32271 2.61354 8.06812 2.86812C7.81354 3.12271 7.5075 3.25 7.15 3.25H5.85V4.55C5.85 4.73417 5.78771 4.88854 5.66312 5.01312C5.53854 5.13771 5.38417 5.2 5.2 5.2H3.9V6.5H7.8C7.98417 6.5 8.13854 6.56229 8.26312 6.68687C8.38771 6.81146 8.45 6.96583 8.45 7.15V9.1H9.1C9.38167 9.1 9.63625 9.18396 9.86375 9.35187C10.0912 9.51979 10.2483 9.73917 10.335 10.01Z" fill="#39B96F"/>
</svg>
