<svg width="38" height="38" viewBox="0 0 38 38" fill="none" xmlns="http://www.w3.org/2000/svg">
<circle cx="18.8953" cy="18.8953" r="18.3953" fill="white" stroke="#D8DADC"/>
<path d="M26.9369 19.4456C26.9369 18.7583 26.8823 18.2569 26.7642 17.7368H19.083V20.8385H23.5917C23.5008 21.6094 23.01 22.7702 21.9191 23.5502L21.9038 23.6541L24.3325 25.5762L24.5007 25.5934C26.0461 24.1353 26.9369 21.9901 26.9369 19.4456Z" fill="#4285F4"/>
<path d="M19.0825 27.6161C21.2913 27.6161 23.1457 26.8731 24.5002 25.5916L21.9186 23.5485C21.2277 24.0407 20.3005 24.3843 19.0825 24.3843C16.919 24.3843 15.0828 22.9263 14.4282 20.9111L14.3323 20.9195L11.807 22.9161L11.7739 23.0099C13.1193 25.7402 15.8827 27.6161 19.0825 27.6161Z" fill="#34A853"/>
<path d="M14.4283 20.9128C14.2556 20.3928 14.1557 19.8355 14.1557 19.2598C14.1557 18.684 14.2556 18.1268 14.4192 17.6068L14.4147 17.496L11.8577 15.4673L11.774 15.5079C11.2195 16.6409 10.9014 17.9132 10.9014 19.2598C10.9014 20.6064 11.2195 21.8786 11.774 23.0116L14.4283 20.9128Z" fill="#FBBC05"/>
<path d="M19.0825 14.1331C20.6187 14.1331 21.6549 14.811 22.2458 15.3776L24.5547 13.0745C23.1367 11.7279 21.2913 10.9014 19.0825 10.9014C15.8827 10.9014 13.1193 12.7773 11.7739 15.5075L14.4192 17.6064C15.0828 15.5911 16.919 14.1331 19.0825 14.1331Z" fill="#EB4335"/>
</svg>
