<svg width="18" height="15" viewBox="0 0 18 15" fill="none" xmlns="http://www.w3.org/2000/svg">
<path d="M17.6913 10.3684C17.7922 11.4043 17.6161 12.5981 17.6913 13.6504C17.6524 14.2363 16.9579 14.9978 16.3643 14.9978H13.9001L14.0048 14.4638C13.9334 12.756 14.0952 10.9781 14.0048 9.27891C13.9832 8.87045 13.8906 8.48319 13.7967 8.08857C14.6621 8.10761 15.5417 7.97824 16.3357 8.39362C17.0371 8.76054 17.6139 9.57097 17.6913 10.3689V10.3684Z" fill="#39B96F"/>
<path d="M6.99923 6.78581C8.2311 6.65989 9.69749 6.82302 10.9423 6.82042C12.015 7.03763 12.889 8.00427 12.9704 9.10633C13.0997 10.8687 12.87 12.7881 12.9699 14.5669C12.9466 14.7603 12.7995 14.913 12.6255 14.9818L5.22952 15C4.98548 14.9896 4.77346 14.7737 4.76437 14.5336C4.86519 12.7656 4.63587 10.8583 4.76437 9.10633C4.84962 7.94499 5.83745 6.9048 6.99879 6.78581H6.99923Z" fill="#39B96F"/>
<path d="M8.55037 0.0145653C11.0392 -0.219953 12.7661 2.42379 11.5147 4.60975C10.2781 6.76974 7.06927 6.59191 6.06975 4.31162C5.23942 2.41644 6.4912 0.208411 8.55037 0.0145653Z" fill="#39B96F"/>
<path d="M1.37131 14.9978C0.609343 14.9073 0.0905463 14.231 0.0425175 13.4968C-0.012867 12.6422 -0.0154631 11.3411 0.0425175 10.4878C0.0970366 9.69124 0.541411 8.94181 1.20516 8.50912C2.04198 7.96393 2.98612 8.10239 3.9389 8.08811C3.84501 8.48273 3.75241 8.86999 3.73078 9.27845C3.64035 10.9776 3.80217 12.756 3.73078 14.4634L3.83549 14.9973H1.37131V14.9978Z" fill="#39B96F"/>
<path d="M3.1732 2.88105C5.04718 2.6686 6.39026 4.57287 5.50367 6.25344C4.67464 7.82498 2.38613 7.84272 1.49868 6.30234C0.705557 4.92551 1.58652 3.06061 3.1732 2.88105Z" fill="#39B96F"/>
<path d="M13.9265 2.88116C16.3236 2.60986 17.4927 5.62788 15.6001 7.01163C13.8373 8.30062 11.4476 6.60793 12.0559 4.49553C12.2931 3.67255 13.068 2.97851 13.9265 2.88116Z" fill="#39B96F"/>
</svg>
