<svg width="19" height="17" viewBox="0 0 19 17" fill="none" xmlns="http://www.w3.org/2000/svg">
    <path
        d="M14.727 5.73122C15.6474 4.80731 16.5643 3.89037 17.4917 2.95949C17.5336 3.01876 17.5684 3.07105 17.5998 3.12335C18.6911 4.88401 18.4575 7.19204 16.9966 8.6703C14.7583 10.933 12.4991 13.1748 10.2469 15.427C10.2225 15.4515 10.1946 15.4724 10.1283 15.5351C10.0725 15.4619 10.0168 15.3957 9.97493 15.319C9.95401 15.2806 9.94355 15.2248 9.95052 15.183C9.99585 14.9215 10.076 14.6635 10.097 14.402C10.1946 13.0981 10.2713 11.7942 10.3654 10.4902C10.3724 10.3996 10.4282 10.2915 10.4944 10.2287C10.993 9.76505 11.4846 9.29437 11.8472 8.71214C11.9936 8.47506 12.1261 8.21009 12.1993 7.94163C12.4189 7.14672 11.9273 6.45291 11.108 6.35181C10.5781 6.28556 10.0656 6.39016 9.56353 6.54705C9.17304 6.67256 8.79302 6.83642 8.40254 6.96891C8.31538 7.00029 8.19684 7.00377 8.10968 6.9724C6.81271 6.48429 5.51575 5.9927 4.22228 5.49065C3.79693 5.32679 3.40994 5.36165 3.02991 5.61617C2.73356 5.81489 2.42676 6.00316 2.11995 6.1984C1.86544 4.90842 2.29078 2.96646 3.99566 1.78455C4.97187 1.10469 6.05964 0.85367 7.23806 1.01405C8.41997 1.17442 9.36829 1.76363 10.1423 2.63525C10.5223 2.30403 10.8814 1.98677 11.2754 1.64161C11.2998 1.75317 11.3137 1.81244 11.3277 1.87171C11.4148 2.25871 11.5892 2.60736 11.8716 2.88976C12.8024 3.82413 13.7368 4.75501 14.6677 5.68938C14.6782 5.69984 14.6921 5.70681 14.727 5.73122Z"
        fill="#39B96F" />
    <path
        d="M5.55043 9.50708C5.20876 9.22119 4.87406 8.93879 4.53936 8.65987C3.91877 8.14039 3.30167 7.62439 2.68108 7.10491C2.51373 6.96545 2.51722 6.89224 2.69852 6.77718C2.95651 6.60983 3.218 6.44946 3.47599 6.27862C3.62591 6.17751 3.76886 6.17054 3.93621 6.23678C5.33427 6.7737 6.73583 7.30364 8.1339 7.84055C8.24546 7.88239 8.33262 7.88239 8.44419 7.83358C9.12754 7.52329 9.81785 7.23391 10.5744 7.14675C10.7487 7.12583 10.937 7.13629 11.1113 7.16767C11.3868 7.21996 11.5262 7.42915 11.4425 7.69761C11.3763 7.92074 11.2752 8.14387 11.1427 8.33912C10.7557 8.92135 10.2432 9.38505 9.72721 9.84526C9.65748 9.90453 9.60169 10.0161 9.59472 10.1033C9.49013 11.5745 9.39251 13.0458 9.30186 14.5206C9.28791 14.7577 9.20772 14.9215 8.99505 15.0401C8.751 15.1761 8.52438 15.3364 8.2873 15.4863C8.10252 15.6049 8.03628 15.5805 7.98049 15.3713C7.6702 14.2277 7.3599 13.0877 7.04612 11.9441C7.03218 11.8883 7.01474 11.8325 6.99034 11.7593C5.9967 12.3137 4.99609 12.8157 3.86299 13.0981C3.86299 13.4293 3.86648 13.7606 3.86299 14.0918C3.8595 14.3114 3.82813 14.5345 3.85253 14.7542C3.88391 15.061 3.76886 15.2841 3.54921 15.4863C3.39581 15.6258 3.26681 15.7932 3.12038 15.9431C3.08203 15.9814 3.02624 16.0023 2.98092 16.0302C2.94954 15.9779 2.90422 15.9291 2.89376 15.8733C2.70897 15.0401 2.52419 14.2068 2.34638 13.3736C2.31849 13.2411 2.26271 13.1469 2.15114 13.0633C1.47128 12.5577 0.794911 12.0452 0.118539 11.5327C0.0697291 11.4944 0.038351 11.4316 0 11.3793C0.0557833 11.3444 0.104594 11.2956 0.163863 11.2747C0.44278 11.1771 0.725182 11.083 1.01107 11.0028C1.09823 10.9784 1.20631 10.9853 1.28999 11.0202C1.83736 11.2468 2.37776 11.4874 2.92165 11.721C2.99138 11.7524 3.04716 11.7802 3.11689 11.6966C3.77583 10.8773 4.58469 10.2288 5.42492 9.61167C5.4563 9.58029 5.49465 9.54892 5.55043 9.50708Z"
        fill="#39B96F" />
    <path
        d="M14.7094 0.707574C14.814 0.592521 14.8838 0.505359 14.964 0.428657C15.5253 -0.125689 16.3899 -0.139634 16.9373 0.400766C17.4951 0.948139 17.4986 1.81975 16.9373 2.38456C16.2051 3.12369 15.4695 3.85584 14.7269 4.59846C14.706 4.58451 14.6816 4.57754 14.6676 4.56359C13.9285 3.82446 13.1789 3.09579 12.4502 2.34272C11.8087 1.68029 11.997 0.589034 12.8093 0.160201C13.3393 -0.118716 13.9912 -0.0280679 14.4236 0.390306C14.5177 0.480954 14.5979 0.582061 14.7094 0.707574Z"
        fill="#39B96F" />
</svg>
