<svg width="24" height="24" viewBox="0 0 24 24" fill="none" xmlns="http://www.w3.org/2000/svg">
<g clip-path="url(#clip0_134_275)">
<path d="M14.4999 19C14.8977 19 15.2792 19.158 15.5605 19.4393C15.8418 19.7206 15.9999 20.1022 15.9999 20.5C15.9999 20.8978 15.8418 21.2794 15.5605 21.5607C15.2792 21.842 14.8977 22 14.4999 22C14.102 22 13.7205 21.842 13.4392 21.5607C13.1579 21.2794 12.9999 20.8978 12.9999 20.5C12.9999 20.1022 13.1579 19.7206 13.4392 19.4393C13.7205 19.158 14.102 19 14.4999 19ZM10.4999 17C10.8977 17 11.2792 17.158 11.5605 17.4393C11.8418 17.7206 11.9999 18.1022 11.9999 18.5C11.9999 18.8978 11.8418 19.2794 11.5605 19.5607C11.2792 19.842 10.8977 20 10.4999 20C10.102 20 9.7205 19.842 9.4392 19.5607C9.15789 19.2794 8.99986 18.8978 8.99986 18.5C8.99986 18.1022 9.15789 17.7206 9.4392 17.4393C9.7205 17.158 10.102 17 10.4999 17ZM11.4999 2C12.8223 1.99987 14.1133 2.40298 15.2007 3.15554C16.288 3.9081 17.1201 4.97433 17.5859 6.212C18.8375 6.55568 19.944 7.29583 20.7394 8.32149C21.5349 9.34714 21.9764 10.603 21.9978 11.9008C22.0192 13.1986 21.6193 14.4683 20.8582 15.5197C20.097 16.571 19.0155 17.3472 17.7759 17.732C17.975 17.2024 18.0428 16.6324 17.9735 16.0709C17.9041 15.5093 17.6996 14.973 17.3775 14.5078C17.0555 14.0426 16.6254 13.6624 16.1242 13.3998C15.623 13.1372 15.0657 13 14.4999 13C14.2675 12.9984 14.0386 12.9436 13.8308 12.8398C13.6229 12.736 13.4416 12.5858 13.3009 12.401C12.7867 11.7143 12.0383 11.2404 11.1977 11.0692C10.3572 10.8979 9.48302 11.0414 8.74124 11.4722C7.99947 11.9031 7.44175 12.5913 7.17401 13.4063C6.90626 14.2213 6.94713 15.1062 7.28886 15.893C7.37139 16.0851 7.41396 16.2919 7.41396 16.501C7.41396 16.7101 7.37139 16.9169 7.28886 17.109C7.16686 17.389 7.08086 17.689 7.03586 18.001H6.99986C5.85057 18.0018 4.73611 17.6066 3.84405 16.8819C2.95199 16.1573 2.3368 15.1475 2.10203 14.0224C1.86725 12.8974 2.02722 11.7258 2.55501 10.7048C3.0828 9.6839 3.94619 8.87596 4.99986 8.417C5.02169 6.70752 5.71613 5.07546 6.93276 3.87437C8.14939 2.67327 9.79024 1.99986 11.4999 2ZM14.4999 15C14.8977 15 15.2792 15.158 15.5605 15.4393C15.8418 15.7206 15.9999 16.1022 15.9999 16.5C15.9999 16.8978 15.8418 17.2794 15.5605 17.5607C15.2792 17.842 14.8977 18 14.4999 18C14.102 18 13.7205 17.842 13.4392 17.5607C13.1579 17.2794 12.9999 16.8978 12.9999 16.5C12.9999 16.1022 13.1579 15.7206 13.4392 15.4393C13.7205 15.158 14.102 15 14.4999 15ZM10.4999 13C10.8977 13 11.2792 13.158 11.5605 13.4393C11.8418 13.7206 11.9999 14.1022 11.9999 14.5C11.9999 14.8978 11.8418 15.2794 11.5605 15.5607C11.2792 15.842 10.8977 16 10.4999 16C10.102 16 9.7205 15.842 9.4392 15.5607C9.15789 15.2794 8.99986 14.8978 8.99986 14.5C8.99986 14.1022 9.15789 13.7206 9.4392 13.4393C9.7205 13.158 10.102 13 10.4999 13Z" fill="black"/>
</g>
<defs>
<clipPath id="clip0_134_275">
<rect width="24" height="24" fill="white"/>
</clipPath>
</defs>
</svg>
