<svg width="21" height="21" viewBox="0 0 21 21" fill="none" xmlns="http://www.w3.org/2000/svg">
<path d="M15.3837 10.4999C15.3837 13.1971 13.1971 15.3837 10.4999 15.3837C7.80273 15.3837 5.61621 13.1971 5.61621 10.4999C5.61621 7.80273 7.80273 5.61621 10.4999 5.61621C13.1971 5.61621 15.3837 7.80273 15.3837 10.4999Z" fill="#5D5D5D"/>
<path fill-rule="evenodd" clip-rule="evenodd" d="M10.5 0C10.9046 0 11.2326 0.327981 11.2326 0.732558V2.68605C11.2326 3.09062 10.9046 3.41861 10.5 3.41861C10.0954 3.41861 9.76744 3.09062 9.76744 2.68605V0.732558C9.76744 0.327981 10.0954 0 10.5 0ZM2.3624 2.40874C2.6354 2.11015 3.09877 2.0894 3.39736 2.3624L5.5677 4.34675C5.86629 4.61975 5.88703 5.0831 5.61403 5.3817C5.34103 5.68029 4.87767 5.70103 4.57907 5.42803L2.40874 3.4437C2.11015 3.1707 2.0894 2.70733 2.3624 2.40874ZM18.6376 2.40874C18.9107 2.70733 18.8898 3.1707 18.5913 3.4437L16.4209 5.42803C16.1223 5.70103 15.659 5.68029 15.386 5.3817C15.113 5.0831 15.1337 4.61975 15.4323 4.34675L17.6027 2.3624C17.9013 2.0894 18.3646 2.11015 18.6376 2.40874ZM0 10.5C0 10.0954 0.327981 9.76744 0.732558 9.76744H2.68605C3.09062 9.76744 3.41861 10.0954 3.41861 10.5C3.41861 10.9046 3.09062 11.2326 2.68605 11.2326H0.732558C0.327981 11.2326 0 10.9046 0 10.5ZM17.5814 10.5C17.5814 10.0954 17.9094 9.76744 18.314 9.76744H20.2674C20.672 9.76744 21 10.0954 21 10.5C21 10.9046 20.672 11.2326 20.2674 11.2326H18.314C17.9094 11.2326 17.5814 10.9046 17.5814 10.5ZM15.4086 15.4083C15.6947 15.1222 16.1586 15.1222 16.4447 15.4083L18.615 17.579C18.9011 17.865 18.901 18.3289 18.6149 18.615C18.3288 18.9011 17.8649 18.901 17.579 18.6149L15.4086 16.4443C15.1225 16.1582 15.1225 15.6944 15.4086 15.4083ZM5.59154 15.4084C5.87762 15.6945 5.87762 16.1584 5.59154 16.4445L3.42099 18.615C3.13491 18.9011 2.67108 18.9011 2.38499 18.615C2.09892 18.3289 2.09892 17.865 2.38499 17.5791L4.55555 15.4084C4.84162 15.1223 5.30545 15.1223 5.59154 15.4084ZM10.5 17.5814C10.9046 17.5814 11.2326 17.9094 11.2326 18.314V20.2674C11.2326 20.672 10.9046 21 10.5 21C10.0954 21 9.76744 20.672 9.76744 20.2674V18.314C9.76744 17.9094 10.0954 17.5814 10.5 17.5814Z" fill="#5D5D5D"/>
</svg>
