<svg width="31" height="31" viewBox="0 0 31 31" fill="none" xmlns="http://www.w3.org/2000/svg">
<circle cx="15.5" cy="15.5" r="15.25" stroke="#39B96F" stroke-width="0.5"/>
<path d="M13.779 6C13.944 6 14.1141 6 14.2791 6C14.3341 6.015 14.3891 6.03501 14.4442 6.04501C15.1294 6.14504 15.8095 6.24007 16.4947 6.33509C18.1852 6.57516 19.8707 6.82023 21.5611 7.05029C22.4314 7.16532 23.0366 7.69047 23.1316 8.55571C23.1766 8.97583 23.0866 9.41595 23.0265 9.84107C22.7915 11.5465 22.5414 13.252 22.2963 14.9525C22.0713 16.5229 21.8512 18.0984 21.6312 19.6738C21.5311 20.389 21.151 20.8841 20.4658 21.1292C20.3408 21.1742 20.3008 21.2192 20.3008 21.3543C20.3058 22.1195 19.8307 22.7447 19.0805 22.9047C18.4953 23.0247 17.8951 23.0847 17.305 23.1648C15.8696 23.3648 14.4342 23.5549 13.0038 23.7549C12.4636 23.83 11.9235 23.92 11.3833 24C11.1983 24 11.0182 24 10.8332 24C10.8032 23.985 10.7781 23.965 10.7481 23.955C10.0329 23.7749 9.61282 23.3048 9.50279 22.5896C9.32774 21.4543 9.1877 20.314 9.03266 19.1787C8.85761 17.8833 8.68256 16.5879 8.50751 15.2976C8.34247 14.0622 8.16242 12.8269 8.01238 11.5866C7.94236 11.0064 8.17242 10.5313 8.62755 10.1662C9.04766 9.82606 9.57281 9.82606 10.0679 9.75104C10.7331 9.65602 11.3983 9.56599 12.0785 9.47597C12.1635 8.86079 12.2536 8.26063 12.3336 7.65546C12.3836 7.29536 12.4786 6.95527 12.7037 6.66018C12.9688 6.30008 13.3539 6.12003 13.779 6ZM12.9187 9.34593C12.9938 9.34593 13.0338 9.35093 13.0738 9.34593C14.3291 9.17588 15.5845 9.02084 16.8348 8.83079C17.8951 8.67074 18.7103 9.27591 18.8354 10.3412C18.9254 11.1264 19.0404 11.9066 19.1455 12.6919C19.4055 14.6124 19.6706 16.5329 19.9357 18.4535C20.0207 19.0836 20.1057 19.7138 20.1958 20.359C20.5809 20.2139 20.7659 19.9539 20.8209 19.5838C20.976 18.4885 21.131 17.3932 21.2861 16.2979C21.5111 14.7174 21.7362 13.137 21.9613 11.5515C22.0813 10.6963 22.2163 9.84107 22.3314 8.98083C22.4164 8.34565 22.1363 7.97555 21.5011 7.88052C20.5609 7.73548 19.6206 7.61045 18.6853 7.47541C17.1749 7.26035 15.6695 7.04529 14.1591 6.84023C13.704 6.77522 13.2838 7.05029 13.2038 7.49041C13.0838 8.09558 13.0088 8.70575 12.9187 9.34593ZM18.1502 16.0578C18.1452 13.8722 16.3497 12.0917 14.1391 12.0917C11.9185 12.0917 10.148 13.8922 10.148 16.1578C10.148 18.2934 12.0035 20.1089 14.1791 20.0989C16.3797 20.0889 18.1502 18.2834 18.1502 16.0578Z" fill="#39B96F"/>
<path d="M13.3539 17.7984C13.2539 17.4133 13.1589 17.0482 13.0538 16.6531C13.774 16.5531 14.4642 16.4581 15.2194 16.353C15.2194 16.7231 15.2244 17.0832 15.2144 17.4433C15.2144 17.4833 15.1194 17.5434 15.0594 17.5534C14.5042 17.6384 13.9541 17.7134 13.3539 17.7984Z" fill="#39B96F"/>
<path d="M12.9437 15.8425C12.9437 15.4524 12.9437 15.0923 12.9437 14.7172C13.5639 14.6322 14.1691 14.5472 14.8042 14.4622C14.8993 14.8173 14.9943 15.1674 15.0993 15.5475C14.3791 15.6475 13.6839 15.7425 12.9437 15.8425Z" fill="#39B96F"/>
<path d="M16.0345 17.428C16.0345 17.0229 16.0345 16.6528 16.0345 16.2527C16.4497 16.1977 16.8748 16.1377 17.3199 16.0776C17.3449 16.4878 17.2499 16.8629 17.1198 17.228C17.1098 17.263 17.0448 17.293 17.0048 17.303C16.6947 17.343 16.3846 17.383 16.0345 17.428Z" fill="#39B96F"/>
<path d="M17.2699 15.2524C16.7647 15.3174 16.3396 15.3775 15.9095 15.4325C15.8144 15.0624 15.7244 14.7173 15.6294 14.3522C15.9645 14.3022 16.2896 14.2522 16.6197 14.2171C16.6697 14.2121 16.7447 14.2622 16.7697 14.3072C16.9398 14.6023 17.0898 14.9023 17.2699 15.2524Z" fill="#39B96F"/>
<path d="M11.0282 16.9282C11.4933 16.8632 11.8534 16.8132 12.2335 16.7632C12.3286 17.1333 12.4236 17.4984 12.5286 17.9035C12.2485 17.9385 11.9635 17.9785 11.6834 18.0085C11.6484 18.0135 11.5884 17.9735 11.5683 17.9335C11.3883 17.6134 11.2183 17.2883 11.0282 16.9282Z" fill="#39B96F"/>
<path d="M12.1136 14.8325C12.1136 15.2326 12.1136 15.5777 12.1136 15.9528C11.7485 16.0028 11.3783 16.0579 10.9282 16.1179C11.0082 15.7278 11.0733 15.3827 11.1533 15.0426C11.1633 15.0026 11.2333 14.9526 11.2783 14.9476C11.5434 14.9025 11.8135 14.8725 12.1136 14.8325Z" fill="#39B96F"/>
<path d="M14.4942 13.6769C13.9741 13.7469 13.5339 13.8069 13.0138 13.8769C13.1688 13.5769 13.2789 13.3318 13.4189 13.1067C13.5439 12.9117 13.739 12.8867 13.909 13.0467C14.1041 13.2268 14.2741 13.4368 14.4942 13.6769Z" fill="#39B96F"/>
<path d="M15.1144 18.3838C14.9593 18.6689 14.8543 18.8989 14.7142 19.109C14.5942 19.294 14.4092 19.314 14.2441 19.164C14.0641 18.999 13.899 18.8139 13.674 18.5788C14.1841 18.5138 14.6092 18.4538 15.1144 18.3838Z" fill="#39B96F"/>
<path d="M15.0743 13.022C15.3544 13.157 15.6395 13.287 15.9746 13.4471C15.3344 13.5971 15.3344 13.5971 15.0743 13.022Z" fill="#39B96F"/>
<path d="M15.8595 18.7987C15.9395 18.2135 15.9795 18.1785 16.5347 18.2285C16.2896 18.4386 16.0746 18.6186 15.8595 18.7987Z" fill="#39B96F"/>
<path d="M11.7084 14.0323C11.9084 13.8423 12.0835 13.6772 12.2835 13.4922C12.2435 14.0073 12.2235 14.0273 11.7084 14.0323Z" fill="#39B96F"/>
<path d="M13.0738 19.1035C12.8337 18.9835 12.6537 18.8934 12.4436 18.7884C12.8587 18.6434 12.8687 18.6484 13.0738 19.1035Z" fill="#39B96F"/>
</svg>
