<svg width="31" height="31" viewBox="0 0 31 31" fill="none" xmlns="http://www.w3.org/2000/svg">
<circle cx="15.5" cy="15.5" r="15.25" stroke="#39B96F" stroke-width="0.5"/>
<path d="M8 12.5V22.3C8 22.4857 8.07375 22.6637 8.20503 22.795C8.3363 22.9263 8.51435 23 8.7 23H15.7V11.8H8.7C8.51435 11.8 8.3363 11.8737 8.20503 12.005C8.07375 12.1363 8 12.3143 8 12.5ZM10.1 13.9H13.6V15.3H10.1V13.9ZM10.1 16.7H13.6V18.1H10.1V16.7ZM10.1 19.5H13.6V20.9H10.1V19.5ZM22 9.7V22.3C22 22.4857 21.9263 22.6637 21.795 22.795C21.6637 22.9263 21.4857 23 21.3 23H17.1V10.4H13.6V9.7C13.6 9.51435 13.6737 9.3363 13.805 9.20503C13.9363 9.07375 14.1143 9 14.3 9H21.3C21.4857 9 21.6637 9.07375 21.795 9.20503C21.9263 9.3363 22 9.51435 22 9.7Z" fill="#39B96F"/>
</svg>
