<svg width="31" height="31" viewBox="0 0 31 31" fill="none" xmlns="http://www.w3.org/2000/svg">
<circle cx="15.5" cy="15.5" r="15.25" stroke="#39B96F" stroke-width="0.5"/>
<path d="M11.2 23V16.595C10.5767 16.4317 10.0542 16.105 9.6325 15.615C9.21083 15.125 9 14.5533 9 13.9V9H10.4667V13.9H11.2V9H12.6667V13.9H13.4V9H14.8667V13.9C14.8667 14.5533 14.6558 15.125 14.2342 15.615C13.8125 16.105 13.29 16.4317 12.6667 16.595V23H11.2ZM18.5333 23V17.4H16.3333V12.5C16.3333 11.5317 16.6908 10.7062 17.4058 10.0237C18.1208 9.34125 18.9856 9 20 9V23H18.5333Z" fill="#39B96F"/>
</svg>
