<svg width="31" height="31" viewBox="0 0 31 31" fill="none" xmlns="http://www.w3.org/2000/svg">
<circle cx="15.5" cy="15.5" r="15.25" stroke="#39B96F" stroke-width="0.5"/>
<circle cx="15.5" cy="15.5" r="15.25" stroke="#39B96F" stroke-width="0.5"/>
<path d="M23 12.8819V20.2633C23 20.5198 22.9276 20.7763 22.7797 20.9875C22.5805 21.2712 22.33 21.3406 21.805 21.3406C18.4673 21.3406 15.1297 21.3406 11.7921 21.3406C10.7118 21.3406 9.63143 21.3406 8.55108 21.3406C8.21008 21.3406 7.91434 21.232 7.72121 20.9362C7.69103 20.8879 7.66387 20.8366 7.64274 20.7823C7.57937 20.6345 7.54919 20.4775 7.54919 20.3206C7.54919 17.5111 7.54919 14.7016 7.54919 11.8921C7.60351 11.8951 9.48356 11.9011 10.3678 11.9011C14.2244 11.9011 18.0811 11.9011 21.9377 11.9042C22.1188 11.9042 22.3089 11.9434 22.4779 12.0098C22.662 12.0822 22.7857 12.209 22.8702 12.3629C22.9608 12.5228 23 12.7008 23 12.8819ZM10.6816 17.9849V15.6793C10.7027 15.6763 10.6967 15.6763 10.7178 15.6733C10.9109 16.4428 11.1041 17.2154 11.3002 17.9909C11.4722 17.9909 11.6292 17.9849 11.7831 17.9939C11.8585 17.997 11.9249 17.9457 11.943 17.8732C12.0758 17.324 12.2146 16.7778 12.3534 16.2286C12.4017 16.0415 12.45 15.8544 12.4983 15.6703C12.5254 15.6733 12.5164 15.6733 12.5435 15.6763V17.9819H13.1018V14.8555H12.1633C11.9853 15.5466 11.8072 16.2346 11.6292 16.9226C11.5779 16.8713 11.5598 16.82 11.5477 16.7687C11.4028 16.2256 11.258 15.6824 11.1131 15.1362C11.0377 14.8464 11.0377 14.8464 10.7329 14.8464C10.5186 14.8464 10.3044 14.8464 10.0931 14.8464V17.9819H10.6816V17.9849ZM14.8219 16.9679C14.8672 17.3813 15.0271 17.7133 15.3893 17.8944C15.8781 18.1358 16.3881 18.1297 16.874 17.8974C17.2391 17.7254 17.4081 17.4025 17.3779 16.9981C17.3508 16.6088 17.1486 16.3402 16.7744 16.2135C16.5662 16.1441 16.3489 16.0928 16.1407 16.0234C15.9777 15.969 15.8178 15.9117 15.6639 15.8363C15.516 15.7608 15.5039 15.5767 15.6216 15.4681C15.9264 15.1844 16.4938 15.3172 16.6386 15.7005C16.6507 15.7337 16.6929 15.7819 16.7231 15.7819C16.9072 15.7789 17.0913 15.7669 17.2844 15.7578C17.2784 15.4409 17.1456 15.2086 16.9102 15.0245C16.4907 14.6956 15.6578 14.774 15.3138 14.9913C14.9306 15.2327 14.8189 15.7548 15.0694 16.132C15.2535 16.4127 15.5432 16.5213 15.848 16.6058C16.0713 16.6661 16.2976 16.7144 16.5149 16.7959C16.7714 16.8895 16.8136 17.155 16.6295 17.3572C16.4364 17.5715 15.7695 17.6258 15.5703 17.2606C15.513 17.155 15.4677 17.0434 15.4134 16.9257C15.2263 16.9317 15.0332 16.9498 14.8219 16.9679ZM19.946 16.8653C19.8314 17.0886 19.771 17.2878 19.5718 17.4236C19.2339 17.6529 18.7993 17.5262 18.6092 17.1641C18.3859 16.7386 18.3919 16.2889 18.5368 15.8423C18.6303 15.5526 18.8415 15.3776 19.1584 15.3474C19.427 15.3202 19.6443 15.4077 19.8012 15.628C19.8495 15.6944 19.8796 15.7759 19.9219 15.8634C20.1211 15.8151 20.3202 15.7669 20.5224 15.7186C20.5194 15.6884 20.5164 15.6673 20.5134 15.6492C20.3896 15.2116 20.0939 14.943 19.6624 14.8404C18.9834 14.6805 18.3406 14.8796 17.9936 15.5586C17.7642 16.0053 17.7642 16.479 17.8638 16.9558C17.9211 17.2335 18.0569 17.4809 18.2712 17.665C18.7389 18.0694 19.2731 18.1539 19.8465 17.9276C20.2357 17.7736 20.4379 17.4598 20.5315 17.0554C20.3233 16.986 20.1331 16.9257 19.946 16.8653ZM14.3602 17.9879V14.8615H13.7537V17.9879H14.3602Z" fill="#39B96F"/>
<path d="M14.5684 9.65918C14.7314 9.65918 14.8974 9.67125 15.0573 9.70445C15.1026 9.7135 15.1448 9.72255 15.1871 9.73764C15.4888 9.83119 15.7423 10.0062 15.9113 10.2748C16.0683 10.5223 16.201 10.7878 16.361 11.0805H7.54919V10.6731C7.54919 10.4981 7.58239 10.3261 7.65783 10.1722C7.71819 10.0485 7.8057 9.9519 7.92339 9.8674C8.02901 9.79498 8.25233 9.65918 8.6567 9.65918C10.6273 9.65918 12.5979 9.65918 14.5684 9.65918Z" fill="#39B96F"/>
</svg>
