<svg width="31" height="31" viewBox="0 0 31 31" fill="none" xmlns="http://www.w3.org/2000/svg">
<circle cx="15.5" cy="15.5" r="15.25" stroke="#39B96F" stroke-width="0.5"/>
<circle cx="15.5" cy="15.5" r="15.25" stroke="#39B96F" stroke-width="0.5"/>
<path d="M24 18.0785L24 16.4677L17.2 11.1V7.7C17.2 7.24913 17.0209 6.81673 16.7021 6.49792C16.3833 6.17911 15.9509 6 15.5 6C15.0491 6 14.6167 6.17911 14.2979 6.49792C13.9791 6.81673 13.8 7.24913 13.8 7.7V11.1892L7 16.557V18.0777L13.8 15.6892V19.6L11.25 21.3V23L15.5 21.3L19.75 23L19.75 21.3L17.2 19.6V15.6178L24 18.0785Z" fill="#39B96F"/>
</svg>
