<svg width="15" height="15" viewBox="0 0 15 15" fill="none" xmlns="http://www.w3.org/2000/svg">
<path d="M10.778 10.8279C10.6499 10.7123 10.453 10.7217 10.3374 10.8498C10.2187 10.9779 10.228 11.1748 10.3562 11.2904L10.4718 11.3967C10.5312 11.4529 10.6062 11.4779 10.6843 11.4779C10.7687 11.4779 10.853 11.4435 10.9124 11.3779C11.0312 11.2498 11.0218 11.0529 10.8937 10.9342L10.778 10.8279Z" fill="#666666"/>
<path d="M10.0062 9.88745C9.88117 9.77182 9.68117 9.77807 9.56554 9.9062C9.44992 10.0343 9.45929 10.2312 9.58429 10.3468L9.69992 10.4531C9.76242 10.5093 9.83742 10.5343 9.91242 10.5343C9.99679 10.5343 10.0812 10.5031 10.1437 10.4343C10.2593 10.3062 10.2499 10.1093 10.1218 9.9937L10.0062 9.88745Z" fill="#666666"/>
<path d="M4.47819 9.58732L4.42507 9.64044C4.35007 9.72169 4.32194 9.84044 4.35632 9.94982L4.65944 10.9467C4.69382 11.0623 4.79382 11.1498 4.91257 11.1623L5.55944 11.2467C5.57819 11.2498 5.59069 11.2498 5.60007 11.2498C5.74069 11.2498 5.86257 11.1529 5.89382 11.0092L6.07507 10.2311C6.08132 10.2092 6.08444 10.1842 6.08444 10.1592V9.64357C6.08444 9.55294 6.04694 9.46544 5.98132 9.40607C5.91569 9.34669 5.82507 9.32169 5.73757 9.33419L4.64694 9.49669C4.58444 9.50607 4.52507 9.53732 4.47819 9.58732Z" fill="#666666"/>
<path d="M4.27213 5.68749C4.25338 5.72499 4.22525 5.77812 4.19713 5.81874C4.1065 5.81874 4.0065 5.85937 3.944 5.94374C3.84088 6.08124 3.869 6.27812 4.0065 6.38124C4.0815 6.43437 4.16588 6.46562 4.2565 6.46562C4.29088 6.46562 4.32525 6.45937 4.35963 6.44999C4.6065 6.38749 4.769 6.10624 4.84088 5.94687C4.91275 5.79062 4.844 5.60312 4.68463 5.53437C4.52838 5.46249 4.344 5.53124 4.27213 5.68749Z" fill="#666666"/>
<path d="M3.77768 5.31292C3.80893 5.31292 3.84018 5.30979 3.86831 5.30042C4.03393 5.25042 4.12768 5.07542 4.07768 4.90979C4.05893 4.84729 4.02456 4.72542 4.17768 4.67542C4.34018 4.62854 4.43706 4.45979 4.39331 4.29417C4.34956 4.12854 4.17768 4.02854 4.00893 4.07229C3.97768 4.08167 3.68393 4.16917 3.53081 4.44729C3.45893 4.57542 3.39018 4.79104 3.48081 5.09104C3.52143 5.22542 3.64331 5.31292 3.77768 5.31292Z" fill="#666666"/>
<path d="M10.834 9.40262C10.709 9.287 10.5121 9.29637 10.3933 9.4245C10.2777 9.5495 10.2871 9.7495 10.4152 9.86512L10.5308 9.97137C10.5902 10.0245 10.6652 10.0526 10.7402 10.0526C10.8246 10.0526 10.909 10.0182 10.9715 9.9495C11.0871 9.8245 11.0777 9.6245 10.9496 9.50887L10.834 9.40262Z" fill="#666666"/>
<path d="M7.5 15C11.6344 15 15 11.6344 15 7.5C15 3.36563 11.6344 0 7.5 0C3.36563 0 0 3.36563 0 7.5C0 11.6344 3.36563 15 7.5 15ZM10.625 12.5C9.41875 12.5 8.4375 11.5187 8.4375 10.3125C8.4375 9.10625 9.41875 8.125 10.625 8.125C11.8313 8.125 12.8125 9.10625 12.8125 10.3125C12.8125 11.5187 11.8313 12.5 10.625 12.5ZM8.85 1.34062C8.97187 1.21875 9.17188 1.21875 9.29375 1.34062L13.7125 5.7625C13.7719 5.81875 13.8031 5.9 13.8031 5.98125C13.8031 6.06562 13.7719 6.14375 13.7125 6.20312C13.0437 6.87187 12.1625 7.20937 11.2812 7.20937C10.4031 7.20937 9.52187 6.87187 8.85 6.20312C7.5125 4.8625 7.5125 2.68125 8.85 1.34062ZM7.38437 10.3125C7.38437 11.5187 6.42812 12.5 5.25625 12.5C4.08125 12.5 3.125 11.5187 3.125 10.3125C3.125 9.10625 4.08125 8.125 5.25625 8.125C6.42812 8.125 7.38437 9.10625 7.38437 10.3125ZM4.0625 3.125C5.26875 3.125 6.25 4.10625 6.25 5.3125C6.25 6.51875 5.26875 7.5 4.0625 7.5C2.85625 7.5 1.875 6.51875 1.875 5.3125C1.875 4.10625 2.85625 3.125 4.0625 3.125Z" fill="#666666"/>
<path d="M11.6597 10.134C11.5316 10.0184 11.3347 10.0247 11.2159 10.1528C11.1003 10.2809 11.1097 10.4778 11.2347 10.5965L11.3503 10.7028C11.4128 10.7559 11.4878 10.784 11.5628 10.784C11.6472 10.784 11.7316 10.7497 11.7941 10.6809C11.9097 10.5559 11.9003 10.359 11.7753 10.2403L11.6597 10.134Z" fill="#666666"/>
</svg>
