<svg width="327" height="69" viewBox="0 0 327 69" fill="none" xmlns="http://www.w3.org/2000/svg">
<g filter="url(#filter0_d_3791_1681)">
<g filter="url(#filter1_d_3791_1681)">
<rect x="7.4707" y="4" width="312.059" height="55" rx="27.5" fill="white"/>
</g>
<rect x="271.681" y="11.2812" width="37.4471" height="38.4873" rx="18.7235" fill="#39B96F"/>
<path d="M38.068 35V26.48H40.96C41.864 26.48 42.616 26.672 43.216 27.056C43.824 27.432 44.28 27.944 44.584 28.592C44.888 29.232 45.04 29.944 45.04 30.728C45.04 31.592 44.872 32.344 44.536 32.984C44.208 33.624 43.736 34.12 43.12 34.472C42.512 34.824 41.792 35 40.96 35H38.068ZM44.2 30.728C44.2 30.048 44.072 29.444 43.816 28.916C43.568 28.388 43.204 27.976 42.724 27.68C42.244 27.376 41.656 27.224 40.96 27.224H38.908V34.256H40.96C41.664 34.256 42.256 34.1 42.736 33.788C43.216 33.476 43.58 33.056 43.828 32.528C44.076 31.992 44.2 31.392 44.2 30.728ZM49.5981 29.468C49.0541 29.484 48.5741 29.636 48.1581 29.924C47.7501 30.212 47.4621 30.608 47.2941 31.112V35H46.4781V28.748H47.2461V30.248C47.4621 29.808 47.7461 29.452 48.0981 29.18C48.4581 28.908 48.8381 28.756 49.2381 28.724C49.3181 28.716 49.3861 28.712 49.4421 28.712C49.5061 28.712 49.5581 28.716 49.5981 28.724V29.468ZM50.1577 33.2C50.1577 32.808 50.2697 32.472 50.4937 32.192C50.7177 31.904 51.0257 31.684 51.4177 31.532C51.8177 31.372 52.2777 31.292 52.7977 31.292C53.1017 31.292 53.4177 31.316 53.7457 31.364C54.0737 31.412 54.3657 31.484 54.6217 31.58V31.052C54.6217 30.524 54.4657 30.104 54.1537 29.792C53.8417 29.48 53.4097 29.324 52.8577 29.324C52.5217 29.324 52.1897 29.388 51.8617 29.516C51.5417 29.636 51.2057 29.816 50.8537 30.056L50.5417 29.48C50.9497 29.2 51.3497 28.992 51.7417 28.856C52.1337 28.712 52.5337 28.64 52.9417 28.64C53.7097 28.64 54.3177 28.86 54.7657 29.3C55.2137 29.74 55.4377 30.348 55.4377 31.124V34.016C55.4377 34.128 55.4617 34.212 55.5097 34.268C55.5577 34.316 55.6337 34.344 55.7377 34.352V35C55.6497 35.008 55.5737 35.016 55.5097 35.024C55.4457 35.032 55.3977 35.032 55.3657 35.024C55.1657 35.016 55.0137 34.952 54.9097 34.832C54.8057 34.712 54.7497 34.584 54.7417 34.448L54.7297 33.992C54.4497 34.352 54.0857 34.632 53.6377 34.832C53.1897 35.024 52.7337 35.12 52.2697 35.12C51.8697 35.12 51.5057 35.036 51.1777 34.868C50.8577 34.692 50.6057 34.46 50.4217 34.172C50.2457 33.876 50.1577 33.552 50.1577 33.2ZM54.3457 33.68C54.4337 33.568 54.5017 33.46 54.5497 33.356C54.5977 33.252 54.6217 33.16 54.6217 33.08V32.168C54.3497 32.064 54.0657 31.984 53.7697 31.928C53.4817 31.872 53.1897 31.844 52.8937 31.844C52.3097 31.844 51.8377 31.96 51.4777 32.192C51.1177 32.424 50.9377 32.74 50.9377 33.14C50.9377 33.372 50.9977 33.592 51.1177 33.8C51.2377 34 51.4137 34.168 51.6457 34.304C51.8777 34.432 52.1497 34.496 52.4617 34.496C52.8537 34.496 53.2177 34.42 53.5537 34.268C53.8977 34.116 54.1617 33.92 54.3457 33.68ZM57.4539 35V29.396H56.5899V28.748H57.4539V28.58C57.4539 28.068 57.5259 27.628 57.6699 27.26C57.8219 26.892 58.0339 26.612 58.3059 26.42C58.5859 26.22 58.9139 26.12 59.2899 26.12C59.5379 26.12 59.7779 26.156 60.0099 26.228C60.2419 26.3 60.4419 26.396 60.6099 26.516L60.3579 27.104C60.2539 27.016 60.1179 26.948 59.9499 26.9C59.7819 26.852 59.6139 26.828 59.4459 26.828C59.0699 26.828 58.7779 26.976 58.5699 27.272C58.3699 27.568 58.2699 27.996 58.2699 28.556V28.748H59.9979V29.396H58.2699V35H57.4539ZM64.1148 34.7C64.0508 34.724 63.9508 34.768 63.8148 34.832C63.6788 34.896 63.5148 34.952 63.3228 35C63.1308 35.048 62.9228 35.072 62.6988 35.072C62.4668 35.072 62.2468 35.028 62.0388 34.94C61.8388 34.852 61.6788 34.72 61.5588 34.544C61.4388 34.36 61.3788 34.136 61.3788 33.872V29.396H60.5148V28.748H61.3788V26.636H62.1948V28.748H63.6348V29.396H62.1948V33.644C62.2108 33.868 62.2908 34.036 62.4348 34.148C62.5868 34.26 62.7588 34.316 62.9508 34.316C63.1748 34.316 63.3788 34.28 63.5628 34.208C63.7468 34.128 63.8588 34.072 63.8988 34.04L64.1148 34.7ZM68.2248 36.92C68.3368 36.928 68.4448 36.932 68.5488 36.932C68.6528 36.94 68.7288 36.936 68.7768 36.92C68.8728 36.904 68.9648 36.848 69.0528 36.752C69.1408 36.656 69.2448 36.472 69.3648 36.2C69.4848 35.928 69.6528 35.528 69.8688 35L67.1448 28.748H68.0088L70.3008 34.16L72.4128 28.748H73.2288L69.9888 36.812C69.9328 36.964 69.8488 37.104 69.7368 37.232C69.6248 37.368 69.4848 37.472 69.3168 37.544C69.1568 37.624 68.9568 37.668 68.7168 37.676C68.6448 37.684 68.5688 37.684 68.4888 37.676C68.4168 37.676 68.3288 37.668 68.2248 37.652V36.92ZM76.8101 35.12C76.3621 35.12 75.9461 35.036 75.5621 34.868C75.1861 34.692 74.8581 34.456 74.5781 34.16C74.3061 33.856 74.0941 33.512 73.9421 33.128C73.7901 32.736 73.7141 32.324 73.7141 31.892C73.7141 31.444 73.7901 31.028 73.9421 30.644C74.0941 30.252 74.3101 29.908 74.5901 29.612C74.8701 29.308 75.1981 29.072 75.5741 28.904C75.9581 28.728 76.3741 28.64 76.8221 28.64C77.2701 28.64 77.6821 28.728 78.0581 28.904C78.4341 29.072 78.7621 29.308 79.0421 29.612C79.3221 29.908 79.5381 30.252 79.6901 30.644C79.8421 31.028 79.9181 31.444 79.9181 31.892C79.9181 32.324 79.8421 32.736 79.6901 33.128C79.5381 33.512 79.3221 33.856 79.0421 34.16C78.7701 34.456 78.4421 34.692 78.0581 34.868C77.6821 35.036 77.2661 35.12 76.8101 35.12ZM74.5421 31.904C74.5421 32.368 74.6421 32.792 74.8421 33.176C75.0501 33.552 75.3261 33.852 75.6701 34.076C76.0141 34.292 76.3941 34.4 76.8101 34.4C77.2261 34.4 77.6061 34.288 77.9501 34.064C78.2941 33.84 78.5701 33.536 78.7781 33.152C78.9861 32.76 79.0901 32.336 79.0901 31.88C79.0901 31.416 78.9861 30.992 78.7781 30.608C78.5701 30.224 78.2941 29.92 77.9501 29.696C77.6061 29.472 77.2261 29.36 76.8101 29.36C76.3941 29.36 76.0141 29.476 75.6701 29.708C75.3341 29.94 75.0621 30.248 74.8541 30.632C74.6461 31.008 74.5421 31.432 74.5421 31.904ZM81.2228 32.42V28.748H82.0388V32.276C82.0388 32.988 82.1588 33.52 82.3988 33.872C82.6468 34.224 83.0108 34.4 83.4908 34.4C83.8108 34.4 84.1188 34.332 84.4148 34.196C84.7188 34.052 84.9868 33.852 85.2188 33.596C85.4508 33.332 85.6268 33.028 85.7468 32.684V28.748H86.5628V34.016C86.5628 34.128 86.5868 34.212 86.6348 34.268C86.6828 34.316 86.7548 34.344 86.8508 34.352V35C86.7548 35.008 86.6788 35.012 86.6228 35.012C86.5668 35.02 86.5148 35.024 86.4668 35.024C86.3068 35.008 86.1668 34.944 86.0468 34.832C85.9348 34.72 85.8748 34.584 85.8668 34.424L85.8428 33.584C85.5708 34.064 85.1988 34.44 84.7268 34.712C84.2628 34.984 83.7588 35.12 83.2148 35.12C82.5588 35.12 82.0628 34.892 81.7268 34.436C81.3908 33.98 81.2228 33.308 81.2228 32.42ZM91.5278 29.468C90.9838 29.484 90.5038 29.636 90.0878 29.924C89.6798 30.212 89.3918 30.608 89.2238 31.112V35H88.4078V28.748H89.1758V30.248C89.3918 29.808 89.6758 29.452 90.0278 29.18C90.3878 28.908 90.7678 28.756 91.1678 28.724C91.2478 28.716 91.3158 28.712 91.3718 28.712C91.4358 28.712 91.4878 28.716 91.5278 28.724V29.468ZM98.5842 35.12C98.0642 35.12 97.5962 34.984 97.1802 34.712C96.7722 34.44 96.4482 34.104 96.2082 33.704V37.556H95.3922V28.748H96.1242V29.96C96.3722 29.568 96.7042 29.252 97.1202 29.012C97.5362 28.764 97.9802 28.64 98.4522 28.64C98.8842 28.64 99.2802 28.732 99.6402 28.916C100 29.092 100.312 29.332 100.576 29.636C100.84 29.94 101.044 30.288 101.188 30.68C101.34 31.064 101.416 31.464 101.416 31.88C101.416 32.464 101.296 33.004 101.056 33.5C100.824 33.988 100.496 34.38 100.072 34.676C99.6482 34.972 99.1522 35.12 98.5842 35.12ZM98.3562 34.4C98.7002 34.4 99.0082 34.332 99.2802 34.196C99.5522 34.052 99.7842 33.86 99.9762 33.62C100.176 33.38 100.328 33.112 100.432 32.816C100.536 32.512 100.588 32.2 100.588 31.88C100.588 31.544 100.528 31.224 100.408 30.92C100.296 30.616 100.132 30.348 99.9162 30.116C99.7002 29.884 99.4522 29.7 99.1722 29.564C98.8922 29.428 98.5882 29.36 98.2602 29.36C98.0522 29.36 97.8362 29.4 97.6122 29.48C97.3882 29.56 97.1722 29.676 96.9642 29.828C96.7642 29.972 96.5962 30.136 96.4602 30.32C96.3242 30.504 96.2402 30.7 96.2082 30.908V32.828C96.3362 33.124 96.5082 33.392 96.7242 33.632C96.9402 33.864 97.1882 34.052 97.4682 34.196C97.7562 34.332 98.0522 34.4 98.3562 34.4ZM105.498 35.12C105.05 35.12 104.634 35.036 104.25 34.868C103.866 34.692 103.534 34.456 103.254 34.16C102.974 33.856 102.754 33.508 102.594 33.116C102.442 32.724 102.366 32.304 102.366 31.856C102.366 31.272 102.498 30.736 102.762 30.248C103.034 29.76 103.406 29.372 103.878 29.084C104.35 28.788 104.886 28.64 105.486 28.64C106.102 28.64 106.638 28.788 107.094 29.084C107.558 29.38 107.922 29.772 108.186 30.26C108.45 30.74 108.582 31.268 108.582 31.844C108.582 31.908 108.582 31.972 108.582 32.036C108.582 32.092 108.578 32.136 108.57 32.168H103.218C103.258 32.616 103.382 33.016 103.59 33.368C103.806 33.712 104.082 33.988 104.418 34.196C104.762 34.396 105.134 34.496 105.534 34.496C105.942 34.496 106.326 34.392 106.686 34.184C107.054 33.976 107.31 33.704 107.454 33.368L108.162 33.56C108.034 33.856 107.838 34.124 107.574 34.364C107.31 34.604 106.998 34.792 106.638 34.928C106.286 35.056 105.906 35.12 105.498 35.12ZM103.194 31.58H107.814C107.782 31.124 107.658 30.724 107.442 30.38C107.234 30.036 106.958 29.768 106.614 29.576C106.278 29.376 105.906 29.276 105.498 29.276C105.09 29.276 104.718 29.376 104.382 29.576C104.046 29.768 103.77 30.04 103.554 30.392C103.346 30.736 103.226 31.132 103.194 31.58ZM112.961 29.468C112.417 29.484 111.937 29.636 111.521 29.924C111.113 30.212 110.825 30.608 110.657 31.112V35H109.841V28.748H110.609V30.248C110.825 29.808 111.109 29.452 111.461 29.18C111.821 28.908 112.201 28.756 112.601 28.724C112.681 28.716 112.749 28.712 112.805 28.712C112.869 28.712 112.921 28.716 112.961 28.724V29.468ZM114.348 35V29.396H113.484V28.748H114.348V28.58C114.348 28.068 114.42 27.628 114.564 27.26C114.716 26.892 114.928 26.612 115.2 26.42C115.48 26.22 115.808 26.12 116.184 26.12C116.432 26.12 116.672 26.156 116.904 26.228C117.136 26.3 117.336 26.396 117.504 26.516L117.252 27.104C117.148 27.016 117.012 26.948 116.844 26.9C116.676 26.852 116.508 26.828 116.34 26.828C115.964 26.828 115.672 26.976 115.464 27.272C115.264 27.568 115.164 27.996 115.164 28.556V28.748H116.892V29.396H115.164V35H114.348ZM120.51 35.12C120.062 35.12 119.646 35.036 119.262 34.868C118.878 34.692 118.546 34.456 118.266 34.16C117.986 33.856 117.766 33.508 117.606 33.116C117.454 32.724 117.378 32.304 117.378 31.856C117.378 31.272 117.51 30.736 117.774 30.248C118.046 29.76 118.418 29.372 118.89 29.084C119.362 28.788 119.898 28.64 120.498 28.64C121.114 28.64 121.65 28.788 122.106 29.084C122.57 29.38 122.934 29.772 123.198 30.26C123.462 30.74 123.594 31.268 123.594 31.844C123.594 31.908 123.594 31.972 123.594 32.036C123.594 32.092 123.59 32.136 123.582 32.168H118.23C118.27 32.616 118.394 33.016 118.602 33.368C118.818 33.712 119.094 33.988 119.43 34.196C119.774 34.396 120.146 34.496 120.546 34.496C120.954 34.496 121.338 34.392 121.698 34.184C122.066 33.976 122.322 33.704 122.466 33.368L123.174 33.56C123.046 33.856 122.85 34.124 122.586 34.364C122.322 34.604 122.01 34.792 121.65 34.928C121.298 35.056 120.918 35.12 120.51 35.12ZM118.206 31.58H122.826C122.794 31.124 122.67 30.724 122.454 30.38C122.246 30.036 121.97 29.768 121.626 29.576C121.29 29.376 120.918 29.276 120.51 29.276C120.102 29.276 119.73 29.376 119.394 29.576C119.058 29.768 118.782 30.04 118.566 30.392C118.358 30.736 118.238 31.132 118.206 31.58ZM127.565 35.12C127.109 35.12 126.689 35.036 126.305 34.868C125.929 34.692 125.597 34.452 125.309 34.148C125.029 33.844 124.809 33.496 124.649 33.104C124.497 32.712 124.421 32.296 124.421 31.856C124.421 31.264 124.553 30.724 124.817 30.236C125.081 29.748 125.449 29.36 125.921 29.072C126.393 28.784 126.937 28.64 127.553 28.64C128.137 28.64 128.653 28.776 129.101 29.048C129.549 29.312 129.881 29.672 130.097 30.128L129.305 30.38C129.129 30.06 128.881 29.812 128.561 29.636C128.249 29.452 127.901 29.36 127.517 29.36C127.101 29.36 126.721 29.468 126.377 29.684C126.033 29.9 125.757 30.196 125.549 30.572C125.349 30.948 125.249 31.376 125.249 31.856C125.249 32.328 125.353 32.756 125.561 33.14C125.769 33.524 126.045 33.832 126.389 34.064C126.733 34.288 127.113 34.4 127.529 34.4C127.801 34.4 128.061 34.352 128.309 34.256C128.565 34.16 128.785 34.032 128.969 33.872C129.161 33.704 129.289 33.524 129.353 33.332L130.157 33.572C130.045 33.868 129.857 34.136 129.593 34.376C129.337 34.608 129.033 34.792 128.681 34.928C128.337 35.056 127.965 35.12 127.565 35.12ZM134.439 34.7C134.375 34.724 134.275 34.768 134.139 34.832C134.003 34.896 133.839 34.952 133.647 35C133.455 35.048 133.247 35.072 133.023 35.072C132.791 35.072 132.571 35.028 132.363 34.94C132.163 34.852 132.003 34.72 131.883 34.544C131.763 34.36 131.703 34.136 131.703 33.872V29.396H130.839V28.748H131.703V26.636H132.519V28.748H133.959V29.396H132.519V33.644C132.535 33.868 132.615 34.036 132.759 34.148C132.911 34.26 133.083 34.316 133.275 34.316C133.499 34.316 133.703 34.28 133.887 34.208C134.071 34.128 134.183 34.072 134.223 34.04L134.439 34.7ZM138.517 35V28.748H139.333V35H138.517ZM138.517 27.44V26.24H139.333V27.44H138.517ZM144.13 34.7C144.066 34.724 143.966 34.768 143.83 34.832C143.694 34.896 143.53 34.952 143.338 35C143.146 35.048 142.938 35.072 142.714 35.072C142.482 35.072 142.262 35.028 142.054 34.94C141.854 34.852 141.694 34.72 141.574 34.544C141.454 34.36 141.394 34.136 141.394 33.872V29.396H140.53V28.748H141.394V26.636H142.21V28.748H143.65V29.396H142.21V33.644C142.226 33.868 142.306 34.036 142.45 34.148C142.602 34.26 142.774 34.316 142.966 34.316C143.19 34.316 143.394 34.28 143.578 34.208C143.762 34.128 143.874 34.072 143.914 34.04L144.13 34.7ZM145.15 35V28.748H145.966V35H145.15ZM145.15 27.44V26.24H145.966V27.44H145.15ZM153.019 35H152.203V31.508C152.203 30.772 152.095 30.236 151.879 29.9C151.663 29.556 151.323 29.384 150.859 29.384C150.539 29.384 150.223 29.464 149.911 29.624C149.599 29.776 149.323 29.988 149.083 30.26C148.851 30.524 148.683 30.828 148.579 31.172V35H147.763V28.748H148.507V30.164C148.675 29.86 148.895 29.596 149.167 29.372C149.439 29.14 149.747 28.96 150.091 28.832C150.435 28.704 150.791 28.64 151.159 28.64C151.503 28.64 151.795 28.704 152.035 28.832C152.275 28.96 152.467 29.144 152.611 29.384C152.755 29.616 152.859 29.9 152.923 30.236C152.987 30.564 153.019 30.932 153.019 31.34V35ZM157.459 35.12C157.011 35.12 156.595 35.036 156.211 34.868C155.827 34.692 155.495 34.456 155.215 34.16C154.935 33.856 154.715 33.508 154.555 33.116C154.403 32.724 154.327 32.304 154.327 31.856C154.327 31.272 154.459 30.736 154.723 30.248C154.995 29.76 155.367 29.372 155.839 29.084C156.311 28.788 156.847 28.64 157.447 28.64C158.063 28.64 158.599 28.788 159.055 29.084C159.519 29.38 159.883 29.772 160.147 30.26C160.411 30.74 160.543 31.268 160.543 31.844C160.543 31.908 160.543 31.972 160.543 32.036C160.543 32.092 160.539 32.136 160.531 32.168H155.179C155.219 32.616 155.343 33.016 155.551 33.368C155.767 33.712 156.043 33.988 156.379 34.196C156.723 34.396 157.095 34.496 157.495 34.496C157.903 34.496 158.287 34.392 158.647 34.184C159.015 33.976 159.271 33.704 159.415 33.368L160.123 33.56C159.995 33.856 159.799 34.124 159.535 34.364C159.271 34.604 158.959 34.792 158.599 34.928C158.247 35.056 157.867 35.12 157.459 35.12ZM155.155 31.58H159.775C159.743 31.124 159.619 30.724 159.403 30.38C159.195 30.036 158.919 29.768 158.575 29.576C158.239 29.376 157.867 29.276 157.459 29.276C157.051 29.276 156.679 29.376 156.343 29.576C156.007 29.768 155.731 30.04 155.515 30.392C155.307 30.736 155.187 31.132 155.155 31.58ZM164.922 29.468C164.378 29.484 163.898 29.636 163.482 29.924C163.074 30.212 162.786 30.608 162.618 31.112V35H161.802V28.748H162.57V30.248C162.786 29.808 163.07 29.452 163.422 29.18C163.782 28.908 164.162 28.756 164.562 28.724C164.642 28.716 164.71 28.712 164.766 28.712C164.83 28.712 164.882 28.716 164.922 28.724V29.468ZM165.482 33.2C165.482 32.808 165.594 32.472 165.818 32.192C166.042 31.904 166.35 31.684 166.742 31.532C167.142 31.372 167.602 31.292 168.122 31.292C168.426 31.292 168.742 31.316 169.07 31.364C169.398 31.412 169.69 31.484 169.946 31.58V31.052C169.946 30.524 169.79 30.104 169.478 29.792C169.166 29.48 168.734 29.324 168.182 29.324C167.846 29.324 167.514 29.388 167.186 29.516C166.866 29.636 166.53 29.816 166.178 30.056L165.866 29.48C166.274 29.2 166.674 28.992 167.066 28.856C167.458 28.712 167.858 28.64 168.266 28.64C169.034 28.64 169.642 28.86 170.09 29.3C170.538 29.74 170.762 30.348 170.762 31.124V34.016C170.762 34.128 170.786 34.212 170.834 34.268C170.882 34.316 170.958 34.344 171.062 34.352V35C170.974 35.008 170.898 35.016 170.834 35.024C170.77 35.032 170.722 35.032 170.69 35.024C170.49 35.016 170.338 34.952 170.234 34.832C170.13 34.712 170.074 34.584 170.066 34.448L170.054 33.992C169.774 34.352 169.41 34.632 168.962 34.832C168.514 35.024 168.058 35.12 167.594 35.12C167.194 35.12 166.83 35.036 166.502 34.868C166.182 34.692 165.93 34.46 165.746 34.172C165.57 33.876 165.482 33.552 165.482 33.2ZM169.67 33.68C169.758 33.568 169.826 33.46 169.874 33.356C169.922 33.252 169.946 33.16 169.946 33.08V32.168C169.674 32.064 169.39 31.984 169.094 31.928C168.806 31.872 168.514 31.844 168.218 31.844C167.634 31.844 167.162 31.96 166.802 32.192C166.442 32.424 166.262 32.74 166.262 33.14C166.262 33.372 166.322 33.592 166.442 33.8C166.562 34 166.738 34.168 166.97 34.304C167.202 34.432 167.474 34.496 167.786 34.496C168.178 34.496 168.542 34.42 168.878 34.268C169.222 34.116 169.486 33.92 169.67 33.68ZM175.645 29.468C175.101 29.484 174.621 29.636 174.205 29.924C173.797 30.212 173.509 30.608 173.341 31.112V35H172.525V28.748H173.293V30.248C173.509 29.808 173.793 29.452 174.145 29.18C174.505 28.908 174.885 28.756 175.285 28.724C175.365 28.716 175.433 28.712 175.489 28.712C175.553 28.712 175.605 28.716 175.645 28.724V29.468ZM177.092 36.92C177.204 36.928 177.312 36.932 177.416 36.932C177.52 36.94 177.596 36.936 177.644 36.92C177.74 36.904 177.832 36.848 177.92 36.752C178.008 36.656 178.112 36.472 178.232 36.2C178.352 35.928 178.52 35.528 178.736 35L176.012 28.748H176.876L179.168 34.16L181.28 28.748H182.096L178.856 36.812C178.8 36.964 178.716 37.104 178.604 37.232C178.492 37.368 178.352 37.472 178.184 37.544C178.024 37.624 177.824 37.668 177.584 37.676C177.512 37.684 177.436 37.684 177.356 37.676C177.284 37.676 177.196 37.668 177.092 37.652V36.92Z" fill="#5B5B5B"/>
<path fill-rule="evenodd" clip-rule="evenodd" d="M289.62 21.2773C288.004 21.2779 286.425 21.7576 285.081 22.6558C283.738 23.554 282.691 24.8305 282.072 26.3237C281.454 27.817 281.293 29.46 281.609 31.045C281.924 32.63 282.703 34.0859 283.846 35.2284C284.989 36.371 286.445 37.1491 288.03 37.4642C289.615 37.7793 291.258 37.6173 292.751 36.9987C294.244 36.3801 295.52 35.3327 296.418 33.9889C297.316 32.6451 297.795 31.0653 297.795 29.4492C297.794 27.2817 296.932 25.2034 295.399 23.671C293.866 22.1387 291.788 21.2777 289.62 21.2773ZM289.62 22.57C290.981 22.57 292.311 22.9735 293.442 23.7294C294.574 24.4853 295.455 25.5596 295.976 26.8166C296.497 28.0736 296.633 29.4568 296.367 30.7912C296.102 32.1256 295.447 33.3514 294.485 34.3135C293.523 35.2755 292.297 35.9307 290.962 36.1961C289.628 36.4616 288.245 36.3253 286.988 35.8047C285.731 35.284 284.657 34.4023 283.901 33.271C283.145 32.1397 282.741 30.8097 282.741 29.4492C282.742 27.625 283.467 25.8757 284.757 24.5858C286.047 23.2959 287.796 22.5709 289.62 22.57Z" fill="white"/>
<path fill-rule="evenodd" clip-rule="evenodd" d="M299.631 38.2377C299.631 38.2381 299.63 38.2383 299.63 38.238L295.574 34.1822C295.515 34.1205 295.443 34.0712 295.364 34.0373C295.285 34.0035 295.201 33.9856 295.115 33.9849C295.029 33.9841 294.944 34.0005 294.864 34.033C294.785 34.0655 294.713 34.1135 294.652 34.1742C294.592 34.2349 294.544 34.307 294.511 34.3865C294.479 34.4659 294.462 34.551 294.463 34.6368C294.464 34.7227 294.481 34.8075 294.515 34.8863C294.549 34.9652 294.598 35.0365 294.66 35.0961L298.717 39.1507C298.776 39.2124 298.848 39.2617 298.927 39.2955C299.005 39.3294 299.09 39.3472 299.176 39.348C299.262 39.3487 299.347 39.3324 299.426 39.2999C299.506 39.2674 299.578 39.2194 299.639 39.1587C299.699 39.098 299.747 39.0259 299.78 38.9464C299.812 38.867 299.829 38.7819 299.828 38.6961C299.827 38.6102 299.809 38.5254 299.776 38.4466C299.742 38.368 299.693 38.2969 299.631 38.2374C299.631 38.2372 299.631 38.2374 299.631 38.2377Z" fill="white"/>
</g>
<defs>
<filter id="filter0_d_3791_1681" x="3.4707" y="4" width="320.059" height="63" filterUnits="userSpaceOnUse" color-interpolation-filters="sRGB">
<feFlood flood-opacity="0" result="BackgroundImageFix"/>
<feColorMatrix in="SourceAlpha" type="matrix" values="0 0 0 0 0 0 0 0 0 0 0 0 0 0 0 0 0 0 127 0" result="hardAlpha"/>
<feOffset dy="4"/>
<feGaussianBlur stdDeviation="2"/>
<feComposite in2="hardAlpha" operator="out"/>
<feColorMatrix type="matrix" values="0 0 0 0 0 0 0 0 0 0 0 0 0 0 0 0 0 0 0.25 0"/>
<feBlend mode="normal" in2="BackgroundImageFix" result="effect1_dropShadow_3791_1681"/>
<feBlend mode="normal" in="SourceGraphic" in2="effect1_dropShadow_3791_1681" result="shape"/>
</filter>
<filter id="filter1_d_3791_1681" x="0.470703" y="0" width="326.059" height="69" filterUnits="userSpaceOnUse" color-interpolation-filters="sRGB">
<feFlood flood-opacity="0" result="BackgroundImageFix"/>
<feColorMatrix in="SourceAlpha" type="matrix" values="0 0 0 0 0 0 0 0 0 0 0 0 0 0 0 0 0 0 127 0" result="hardAlpha"/>
<feOffset dy="3"/>
<feGaussianBlur stdDeviation="3.5"/>
<feComposite in2="hardAlpha" operator="out"/>
<feColorMatrix type="matrix" values="0 0 0 0 0 0 0 0 0 0 0 0 0 0 0 0 0 0 0.1 0"/>
<feBlend mode="normal" in2="BackgroundImageFix" result="effect1_dropShadow_3791_1681"/>
<feBlend mode="normal" in="SourceGraphic" in2="effect1_dropShadow_3791_1681" result="shape"/>
</filter>
</defs>
</svg>
