<svg width="15" height="15" viewBox="0 0 15 15" fill="none" xmlns="http://www.w3.org/2000/svg">
<path d="M4.37885 10.4016C4.25619 10.279 4.09309 10.2114 3.91962 10.2114C3.74615 10.2114 3.58306 10.279 3.46039 10.4016C3.20721 10.6548 3.20721 11.0668 3.46042 11.3201C3.71358 11.5733 4.12558 11.5733 4.37885 11.3201C4.63201 11.0668 4.63201 10.6548 4.37885 10.4016Z" fill="#666666"/>
<path d="M13.1774 10.6491C13.1774 11.1345 13.5709 11.528 14.0563 11.528C14.5417 11.528 14.9352 11.1345 14.9352 10.6491C14.9352 9.21181 14.6535 7.81713 14.098 6.50369C13.5616 5.23551 12.7939 4.09674 11.8162 3.11904C10.8385 2.14134 9.69968 1.37362 8.43151 0.837219C7.11807 0.281661 5.72336 0 4.28613 0C3.80074 0 3.40723 0.393517 3.40723 0.878908C3.40723 1.3643 3.80074 1.75782 4.28613 1.75782C9.18877 1.75782 13.1774 5.74642 13.1774 10.6491Z" fill="#666666"/>
<path d="M6.09102 5.56471C5.96838 5.44204 5.80531 5.37451 5.63185 5.37451C5.45838 5.37451 5.29528 5.44207 5.17262 5.56471C5.04995 5.68734 4.98242 5.85044 4.98242 6.02391C4.98242 6.19738 5.04998 6.36047 5.17262 6.48314C5.29525 6.6058 5.45838 6.67333 5.63185 6.67333C5.80531 6.67333 5.96838 6.60577 6.09102 6.48314C6.21371 6.36047 6.28124 6.19738 6.28124 6.02391C6.28124 5.85044 6.21368 5.68737 6.09102 5.56471Z" fill="#666666"/>
<path d="M12.2985 10.649C12.2985 6.23103 8.70418 2.63671 4.28617 2.63671C4.07312 2.63671 3.86884 2.59854 3.6797 2.52881L0 14.8987L0.0566603 14.9477L4.9378 13.4949C5.33576 13.3765 5.73555 13.6746 5.73555 14.0899C5.73555 14.5925 6.14304 15 6.64572 15C7.1484 15 7.55589 14.5925 7.55589 14.0899V13.3949C7.55589 12.992 7.82076 12.6371 8.20698 12.5224C8.7904 12.3492 9.37619 12.7863 9.37619 13.3949V14.0898C9.37619 14.5925 9.78369 15 10.2863 15C10.789 15 11.1965 14.5925 11.1965 14.0898V12.095C11.1965 11.8204 11.3769 11.5785 11.6401 11.5001L12.4123 11.2703C12.339 11.077 12.2985 10.8677 12.2985 10.649ZM5.00031 11.9416C4.70234 12.2395 4.31096 12.3885 3.91958 12.3885C3.5282 12.3885 3.13682 12.2395 2.83887 11.9416C2.243 11.3457 2.243 10.3761 2.83884 9.78024C3.4348 9.18428 4.40439 9.18434 5.00026 9.78024C5.5961 10.3761 5.59613 11.3457 5.00031 11.9416ZM6.71275 7.10467C6.42409 7.39336 6.04033 7.5523 5.63207 7.5523C5.22382 7.5523 4.84003 7.39333 4.55137 7.10467C4.26268 6.81601 4.10374 6.43222 4.10374 6.02396C4.10374 5.61571 4.26271 5.23195 4.55137 4.94326C4.84003 4.65459 5.22382 4.49566 5.63207 4.49566C6.04033 4.49566 6.42409 4.65462 6.71278 4.94329C7.00144 5.23195 7.16038 5.61571 7.16038 6.02396C7.16038 6.43222 7.00141 6.81601 6.71275 7.10467ZM10.2519 10.2845C9.95396 10.5825 9.56261 10.7314 9.17123 10.7314C8.77986 10.7314 8.38848 10.5825 8.09053 10.2845C7.49463 9.6886 7.49463 8.71902 8.09053 8.12315C8.68643 7.52728 9.65601 7.52722 10.2519 8.12315C10.8478 8.71902 10.8478 9.6886 10.2519 10.2845Z" fill="#666666"/>
<path d="M9.17091 8.55469C8.99744 8.55469 8.83435 8.62225 8.71168 8.74488C8.58901 8.86752 8.52148 9.03065 8.52148 9.20411C8.52148 9.37755 8.58904 9.54065 8.71168 9.66331C8.83432 9.78598 8.99744 9.85351 9.17091 9.85351C9.34435 9.85351 9.50744 9.78595 9.63011 9.66331C9.75278 9.54068 9.82031 9.37755 9.82031 9.20411C9.82031 9.03065 9.75275 8.86755 9.63011 8.74488C9.50747 8.62222 9.34435 8.55469 9.17091 8.55469Z" fill="#666666"/>
</svg>
