<svg width="12" height="12" viewBox="0 0 18 18" fill="none" xmlns="http://www.w3.org/2000/svg">
    <path
        d="M14.0392 9.70765C13.2151 9.07987 12.5409 8.30219 11.9321 7.46828C11.2298 6.49383 10.6772 5.45379 10.5087 4.22635C10.2652 2.35241 11.595 0.459722 13.4586 0.0755631C15.3971 -0.317966 17.3263 0.86262 17.832 2.75531C18.1785 4.02959 17.8601 5.18207 17.2701 6.29706C16.6146 7.53387 15.7249 8.57391 14.6948 9.52025C14.6105 9.59521 14.4981 9.64206 14.4045 9.70765C14.2921 9.70765 14.1703 9.70765 14.0392 9.70765ZM14.2453 2.24934C13.4305 2.24934 12.7375 2.93333 12.7375 3.73913C12.7375 4.56366 13.4399 5.25702 14.2546 5.25702C15.06 5.25702 15.7436 4.55429 15.7343 3.7485C15.7343 2.91459 15.0694 2.24934 14.2453 2.24934Z"
        fill="#B0B0B0" />
    <path
        d="M14.0392 9.70752C14.161 9.70752 14.2921 9.70752 14.4138 9.70752C14.6292 9.92302 14.9289 10.1104 14.7697 10.4946C14.6011 10.8787 14.2734 10.8881 13.9175 10.8881C11.9509 10.8787 9.98427 10.8881 8.01765 10.8881C7.87717 10.8881 7.68988 10.8225 7.61496 11.0099C7.5494 11.1973 7.72734 11.2816 7.83035 11.3753C9.17889 12.5934 10.5462 13.8021 11.8853 15.0389C12.2225 15.3481 12.6252 15.6011 12.8686 16.0321C13.4118 16.9972 12.6439 17.9997 11.7074 17.9997C8.59827 17.9904 5.47977 17.9997 2.37064 17.9997C1.82748 17.9997 1.61209 17.7093 1.75256 17.1846C1.77129 17.1283 1.77129 17.0721 1.78065 17.0159C2.14588 16.8754 2.52048 16.866 2.89507 16.8847C5.70453 16.8847 8.51399 16.8847 11.3141 16.8847C11.3984 16.8847 11.4733 16.8847 11.5576 16.8847C11.6699 16.8847 11.801 16.9035 11.8572 16.7629C11.9134 16.613 11.8291 16.5193 11.7261 16.4256C11.2204 15.9665 10.7054 15.498 10.1903 15.0389C9.59094 14.5048 8.99159 13.9707 8.39224 13.4273C7.95209 13.0338 7.51194 12.6215 7.06243 12.2373C6.29451 11.5721 6.22896 10.6726 6.92196 10.0542C7.16545 9.8387 7.44639 9.77311 7.7648 9.77311C9.73142 9.77311 11.698 9.77311 13.6647 9.77311C13.7958 9.75437 13.9269 9.80122 14.0392 9.70752Z"
        fill="#B0B0B0" />
    <path
        d="M2.89479 16.8662C2.51083 16.8569 2.13624 16.8569 1.78037 16.9974C1.14356 16.3509 0.591038 15.6482 0.253903 14.7861C-0.120691 13.8398 -0.111326 12.9309 0.534849 12.097C1.12483 11.3381 2.06132 11.057 2.91352 11.3381C3.79382 11.6286 4.44936 12.5093 4.49618 13.4556C4.53364 14.2802 4.21524 14.9829 3.80318 15.6669C3.55033 16.1073 3.20383 16.4727 2.89479 16.8662Z"
        fill="#B0B0B0" />
</svg>
