<svg width="16" height="15" viewBox="0 0 16 15" fill="none" xmlns="http://www.w3.org/2000/svg">
<path d="M3.66665 1.58301C1.61065 1.58301 0 2.46166 0 3.583V7.583C0 8.70499 1.61065 9.58299 3.66665 9.58299C5.72265 9.58299 7.3333 8.70499 7.3333 7.583V3.583C7.33333 2.46166 5.72265 1.58301 3.66665 1.58301ZM3.66665 4.91631C1.89865 4.91631 0.666655 4.21366 0.666655 3.58297C0.666655 2.95229 1.89865 2.24966 3.66665 2.24966C5.43465 2.24966 6.66664 2.95232 6.66664 3.583C6.66664 4.21369 5.43465 4.91631 3.66665 4.91631Z" fill="#666666"/>
<path d="M3.66665 2.9165C3.044 2.9165 2 3.00316 2 3.58316C2 4.16316 3.044 4.24985 3.66665 4.24985C4.28931 4.24985 5.33331 4.16319 5.33331 3.58319C5.33331 3.00319 4.28934 2.9165 3.66665 2.9165Z" fill="#666666"/>
<path d="M12.3327 0.25C10.2767 0.25 8.66602 1.12865 8.66602 2.25V6.24999C8.66602 7.37133 10.2767 8.24998 12.3327 8.24998C14.3887 8.24998 15.9993 7.37133 15.9993 6.24999V2.25C15.9993 1.12865 14.3887 0.25 12.3327 0.25ZM12.3327 3.58334C10.5647 3.58334 9.33267 2.88068 9.33267 2.25C9.33267 1.61931 10.5647 0.916655 12.3327 0.916655C14.1007 0.916655 15.3327 1.61931 15.3327 2.25C15.3327 2.88068 14.1007 3.58334 12.3327 3.58334Z" fill="#666666"/>
<path d="M12.3336 1.58301C11.711 1.58301 10.667 1.66966 10.667 2.24966C10.667 2.82966 11.711 2.91632 12.3336 2.91632C12.9563 2.91632 14.0003 2.82966 14.0003 2.24966C14.0003 1.66966 12.9563 1.58301 12.3336 1.58301Z" fill="#666666"/>
<path d="M15.6666 12.2499H6.77064L14.4433 9.56461C14.6173 9.50395 14.7086 9.31395 14.6479 9.13995C14.5873 8.96595 14.3979 8.87329 14.2233 8.93529L4.75333 12.2499H0.333343C0.149343 12.2499 0 12.3993 0 12.5833C0 12.7673 0.149343 12.9166 0.333343 12.9166H2.84868L0.889998 13.6019C0.715999 13.6626 0.624655 13.8526 0.685342 14.0266C0.733342 14.1639 0.861998 14.2499 0.999998 14.2499C1.03665 14.2499 1.07334 14.2439 1.11 14.2313L4.86533 12.9166H15.6667C15.8507 12.9166 16 12.7673 16 12.5833C16 12.3993 15.8506 12.2499 15.6666 12.2499Z" fill="#666666"/>
</svg>
