<svg width="14" height="14" viewBox="0 0 14 14" fill="none" xmlns="http://www.w3.org/2000/svg">
<path d="M11.6573 4.66665C11.0388 4.66665 10.4457 4.42082 10.0085 3.98323C9.57117 3.54565 9.3255 2.95216 9.3255 2.33332C9.3255 1.71449 9.57117 1.121 10.0085 0.683415C10.4457 0.245832 11.0388 0 11.6573 0C12.2757 0 12.8688 0.245832 13.3061 0.683415C13.7433 1.121 13.989 1.71449 13.989 2.33332C13.989 2.95216 13.7433 3.54565 13.3061 3.98323C12.8688 4.42082 12.2757 4.66665 11.6573 4.66665ZM12.5037 13.9999H7.3371C7.07575 14.0022 6.81842 13.9355 6.59109 13.8065C6.36377 13.6774 6.1745 13.4906 6.04239 13.2649C5.91293 13.0475 5.84318 12.7996 5.84022 12.5465C5.83725 12.2934 5.90116 12.044 6.02549 11.8235L8.6114 7.1808C8.74456 6.9507 8.93583 6.75967 9.16603 6.62686C9.39624 6.49406 9.65729 6.42415 9.92301 6.42415C10.1887 6.42415 10.4498 6.49406 10.68 6.62686C10.9102 6.75967 11.1015 6.9507 11.2346 7.1808L13.8141 11.82C13.9387 12.0408 14.0028 12.2906 13.9999 12.5441C13.997 12.7976 13.9273 13.0459 13.7978 13.2638C13.6658 13.4895 13.4766 13.6763 13.2494 13.8056C13.0222 13.9348 12.765 14.0018 12.5037 13.9999ZM5.0374 13.8564C4.80458 13.4643 4.67914 13.0176 4.67371 12.5615C4.66829 12.1054 4.78307 11.6559 5.00651 11.2583L7.59301 6.61497C7.80423 6.23519 8.10601 5.91357 8.4715 5.67873L7.54404 3.9404C7.37699 3.63079 7.12936 3.37217 6.82739 3.19191C6.52543 3.01166 6.18036 2.91649 5.82874 2.91649C5.47713 2.91649 5.13206 3.01166 4.83009 3.19191C4.52812 3.37217 4.2805 3.63079 4.11345 3.9404L0.235156 11.1154C0.0743257 11.413 -0.00655832 11.7473 0.000415684 12.0855C0.00738969 12.4238 0.101983 12.7544 0.274943 13.0452C0.447903 13.3359 0.693307 13.5767 0.987152 13.744C1.281 13.9114 1.61322 13.9996 1.95133 13.9999H5.12834C5.09628 13.9533 5.06597 13.9054 5.0374 13.8564Z" fill="#39B96F"/>
</svg>
