<svg width="18" height="17" viewBox="0 0 18 17" fill="none" xmlns="http://www.w3.org/2000/svg">
    <path
        d="M10.8547 5.3657C10.3134 4.7943 9.74928 4.29715 9.16239 3.87427C8.57549 3.45144 8.02565 3.13428 7.51281 2.92286C7.00001 2.71143 6.52992 2.61 6.10258 2.61857C5.67521 2.62714 5.34189 2.76 5.10255 3.01714C5.04559 3.07428 4.99715 3.13857 4.95726 3.21C4.91738 3.28143 4.8889 3.33714 4.8718 3.37715C4.8547 3.41714 4.83191 3.48856 4.80343 3.59142C4.77492 3.69427 4.75499 3.76001 4.74358 3.78858L1.5641 14.28L1.76068 14.4857C1.53846 14.64 1.34046 14.82 1.16667 15.0257C0.992877 15.2314 0.840455 15.4 0.709403 15.5314C0.578346 15.6629 0.421653 15.7543 0.239316 15.8057C0.19943 15.8171 0.149574 15.8557 0.0897429 15.9214C0.0299154 15.9871 0 16.0457 0 16.0971C0 16.2 0.0512807 16.2857 0.153845 16.3543C0.25641 16.4228 0.370369 16.4571 0.495726 16.4571C0.655271 16.4571 0.809116 16.3929 0.957266 16.2643C1.10541 16.1357 1.25499 15.9714 1.40598 15.7714C1.55698 15.5714 1.66667 15.44 1.73504 15.3771C1.88319 15.2457 2.04843 15.12 2.23077 15L2.45299 15.2143L12.5555 11.7771C12.7778 11.7086 12.9487 11.6057 13.0684 11.4686C13.3077 11.2114 13.4316 10.8557 13.4402 10.4014C13.4487 9.94715 13.3533 9.44714 13.1539 8.90142C12.9544 8.35573 12.6567 7.77285 12.2607 7.15285C11.8647 6.53284 11.396 5.93714 10.8547 5.3657ZM9.93163 6.3C10.8034 7.19142 11.4658 8.0443 11.9188 8.85857C12.3718 9.67285 12.4815 10.2086 12.2479 10.4657C12.0142 10.7229 11.5043 10.6286 10.7179 10.1829C9.93163 9.73713 9.10543 9.07142 8.23931 8.18573C7.36184 7.29427 6.69658 6.44284 6.24359 5.63143C5.7906 4.82001 5.6809 4.28284 5.91454 4.02001C6.14816 3.76287 6.65955 3.85714 7.44872 4.30287C8.23789 4.74856 9.06554 5.41427 9.93163 6.3ZM9.45299 0L9.88033 1.29428L8.77776 2.1H10.1368L10.5556 3.39429L10.9743 2.1H12.3248L11.2308 1.29428L11.6581 0.00857031L10.5556 0.805715L9.45299 0ZM7.05983 0L6.82907 1.17428L8 1.40571L8.23076 0.231428L7.05983 0ZM14.7607 3.53144L15.7009 2.54571L16.9231 3.14571L16.2906 1.94571L17.2393 0.977143L15.8974 1.20857L15.265 0L15.0769 1.35428L13.735 1.58571L14.9573 2.17714L14.7607 3.53144ZM14.4445 5.64001L15.5812 6.39427L15.2222 7.71429L16.2821 6.85713L17.4102 7.61143L16.9402 6.32571L18 5.48572L16.641 5.5457L16.1624 4.26857L15.812 5.58L14.4445 5.64001ZM13.9573 2.46L11.4103 4.55143L11.7265 4.93714L14.2735 2.84571L13.9573 2.46ZM14.8461 6.50571L12.8547 6.32571L12.8034 6.82287L14.8034 7.00287L14.8461 6.50571ZM15.0427 8.90572L14.6752 10.0543L15.812 10.4229L16.188 9.28286L15.0427 8.90572Z"
        fill="#39B96F" />
</svg>
