<svg width="12" height="16" viewBox="0 0 12 16" fill="none" xmlns="http://www.w3.org/2000/svg">
<path d="M1.57823 9.24406L1.56268 9.21539L1.54353 9.18898C0.890534 8.28847 0.5 7.19288 0.5 6C0.5 2.96264 2.96264 0.5 6 0.5C9.03736 0.5 11.5 2.96264 11.5 6C11.5 7.19288 11.1095 8.28847 10.4565 9.18898L10.4373 9.21539L10.4218 9.24407C10.4054 9.27424 10.394 9.30143 10.3864 9.32179L6.41597 15.2774C6.32328 15.4164 6.16696 15.5 6 15.5C5.83304 15.5 5.67672 15.4164 5.58403 15.2774L1.61368 9.32189C1.60606 9.30163 1.59468 9.27437 1.57823 9.24406ZM3.5 6C3.5 7.38064 4.61936 8.5 6 8.5C7.38064 8.5 8.5 7.38064 8.5 6C8.5 4.61936 7.38064 3.5 6 3.5C4.61936 3.5 3.5 4.61936 3.5 6Z" stroke="white"/>
</svg>
