<svg width="12" height="15" viewBox="0 0 12 15" fill="none" xmlns="http://www.w3.org/2000/svg">
<path d="M3.75 8.25003H5.25V6.18753H6.75V8.25003H8.25V4.68753L6 3.18753L3.75 4.68753V8.25003ZM6 15C3.9875 13.2875 2.48438 11.6969 1.49063 10.2282C0.496875 8.75941 0 7.40003 0 6.15003C0 4.27503 0.603125 2.78128 1.80938 1.66878C3.01562 0.55628 4.4125 3.05176e-05 6 3.05176e-05C7.5875 3.05176e-05 8.98438 0.55628 10.1906 1.66878C11.3969 2.78128 12 4.27503 12 6.15003C12 7.40003 11.5031 8.75941 10.5094 10.2282C9.51563 11.6969 8.0125 13.2875 6 15Z" fill="#39B96F"/>
</svg>
