<svg width="17" height="11" viewBox="0 0 17 11" fill="none" xmlns="http://www.w3.org/2000/svg">
<path d="M12.5499 1.34426C13.1112 1.2474 13.7258 1.25931 14.2801 1.37685C13.61 0.681441 12.678 0.240026 11.6445 0.213379C12.0016 0.540243 12.3081 0.921396 12.5499 1.34426Z" fill="#666666"/>
<path d="M8.49973 1.72506C9.685 1.72506 10.8384 1.93323 11.9223 2.33648C10.7215 -0.779773 6.27672 -0.777882 5.07715 2.33648C6.16104 1.93323 7.31449 1.72506 8.49973 1.72506Z" fill="#666666"/>
<path d="M16.9196 8.87756C14.2063 0.691369 2.78964 0.696247 0.0795931 8.87756C-0.072357 9.35382 0.00609026 9.83861 0.300467 10.2426C0.595109 10.647 1.03267 10.8697 1.53259 10.8697H15.4665C15.9664 10.8697 16.404 10.647 16.6987 10.2426C16.993 9.83858 17.0715 9.35385 16.9196 8.87756ZM3.63809 8.94499C3.36393 8.94499 3.14033 8.7214 3.14033 8.44723C3.16844 7.78683 4.10785 7.78703 4.13589 8.44723C4.13586 8.7214 3.91226 8.94499 3.63809 8.94499ZM4.92398 7.46073C4.64981 7.46073 4.42622 7.23711 4.42622 6.96297C4.45432 6.30257 5.39373 6.30277 5.42177 6.96297C5.42174 7.23714 5.19815 7.46073 4.92398 7.46073ZM6.06883 8.94499C5.79466 8.94499 5.57107 8.7214 5.57107 8.44723C5.59918 7.78683 6.53859 7.78703 6.56663 8.44723C6.56659 8.7214 6.343 8.94499 6.06883 8.94499ZM6.06883 6.02479C5.79466 6.02479 5.57107 5.80119 5.57107 5.52703C5.59918 4.8666 6.53859 4.8668 6.56663 5.52703C6.56659 5.80119 6.343 6.02479 6.06883 6.02479ZM7.35472 7.46073C7.08055 7.46073 6.85695 7.23711 6.85695 6.96297C6.88506 6.30257 7.82447 6.30277 7.85248 6.96297C7.85248 7.23714 7.62888 7.46073 7.35472 7.46073ZM8.49957 8.94499C8.2254 8.94499 8.00181 8.7214 8.00181 8.44723C8.02991 7.78683 8.96932 7.78703 8.99733 8.44723C8.99733 8.7214 8.77374 8.94499 8.49957 8.94499ZM8.49957 6.02479C8.2254 6.02479 8.00181 5.80119 8.00181 5.52703C8.02991 4.8666 8.96932 4.8668 8.99733 5.52703C8.99733 5.80119 8.77374 6.02479 8.49957 6.02479ZM9.78545 7.46073C9.51129 7.46073 9.28769 7.23711 9.28769 6.96297C9.3158 6.30257 10.2552 6.30277 10.2832 6.96297C10.2832 7.23714 10.0596 7.46073 9.78545 7.46073ZM10.9303 8.94499C10.6561 8.94499 10.4325 8.7214 10.4325 8.44723C10.4607 7.78683 11.4001 7.78703 11.4281 8.44723C11.4281 8.7214 11.2045 8.94499 10.9303 8.94499ZM10.9303 6.02479C10.6561 6.02479 10.4325 5.80119 10.4325 5.52703C10.4607 4.8666 11.4001 4.86683 11.4281 5.52703C11.4281 5.80119 11.2045 6.02479 10.9303 6.02479ZM12.2162 7.46073C11.942 7.46073 11.7184 7.23711 11.7184 6.96297C11.7465 6.30257 12.6859 6.30277 12.714 6.96297C12.714 7.23714 12.4904 7.46073 12.2162 7.46073ZM13.361 8.94499C13.0869 8.94499 12.8633 8.7214 12.8633 8.44723C12.8914 7.78683 13.8308 7.78703 13.8588 8.44723C13.8588 8.7214 13.6352 8.94499 13.361 8.94499Z" fill="#666666"/>
<path d="M4.44998 1.34426C4.69183 0.921396 4.99835 0.540243 5.35538 0.213379C4.32192 0.240026 3.38991 0.681441 2.71973 1.37685C3.274 1.25931 3.8887 1.2474 4.44998 1.34426Z" fill="#666666"/>
<path d="M12.2109 2.44898C14.1606 3.23846 15.8858 4.72385 16.9482 6.52708C17.4038 3.85934 14.7765 1.60179 12.2109 2.44898Z" fill="#666666"/>
<path d="M2.6442 3.66118C3.31393 3.16322 4.03342 2.75798 4.78909 2.44896C2.22286 1.60174 -0.403627 3.85982 0.0518255 6.5271C0.71136 5.41875 1.58643 4.44771 2.6442 3.66118Z" fill="#666666"/>
</svg>
