<svg width="20" height="19" viewBox="0 0 20 19" fill="none" xmlns="http://www.w3.org/2000/svg">
<path d="M0 10.7294V8.94118H3.63636V10.7294H0ZM4.86364 6.03529L2.27273 3.50941L3.56818 2.25765L6.13636 4.78353L4.86364 6.03529ZM4.54545 15.4235C4.22727 15.4235 3.95833 15.3155 3.73864 15.0994C3.51894 14.8833 3.40909 14.6188 3.40909 14.3059C3.40909 13.9929 3.51894 13.7284 3.73864 13.5124C3.95833 13.2963 4.22727 13.1882 4.54545 13.1882C4.86364 13.1882 5.13258 13.2963 5.35227 13.5124C5.57197 13.7284 5.68182 13.9929 5.68182 14.3059C5.68182 14.6188 5.57197 14.8833 5.35227 15.0994C5.13258 15.3155 4.86364 15.4235 4.54545 15.4235ZM5.45455 10.7294V9.83529C5.45455 8.59843 5.89773 7.54412 6.78409 6.67235C7.67045 5.80059 8.74242 5.36471 10 5.36471C11.2576 5.36471 12.3295 5.80059 13.2159 6.67235C14.1023 7.54412 14.5455 8.59843 14.5455 9.83529V10.7294H5.45455ZM7.27273 19C6.95455 19 6.68561 18.892 6.46591 18.6759C6.24621 18.4598 6.13636 18.1953 6.13636 17.8824C6.13636 17.5694 6.24621 17.3049 6.46591 17.0888C6.68561 16.8727 6.95455 16.7647 7.27273 16.7647C7.59091 16.7647 7.85985 16.8727 8.07955 17.0888C8.29924 17.3049 8.40909 17.5694 8.40909 17.8824C8.40909 18.1953 8.29924 18.4598 8.07955 18.6759C7.85985 18.892 7.59091 19 7.27273 19ZM10 15.4235C9.68182 15.4235 9.41288 15.3155 9.19318 15.0994C8.97348 14.8833 8.86364 14.6188 8.86364 14.3059C8.86364 13.9929 8.97348 13.7284 9.19318 13.5124C9.41288 13.2963 9.68182 13.1882 10 13.1882C10.3182 13.1882 10.5871 13.2963 10.8068 13.5124C11.0265 13.7284 11.1364 13.9929 11.1364 14.3059C11.1364 14.6188 11.0265 14.8833 10.8068 15.0994C10.5871 15.3155 10.3182 15.4235 10 15.4235ZM9.09091 3.57647V0H10.9091V3.57647H9.09091ZM12.7273 19C12.4091 19 12.1402 18.892 11.9205 18.6759C11.7008 18.4598 11.5909 18.1953 11.5909 17.8824C11.5909 17.5694 11.7008 17.3049 11.9205 17.0888C12.1402 16.8727 12.4091 16.7647 12.7273 16.7647C13.0455 16.7647 13.3144 16.8727 13.5341 17.0888C13.7538 17.3049 13.8636 17.5694 13.8636 17.8824C13.8636 18.1953 13.7538 18.4598 13.5341 18.6759C13.3144 18.892 13.0455 19 12.7273 19ZM15.1364 6.03529L13.8409 4.78353L16.4318 2.25765L17.7045 3.50941L15.1364 6.03529ZM15.4545 15.4235C15.1364 15.4235 14.8674 15.3155 14.6477 15.0994C14.428 14.8833 14.3182 14.6188 14.3182 14.3059C14.3182 13.9929 14.428 13.7284 14.6477 13.5124C14.8674 13.2963 15.1364 13.1882 15.4545 13.1882C15.7727 13.1882 16.0417 13.2963 16.2614 13.5124C16.4811 13.7284 16.5909 13.9929 16.5909 14.3059C16.5909 14.6188 16.4811 14.8833 16.2614 15.0994C16.0417 15.3155 15.7727 15.4235 15.4545 15.4235ZM16.3636 10.7294V8.94118H20V10.7294H16.3636Z" fill="#5D5D5D"/>
</svg>
