<svg width="146" height="114" viewBox="0 0 146 114" fill="none" xmlns="http://www.w3.org/2000/svg">
<path d="M75.8585 113.287H4.47278C2.00254 113.287 0 111.285 0 108.815V4.47278C0 2.00254 2.00254 0 4.47278 0H75.8585C78.3288 0 80.3313 2.00254 80.3313 4.47278V108.815C80.3313 111.285 78.3288 113.287 75.8585 113.287Z" fill="#39B96F"/>
<path d="M54.3224 4.98535H26.009V9.73834H54.3224V4.98535Z" fill="#D3DFFF"/>
<path d="M72.3181 16.9824H8.01312V31.2438H72.3181V16.9824Z" fill="#DADADA"/>
<path d="M69.5041 18.9346H10.8272V29.2946H69.5041V18.9346Z" fill="white"/>
<path d="M55.5471 43.6185H51.178C49.8667 43.6185 48.8036 42.5555 48.8036 41.2441V40.2338C48.8036 38.9225 49.8666 37.8594 51.178 37.8594H55.5471C56.8584 37.8594 57.9215 38.9224 57.9215 40.2338V41.2441C57.9215 42.5555 56.8585 43.6185 55.5471 43.6185Z" fill="#1F3C88"/>
<path d="M69.9437 43.6185H65.5747C64.2634 43.6185 63.2003 42.5555 63.2003 41.2441V40.2338C63.2003 38.9225 64.2633 37.8594 65.5747 37.8594H69.9437C71.255 37.8594 72.3182 38.9224 72.3182 40.2338V41.2441C72.3181 42.5555 71.255 43.6185 69.9437 43.6185Z" fill="#1F3C88"/>
<path d="M71.1857 58.0949H62.4104C61.7859 58.0949 61.2797 57.5887 61.2797 56.9642V51.7069C61.2797 51.0824 61.7859 50.5762 62.4104 50.5762H71.1857C71.8101 50.5762 72.3164 51.0824 72.3164 51.7069V56.9642C72.3164 57.5887 71.8101 58.0949 71.1857 58.0949Z" fill="#1F3C88"/>
<path d="M53.577 58.0949H44.8017C44.1773 58.0949 43.671 57.5887 43.671 56.9642V51.7069C43.671 51.0824 44.1773 50.5762 44.8017 50.5762H53.577C54.2015 50.5762 54.7077 51.0824 54.7077 51.7069V56.9642C54.7078 57.5887 54.2016 58.0949 53.577 58.0949Z" fill="#1F3C88"/>
<path d="M35.9685 58.0949H27.1932C26.5687 58.0949 26.0624 57.5887 26.0624 56.9642V51.7069C26.0624 51.0824 26.5687 50.5762 27.1932 50.5762H35.9685C36.5929 50.5762 37.0992 51.0824 37.0992 51.7069V56.9642C37.0992 57.5887 36.5929 58.0949 35.9685 58.0949Z" fill="#1F3C88"/>
<path d="M18.3599 58.0949H9.58457C8.96011 58.0949 8.45386 57.5887 8.45386 56.9642V51.7069C8.45386 51.0824 8.96011 50.5762 9.58457 50.5762H18.3599C18.9843 50.5762 19.4906 51.0824 19.4906 51.7069V56.9642C19.4906 57.5887 18.9843 58.0949 18.3599 58.0949Z" fill="#1F3C88"/>
<path d="M71.1857 71.6946H62.4104C61.7859 71.6946 61.2797 71.1883 61.2797 70.5638V65.3065C61.2797 64.682 61.7859 64.1758 62.4104 64.1758H71.1857C71.8101 64.1758 72.3164 64.682 72.3164 65.3065V70.5638C72.3164 71.1884 71.8101 71.6946 71.1857 71.6946Z" fill="#1F3C88"/>
<path d="M53.577 71.6946H44.8017C44.1773 71.6946 43.671 71.1883 43.671 70.5638V65.3065C43.671 64.682 44.1773 64.1758 44.8017 64.1758H53.577C54.2015 64.1758 54.7077 64.682 54.7077 65.3065V70.5638C54.7078 71.1884 54.2016 71.6946 53.577 71.6946Z" fill="#D3DFFF"/>
<path d="M35.9685 71.6946H27.1932C26.5687 71.6946 26.0624 71.1883 26.0624 70.5638V65.3065C26.0624 64.682 26.5687 64.1758 27.1932 64.1758H35.9685C36.5929 64.1758 37.0992 64.682 37.0992 65.3065V70.5638C37.0992 71.1884 36.5929 71.6946 35.9685 71.6946Z" fill="#D3DFFF"/>
<path d="M18.3599 71.6946H9.58457C8.96011 71.6946 8.45386 71.1883 8.45386 70.5638V65.3065C8.45386 64.682 8.96011 64.1758 9.58457 64.1758H18.3599C18.9843 64.1758 19.4906 64.682 19.4906 65.3065V70.5638C19.4906 71.1884 18.9843 71.6946 18.3599 71.6946Z" fill="#D3DFFF"/>
<path d="M71.1857 85.2922H62.4104C61.7859 85.2922 61.2797 84.786 61.2797 84.1615V78.9042C61.2797 78.2797 61.7859 77.7734 62.4104 77.7734H71.1857C71.8101 77.7734 72.3164 78.2797 72.3164 78.9042V84.1615C72.3164 84.786 71.8101 85.2922 71.1857 85.2922Z" fill="#1F3C88"/>
<path d="M53.577 85.2922H44.8017C44.1773 85.2922 43.671 84.786 43.671 84.1615V78.9042C43.671 78.2797 44.1773 77.7734 44.8017 77.7734H53.577C54.2015 77.7734 54.7077 78.2797 54.7077 78.9042V84.1615C54.7078 84.786 54.2016 85.2922 53.577 85.2922Z" fill="#D3DFFF"/>
<path d="M35.9685 85.2922H27.1932C26.5687 85.2922 26.0624 84.786 26.0624 84.1615V78.9042C26.0624 78.2797 26.5687 77.7734 27.1932 77.7734H35.9685C36.5929 77.7734 37.0992 78.2797 37.0992 78.9042V84.1615C37.0992 84.786 36.5929 85.2922 35.9685 85.2922Z" fill="#D3DFFF"/>
<path d="M18.3599 85.2922H9.58457C8.96011 85.2922 8.45386 84.786 8.45386 84.1615V78.9042C8.45386 78.2797 8.96011 77.7734 9.58457 77.7734H18.3599C18.9843 77.7734 19.4906 78.2797 19.4906 78.9042V84.1615C19.4906 84.786 18.9843 85.2922 18.3599 85.2922Z" fill="#D3DFFF"/>
<path d="M71.1857 99.3684H62.4104C61.7859 99.3684 61.2797 98.8621 61.2797 98.2377V92.9803C61.2797 92.3559 61.7859 91.8496 62.4104 91.8496H71.1857C71.8101 91.8496 72.3164 92.3559 72.3164 92.9803V98.2377C72.3164 98.8621 71.8101 99.3684 71.1857 99.3684Z" fill="#FBC343"/>
<path d="M53.577 99.3684H44.8017C44.1773 99.3684 43.671 98.8621 43.671 98.2377V92.9803C43.671 92.3559 44.1773 91.8496 44.8017 91.8496H53.577C54.2015 91.8496 54.7077 92.3559 54.7077 92.9803V98.2377C54.7078 98.8621 54.2016 99.3684 53.577 99.3684Z" fill="#D3DFFF"/>
<path d="M35.9685 99.3684H27.1932C26.5687 99.3684 26.0624 98.8621 26.0624 98.2377V92.9803C26.0624 92.3559 26.5687 91.8496 27.1932 91.8496H35.9685C36.5929 91.8496 37.0992 92.3559 37.0992 92.9803V98.2377C37.0992 98.8621 36.5929 99.3684 35.9685 99.3684Z" fill="#D3DFFF"/>
<path d="M18.3599 99.3684H9.58457C8.96011 99.3684 8.45386 98.8621 8.45386 98.2377V92.9803C8.45386 92.3559 8.96011 91.8496 9.58457 91.8496H18.3599C18.9843 91.8496 19.4906 92.3559 19.4906 92.9803V98.2377C19.4906 98.8621 18.9843 99.3684 18.3599 99.3684Z" fill="#D3DFFF"/>
<path d="M56.7277 26.4617C56.897 26.4795 57.0938 26.4617 57.3611 26.4348C57.8157 26.3727 58.2442 26.1853 58.574 25.873C58.9575 25.525 59.2342 25.0166 59.3409 24.3298H59.3148C58.9931 24.722 58.5297 24.9541 57.9501 24.9541C56.9063 24.9541 56.2374 24.1692 56.2374 23.1788C56.2374 22.0817 57.0312 21.1182 58.2174 21.1182C59.4035 21.1182 60.1348 22.0817 60.1348 23.5624C60.1348 24.8382 59.707 25.7302 59.1362 26.2833C58.6903 26.7202 58.0743 26.9879 57.4504 27.0595C57.165 27.1041 56.9151 27.1129 56.7277 27.1041V26.4617ZM57.0132 23.1255C57.0132 23.8478 57.4504 24.3564 58.128 24.3564C58.6546 24.3564 59.065 24.0977 59.2698 23.7499C59.3148 23.6787 59.341 23.5893 59.341 23.4644C59.341 22.4744 58.9757 21.716 58.155 21.716C57.4861 21.716 57.0132 22.3048 57.0132 23.1255Z" fill="#3A6BEA"/>
<path d="M61.3063 26.4617C61.4756 26.4795 61.6724 26.4617 61.9397 26.4348C62.3943 26.3727 62.8228 26.1853 63.1526 25.873C63.5361 25.525 63.8128 25.0166 63.9195 24.3298H63.8934C63.5717 24.722 63.1083 24.9541 62.5287 24.9541C61.4849 24.9541 60.816 24.1692 60.816 23.1788C60.816 22.0817 61.6099 21.1182 62.796 21.1182C63.982 21.1182 64.7135 22.0817 64.7135 23.5624C64.7135 24.8382 64.2857 25.7302 63.7148 26.2833C63.2689 26.7202 62.6529 26.9879 62.029 27.0595C61.7436 27.1041 61.4937 27.1129 61.3063 27.1041V26.4617ZM61.5918 23.1255C61.5918 23.8478 62.029 24.3564 62.7066 24.3564C63.2332 24.3564 63.6436 24.0977 63.8484 23.7499C63.8934 23.6787 63.9196 23.5893 63.9196 23.4644C63.9196 22.4744 63.5543 21.716 62.7336 21.716C62.0646 21.716 61.5918 22.3048 61.5918 23.1255Z" fill="#3A6BEA"/>
<path d="M145.268 81.377H101.44V113.527H145.268V81.377Z" fill="#E7E7E7"/>
<path d="M145.269 88.6553H133.592V89.1348H145.269V88.6553Z" fill="#E49B31"/>
<path d="M145.269 106.252H124.954V106.732H145.269V106.252Z" fill="#E49B31"/>
<path d="M123.289 93.0267C123.289 96.7269 122.732 100.446 121.6 104.06C119.877 109.55 114.795 113.284 109.046 113.284H101.44V81.3789H121.403C122.651 85.1319 123.289 89.0673 123.289 93.0267Z" fill="#E49B31"/>
<path d="M83.204 107.922V111.349C83.204 112.553 82.2299 113.528 81.0253 113.528H44.8945C43.69 113.528 42.7158 112.553 42.7158 111.349V107.922C42.7158 106.717 43.69 105.743 44.8945 105.743H81.0253C82.2299 105.743 83.204 106.717 83.204 107.922Z" fill="#FBC343"/>
<path d="M78.7267 100.133V103.564C78.7267 104.769 77.7477 105.743 76.5479 105.743H40.4172C39.2126 105.743 38.2385 104.769 38.2385 103.564V100.133C38.2385 98.9331 39.2127 97.9541 40.4172 97.9541H76.5479C77.7476 97.9541 78.7267 98.9331 78.7267 100.133Z" fill="#FBC343"/>
<path d="M83.204 107.922V111.349C83.204 112.553 82.2298 113.528 81.0253 113.528H55.1161C53.3261 111.32 52.232 108.474 51.5745 105.743C50.8163 102.614 50.6195 99.6434 50.5764 97.9541H76.5478C77.7476 97.9541 78.7266 98.9331 78.7266 100.133V103.564C78.7266 104.769 77.7476 105.743 76.5478 105.743H81.0252C82.2298 105.743 83.204 106.717 83.204 107.922Z" fill="#E49B31"/>
<path d="M102.193 44.084L99.2754 53.0442L99.0594 53.7065L97.7061 57.8674L97.6965 57.8963L93.3342 57.8003L76.5958 57.4211L75.3721 53.9177L75.1657 53.3321L71.9265 44.084C81.9755 47.5635 90.2583 39.9568 102.193 44.084Z" fill="#FBC343"/>
<path d="M99.0595 53.7069L97.7061 57.8678L93.3344 57.8006L76.5959 57.4215L75.3723 53.918C81.1261 53.8172 91.0261 53.6829 99.0595 53.7069Z" fill="#E49B31"/>
<path d="M117.761 104.305C116.902 107.05 115.198 109.354 112.995 110.976C110.788 112.598 108.081 113.529 105.207 113.529H67.2956C61.8153 113.529 57.0068 109.867 55.548 104.578C54.7082 101.521 54.2571 98.4209 54.1851 95.335C54.1803 95.0375 54.1755 94.7399 54.1755 94.4424C54.1755 94.0907 54.1804 93.7393 54.1901 93.3882C54.4995 82.2039 59.9644 71.7869 68.7359 64.8419L77.8051 57.6611L98.5603 58.1411L109.969 69.0586C111.574 70.5943 113.004 72.3107 114.151 74.2127C115.526 76.4923 116.639 78.8983 117.482 81.3837C119.973 88.7073 120.136 96.7316 117.761 104.305Z" fill="#FBC343"/>
<path d="M84.0023 103.504V99.4937C81.1716 99.3664 78.4268 98.6063 76.8206 97.6775L78.0898 92.7345C79.8646 93.7045 82.3548 94.592 85.103 94.592C87.5107 94.592 89.1583 93.6632 89.1583 91.9742C89.1583 90.3678 87.8065 89.3531 84.68 88.2971C80.1604 86.7766 77.0751 84.6646 77.0751 80.5678C77.0751 76.8494 79.696 73.9359 84.2156 73.0484V69.0342H88.3534V72.7526C91.1841 72.8799 93.0862 73.4715 94.4792 74.1457L93.2547 78.9202C92.1575 78.4559 90.2141 77.4824 87.1701 77.4824C84.4254 77.4824 83.538 78.6657 83.538 79.8489C83.538 81.2421 85.017 82.1295 88.6079 83.4814C93.6331 85.2563 95.6624 87.5782 95.6624 91.3826C95.6624 95.1423 93.0003 98.3517 88.1436 99.1978V103.504L84.0023 103.504Z" fill="white"/>
<path d="M101.995 61.5363H72.6353C71.4209 61.5363 70.4272 60.5427 70.4272 59.3282V58.3888C70.4272 57.1743 71.4209 56.1807 72.6353 56.1807H101.995C103.209 56.1807 104.203 57.1743 104.203 58.3888V59.3282C104.203 60.5427 103.209 61.5363 101.995 61.5363Z" fill="#ED7545"/>
<path opacity="0.4" d="M117.761 104.305C116.902 107.05 115.198 109.354 112.995 110.976C110.788 112.598 108.081 113.529 105.207 113.529H67.2956C61.8153 113.529 57.0068 109.867 55.548 104.578C54.7082 101.521 54.2571 98.4211 54.1851 95.3352C60.4572 101.315 67.8475 109.133 85.1235 109.373C106.576 109.671 115.822 99.6161 117.482 81.3838C119.973 88.7074 120.136 96.7317 117.761 104.305Z" fill="#E49B31"/>
</svg>
