<svg width="13" height="16" viewBox="0 0 13 16" fill="none" xmlns="http://www.w3.org/2000/svg">
<path d="M6.58992 11.2639C6.58992 11.2692 6.58992 11.2744 6.58992 11.2797C7.18691 11.2797 7.78127 11.2823 8.37826 11.2771C8.47557 11.2771 8.53869 11.306 8.59128 11.3902C8.94895 11.9477 9.30925 12.5 9.66955 13.0549C10.1508 13.7965 10.6347 14.5408 11.116 15.2824C11.3895 15.7032 11.8813 15.8768 12.3442 15.7137C12.9622 15.4981 13.1963 14.7354 12.8149 14.1516C11.8497 12.6788 10.8767 11.2087 9.90624 9.73858C9.69059 9.41247 9.38815 9.25467 8.99892 9.25204C8.05215 9.24152 7.10538 9.22837 6.15861 9.22311C6.03501 9.22311 5.97715 9.1863 5.92981 9.06795C5.36438 7.60572 4.79895 6.14348 4.22036 4.68651C4.1441 4.49716 4.02838 4.3078 3.88636 4.16053C3.43665 3.70029 2.71868 3.65032 2.17429 4.01851C1.64568 4.37355 1.45106 5.04418 1.69564 5.66221C2.3163 7.21386 2.94222 8.76814 3.56552 10.3198C3.83114 10.9799 4.27296 11.2718 4.98567 11.2666C5.51954 11.2613 6.05341 11.2639 6.58992 11.2639ZM5.36438 14.7433C5.36175 14.6854 5.35649 14.6407 5.35649 14.5987C5.35649 14.2647 5.36175 13.9333 5.35386 13.5993C5.35123 13.4652 5.38805 13.4283 5.52217 13.431C6.06657 13.4389 6.60833 13.4389 7.15272 13.431C7.68922 13.4231 8.06793 12.9471 7.96273 12.4316C7.88384 12.0398 7.51828 11.7478 7.09486 11.7478C5.87195 11.7452 4.64904 11.7452 3.42613 11.7505C3.31041 11.7505 3.26044 11.7189 3.221 11.6058C2.92119 10.7222 2.61348 9.84378 2.30841 8.96275C2.09276 8.34209 1.88237 7.7188 1.66146 7.1034C1.49577 6.64054 1.00398 6.40647 0.570041 6.56427C0.0677271 6.74573 -0.103218 7.25857 0.0650968 7.66094C0.143994 7.8503 0.204482 8.04754 0.27286 8.24216C0.798843 9.75173 1.32483 11.2587 1.85081 12.7682C2.01123 13.2285 2.30316 13.4362 2.78706 13.4362C3.14736 13.4362 3.50503 13.4389 3.86533 13.4336C3.97315 13.431 4.00997 13.4599 4.00734 13.573C3.99945 13.9201 4.00208 14.2647 4.00734 14.6118C4.00997 14.717 3.97315 14.7407 3.87321 14.7459C3.6786 14.7565 3.4761 14.7617 3.292 14.8196C2.90015 14.9458 2.62137 15.385 2.67923 15.7506C2.71605 15.7532 2.75287 15.7585 2.78969 15.7585C4.04679 15.7585 5.30389 15.7585 6.56362 15.7611C6.67407 15.7611 6.70826 15.7295 6.69511 15.6164C6.632 15.1299 6.23751 14.7643 5.74308 14.7433C5.61948 14.738 5.4985 14.7433 5.36438 14.7433ZM3.56815 1.78045C3.56289 0.791605 2.76865 0 1.78506 0C0.793583 0 -0.00328082 0.799494 0.00197901 1.79097C0.00460893 2.78245 0.806733 3.57668 1.79558 3.57143C2.77917 3.56617 3.57341 2.76141 3.56815 1.78045Z" fill="white"/>
<path d="M6.5903 11.2638C6.05643 11.2638 5.51993 11.2612 4.98605 11.2638C4.27072 11.2691 3.83152 10.9772 3.5659 10.3171C2.94261 8.76542 2.31932 7.21377 1.69603 5.65949C1.44882 5.04409 1.64606 4.37346 2.17468 4.01579C2.71907 3.64761 3.43703 3.69757 3.88675 4.15781C4.02877 4.30508 4.14448 4.49444 4.22075 4.68379C4.79933 6.14076 5.36476 7.603 5.93019 9.06523C5.9749 9.18358 6.03539 9.2204 6.159 9.2204C7.10577 9.22566 8.05254 9.24143 8.99931 9.24932C9.38853 9.25195 9.6936 9.41238 9.90663 9.73586C10.8771 11.206 11.8475 12.6761 12.8153 14.1489C13.1967 14.7327 12.9626 15.4954 12.3446 15.711C11.8817 15.8741 11.3925 15.7005 11.1164 15.2797C10.6325 14.5381 10.1512 13.7965 9.66994 13.0522C9.30964 12.4973 8.94671 11.945 8.59167 11.3874C8.53644 11.3007 8.47595 11.2717 8.37865 11.2744C7.78165 11.277 7.18729 11.277 6.5903 11.277C6.5903 11.2744 6.5903 11.2691 6.5903 11.2638Z" fill="#39B96F"/>
<path d="M5.36466 14.7435C5.49879 14.7435 5.61976 14.7382 5.74074 14.7435C6.23779 14.7645 6.63228 15.1301 6.69277 15.6166C6.70855 15.7297 6.67436 15.7612 6.56127 15.7612C5.30417 15.7586 4.04707 15.7586 2.78734 15.7586C2.75052 15.7586 2.71107 15.7534 2.67689 15.7507C2.62166 15.3825 2.8978 14.9433 3.28966 14.8197C3.47375 14.7619 3.67625 14.7566 3.87087 14.7461C3.9708 14.7408 4.00762 14.7145 4.00499 14.612C3.99973 14.2648 3.99973 13.9203 4.00499 13.5732C4.00762 13.4601 3.96817 13.4311 3.86298 13.4338C3.50268 13.439 3.14501 13.4364 2.78471 13.4364C2.29818 13.4364 2.00889 13.2286 1.84846 12.7684C1.32248 11.2588 0.796496 9.75189 0.270513 8.24232C0.202135 8.0477 0.144277 7.85046 0.0627496 7.6611C-0.105565 7.26136 0.0653798 6.74589 0.567694 6.56443C1.00426 6.40663 1.49342 6.64333 1.65911 7.10356C1.88265 7.72159 2.09042 8.34225 2.30607 8.96291C2.61114 9.84394 2.91884 10.725 3.21865 11.606C3.25547 11.7191 3.30807 11.7506 3.42378 11.7506C4.64669 11.7454 5.8696 11.748 7.09251 11.748C7.51593 11.748 7.87886 12.0399 7.96039 12.4318C8.06558 12.9472 7.68688 13.4232 7.15037 13.4311C6.60598 13.439 6.06422 13.439 5.51982 13.4311C5.3857 13.4285 5.34888 13.468 5.35151 13.5995C5.36203 13.9335 5.35414 14.2648 5.35414 14.5988C5.35677 14.6409 5.36203 14.683 5.36466 14.7435Z" fill="#39B96F"/>
<path d="M3.56813 1.78045C3.57339 2.76141 2.77915 3.56617 1.79556 3.57143C0.804083 3.57669 0.00458953 2.78245 0.00195962 1.79097C-0.0006703 0.799494 0.796194 0 1.78504 0C2.76863 0 3.56287 0.791605 3.56813 1.78045Z" fill="#39B96F"/>
</svg>
