<svg width="18" height="17" viewBox="0 0 18 17" fill="none" xmlns="http://www.w3.org/2000/svg">
<path d="M0 9.6V8H3.27273V9.6H0ZM4.37727 5.4L2.04545 3.14L3.21136 2.02L5.52273 4.28L4.37727 5.4ZM4.09091 13.8C3.80455 13.8 3.5625 13.7033 3.36477 13.51C3.16705 13.3167 3.06818 13.08 3.06818 12.8C3.06818 12.52 3.16705 12.2833 3.36477 12.09C3.5625 11.8967 3.80455 11.8 4.09091 11.8C4.37727 11.8 4.61932 11.8967 4.81705 12.09C5.01477 12.2833 5.11364 12.52 5.11364 12.8C5.11364 13.08 5.01477 13.3167 4.81705 13.51C4.61932 13.7033 4.37727 13.8 4.09091 13.8ZM4.90909 9.6V8.8C4.90909 7.69333 5.30795 6.75 6.10568 5.97C6.90341 5.19 7.86818 4.8 9 4.8C10.1318 4.8 11.0966 5.19 11.8943 5.97C12.692 6.75 13.0909 7.69333 13.0909 8.8V9.6H4.90909ZM6.54545 17C6.25909 17 6.01705 16.9033 5.81932 16.71C5.62159 16.5167 5.52273 16.28 5.52273 16C5.52273 15.72 5.62159 15.4833 5.81932 15.29C6.01705 15.0967 6.25909 15 6.54545 15C6.83182 15 7.07386 15.0967 7.27159 15.29C7.46932 15.4833 7.56818 15.72 7.56818 16C7.56818 16.28 7.46932 16.5167 7.27159 16.71C7.07386 16.9033 6.83182 17 6.54545 17ZM9 13.8C8.71364 13.8 8.47159 13.7033 8.27386 13.51C8.07614 13.3167 7.97727 13.08 7.97727 12.8C7.97727 12.52 8.07614 12.2833 8.27386 12.09C8.47159 11.8967 8.71364 11.8 9 11.8C9.28636 11.8 9.52841 11.8967 9.72614 12.09C9.92386 12.2833 10.0227 12.52 10.0227 12.8C10.0227 13.08 9.92386 13.3167 9.72614 13.51C9.52841 13.7033 9.28636 13.8 9 13.8ZM8.18182 3.2V0H9.81818V3.2H8.18182ZM11.4545 17C11.1682 17 10.9261 16.9033 10.7284 16.71C10.5307 16.5167 10.4318 16.28 10.4318 16C10.4318 15.72 10.5307 15.4833 10.7284 15.29C10.9261 15.0967 11.1682 15 11.4545 15C11.7409 15 11.983 15.0967 12.1807 15.29C12.3784 15.4833 12.4773 15.72 12.4773 16C12.4773 16.28 12.3784 16.5167 12.1807 16.71C11.983 16.9033 11.7409 17 11.4545 17ZM13.6227 5.4L12.4568 4.28L14.7886 2.02L15.9341 3.14L13.6227 5.4ZM13.9091 13.8C13.6227 13.8 13.3807 13.7033 13.183 13.51C12.9852 13.3167 12.8864 13.08 12.8864 12.8C12.8864 12.52 12.9852 12.2833 13.183 12.09C13.3807 11.8967 13.6227 11.8 13.9091 11.8C14.1955 11.8 14.4375 11.8967 14.6352 12.09C14.833 12.2833 14.9318 12.52 14.9318 12.8C14.9318 13.08 14.833 13.3167 14.6352 13.51C14.4375 13.7033 14.1955 13.8 13.9091 13.8ZM14.7273 9.6V8H18V9.6H14.7273Z" fill="#5D5D5D"/>
</svg>
