<svg width="16" height="15" viewBox="0 0 16 15" fill="none" xmlns="http://www.w3.org/2000/svg">
<path fill-rule="evenodd" clip-rule="evenodd" d="M8.12878 1.5C7.06345 1.49981 6.0167 1.77486 5.093 2.29772C4.16931 2.82057 3.40099 3.57294 2.86472 4.47971C2.32846 5.38649 2.043 6.41596 2.03686 7.46537C2.03071 8.51478 2.30408 9.54743 2.82969 10.4602C3.18495 10.0054 3.64163 9.63718 4.16442 9.38398C4.68722 9.13077 5.26212 8.99939 5.84469 8.99999H10.4129C10.9954 8.99939 11.5703 9.13077 12.0931 9.38398C12.6159 9.63718 13.0726 10.0054 13.4279 10.4602C13.9535 9.54743 14.2268 8.51478 14.2207 7.46537C14.2145 6.41596 13.9291 5.38649 13.3928 4.47971C12.8566 3.57294 12.0882 2.82057 11.1645 2.29772C10.2409 1.77486 9.19411 1.49981 8.12878 1.5ZM14.1763 12.057C15.1942 10.7497 15.7449 9.14757 15.7424 7.49999C15.7424 3.35775 12.3338 0 8.12878 0C3.92377 0 0.515145 3.35775 0.515145 7.49999C0.512632 9.14758 1.06325 10.7497 2.08127 12.057L2.07746 12.0705L2.34775 12.3802C3.06182 13.2026 3.94842 13.8627 4.94645 14.315C5.94449 14.7672 7.0302 15.0009 8.12878 15C9.67231 15.0028 11.1799 14.5409 12.4495 13.6762C12.9908 13.3078 13.4816 12.8723 13.9098 12.3802L14.1801 12.0705L14.1763 12.057ZM8.12878 3C7.523 3 6.94203 3.23705 6.51368 3.65901C6.08533 4.08096 5.84469 4.65326 5.84469 5.25C5.84469 5.84673 6.08533 6.41903 6.51368 6.84098C6.94203 7.26294 7.523 7.49999 8.12878 7.49999C8.73455 7.49999 9.31552 7.26294 9.74387 6.84098C10.1722 6.41903 10.4129 5.84673 10.4129 5.25C10.4129 4.65326 10.1722 4.08096 9.74387 3.65901C9.31552 3.23705 8.73455 3 8.12878 3Z" fill="#39B96F"/>
</svg>
