<svg width="28" height="15" viewBox="0 0 28 15" fill="none" xmlns="http://www.w3.org/2000/svg">
<path fill-rule="evenodd" clip-rule="evenodd" d="M7.08547 7.07465C9.03905 7.07465 10.6282 5.48794 10.6282 3.53735C10.6282 1.58675 9.03905 0 7.08547 0C5.13191 0 3.54274 1.58675 3.54274 3.53735C3.54274 5.48794 5.13191 7.07465 7.08547 7.07465ZM24.2931 11.3195V8.28745H27.3297V6.26619H24.2931V3.23413H22.2686V6.26619H19.232V8.28745H22.2686V11.3195H24.2931ZM7.08547 8.8434C4.7169 8.8434 0 10.0259 0 12.3807V14.1494H14.171V12.3807C14.171 10.0259 9.45404 8.8434 7.08547 8.8434ZM7.08547 10.8647C5.27361 10.8647 3.21883 11.5419 2.36857 12.128H11.8024C10.9522 11.5419 8.89733 10.8647 7.08547 10.8647ZM8.60379 3.53735C8.60379 2.69849 7.92561 2.02134 7.08547 2.02134C6.24534 2.02134 5.56716 2.69849 5.56716 3.53735C5.56716 4.37619 6.24534 5.05339 7.08547 5.05339C7.92561 5.05339 8.60379 4.37619 8.60379 3.53735ZM12.1465 7.07465C14.1001 7.07465 15.6893 5.48794 15.6893 3.53735C15.6893 1.58675 14.1001 0 12.1465 0C11.9036 0 11.6607 0.0202175 11.4278 0.0707429C12.1972 1.02078 12.6527 2.22347 12.6527 3.53735C12.6527 4.85121 12.1769 6.04376 11.4077 6.99387C11.6506 7.04433 11.8935 7.07465 12.1465 7.07465ZM16.1953 12.3807C16.1953 11.0062 15.5071 9.93492 14.4948 9.11628C16.7622 9.59121 19.232 10.6727 19.232 12.3807V14.1494H16.1953V12.3807Z" fill="#5D5D5D"/>
</svg>
