<svg width="327" height="69" viewBox="0 0 327 69" fill="none" xmlns="http://www.w3.org/2000/svg">
<g filter="url(#filter0_d_1772_1063)">
<g filter="url(#filter1_d_1772_1063)">
<rect x="7.4707" y="4" width="312.059" height="55" rx="27.5" fill="white"/>
</g>
<rect x="271.68" y="11.2812" width="37.4471" height="38.4873" rx="18.7235" fill="#39B96F"/>
<path d="M34.068 35V26.48H37.668C38.036 26.48 38.372 26.556 38.676 26.708C38.98 26.86 39.244 27.068 39.468 27.332C39.7 27.588 39.876 27.876 39.996 28.196C40.124 28.508 40.188 28.828 40.188 29.156C40.188 29.564 40.108 29.948 39.948 30.308C39.796 30.668 39.576 30.972 39.288 31.22C39.008 31.468 38.676 31.632 38.292 31.712L40.38 35H39.432L37.428 31.856H34.908V35H34.068ZM34.908 31.112H37.692C38.028 31.112 38.32 31.02 38.568 30.836C38.816 30.652 39.008 30.412 39.144 30.116C39.28 29.812 39.348 29.492 39.348 29.156C39.348 28.812 39.268 28.496 39.108 28.208C38.956 27.912 38.748 27.676 38.484 27.5C38.228 27.316 37.94 27.224 37.62 27.224H34.908V31.112ZM44.2523 35.12C43.8043 35.12 43.3883 35.036 43.0043 34.868C42.6203 34.692 42.2883 34.456 42.0083 34.16C41.7283 33.856 41.5083 33.508 41.3483 33.116C41.1963 32.724 41.1203 32.304 41.1203 31.856C41.1203 31.272 41.2523 30.736 41.5163 30.248C41.7883 29.76 42.1603 29.372 42.6323 29.084C43.1043 28.788 43.6403 28.64 44.2403 28.64C44.8563 28.64 45.3923 28.788 45.8483 29.084C46.3123 29.38 46.6763 29.772 46.9403 30.26C47.2043 30.74 47.3363 31.268 47.3363 31.844C47.3363 31.908 47.3363 31.972 47.3363 32.036C47.3363 32.092 47.3323 32.136 47.3243 32.168H41.9723C42.0123 32.616 42.1363 33.016 42.3443 33.368C42.5603 33.712 42.8363 33.988 43.1723 34.196C43.5163 34.396 43.8883 34.496 44.2883 34.496C44.6963 34.496 45.0803 34.392 45.4403 34.184C45.8083 33.976 46.0643 33.704 46.2083 33.368L46.9163 33.56C46.7883 33.856 46.5923 34.124 46.3283 34.364C46.0643 34.604 45.7523 34.792 45.3923 34.928C45.0403 35.056 44.6603 35.12 44.2523 35.12ZM41.9483 31.58H46.5683C46.5363 31.124 46.4123 30.724 46.1963 30.38C45.9883 30.036 45.7123 29.768 45.3683 29.576C45.0323 29.376 44.6603 29.276 44.2523 29.276C43.8443 29.276 43.4723 29.376 43.1363 29.576C42.8003 29.768 42.5243 30.04 42.3083 30.392C42.1003 30.736 41.9803 31.132 41.9483 31.58ZM51.3073 35.12C50.8513 35.12 50.4313 35.036 50.0473 34.868C49.6713 34.692 49.3393 34.452 49.0513 34.148C48.7713 33.844 48.5513 33.496 48.3913 33.104C48.2393 32.712 48.1633 32.296 48.1633 31.856C48.1633 31.264 48.2953 30.724 48.5593 30.236C48.8233 29.748 49.1913 29.36 49.6633 29.072C50.1353 28.784 50.6793 28.64 51.2953 28.64C51.8793 28.64 52.3953 28.776 52.8433 29.048C53.2913 29.312 53.6233 29.672 53.8393 30.128L53.0473 30.38C52.8713 30.06 52.6233 29.812 52.3033 29.636C51.9913 29.452 51.6433 29.36 51.2593 29.36C50.8433 29.36 50.4633 29.468 50.1193 29.684C49.7753 29.9 49.4993 30.196 49.2913 30.572C49.0913 30.948 48.9913 31.376 48.9913 31.856C48.9913 32.328 49.0953 32.756 49.3033 33.14C49.5113 33.524 49.7873 33.832 50.1313 34.064C50.4753 34.288 50.8553 34.4 51.2713 34.4C51.5433 34.4 51.8033 34.352 52.0513 34.256C52.3073 34.16 52.5273 34.032 52.7113 33.872C52.9033 33.704 53.0313 33.524 53.0953 33.332L53.8993 33.572C53.7873 33.868 53.5993 34.136 53.3353 34.376C53.0793 34.608 52.7753 34.792 52.4233 34.928C52.0793 35.056 51.7073 35.12 51.3073 35.12ZM57.7867 35.12C57.3387 35.12 56.9227 35.036 56.5387 34.868C56.1627 34.692 55.8347 34.456 55.5547 34.16C55.2827 33.856 55.0707 33.512 54.9187 33.128C54.7667 32.736 54.6907 32.324 54.6907 31.892C54.6907 31.444 54.7667 31.028 54.9187 30.644C55.0707 30.252 55.2867 29.908 55.5667 29.612C55.8467 29.308 56.1747 29.072 56.5507 28.904C56.9347 28.728 57.3507 28.64 57.7987 28.64C58.2467 28.64 58.6587 28.728 59.0347 28.904C59.4107 29.072 59.7387 29.308 60.0187 29.612C60.2987 29.908 60.5147 30.252 60.6667 30.644C60.8187 31.028 60.8947 31.444 60.8947 31.892C60.8947 32.324 60.8187 32.736 60.6667 33.128C60.5147 33.512 60.2987 33.856 60.0187 34.16C59.7467 34.456 59.4187 34.692 59.0347 34.868C58.6587 35.036 58.2427 35.12 57.7867 35.12ZM55.5187 31.904C55.5187 32.368 55.6187 32.792 55.8187 33.176C56.0267 33.552 56.3027 33.852 56.6467 34.076C56.9907 34.292 57.3707 34.4 57.7867 34.4C58.2027 34.4 58.5827 34.288 58.9267 34.064C59.2707 33.84 59.5467 33.536 59.7547 33.152C59.9627 32.76 60.0667 32.336 60.0667 31.88C60.0667 31.416 59.9627 30.992 59.7547 30.608C59.5467 30.224 59.2707 29.92 58.9267 29.696C58.5827 29.472 58.2027 29.36 57.7867 29.36C57.3707 29.36 56.9907 29.476 56.6467 29.708C56.3107 29.94 56.0387 30.248 55.8307 30.632C55.6227 31.008 55.5187 31.432 55.5187 31.904ZM71.5594 35H70.7434V31.508C70.7434 30.78 70.6274 30.244 70.3954 29.9C70.1634 29.556 69.8194 29.384 69.3634 29.384C68.8914 29.384 68.4674 29.552 68.0914 29.888C67.7234 30.224 67.4634 30.656 67.3114 31.184V35H66.4954V31.508C66.4954 30.772 66.3834 30.236 66.1594 29.9C65.9354 29.556 65.5914 29.384 65.1274 29.384C64.6634 29.384 64.2434 29.548 63.8674 29.876C63.4914 30.204 63.2274 30.636 63.0754 31.172V35H62.2594V28.748H63.0034V30.164C63.2674 29.676 63.6034 29.3 64.0114 29.036C64.4274 28.772 64.8874 28.64 65.3914 28.64C65.9114 28.64 66.3314 28.788 66.6514 29.084C66.9714 29.38 67.1674 29.768 67.2394 30.248C67.5274 29.72 67.8714 29.32 68.2714 29.048C68.6794 28.776 69.1394 28.64 69.6514 28.64C70.0034 28.64 70.2994 28.704 70.5394 28.832C70.7874 28.96 70.9834 29.144 71.1274 29.384C71.2794 29.616 71.3874 29.9 71.4514 30.236C71.5234 30.564 71.5594 30.932 71.5594 31.34V35ZM82.5867 35H81.7707V31.508C81.7707 30.78 81.6547 30.244 81.4227 29.9C81.1907 29.556 80.8467 29.384 80.3907 29.384C79.9187 29.384 79.4947 29.552 79.1187 29.888C78.7507 30.224 78.4907 30.656 78.3387 31.184V35H77.5227V31.508C77.5227 30.772 77.4107 30.236 77.1867 29.9C76.9627 29.556 76.6187 29.384 76.1547 29.384C75.6907 29.384 75.2707 29.548 74.8947 29.876C74.5187 30.204 74.2547 30.636 74.1027 31.172V35H73.2867V28.748H74.0307V30.164C74.2947 29.676 74.6307 29.3 75.0387 29.036C75.4547 28.772 75.9147 28.64 76.4187 28.64C76.9387 28.64 77.3587 28.788 77.6787 29.084C77.9987 29.38 78.1947 29.768 78.2667 30.248C78.5547 29.72 78.8987 29.32 79.2987 29.048C79.7067 28.776 80.1667 28.64 80.6787 28.64C81.0307 28.64 81.3267 28.704 81.5667 28.832C81.8147 28.96 82.0107 29.144 82.1547 29.384C82.3067 29.616 82.4147 29.9 82.4787 30.236C82.5507 30.564 82.5867 30.932 82.5867 31.34V35ZM87.0141 35.12C86.5661 35.12 86.1501 35.036 85.7661 34.868C85.3821 34.692 85.0501 34.456 84.7701 34.16C84.4901 33.856 84.2701 33.508 84.1101 33.116C83.9581 32.724 83.8821 32.304 83.8821 31.856C83.8821 31.272 84.0141 30.736 84.2781 30.248C84.5501 29.76 84.9221 29.372 85.3941 29.084C85.8661 28.788 86.4021 28.64 87.0021 28.64C87.6181 28.64 88.1541 28.788 88.6101 29.084C89.0741 29.38 89.4381 29.772 89.7021 30.26C89.9661 30.74 90.0981 31.268 90.0981 31.844C90.0981 31.908 90.0981 31.972 90.0981 32.036C90.0981 32.092 90.0941 32.136 90.0861 32.168H84.7341C84.7741 32.616 84.8981 33.016 85.1061 33.368C85.3221 33.712 85.5981 33.988 85.9341 34.196C86.2781 34.396 86.6501 34.496 87.0501 34.496C87.4581 34.496 87.8421 34.392 88.2021 34.184C88.5701 33.976 88.8261 33.704 88.9701 33.368L89.6781 33.56C89.5501 33.856 89.3541 34.124 89.0901 34.364C88.8261 34.604 88.5141 34.792 88.1541 34.928C87.8021 35.056 87.4221 35.12 87.0141 35.12ZM84.7101 31.58H89.3301C89.2981 31.124 89.1741 30.724 88.9581 30.38C88.7501 30.036 88.4741 29.768 88.1301 29.576C87.7941 29.376 87.4221 29.276 87.0141 29.276C86.6061 29.276 86.2341 29.376 85.8981 29.576C85.5621 29.768 85.2861 30.04 85.0701 30.392C84.8621 30.736 84.7421 31.132 84.7101 31.58ZM96.613 35H95.797V31.508C95.797 30.772 95.689 30.236 95.473 29.9C95.257 29.556 94.917 29.384 94.453 29.384C94.133 29.384 93.817 29.464 93.505 29.624C93.193 29.776 92.917 29.988 92.677 30.26C92.445 30.524 92.277 30.828 92.173 31.172V35H91.357V28.748H92.101V30.164C92.269 29.86 92.489 29.596 92.761 29.372C93.033 29.14 93.341 28.96 93.685 28.832C94.029 28.704 94.385 28.64 94.753 28.64C95.097 28.64 95.389 28.704 95.629 28.832C95.869 28.96 96.061 29.144 96.205 29.384C96.349 29.616 96.453 29.9 96.517 30.236C96.581 30.564 96.613 30.932 96.613 31.34V35ZM97.9331 31.892C97.9331 31.3 98.0531 30.76 98.2931 30.272C98.5411 29.776 98.8811 29.38 99.3131 29.084C99.7451 28.788 100.237 28.64 100.789 28.64C101.309 28.64 101.773 28.78 102.181 29.06C102.597 29.332 102.921 29.664 103.153 30.056V26.24H103.969V34.016C103.969 34.128 103.993 34.212 104.041 34.268C104.089 34.316 104.161 34.344 104.257 34.352V35C104.097 35.024 103.973 35.032 103.885 35.024C103.717 35.016 103.569 34.948 103.441 34.82C103.313 34.692 103.249 34.552 103.249 34.4V33.788C103.001 34.196 102.665 34.52 102.241 34.76C101.817 35 101.377 35.12 100.921 35.12C100.489 35.12 100.089 35.032 99.7211 34.856C99.3611 34.68 99.0451 34.44 98.7731 34.136C98.5091 33.832 98.3011 33.488 98.1491 33.104C98.0051 32.712 97.9331 32.308 97.9331 31.892ZM103.153 32.852V30.92C103.049 30.632 102.881 30.372 102.649 30.14C102.417 29.9 102.153 29.712 101.857 29.576C101.569 29.432 101.281 29.36 100.993 29.36C100.657 29.36 100.353 29.432 100.081 29.576C99.8091 29.712 99.5731 29.9 99.3731 30.14C99.1811 30.38 99.0331 30.652 98.9291 30.956C98.8251 31.26 98.7731 31.572 98.7731 31.892C98.7731 32.228 98.8291 32.548 98.9411 32.852C99.0611 33.156 99.2291 33.428 99.4451 33.668C99.6611 33.9 99.9091 34.08 100.189 34.208C100.469 34.336 100.773 34.4 101.101 34.4C101.309 34.4 101.525 34.36 101.749 34.28C101.973 34.2 102.185 34.092 102.385 33.956C102.593 33.812 102.765 33.644 102.901 33.452C103.037 33.26 103.121 33.06 103.153 32.852ZM105.314 33.2C105.314 32.808 105.426 32.472 105.65 32.192C105.874 31.904 106.182 31.684 106.574 31.532C106.974 31.372 107.434 31.292 107.954 31.292C108.258 31.292 108.574 31.316 108.902 31.364C109.23 31.412 109.522 31.484 109.778 31.58V31.052C109.778 30.524 109.622 30.104 109.31 29.792C108.998 29.48 108.566 29.324 108.014 29.324C107.678 29.324 107.346 29.388 107.018 29.516C106.698 29.636 106.362 29.816 106.01 30.056L105.698 29.48C106.106 29.2 106.506 28.992 106.898 28.856C107.29 28.712 107.69 28.64 108.098 28.64C108.866 28.64 109.474 28.86 109.922 29.3C110.37 29.74 110.594 30.348 110.594 31.124V34.016C110.594 34.128 110.618 34.212 110.666 34.268C110.714 34.316 110.79 34.344 110.894 34.352V35C110.806 35.008 110.73 35.016 110.666 35.024C110.602 35.032 110.554 35.032 110.522 35.024C110.322 35.016 110.17 34.952 110.066 34.832C109.962 34.712 109.906 34.584 109.898 34.448L109.886 33.992C109.606 34.352 109.242 34.632 108.794 34.832C108.346 35.024 107.89 35.12 107.426 35.12C107.026 35.12 106.662 35.036 106.334 34.868C106.014 34.692 105.762 34.46 105.578 34.172C105.402 33.876 105.314 33.552 105.314 33.2ZM109.502 33.68C109.59 33.568 109.658 33.46 109.706 33.356C109.754 33.252 109.778 33.16 109.778 33.08V32.168C109.506 32.064 109.222 31.984 108.926 31.928C108.638 31.872 108.346 31.844 108.05 31.844C107.466 31.844 106.994 31.96 106.634 32.192C106.274 32.424 106.094 32.74 106.094 33.14C106.094 33.372 106.154 33.592 106.274 33.8C106.394 34 106.57 34.168 106.802 34.304C107.034 34.432 107.306 34.496 107.618 34.496C108.01 34.496 108.374 34.42 108.71 34.268C109.054 34.116 109.318 33.92 109.502 33.68ZM115.31 34.7C115.246 34.724 115.146 34.768 115.01 34.832C114.874 34.896 114.71 34.952 114.518 35C114.326 35.048 114.118 35.072 113.894 35.072C113.662 35.072 113.442 35.028 113.234 34.94C113.034 34.852 112.874 34.72 112.754 34.544C112.634 34.36 112.574 34.136 112.574 33.872V29.396H111.71V28.748H112.574V26.636H113.39V28.748H114.83V29.396H113.39V33.644C113.406 33.868 113.486 34.036 113.63 34.148C113.782 34.26 113.954 34.316 114.146 34.316C114.37 34.316 114.574 34.28 114.758 34.208C114.942 34.128 115.054 34.072 115.094 34.04L115.31 34.7ZM116.33 35V28.748H117.146V35H116.33ZM116.33 27.44V26.24H117.146V27.44H116.33ZM121.607 35.12C121.159 35.12 120.743 35.036 120.359 34.868C119.983 34.692 119.655 34.456 119.375 34.16C119.103 33.856 118.891 33.512 118.739 33.128C118.587 32.736 118.511 32.324 118.511 31.892C118.511 31.444 118.587 31.028 118.739 30.644C118.891 30.252 119.107 29.908 119.387 29.612C119.667 29.308 119.995 29.072 120.371 28.904C120.755 28.728 121.171 28.64 121.619 28.64C122.067 28.64 122.479 28.728 122.855 28.904C123.231 29.072 123.559 29.308 123.839 29.612C124.119 29.908 124.335 30.252 124.487 30.644C124.639 31.028 124.715 31.444 124.715 31.892C124.715 32.324 124.639 32.736 124.487 33.128C124.335 33.512 124.119 33.856 123.839 34.16C123.567 34.456 123.239 34.692 122.855 34.868C122.479 35.036 122.063 35.12 121.607 35.12ZM119.339 31.904C119.339 32.368 119.439 32.792 119.639 33.176C119.847 33.552 120.123 33.852 120.467 34.076C120.811 34.292 121.191 34.4 121.607 34.4C122.023 34.4 122.403 34.288 122.747 34.064C123.091 33.84 123.367 33.536 123.575 33.152C123.783 32.76 123.887 32.336 123.887 31.88C123.887 31.416 123.783 30.992 123.575 30.608C123.367 30.224 123.091 29.92 122.747 29.696C122.403 29.472 122.023 29.36 121.607 29.36C121.191 29.36 120.811 29.476 120.467 29.708C120.131 29.94 119.859 30.248 119.651 30.632C119.443 31.008 119.339 31.432 119.339 31.904ZM131.336 35H130.52V31.508C130.52 30.772 130.412 30.236 130.196 29.9C129.98 29.556 129.64 29.384 129.176 29.384C128.856 29.384 128.54 29.464 128.228 29.624C127.916 29.776 127.64 29.988 127.4 30.26C127.168 30.524 127 30.828 126.896 31.172V35H126.08V28.748H126.824V30.164C126.992 29.86 127.212 29.596 127.484 29.372C127.756 29.14 128.064 28.96 128.408 28.832C128.752 28.704 129.108 28.64 129.476 28.64C129.82 28.64 130.112 28.704 130.352 28.832C130.592 28.96 130.784 29.144 130.928 29.384C131.072 29.616 131.176 29.9 131.24 30.236C131.304 30.564 131.336 30.932 131.336 31.34V35ZM135.128 35.12C134.616 35.12 134.14 35.036 133.7 34.868C133.26 34.7 132.88 34.444 132.56 34.1L132.896 33.524C133.248 33.852 133.6 34.092 133.952 34.244C134.312 34.388 134.692 34.46 135.092 34.46C135.58 34.46 135.976 34.364 136.28 34.172C136.584 33.972 136.736 33.688 136.736 33.32C136.736 33.072 136.66 32.884 136.508 32.756C136.364 32.62 136.152 32.512 135.872 32.432C135.6 32.344 135.272 32.252 134.888 32.156C134.456 32.036 134.092 31.912 133.796 31.784C133.508 31.648 133.288 31.48 133.136 31.28C132.992 31.072 132.92 30.804 132.92 30.476C132.92 30.068 133.02 29.732 133.22 29.468C133.428 29.196 133.708 28.992 134.06 28.856C134.42 28.712 134.82 28.64 135.26 28.64C135.74 28.64 136.164 28.716 136.532 28.868C136.9 29.02 137.2 29.232 137.432 29.504L137.036 30.056C136.812 29.8 136.544 29.612 136.232 29.492C135.928 29.364 135.588 29.3 135.212 29.3C134.956 29.3 134.712 29.336 134.48 29.408C134.248 29.472 134.056 29.584 133.904 29.744C133.76 29.896 133.688 30.108 133.688 30.38C133.688 30.604 133.744 30.78 133.856 30.908C133.968 31.028 134.136 31.132 134.36 31.22C134.584 31.3 134.86 31.388 135.188 31.484C135.66 31.612 136.072 31.744 136.424 31.88C136.776 32.008 137.048 32.176 137.24 32.384C137.432 32.592 137.528 32.884 137.528 33.26C137.528 33.844 137.308 34.3 136.868 34.628C136.428 34.956 135.848 35.12 135.128 35.12ZM144.935 34.7C144.871 34.724 144.771 34.768 144.635 34.832C144.499 34.896 144.335 34.952 144.143 35C143.951 35.048 143.743 35.072 143.519 35.072C143.287 35.072 143.067 35.028 142.859 34.94C142.659 34.852 142.499 34.72 142.379 34.544C142.259 34.36 142.199 34.136 142.199 33.872V29.396H141.335V28.748H142.199V26.636H143.015V28.748H144.455V29.396H143.015V33.644C143.031 33.868 143.111 34.036 143.255 34.148C143.407 34.26 143.579 34.316 143.771 34.316C143.995 34.316 144.199 34.28 144.383 34.208C144.567 34.128 144.679 34.072 144.719 34.04L144.935 34.7ZM145.451 33.2C145.451 32.808 145.563 32.472 145.787 32.192C146.011 31.904 146.319 31.684 146.711 31.532C147.111 31.372 147.571 31.292 148.091 31.292C148.395 31.292 148.711 31.316 149.039 31.364C149.367 31.412 149.659 31.484 149.915 31.58V31.052C149.915 30.524 149.759 30.104 149.447 29.792C149.135 29.48 148.703 29.324 148.151 29.324C147.815 29.324 147.483 29.388 147.155 29.516C146.835 29.636 146.499 29.816 146.147 30.056L145.835 29.48C146.243 29.2 146.643 28.992 147.035 28.856C147.427 28.712 147.827 28.64 148.235 28.64C149.003 28.64 149.611 28.86 150.059 29.3C150.507 29.74 150.731 30.348 150.731 31.124V34.016C150.731 34.128 150.755 34.212 150.803 34.268C150.851 34.316 150.927 34.344 151.031 34.352V35C150.943 35.008 150.867 35.016 150.803 35.024C150.739 35.032 150.691 35.032 150.659 35.024C150.459 35.016 150.307 34.952 150.203 34.832C150.099 34.712 150.043 34.584 150.035 34.448L150.023 33.992C149.743 34.352 149.379 34.632 148.931 34.832C148.483 35.024 148.027 35.12 147.563 35.12C147.163 35.12 146.799 35.036 146.471 34.868C146.151 34.692 145.899 34.46 145.715 34.172C145.539 33.876 145.451 33.552 145.451 33.2ZM149.639 33.68C149.727 33.568 149.795 33.46 149.843 33.356C149.891 33.252 149.915 33.16 149.915 33.08V32.168C149.643 32.064 149.359 31.984 149.063 31.928C148.775 31.872 148.483 31.844 148.187 31.844C147.603 31.844 147.131 31.96 146.771 32.192C146.411 32.424 146.231 32.74 146.231 33.14C146.231 33.372 146.291 33.592 146.411 33.8C146.531 34 146.707 34.168 146.939 34.304C147.171 34.432 147.443 34.496 147.755 34.496C148.147 34.496 148.511 34.42 148.847 34.268C149.191 34.116 149.455 33.92 149.639 33.68ZM152.494 35V28.748H153.31V35H152.494ZM152.494 27.44V26.24H153.31V27.44H152.494ZM155.143 26.24H155.959V33.584C155.959 33.896 156.015 34.1 156.127 34.196C156.239 34.292 156.375 34.34 156.535 34.34C156.679 34.34 156.823 34.324 156.967 34.292C157.111 34.26 157.235 34.228 157.339 34.196L157.483 34.856C157.331 34.92 157.143 34.972 156.919 35.012C156.703 35.052 156.515 35.072 156.355 35.072C155.987 35.072 155.691 34.964 155.467 34.748C155.251 34.532 155.143 34.236 155.143 33.86V26.24ZM161.041 35.12C160.593 35.12 160.177 35.036 159.793 34.868C159.417 34.692 159.089 34.456 158.809 34.16C158.537 33.856 158.325 33.512 158.173 33.128C158.021 32.736 157.945 32.324 157.945 31.892C157.945 31.444 158.021 31.028 158.173 30.644C158.325 30.252 158.541 29.908 158.821 29.612C159.101 29.308 159.429 29.072 159.805 28.904C160.189 28.728 160.605 28.64 161.053 28.64C161.501 28.64 161.913 28.728 162.289 28.904C162.665 29.072 162.993 29.308 163.273 29.612C163.553 29.908 163.769 30.252 163.921 30.644C164.073 31.028 164.149 31.444 164.149 31.892C164.149 32.324 164.073 32.736 163.921 33.128C163.769 33.512 163.553 33.856 163.273 34.16C163.001 34.456 162.673 34.692 162.289 34.868C161.913 35.036 161.497 35.12 161.041 35.12ZM158.773 31.904C158.773 32.368 158.873 32.792 159.073 33.176C159.281 33.552 159.557 33.852 159.901 34.076C160.245 34.292 160.625 34.4 161.041 34.4C161.457 34.4 161.837 34.288 162.181 34.064C162.525 33.84 162.801 33.536 163.009 33.152C163.217 32.76 163.321 32.336 163.321 31.88C163.321 31.416 163.217 30.992 163.009 30.608C162.801 30.224 162.525 29.92 162.181 29.696C161.837 29.472 161.457 29.36 161.041 29.36C160.625 29.36 160.245 29.476 159.901 29.708C159.565 29.94 159.293 30.248 159.085 30.632C158.877 31.008 158.773 31.432 158.773 31.904ZM168.633 29.468C168.089 29.484 167.609 29.636 167.193 29.924C166.785 30.212 166.497 30.608 166.329 31.112V35H165.513V28.748H166.281V30.248C166.497 29.808 166.781 29.452 167.133 29.18C167.493 28.908 167.873 28.756 168.273 28.724C168.353 28.716 168.421 28.712 168.477 28.712C168.541 28.712 168.593 28.716 168.633 28.724V29.468ZM172.233 35.12C171.785 35.12 171.369 35.036 170.985 34.868C170.601 34.692 170.269 34.456 169.989 34.16C169.709 33.856 169.489 33.508 169.329 33.116C169.177 32.724 169.101 32.304 169.101 31.856C169.101 31.272 169.233 30.736 169.497 30.248C169.769 29.76 170.141 29.372 170.613 29.084C171.085 28.788 171.621 28.64 172.221 28.64C172.837 28.64 173.373 28.788 173.829 29.084C174.293 29.38 174.657 29.772 174.921 30.26C175.185 30.74 175.317 31.268 175.317 31.844C175.317 31.908 175.317 31.972 175.317 32.036C175.317 32.092 175.313 32.136 175.305 32.168H169.953C169.993 32.616 170.117 33.016 170.325 33.368C170.541 33.712 170.817 33.988 171.153 34.196C171.497 34.396 171.869 34.496 172.269 34.496C172.677 34.496 173.061 34.392 173.421 34.184C173.789 33.976 174.045 33.704 174.189 33.368L174.897 33.56C174.769 33.856 174.573 34.124 174.309 34.364C174.045 34.604 173.733 34.792 173.373 34.928C173.021 35.056 172.641 35.12 172.233 35.12ZM169.929 31.58H174.549C174.517 31.124 174.393 30.724 174.177 30.38C173.969 30.036 173.693 29.768 173.349 29.576C173.013 29.376 172.641 29.276 172.233 29.276C171.825 29.276 171.453 29.376 171.117 29.576C170.781 29.768 170.505 30.04 170.289 30.392C170.081 30.736 169.961 31.132 169.929 31.58ZM176.156 31.892C176.156 31.3 176.276 30.76 176.516 30.272C176.764 29.776 177.104 29.38 177.536 29.084C177.968 28.788 178.46 28.64 179.012 28.64C179.532 28.64 179.996 28.78 180.404 29.06C180.82 29.332 181.144 29.664 181.376 30.056V26.24H182.192V34.016C182.192 34.128 182.216 34.212 182.264 34.268C182.312 34.316 182.384 34.344 182.48 34.352V35C182.32 35.024 182.196 35.032 182.108 35.024C181.94 35.016 181.792 34.948 181.664 34.82C181.536 34.692 181.472 34.552 181.472 34.4V33.788C181.224 34.196 180.888 34.52 180.464 34.76C180.04 35 179.6 35.12 179.144 35.12C178.712 35.12 178.312 35.032 177.944 34.856C177.584 34.68 177.268 34.44 176.996 34.136C176.732 33.832 176.524 33.488 176.372 33.104C176.228 32.712 176.156 32.308 176.156 31.892ZM181.376 32.852V30.92C181.272 30.632 181.104 30.372 180.872 30.14C180.64 29.9 180.376 29.712 180.08 29.576C179.792 29.432 179.504 29.36 179.216 29.36C178.88 29.36 178.576 29.432 178.304 29.576C178.032 29.712 177.796 29.9 177.596 30.14C177.404 30.38 177.256 30.652 177.152 30.956C177.048 31.26 176.996 31.572 176.996 31.892C176.996 32.228 177.052 32.548 177.164 32.852C177.284 33.156 177.452 33.428 177.668 33.668C177.884 33.9 178.132 34.08 178.412 34.208C178.692 34.336 178.996 34.4 179.324 34.4C179.532 34.4 179.748 34.36 179.972 34.28C180.196 34.2 180.408 34.092 180.608 33.956C180.816 33.812 180.988 33.644 181.124 33.452C181.26 33.26 181.344 33.06 181.376 32.852ZM186.163 37.172C185.899 37.172 185.651 37.136 185.419 37.064C185.179 36.992 184.971 36.872 184.795 36.704L185.191 36.152C185.311 36.264 185.451 36.34 185.611 36.38C185.763 36.42 185.915 36.44 186.067 36.44C186.259 36.44 186.439 36.392 186.607 36.296C186.775 36.2 186.911 36.064 187.015 35.888C187.127 35.72 187.183 35.532 187.183 35.324V28.748H187.999V35.276C187.999 35.644 187.911 35.972 187.735 36.26C187.559 36.548 187.331 36.772 187.051 36.932C186.771 37.092 186.475 37.172 186.163 37.172ZM187.183 27.44V26.24H187.999V27.44H187.183ZM189.735 32.42V28.748H190.551V32.276C190.551 32.988 190.671 33.52 190.911 33.872C191.159 34.224 191.523 34.4 192.003 34.4C192.323 34.4 192.631 34.332 192.927 34.196C193.231 34.052 193.499 33.852 193.731 33.596C193.963 33.332 194.139 33.028 194.259 32.684V28.748H195.075V34.016C195.075 34.128 195.099 34.212 195.147 34.268C195.195 34.316 195.267 34.344 195.363 34.352V35C195.267 35.008 195.191 35.012 195.135 35.012C195.079 35.02 195.027 35.024 194.979 35.024C194.819 35.008 194.679 34.944 194.559 34.832C194.447 34.72 194.387 34.584 194.379 34.424L194.355 33.584C194.083 34.064 193.711 34.44 193.239 34.712C192.775 34.984 192.271 35.12 191.727 35.12C191.071 35.12 190.575 34.892 190.239 34.436C189.903 33.98 189.735 33.308 189.735 32.42ZM198.972 35.12C198.46 35.12 197.984 35.036 197.544 34.868C197.104 34.7 196.724 34.444 196.404 34.1L196.74 33.524C197.092 33.852 197.444 34.092 197.796 34.244C198.156 34.388 198.536 34.46 198.936 34.46C199.424 34.46 199.82 34.364 200.124 34.172C200.428 33.972 200.58 33.688 200.58 33.32C200.58 33.072 200.504 32.884 200.352 32.756C200.208 32.62 199.996 32.512 199.716 32.432C199.444 32.344 199.116 32.252 198.732 32.156C198.3 32.036 197.936 31.912 197.64 31.784C197.352 31.648 197.132 31.48 196.98 31.28C196.836 31.072 196.764 30.804 196.764 30.476C196.764 30.068 196.864 29.732 197.064 29.468C197.272 29.196 197.552 28.992 197.904 28.856C198.264 28.712 198.664 28.64 199.104 28.64C199.584 28.64 200.008 28.716 200.376 28.868C200.744 29.02 201.044 29.232 201.276 29.504L200.88 30.056C200.656 29.8 200.388 29.612 200.076 29.492C199.772 29.364 199.432 29.3 199.056 29.3C198.8 29.3 198.556 29.336 198.324 29.408C198.092 29.472 197.9 29.584 197.748 29.744C197.604 29.896 197.532 30.108 197.532 30.38C197.532 30.604 197.588 30.78 197.7 30.908C197.812 31.028 197.98 31.132 198.204 31.22C198.428 31.3 198.704 31.388 199.032 31.484C199.504 31.612 199.916 31.744 200.268 31.88C200.62 32.008 200.892 32.176 201.084 32.384C201.276 32.592 201.372 32.884 201.372 33.26C201.372 33.844 201.152 34.3 200.712 34.628C200.272 34.956 199.692 35.12 198.972 35.12ZM205.72 34.7C205.656 34.724 205.556 34.768 205.42 34.832C205.284 34.896 205.12 34.952 204.928 35C204.736 35.048 204.528 35.072 204.304 35.072C204.072 35.072 203.852 35.028 203.644 34.94C203.444 34.852 203.284 34.72 203.164 34.544C203.044 34.36 202.984 34.136 202.984 33.872V29.396H202.12V28.748H202.984V26.636H203.8V28.748H205.24V29.396H203.8V33.644C203.816 33.868 203.896 34.036 204.04 34.148C204.192 34.26 204.364 34.316 204.556 34.316C204.78 34.316 204.984 34.28 205.168 34.208C205.352 34.128 205.464 34.072 205.504 34.04L205.72 34.7ZM210.098 35V29.396H209.234V28.748H210.098V28.58C210.098 28.068 210.17 27.628 210.314 27.26C210.466 26.892 210.678 26.612 210.95 26.42C211.23 26.22 211.558 26.12 211.934 26.12C212.182 26.12 212.422 26.156 212.654 26.228C212.886 26.3 213.086 26.396 213.254 26.516L213.002 27.104C212.898 27.016 212.762 26.948 212.594 26.9C212.426 26.852 212.258 26.828 212.09 26.828C211.714 26.828 211.422 26.976 211.214 27.272C211.014 27.568 210.914 27.996 210.914 28.556V28.748H212.642V29.396H210.914V35H210.098ZM216.236 35.12C215.788 35.12 215.372 35.036 214.988 34.868C214.612 34.692 214.284 34.456 214.004 34.16C213.732 33.856 213.52 33.512 213.368 33.128C213.216 32.736 213.14 32.324 213.14 31.892C213.14 31.444 213.216 31.028 213.368 30.644C213.52 30.252 213.736 29.908 214.016 29.612C214.296 29.308 214.624 29.072 215 28.904C215.384 28.728 215.8 28.64 216.248 28.64C216.696 28.64 217.108 28.728 217.484 28.904C217.86 29.072 218.188 29.308 218.468 29.612C218.748 29.908 218.964 30.252 219.116 30.644C219.268 31.028 219.344 31.444 219.344 31.892C219.344 32.324 219.268 32.736 219.116 33.128C218.964 33.512 218.748 33.856 218.468 34.16C218.196 34.456 217.868 34.692 217.484 34.868C217.108 35.036 216.692 35.12 216.236 35.12ZM213.968 31.904C213.968 32.368 214.068 32.792 214.268 33.176C214.476 33.552 214.752 33.852 215.096 34.076C215.44 34.292 215.82 34.4 216.236 34.4C216.652 34.4 217.032 34.288 217.376 34.064C217.72 33.84 217.996 33.536 218.204 33.152C218.412 32.76 218.516 32.336 218.516 31.88C218.516 31.416 218.412 30.992 218.204 30.608C217.996 30.224 217.72 29.92 217.376 29.696C217.032 29.472 216.652 29.36 216.236 29.36C215.82 29.36 215.44 29.476 215.096 29.708C214.76 29.94 214.488 30.248 214.28 30.632C214.072 31.008 213.968 31.432 213.968 31.904ZM223.829 29.468C223.285 29.484 222.805 29.636 222.389 29.924C221.981 30.212 221.693 30.608 221.525 31.112V35H220.709V28.748H221.477V30.248C221.693 29.808 221.977 29.452 222.329 29.18C222.689 28.908 223.069 28.756 223.469 28.724C223.549 28.716 223.617 28.712 223.673 28.712C223.737 28.712 223.789 28.716 223.829 28.724V29.468ZM227.725 36.92C227.837 36.928 227.945 36.932 228.049 36.932C228.153 36.94 228.229 36.936 228.277 36.92C228.373 36.904 228.465 36.848 228.553 36.752C228.641 36.656 228.745 36.472 228.865 36.2C228.985 35.928 229.153 35.528 229.369 35L226.645 28.748H227.509L229.801 34.16L231.913 28.748H232.729L229.489 36.812C229.433 36.964 229.349 37.104 229.237 37.232C229.125 37.368 228.985 37.472 228.817 37.544C228.657 37.624 228.457 37.668 228.217 37.676C228.145 37.684 228.069 37.684 227.989 37.676C227.917 37.676 227.829 37.668 227.725 37.652V36.92ZM236.31 35.12C235.862 35.12 235.446 35.036 235.062 34.868C234.686 34.692 234.358 34.456 234.078 34.16C233.806 33.856 233.594 33.512 233.442 33.128C233.29 32.736 233.214 32.324 233.214 31.892C233.214 31.444 233.29 31.028 233.442 30.644C233.594 30.252 233.81 29.908 234.09 29.612C234.37 29.308 234.698 29.072 235.074 28.904C235.458 28.728 235.874 28.64 236.322 28.64C236.77 28.64 237.182 28.728 237.558 28.904C237.934 29.072 238.262 29.308 238.542 29.612C238.822 29.908 239.038 30.252 239.19 30.644C239.342 31.028 239.418 31.444 239.418 31.892C239.418 32.324 239.342 32.736 239.19 33.128C239.038 33.512 238.822 33.856 238.542 34.16C238.27 34.456 237.942 34.692 237.558 34.868C237.182 35.036 236.766 35.12 236.31 35.12ZM234.042 31.904C234.042 32.368 234.142 32.792 234.342 33.176C234.55 33.552 234.826 33.852 235.17 34.076C235.514 34.292 235.894 34.4 236.31 34.4C236.726 34.4 237.106 34.288 237.45 34.064C237.794 33.84 238.07 33.536 238.278 33.152C238.486 32.76 238.59 32.336 238.59 31.88C238.59 31.416 238.486 30.992 238.278 30.608C238.07 30.224 237.794 29.92 237.45 29.696C237.106 29.472 236.726 29.36 236.31 29.36C235.894 29.36 235.514 29.476 235.17 29.708C234.834 29.94 234.562 30.248 234.354 30.632C234.146 31.008 234.042 31.432 234.042 31.904ZM240.723 32.42V28.748H241.539V32.276C241.539 32.988 241.659 33.52 241.899 33.872C242.147 34.224 242.511 34.4 242.991 34.4C243.311 34.4 243.619 34.332 243.915 34.196C244.219 34.052 244.487 33.852 244.719 33.596C244.951 33.332 245.127 33.028 245.247 32.684V28.748H246.063V34.016C246.063 34.128 246.087 34.212 246.135 34.268C246.183 34.316 246.255 34.344 246.351 34.352V35C246.255 35.008 246.179 35.012 246.123 35.012C246.067 35.02 246.015 35.024 245.967 35.024C245.807 35.008 245.667 34.944 245.547 34.832C245.435 34.72 245.375 34.584 245.367 34.424L245.343 33.584C245.071 34.064 244.699 34.44 244.227 34.712C243.763 34.984 243.259 35.12 242.715 35.12C242.059 35.12 241.563 34.892 241.227 34.436C240.891 33.98 240.723 33.308 240.723 32.42Z" fill="#5B5B5B"/>
<path fill-rule="evenodd" clip-rule="evenodd" d="M289.62 21.2773C288.004 21.2779 286.424 21.7576 285.081 22.6558C283.737 23.554 282.69 24.8305 282.072 26.3237C281.454 27.817 281.293 29.46 281.608 31.045C281.924 32.63 282.702 34.0859 283.845 35.2284C284.988 36.371 286.444 37.1491 288.029 37.4642C289.615 37.7793 291.258 37.6173 292.751 36.9987C294.244 36.3801 295.52 35.3327 296.418 33.9889C297.315 32.6451 297.795 31.0653 297.795 29.4492C297.794 27.2817 296.932 25.2034 295.399 23.671C293.866 22.1387 291.788 21.2777 289.62 21.2773ZM289.62 22.57C290.981 22.57 292.311 22.9735 293.442 23.7294C294.573 24.4853 295.455 25.5596 295.976 26.8166C296.496 28.0736 296.633 29.4568 296.367 30.7912C296.102 32.1256 295.447 33.3514 294.484 34.3135C293.522 35.2755 292.297 35.9307 290.962 36.1961C289.628 36.4616 288.245 36.3253 286.988 35.8047C285.731 35.284 284.656 34.4023 283.9 33.271C283.145 32.1397 282.741 30.8097 282.741 29.4492C282.742 27.625 283.467 25.8757 284.757 24.5858C286.047 23.2959 287.796 22.5709 289.62 22.57Z" fill="white"/>
<path fill-rule="evenodd" clip-rule="evenodd" d="M299.631 38.2377C299.631 38.2381 299.63 38.2383 299.63 38.238L295.574 34.1822C295.515 34.1205 295.443 34.0712 295.364 34.0373C295.285 34.0035 295.201 33.9856 295.115 33.9849C295.029 33.9841 294.944 34.0005 294.864 34.033C294.785 34.0655 294.713 34.1135 294.652 34.1742C294.592 34.2349 294.544 34.307 294.511 34.3865C294.479 34.4659 294.462 34.551 294.463 34.6368C294.464 34.7227 294.481 34.8075 294.515 34.8863C294.549 34.9652 294.598 35.0365 294.66 35.0961L298.717 39.1507C298.776 39.2124 298.848 39.2617 298.927 39.2955C299.005 39.3294 299.09 39.3472 299.176 39.348C299.262 39.3487 299.347 39.3324 299.426 39.2999C299.506 39.2674 299.578 39.2194 299.639 39.1587C299.699 39.098 299.747 39.0259 299.78 38.9464C299.812 38.867 299.829 38.7819 299.828 38.6961C299.827 38.6102 299.809 38.5254 299.776 38.4466C299.742 38.368 299.693 38.2969 299.631 38.2374C299.631 38.2372 299.631 38.2374 299.631 38.2377Z" fill="white"/>
</g>
<defs>
<filter id="filter0_d_1772_1063" x="3.4707" y="4" width="320.059" height="63" filterUnits="userSpaceOnUse" color-interpolation-filters="sRGB">
<feFlood flood-opacity="0" result="BackgroundImageFix"/>
<feColorMatrix in="SourceAlpha" type="matrix" values="0 0 0 0 0 0 0 0 0 0 0 0 0 0 0 0 0 0 127 0" result="hardAlpha"/>
<feOffset dy="4"/>
<feGaussianBlur stdDeviation="2"/>
<feComposite in2="hardAlpha" operator="out"/>
<feColorMatrix type="matrix" values="0 0 0 0 0 0 0 0 0 0 0 0 0 0 0 0 0 0 0.25 0"/>
<feBlend mode="normal" in2="BackgroundImageFix" result="effect1_dropShadow_1772_1063"/>
<feBlend mode="normal" in="SourceGraphic" in2="effect1_dropShadow_1772_1063" result="shape"/>
</filter>
<filter id="filter1_d_1772_1063" x="0.470703" y="0" width="326.059" height="69" filterUnits="userSpaceOnUse" color-interpolation-filters="sRGB">
<feFlood flood-opacity="0" result="BackgroundImageFix"/>
<feColorMatrix in="SourceAlpha" type="matrix" values="0 0 0 0 0 0 0 0 0 0 0 0 0 0 0 0 0 0 127 0" result="hardAlpha"/>
<feOffset dy="3"/>
<feGaussianBlur stdDeviation="3.5"/>
<feComposite in2="hardAlpha" operator="out"/>
<feColorMatrix type="matrix" values="0 0 0 0 0 0 0 0 0 0 0 0 0 0 0 0 0 0 0.1 0"/>
<feBlend mode="normal" in2="BackgroundImageFix" result="effect1_dropShadow_1772_1063"/>
<feBlend mode="normal" in="SourceGraphic" in2="effect1_dropShadow_1772_1063" result="shape"/>
</filter>
</defs>
</svg>
