<svg width="9" height="9" viewBox="0 0 9 9" fill="none" xmlns="http://www.w3.org/2000/svg">
<path d="M2.92501 0C1.80664 0 0.900014 0.906624 0.900014 2.025V7.2H0.450014C0.268007 7.2 0.103919 7.30962 0.0342677 7.47778C-0.0353833 7.64595 0.00311423 7.83949 0.131814 7.96819L1.03181 8.86819C1.20755 9.04392 1.49247 9.04392 1.66821 8.86819L2.56821 7.96819C2.69691 7.83949 2.73541 7.64595 2.66576 7.47778C2.59611 7.30962 2.43202 7.2 2.25001 7.2H1.80001V2.025C1.80001 1.40368 2.30369 0.9 2.92501 0.9C3.54633 0.9 4.05 1.40368 4.05 2.025V6.975C4.05 8.09338 4.95661 9 6.075 9C7.19338 9 8.1 8.09338 8.1 6.975V2.62318C8.62434 2.43785 9 1.93779 9 1.35C9 0.604418 8.39561 0 7.65 0C6.90439 0 6.3 0.604418 6.3 1.35C6.3 1.9378 6.67566 2.43787 7.2 2.62318V6.975C7.2 7.59631 6.69631 8.1 6.075 8.1C5.45368 8.1 4.95 7.59631 4.95 6.975V2.025C4.95 0.906624 4.04339 0 2.92501 0Z" fill="#666666"/>
</svg>
