<svg width="16" height="15" viewBox="0 0 16 15" fill="none" xmlns="http://www.w3.org/2000/svg">
<path d="M0 8.47059V7.05882H2.90909V8.47059H0ZM3.89091 4.76471L1.81818 2.77059L2.85455 1.78235L4.90909 3.77647L3.89091 4.76471ZM3.63636 12.1765C3.38182 12.1765 3.16667 12.0912 2.99091 11.9206C2.81515 11.75 2.72727 11.5412 2.72727 11.2941C2.72727 11.0471 2.81515 10.8382 2.99091 10.6676C3.16667 10.4971 3.38182 10.4118 3.63636 10.4118C3.89091 10.4118 4.10606 10.4971 4.28182 10.6676C4.45758 10.8382 4.54545 11.0471 4.54545 11.2941C4.54545 11.5412 4.45758 11.75 4.28182 11.9206C4.10606 12.0912 3.89091 12.1765 3.63636 12.1765ZM4.36364 8.47059V7.76471C4.36364 6.78824 4.71818 5.95588 5.42727 5.26765C6.13636 4.57941 6.99394 4.23529 8 4.23529C9.00606 4.23529 9.86364 4.57941 10.5727 5.26765C11.2818 5.95588 11.6364 6.78824 11.6364 7.76471V8.47059H4.36364ZM5.81818 15C5.56364 15 5.34848 14.9147 5.17273 14.7441C4.99697 14.5735 4.90909 14.3647 4.90909 14.1176C4.90909 13.8706 4.99697 13.6618 5.17273 13.4912C5.34848 13.3206 5.56364 13.2353 5.81818 13.2353C6.07273 13.2353 6.28788 13.3206 6.46364 13.4912C6.63939 13.6618 6.72727 13.8706 6.72727 14.1176C6.72727 14.3647 6.63939 14.5735 6.46364 14.7441C6.28788 14.9147 6.07273 15 5.81818 15ZM8 12.1765C7.74545 12.1765 7.5303 12.0912 7.35455 11.9206C7.17879 11.75 7.09091 11.5412 7.09091 11.2941C7.09091 11.0471 7.17879 10.8382 7.35455 10.6676C7.5303 10.4971 7.74545 10.4118 8 10.4118C8.25455 10.4118 8.4697 10.4971 8.64545 10.6676C8.82121 10.8382 8.90909 11.0471 8.90909 11.2941C8.90909 11.5412 8.82121 11.75 8.64545 11.9206C8.4697 12.0912 8.25455 12.1765 8 12.1765ZM7.27273 2.82353V0H8.72727V2.82353H7.27273ZM10.1818 15C9.92727 15 9.71212 14.9147 9.53636 14.7441C9.36061 14.5735 9.27273 14.3647 9.27273 14.1176C9.27273 13.8706 9.36061 13.6618 9.53636 13.4912C9.71212 13.3206 9.92727 13.2353 10.1818 13.2353C10.4364 13.2353 10.6515 13.3206 10.8273 13.4912C11.003 13.6618 11.0909 13.8706 11.0909 14.1176C11.0909 14.3647 11.003 14.5735 10.8273 14.7441C10.6515 14.9147 10.4364 15 10.1818 15ZM12.1091 4.76471L11.0727 3.77647L13.1455 1.78235L14.1636 2.77059L12.1091 4.76471ZM12.3636 12.1765C12.1091 12.1765 11.8939 12.0912 11.7182 11.9206C11.5424 11.75 11.4545 11.5412 11.4545 11.2941C11.4545 11.0471 11.5424 10.8382 11.7182 10.6676C11.8939 10.4971 12.1091 10.4118 12.3636 10.4118C12.6182 10.4118 12.8333 10.4971 13.0091 10.6676C13.1848 10.8382 13.2727 11.0471 13.2727 11.2941C13.2727 11.5412 13.1848 11.75 13.0091 11.9206C12.8333 12.0912 12.6182 12.1765 12.3636 12.1765ZM13.0909 8.47059V7.05882H16V8.47059H13.0909Z" fill="#5D5D5D"/>
</svg>
