<svg width="41" height="41" viewBox="0 0 41 41" fill="none" xmlns="http://www.w3.org/2000/svg">
<rect x="0.5" y="0.5" width="40" height="40" rx="20" transform="matrix(2.52418e-08 1 1 -7.56953e-08 3.78477e-08 -1.26209e-08)" fill="black" fill-opacity="0.2" stroke="#E7E7E7"/>
<path fill-rule="evenodd" clip-rule="evenodd" d="M20.2693 16.3194C20.2693 15.0384 21.3124 14 22.5992 14C23.8861 14 24.9292 15.0384 24.9292 16.3194C24.9292 17.6004 23.8861 18.6389 22.5992 18.6389C21.9495 18.6389 21.3623 18.374 20.9401 17.9478L17.7146 20.1438C17.7444 20.2921 17.7601 20.4451 17.7601 20.6015C17.7601 20.9111 17.6989 21.2071 17.5879 21.4777L21.1246 23.8014C21.5261 23.4745 22.0397 23.2777 22.5992 23.2777C23.8861 23.2777 24.9292 24.3162 24.9292 25.5972C24.9292 26.8782 23.8861 27.9166 22.5992 27.9166C21.3124 27.9166 20.2693 26.8782 20.2693 25.5972C20.2693 25.2617 20.3411 24.9423 20.4701 24.654L16.962 22.3491C16.5528 22.7047 16.0167 22.9209 15.4301 22.9209C14.1433 22.9209 13.1001 21.8825 13.1001 20.6015C13.1001 19.3205 14.1433 18.282 15.4301 18.282C16.17 18.282 16.8287 18.6254 17.2552 19.1597L20.3812 17.0313C20.3085 16.8067 20.2693 16.5673 20.2693 16.3194Z" fill="white"/>
</svg>
