<svg width="9" height="15" viewBox="0 0 9 15" fill="none" xmlns="http://www.w3.org/2000/svg">
<path d="M2.2751 6.78581C3.50698 6.65989 4.97337 6.82302 6.21822 6.82042C7.29086 7.03763 8.1649 8.00427 8.24625 9.10633C8.37562 10.8687 8.14586 12.7881 8.24581 14.5669C8.22245 14.7603 8.07533 14.913 7.90139 14.9818L0.505397 15C0.261359 14.9896 0.0493404 14.7737 0.0402539 14.5336C0.141071 12.7656 -0.0882555 10.8583 0.0402539 9.10633C0.125494 7.94499 1.11333 6.9048 2.27467 6.78581H2.2751Z" fill="#39B96F"/>
<path d="M3.82628 0.0145653C6.31512 -0.219953 8.042 2.42379 6.79065 4.60975C5.55402 6.76974 2.34518 6.59191 1.34566 4.31162C0.515329 2.41644 1.76711 0.208411 3.82628 0.0145653Z" fill="#39B96F"/>
</svg>
