<svg width="12" height="20" viewBox="0 0 12 20" fill="none" xmlns="http://www.w3.org/2000/svg">
    <path
        d="M11.7312 13.9492C11.589 12.336 10.5709 10.0447 8.10871 9.93428C4.47889 9.94404 3.95274 12.7523 4.29396 13.9962C4.58022 15.0412 5.34011 15.8743 6.41986 15.7797C7.4996 15.6851 8.31321 14.7311 8.20332 13.6532C8.18442 12.5099 9.15428 12.5399 9.18357 13.8045C9.22326 15.4879 8.08613 16.9656 6.40888 17.1133C4.73158 17.2598 3.38027 15.9982 3.09949 14.3386C2.9298 13.3315 3.12269 11.4022 4.83538 9.89455C7.03635 7.95725 9.43385 10.2803 9.23912 7.13755C9.04259 3.96609 8.24543 3.89898 6.18973 2.66361C4.83045 1.84633 4.59791 0.549942 4.6742 0.0421207C4.67725 0.0177063 4.67725 -0.018935 4.62904 0.0116124C3.35582 0.811196 3.34547 2.27727 4.08947 3.41987C4.44654 3.96738 5.18444 4.24934 5.26015 5.11607C5.36331 6.29164 4.68701 6.65051 4.12974 7.13575C3.57309 7.621 2.91023 8.14163 1.91044 9.17008C0.313738 10.8132 -0.106191 12.8896 0.0213896 14.6493C0.162369 16.2619 0.944257 17.6651 2.09295 18.6289C3.24347 19.5933 4.76147 20.1188 6.37403 19.9772C7.98723 19.8356 9.38983 19.0537 10.3548 17.9044C11.3186 16.7544 11.8722 15.5618 11.7312 13.9492Z"
        fill="#39B96F" />
</svg>
