<svg width="12" height="12" viewBox="0 0 16 16" fill="none" xmlns="http://www.w3.org/2000/svg">
    <path
        d="M2.89432 8.73126C2.8314 8.73126 2.77477 8.73126 2.72444 8.73126C2.08265 8.73126 1.44087 8.73126 0.799084 8.73126C0.289432 8.73126 0 8.44182 0 7.92588C0 6.20816 0 4.48416 0 2.76644C0 1.96106 0.648076 1.31928 1.44716 1.31299C2.23995 1.31299 2.9069 1.94219 2.91319 2.73498C2.91949 4.6855 2.91319 6.64231 2.91319 8.59283C2.9069 8.63688 2.90061 8.67463 2.89432 8.73126Z"
        fill="#B0B0B0" />
    <path fill-rule="evenodd" clip-rule="evenodd"
        d="M11.9083 14.738L11.9087 14.7377L11.9087 14.7376C12.1738 14.5113 12.4403 14.2837 12.7098 14.0541L12.7302 14.0715L12.7302 14.0715C12.7635 14.0999 12.7873 14.1201 12.7979 14.1359L12.7979 14.136L12.7979 14.136L12.798 14.136C13.4334 14.6771 14.0689 15.2182 14.6981 15.7656C14.956 15.9858 15.2329 16.0739 15.5475 15.9292C15.8558 15.7844 15.9753 15.5202 15.9753 15.193V2.95506C15.9753 2.53349 15.9061 2.12451 15.7237 1.74699C15.1763 0.608141 14.2639 0.0229851 13.0055 0.0104011C11.6664 -0.00307958 10.3306 -0.000514477 8.99334 0.00205326C8.45813 0.00308095 7.92271 0.00410906 7.38677 0.00410906H2.99496C2.79361 0.00410906 2.59856 0.0355691 2.43497 0.186577C2.49789 0.211745 2.55451 0.236913 2.61114 0.262081L2.61114 0.262081C3.67449 0.765441 4.28481 1.59598 4.34773 2.7663C4.3771 3.30321 4.36731 3.84013 4.35752 4.37705C4.35263 4.64551 4.34773 4.91396 4.34773 5.18242V15.1615C4.34773 15.5013 4.46099 15.7781 4.78188 15.9229C5.10277 16.0676 5.38591 15.9669 5.63759 15.7404C5.81911 15.5775 6.00406 15.4215 6.18991 15.2647L6.18998 15.2647L6.19002 15.2646C6.25539 15.2095 6.32086 15.1543 6.38634 15.0986C6.60688 14.912 6.82742 14.7236 7.04894 14.5343C7.23822 14.3726 7.42823 14.2102 7.61957 14.0478L7.63845 14.0613C7.6745 14.0868 7.70596 14.1091 7.73283 14.1359C8.36832 14.6833 8.99752 15.2245 9.63301 15.7656C9.99166 16.0739 10.344 16.0739 10.7027 15.7656C11.105 15.424 11.505 15.0824 11.9083 14.738ZM12.2752 10.1303H10.1184C9.39731 10.1303 8.66994 10.1303 7.93623 10.1244C7.59468 10.1244 7.30373 9.90596 7.22783 9.60487C7.15193 9.29788 7.30373 8.97908 7.61366 8.84329C7.72751 8.79606 7.86666 8.76654 7.99316 8.76654H12.2752C12.7306 8.76654 13.0532 9.05583 13.0532 9.45137C13.0532 9.84692 12.7306 10.1303 12.2752 10.1303ZM10.1313 5.84851C9.92507 5.84851 9.71934 5.84755 9.51382 5.84659H9.51374C9.00075 5.84419 8.48914 5.84179 7.9743 5.8544C7.80351 5.86029 7.61374 5.92505 7.47458 6.01335C7.22155 6.17819 7.15197 6.4902 7.25318 6.76101C7.36072 7.0377 7.63272 7.20842 7.98695 7.20842H12.2694C12.3706 7.20842 12.4781 7.19076 12.573 7.16132C12.9146 7.04947 13.1044 6.73746 13.0411 6.4019C12.9842 6.08988 12.6805 5.8544 12.3263 5.84851C11.8374 5.84459 11.3512 5.8459 10.8642 5.8472C10.6203 5.84786 10.3762 5.84851 10.1313 5.84851ZM12.2427 4.2839H10.1332C9.88567 4.2839 9.63884 4.28457 9.39248 4.28523C8.90118 4.28655 8.41174 4.28786 7.92231 4.2839C7.61189 4.2839 7.39017 4.13531 7.26981 3.86784C7.15578 3.60632 7.20012 3.35074 7.40917 3.13677C7.56121 2.97629 7.76393 2.92279 7.99199 2.92279H10.4436C11.0834 2.92279 11.7233 2.92279 12.3631 2.92874C12.7179 2.92874 13.0093 3.19026 13.0473 3.51122C13.0916 3.8619 12.8826 4.17097 12.5278 4.26013C12.4391 4.2839 12.3378 4.2839 12.2427 4.2839Z"
        fill="#B0B0B0" />
</svg>
