<svg width="16" height="16" viewBox="0 0 16 16" fill="none" xmlns="http://www.w3.org/2000/svg">
<path d="M8 0C3.58853 0 0 3.58887 0 8C0 12.4111 3.58853 16 8 16C12.4115 16 16 12.4111 16 8C16 3.58887 12.4115 0 8 0ZM8 13.3333C5.79428 13.3333 4 11.5267 4 9.30631C4 7.03353 5.68947 2.66666 8 2.66666C10.3105 2.66666 12 7.03353 12 9.30631C12 11.5267 10.2057 13.3333 8 13.3333Z" fill="#666666"/>
<path d="M8.00034 11.3332C9.28901 11.3332 10.3337 10.2885 10.3337 8.99985C10.3337 7.71118 9.28901 6.6665 8.00034 6.6665C6.71167 6.6665 5.66699 7.71118 5.66699 8.99985C5.66699 10.2885 6.71167 11.3332 8.00034 11.3332Z" fill="#666666"/>
</svg>
