<svg width="13" height="15" viewBox="0 0 13 15" fill="none" xmlns="http://www.w3.org/2000/svg">
<path d="M1.21216 13.46V14.7137C1.21216 14.8718 1.34036 15 1.49868 15H3.19886C3.35689 15 3.4851 14.8718 3.4851 14.7137V13.8386H2.67703C2.1457 13.8386 1.64657 13.7008 1.21216 13.46Z" fill="#39B96F"/>
<path d="M9.24268 13.8386V14.7137C9.24268 14.8718 9.37088 15 9.52891 15H11.2291C11.3871 15 11.5153 14.8718 11.5153 14.7137V13.46C11.0809 13.7009 10.5815 13.8386 10.0507 13.8386H9.24268Z" fill="#39B96F"/>
<path d="M9.57781 0H3.14959C1.41006 0 0 1.41003 0 3.14956V10.808C0 12.284 1.20102 13.485 2.67697 13.485H10.0507C11.5266 13.485 12.7274 12.284 12.7274 10.808V3.14956C12.7274 1.41003 11.3173 0 9.57781 0ZM3.63647 1.41389H9.09116V2.3233H3.63647V1.41389ZM1.99476 4.35207C1.99476 3.95698 2.31559 3.63647 2.71095 3.63647H10.0167C10.4121 3.63647 10.7323 3.95701 10.7323 4.35207V7.37372C10.7323 7.76908 10.4121 8.08962 10.0167 8.08962H2.71095C2.31559 8.08962 1.99476 7.76908 1.99476 7.37372V4.35207ZM2.67697 11.5928C2.21572 11.5928 1.8418 11.2189 1.8418 10.7577C1.8418 10.2964 2.21572 9.92246 2.67697 9.92246C3.13795 9.92246 3.51184 10.2964 3.51184 10.7577C3.51184 11.2189 3.13795 11.5928 2.67697 11.5928ZM8.00823 12.6263H4.87687V11.2627H8.00823V12.6263ZM10.0507 11.5928C9.58944 11.5928 9.2155 11.2189 9.2155 10.7577C9.2155 10.2964 9.58941 9.92246 10.0507 9.92246C10.5117 9.92246 10.8856 10.2964 10.8856 10.7577C10.8856 11.2189 10.5117 11.5928 10.0507 11.5928Z" fill="#39B96F"/>
</svg>
