<svg width="12" height="15" viewBox="0 0 12 15" fill="none" xmlns="http://www.w3.org/2000/svg">
<path d="M1.19385 13.5266C1.19385 13.3358 1.19385 13.1624 1.19385 12.989C1.19385 12.2086 1.19385 11.4282 1.19385 10.6479C1.19385 9.29519 1.81917 8.18965 3.08014 7.34424C3.10081 7.33124 3.12148 7.31823 3.13698 7.30089C3.14732 7.29222 3.14732 7.28355 3.14215 7.29222C2.83724 7.02775 2.51167 6.78931 2.23777 6.51184C1.56594 5.8225 1.21969 5.02044 1.19902 4.13168C1.17835 3.17355 1.19385 2.21541 1.19385 1.25294C1.19385 1.18791 1.19385 1.12288 1.19385 1.03184C1.02331 1.03184 0.857939 1.03184 0.692567 1.03184C0.284303 1.04051 -0.00509978 0.819399 6.81177e-05 0.515918C0.00523602 0.216772 0.284303 0 0.677063 0C4.22224 0 7.77259 0 11.3178 0C11.7105 0 11.9948 0.221108 11.9948 0.520253C11.9948 0.819399 11.7157 1.04051 11.3229 1.04051C11.1576 1.04051 10.9922 1.04051 10.801 1.04051C10.801 1.11421 10.801 1.17057 10.801 1.22693C10.801 2.11136 10.7958 2.99146 10.801 3.87589C10.8061 5.25456 10.186 6.37744 8.88885 7.23586C8.86818 7.24886 8.85268 7.2662 8.82167 7.28788C8.98188 7.4006 9.14208 7.50899 9.29195 7.62605C10.2945 8.43244 10.7906 9.42525 10.801 10.5872C10.8061 11.5019 10.801 12.4167 10.801 13.3358C10.801 13.3922 10.801 13.4529 10.801 13.5309C10.9974 13.5309 11.1731 13.5309 11.3539 13.5309C11.7157 13.5353 11.9948 13.7564 11.9999 14.0468C12.0051 14.3416 11.726 14.5714 11.3488 14.5714C7.78292 14.5714 4.21707 14.5714 0.656391 14.5714C0.284303 14.5714 6.81179e-05 14.3373 0.00523602 14.0468C0.0104039 13.7564 0.284303 13.5396 0.646055 13.5353C0.816596 13.5266 0.992305 13.5266 1.19385 13.5266ZM2.43415 1.04918C2.43415 2.02465 2.43415 2.98712 2.43415 3.94525C2.43415 4.97275 2.91476 5.80082 3.88633 6.42946C4.615 6.90636 4.615 7.66073 3.88633 8.13763C2.91993 8.76627 2.43932 9.59867 2.43932 10.6218C2.43932 11.5323 2.43932 12.4427 2.43932 13.3532C2.43932 13.4052 2.44448 13.4572 2.44965 13.5266C2.61503 13.5266 2.77006 13.5179 2.91993 13.5266C3.04913 13.5353 3.13181 13.5006 3.20933 13.4095C3.42122 13.1581 3.6486 12.911 3.87082 12.6682C4.97676 11.4499 7.01291 11.4499 8.12917 12.6638C8.36173 12.9153 8.58912 13.1754 8.82167 13.4269C8.85268 13.4616 8.90436 13.5136 8.9457 13.5179C9.14725 13.5266 9.35396 13.5223 9.56585 13.5223C9.56585 13.4442 9.56585 13.3922 9.56585 13.3358C9.56585 12.4297 9.56585 11.5279 9.56585 10.6218C9.56068 9.59867 9.08523 8.76627 8.11884 8.13329C7.385 7.65639 7.385 6.90203 8.11367 6.42513C9.0904 5.79215 9.56585 4.95541 9.56585 3.92358C9.56585 3.02614 9.56585 2.12437 9.56585 1.22693C9.56585 1.17057 9.56585 1.10987 9.56585 1.04484C7.17311 1.04918 4.81138 1.04918 2.43415 1.04918Z" fill="#39B96F"/>
<path d="M5.97842 1.71436C6.63457 1.71436 7.28583 1.71436 7.94199 1.71436C8.28476 1.71436 8.54918 1.91142 8.55407 2.20273C8.56387 2.86674 8.59814 3.53504 8.52959 4.19049C8.42676 5.13725 7.79998 5.76699 6.77658 6.07972C6.61988 6.12685 6.57581 6.18682 6.58071 6.32391C6.5905 6.90225 6.5905 7.48058 6.58071 8.05892C6.57581 8.33309 6.35546 8.53872 6.05676 8.56871C5.77276 8.59442 5.50833 8.44019 5.42999 8.19172C5.4104 8.12746 5.4104 8.05464 5.4104 7.98609C5.4104 7.42061 5.4055 6.85084 5.4104 6.28535C5.4104 6.17826 5.38592 6.12685 5.2586 6.09258C4.15195 5.7927 3.44193 4.95732 3.43214 3.94631C3.42724 3.38939 3.42724 2.83247 3.43214 2.27556C3.43214 1.92427 3.67208 1.71436 4.07361 1.71436C4.70528 1.71436 5.34185 1.71436 5.97842 1.71436Z" fill="#39B96F"/>
<path d="M5.99037 9.42879C6.46831 9.42242 6.8634 9.81112 6.85703 10.2827C6.85703 10.7478 6.47468 11.1365 6.00949 11.1429C5.53792 11.1493 5.14282 10.7606 5.14282 10.2827C5.14282 9.81112 5.5188 9.43516 5.99037 9.42879Z" fill="#39B96F"/>
</svg>
