<svg width="14" height="16" viewBox="0 0 14 16" fill="none" xmlns="http://www.w3.org/2000/svg">
<path d="M0.7 9.09091L6.3 0.727273V9.09091H0.7ZM3.3775 7.63636H4.9V5.36364L3.3775 7.63636ZM7.35 9.09091C7.49 8.75151 7.64167 8.15758 7.805 7.30909C7.96833 6.46061 8.05 5.6 8.05 4.72727C8.05 3.85455 7.97125 2.95758 7.81375 2.03636C7.65625 1.11515 7.50167 0.436364 7.35 0C8.06167 0.218182 8.77042 0.624242 9.47625 1.21818C10.1821 1.81212 10.8179 2.52121 11.3837 3.34545C11.9496 4.1697 12.4104 5.07576 12.7662 6.06364C13.1221 7.05152 13.3 8.06061 13.3 9.09091H7.35ZM9.17 7.63636H11.76C11.5617 6.70303 11.2379 5.84848 10.7887 5.07273C10.3396 4.29697 9.86417 3.63636 9.3625 3.09091C9.38583 3.34545 9.40625 3.60909 9.42375 3.88182C9.44125 4.15455 9.45 4.43636 9.45 4.72727C9.45 5.29697 9.42375 5.82424 9.37125 6.30909C9.31875 6.79394 9.25167 7.23636 9.17 7.63636ZM4.9 13.0909C4.48 13.0909 4.08917 12.9879 3.7275 12.7818C3.36583 12.5758 3.05667 12.3152 2.8 12C2.63667 12.1818 2.45875 12.3515 2.26625 12.5091C2.07375 12.6667 1.86083 12.7939 1.6275 12.8909C1.21917 12.5758 0.872083 12.1848 0.58625 11.7182C0.300417 11.2515 0.105 10.7394 0 10.1818H14C13.895 10.7394 13.6996 11.2515 13.4137 11.7182C13.1279 12.1848 12.7808 12.5758 12.3725 12.8909C12.1392 12.7939 11.9263 12.6667 11.7338 12.5091C11.5413 12.3515 11.3633 12.1818 11.2 12C10.9317 12.3152 10.6196 12.5758 10.2638 12.7818C9.90792 12.9879 9.52 13.0909 9.1 13.0909C8.68 13.0909 8.28917 12.9879 7.9275 12.7818C7.56583 12.5758 7.25667 12.3152 7 12C6.74333 12.3152 6.43417 12.5758 6.0725 12.7818C5.71083 12.9879 5.32 13.0909 4.9 13.0909ZM0 16V14.5455H0.7C1.07333 14.5455 1.43792 14.4848 1.79375 14.3636C2.14958 14.2424 2.485 14.0606 2.8 13.8182C3.115 14.0606 3.45042 14.2394 3.80625 14.3545C4.16208 14.4697 4.52667 14.5273 4.9 14.5273C5.27333 14.5273 5.635 14.4697 5.985 14.3545C6.335 14.2394 6.67333 14.0606 7 13.8182C7.315 14.0606 7.65042 14.2394 8.00625 14.3545C8.36208 14.4697 8.72667 14.5273 9.1 14.5273C9.47333 14.5273 9.835 14.4697 10.185 14.3545C10.535 14.2394 10.8733 14.0606 11.2 13.8182C11.5267 14.0606 11.865 14.2424 12.215 14.3636C12.565 14.4848 12.9267 14.5455 13.3 14.5455H14V16H13.3C12.9383 16 12.5825 15.9545 12.2325 15.8636C11.8825 15.7727 11.5383 15.6364 11.2 15.4545C10.8617 15.6364 10.5175 15.7727 10.1675 15.8636C9.8175 15.9545 9.46167 16 9.1 16C8.73833 16 8.3825 15.9545 8.0325 15.8636C7.6825 15.7727 7.33833 15.6364 7 15.4545C6.66167 15.6364 6.3175 15.7727 5.9675 15.8636C5.6175 15.9545 5.26167 16 4.9 16C4.53833 16 4.1825 15.9545 3.8325 15.8636C3.4825 15.7727 3.13833 15.6364 2.8 15.4545C2.46167 15.6364 2.1175 15.7727 1.7675 15.8636C1.4175 15.9545 1.06167 16 0.7 16H0Z" fill="#39B96F"/>
</svg>
