<svg width="13" height="13" viewBox="0 0 13 13" fill="none" xmlns="http://www.w3.org/2000/svg">
<path d="M12.4499 11.916C12.2253 11.916 11.952 11.8038 11.6624 11.6851C11.3062 11.5393 10.9024 11.374 10.4651 11.374C10.0277 11.374 9.62393 11.5393 9.26777 11.6851C8.97819 11.8038 8.7043 11.916 8.48021 11.916C8.25612 11.916 7.98223 11.8038 7.69265 11.6851C7.33649 11.5393 6.9327 11.374 6.49534 11.374C6.05799 11.374 5.6542 11.5393 5.29803 11.6851C5.08802 11.7713 4.88666 11.8537 4.70642 11.8927L6.73729 7.30142L10.6269 9.07701C10.8386 9.17402 11.0637 9.22226 11.2889 9.22226C11.5401 9.22226 11.7907 9.1621 12.0223 9.04286C12.4635 8.81576 12.7715 8.40384 12.8667 7.91388C13.4665 4.82719 12.0007 1.81042 9.30133 0.577912C6.52241 -0.690909 3.20112 0.184962 1.40354 2.6619C1.10637 3.07165 1.00948 3.58872 1.13885 4.08085C1.26497 4.56107 1.5919 4.95239 2.03629 5.1551L5.75217 6.85156L3.6309 11.6477C3.29801 11.5128 2.92615 11.374 2.52615 11.374C2.08879 11.374 1.685 11.5393 1.32884 11.6851C1.03925 11.8038 0.765909 11.916 0.541279 11.916C0.242493 11.916 0 12.1588 0 12.458C0 12.7572 0.242493 13 0.541279 13C0.978632 13 1.38243 12.8347 1.73859 12.6889C2.02817 12.5702 2.30152 12.458 2.52615 12.458C2.75078 12.458 3.02412 12.5702 3.31371 12.6889C3.66987 12.8347 4.07366 13 4.51102 13C4.94837 13 5.35216 12.8347 5.70832 12.6889C5.99791 12.5702 6.27125 12.458 6.49588 12.458C6.72051 12.458 6.99386 12.5702 7.28344 12.6889C7.63961 12.8347 8.0434 13 8.48075 13C8.91811 13 9.3219 12.8347 9.67806 12.6889C9.96764 12.5702 10.2415 12.458 10.4656 12.458C10.6897 12.458 10.9636 12.5702 11.2532 12.6889C11.6093 12.8347 12.0131 13 12.4505 13C12.7493 13 12.9918 12.7572 12.9918 12.458C12.9918 12.1588 12.7487 11.916 12.4499 11.916Z" fill="#39B96F"/>
</svg>
